<mxfile host="app.diagrams.net" agent="Mozilla/5.0 (Windows NT 10.0; Win64; x64) AppleWebKit/537.36 (KHTML, like Gecko) Chrome/128.0.0.0 Safari/537.36 OPR/114.0.0.0" version="25.0.1">
  <diagram name="Strona-1" id="tG_68FjKDkYp_2VcecKA">
    <mxGraphModel dx="2604" dy="1407" grid="1" gridSize="10" guides="1" tooltips="1" connect="1" arrows="1" fold="1" page="1" pageScale="1" pageWidth="827" pageHeight="1169" math="0" shadow="0">
      <root>
        <mxCell id="0" />
        <mxCell id="1" parent="0" />
        <mxCell id="CZFwYiIEyRFxqFMBFOEH-5" style="edgeStyle=orthogonalEdgeStyle;rounded=0;orthogonalLoop=1;jettySize=auto;html=1;strokeWidth=6;" edge="1" parent="1" source="CZFwYiIEyRFxqFMBFOEH-1" target="CZFwYiIEyRFxqFMBFOEH-2">
          <mxGeometry relative="1" as="geometry" />
        </mxCell>
        <mxCell id="CZFwYiIEyRFxqFMBFOEH-1" value="" style="shape=image;verticalLabelPosition=bottom;labelBackgroundColor=default;verticalAlign=top;aspect=fixed;imageAspect=0;image=data:image/png,iVBORw0KGgoAAAANSUhEUgAAAtIAAAMOCAYAAAAz4eFKAAAgAElEQVR4nOzdbWgbV74/8K+WXnCgFxzYCyNwoCoprEMDcfhf8IjbF5GTQhV6IRIOWGIvZJUupMoWGrtdtpb9QpaybGtnoY22sLUb2KIxxGgCW+LAplFedJEMu9iFlLiwIVOIQQNbsKEFC1qY/wvJ9kjygzSWNE/fD4i6ih+Ofz7nzG/OnAdoLlGSQhoADcmC2UWxrh83tacrOW12Iq6FzomaD6jEDD5NPBfTUlJBK/1odiGtaFNbX32gZT8c1WLnAlq/sBU3aL7BgBZ7Z1a7+691swtpI5taISluxzBVNLs8FlNMbcemmVdIKpldYmv692Pt7qe7tdlx7S6bq6ZpmlZINl/Ptl/DWY01bsf6v+5qs+/EtMDLwnaMhJcDWujKTe3uKivaXtb/dVe7eSWkicd1echwXJuWl7V1i+UhMLsA3fFUyw6DifS+lrWU0EQneTymza5uml1YC1nWpo83c4ERtMDEA43d5sGeShFN0MWOiXQdJtKH8+NTLfdOUDdQUP8KadlnZhfSGphIH8a69mAiUNOX7fYSf3NXe2p2US2libgNxrW7itnl3PEzOFl5A+o3i5i5OITogtmFsboyoAIQ+hFJZlFQ1rH5owZN06BtruPxYgpBAcCTOVw+M4bF78wur1WUUX4CAD4Er9zE3dUS1jercdM2sa48wPSwD4CK/NQQop8oJpfX2spLaUQjElSzC2ITqeJWXdv7lRsRzC6mdfxQRPpVP8IfLEIRAoh9eBePS5vbsdr892Pcvd6PHrPLaRHixMH1a+v19NOg2cW1kDKKU0EMTeWhwofQ+w/wdF1Xz5QCZt8OQABQ/Og8olNFlM0usiXo4yYi/mkBT7/fJQ9ZyuD8SBrFH8wub1XXUvauKmipve5kOCK9h2Xt5ttZ7fE+Q6abxZQmVuMY+DPvoSsK2vTwtPZg3yGYp9rsa9X6d2paW+5W0exGyWoRARogaqlknCPSe9GNSDM2rShpuV8K2yNaOcXs8jjI9w+00eoTzSCvDZr2r1ktuPVE6C97xWNTK0wM8CmIzubfRqsj0YI2+rfdn3xvrkxvx3YgWdCs8Hzc2SPS1IIBxG9E0N+792f0DEYQO1f5OH+/yFFDAICI0dujCOw76OfDCbH64Vdljjzs5oci0iNRSKqAiJTF+Dmv2SUih9n4PIX4ZyqAELLzNxF6wewSOcfKJwnMqACEUYyO+MwujunUlTwWAQAhhM/sFY8eiKEoBgAAMpS1LhXOslTIn8xU8orXUoif2/25UM+pUaTer0RtZTKL/Eb3SrgXhybSIsZrHjsVkDK7SI5wBEf2SbRpHz9W/3uqh4+N6/1QRPqcH4klQEzKmOOFmNpOQe7jDFQAA+8nEHnB7PI4yHeLmHu/CAAIXo8j8LzJ5bGUDWxy5KQ55cdYrk7BFV45jf2uAgOvhFEZu8og/w/zA+zQRJo6YxObFrj7s51vJdz8pPJh8M1QdQSCKhRIb4aQWAKEX2aRnRB5o0Ht95WMzD0AGED0HFtg+5RR/DiBjArgVAoJ3gQDAISXTlf7+TwSSQl7rYxRVwtYAQBhHOKpbpXOor5Tt+Pkf+GAJ5K/GEC4+uHKt6VOlqopTKSpeU/ykO9XPhwQ+8ElTAf4QcXqvRmEz1WmLASuF5B9gxeaHWUUp6KIfqZC+OUs8n+K7DsKQY0Sogcez9bLixOBIVx+dw6LT3jHq6c8qiYsCML/8gaUexlcvTiEE96t2L0I/6uXkZ4vQv3J5MLayZMsUpOVyIbejUHkXXDFqTgyycp8PvWzKPyBMUhf1bXJH4q4+b4MQEDkRgwBxm7HT5v7/3vvUWyl2nnVApNMzZ6k3R26xYdcbGiQfmHEgDa9YnZ5rKp+oaugBd6Y1nKPuPFdve1t7gZTWuH7un/kgrq9NbX9Hbdb1Nvexu0Xom5fWntsrWVdm9qDdwQuot7TulZ4P1SzzaLwckQb/fSutlzMavHByt7IsU8fW2LBnPl0W/C+8+CAmFgrp+OINDWlvDSD0anKyIPwzjTibn8M1TQV+c/nMPenLPIWuHG2iu1t7oQIsvPjEDmvsnmD47tvQfZ9CY/zsxg9I2Bru8XgH1fMLq0FqFAeVT/8pgh1IIVs/jFK3+/EbnP9KQqfxiEC1ttay6q+yiDxgQpAQDwZ45S1Br0Q35jG9O/E7XfUryXM/Oo8TotRZJb6Ebv9ALOXuN1iRT/ES9Xn3B8kMLNk/tznppmYxHeRte5ebGd7W7I9Rg9pdz9uautKQZv9TfWUPiGgpYoce9hcnd3Z5m6veHBE2rjvl7Xpre0WEdNy/za7QGYr7RzIdSG77+EX64uj2wdBBD/lNm57W9fuXtnaSpCj0bvZXLmphY5X+rnxxVLl5OBiVpu+UnsYkG94Wiu4vo1W6XMNIaCNy4+1ki7f2Fx/qi3LN7XYmZ1TIq2Q0zGRpv0pOS229ShUiGhZxewC2ZHuonMqpRVcnktXHrMLWkTaJ1FhIn0om/nx7YQw/le3T/DQJdIHnrr3VJs911zS7WabxZQ2cMB+v672LFdNCPfo59afanevB3dO7+MA1badG5C9X8KZwPaZFlY4uZVTO2hv3+WRGAlj7gkAIYLZh3PcNsqQXgQjscqHX91E/mtzS2MNKqTIi7qFcnUvMbH9mTsL6sKQXL/XanN6XjoBf/Xj0g82ekRqOh9ODFY/vKNwr/xdKcgmE5XFm/vs9+teZeT/FIekAjiX2H0nk14fgr+7i4IUqSzaX0og/gmnYQFAz6k4co9KePBhHKEzuk0NjosIXEohWyxB+TS2vdiw/5j52x4wkabdfbuIq68PIb2E7SQ69gt2mIb1nUAIAKBi+V+8PBN1jwDfyeqHXyo4cLOs/+hwcWyufD+DxD0AEDD+TpQ77TRYRfFWtY9/5TT69/lM38gYxqrrjVaKq7xx29IjIPCbm8jlH6O0tQbkXwU8+HQckUEB+NcyZABAHP6XTS4rmEjTbr6VcPnceWSWAByPIVvMMok+rO8UFKofep93dyzFiV0WytW/ijtHKKWKW+/nEOkzseB2Ut7E1mZbPc+ZWhJL8B2v3MZCXcbqvk81NrC+lWnz8KRdrCAzWT19bngGV88wQo3KaD4j9sL7UifL4kRlFO5nKx9eCcJvgUPimEhTjfJXMzgvRivTOQbH8aA4y+kcbaA8KlT71gAG9juHnagNlC9l5AEAQQQGzH/0aTbhv4MIAgBkZO/vdTwGgPIyCneqXxPycyeKOhufz2F6CQAGkLoW4lkCu+pBz9auVl8uY3Xfz1WgfFn98Oe9vHFrQnlpprpbjIjpXwdhhaspE2natnE/gcDAGBZVQPjlLB7fTyHwc7NLZW3qwhjG5lex7/EX30pIvLdY+fi1CALHu1EycqQ1GWOTi1D3m/asq2/ClTjCrG/A8TDiVypp3+J7CUjf7v5pykIGaRUARIy9Lu7+SW5VLiIzWTlmHZcSiA8y7dvdAAL/V60791NIze9946bM38RNFQAEjA8HLJEUWtq3EmIXEigCEJMz1tmG16xVjt3FXTsOsr4Y315BLP7mLlerN6kkhbY32k9JD7THpfWdjeS/f6oty9M7K5C560nzuGvH7p5ltRCgQejXIsmsVlB09W1zXXu8yPq2J/3WWsdD2nT+qbb5Y/Xfvn+qPdAdniFeX+YhGXW2+jpA5IFcB/m+oKUGdw5HCl6/qz3+906N2vz3Y+2urr75LuUO2E3GRZ7ltNT7D7Sn27uYbGrryrKWq4uXlXIUhybS9afL7fNiYq1pmr6TbOHF2GklObazhdF+r+Mh7eYKL81NYyK9u1JOizRV32La7CrrW73N1dmd7Tx3ffm00IdMoht8/0Abrd6ECFfu8sTMZvz7gTau3+941xdPIG2wNViwT/u0Wrw4tYPoEIQLsyh9/xTL8izGr4QQGNStYRf6ERiOY1oqoLSaQ/wUH4XSIQkhZDdL+9c3eRnrq7NcILyLnl/EMLtaQkFKIabbWkt4OYDYO7N4UHqK3G8GOFe1zsonCcyoABBE6po15qVa3s8DSOUVlIpZpC4FEHh5Z0a5b7Ba354peJDklI4az/XCt+t19AGerlfap9Xi5dE0TTO7EEREREREdsMRaSIiIiIiA5hIExEREREZwESaiIiIiMgAJtJERERERAYwkSYiIiIiMuC5dn9Dj8fT7m9JRERERGQ5HJEmIiIiIjKAiTQRERERkQFMpImIiIiIDGAiTURERERkABNpIiIiIiIDmEhb1NmzZ80ugq0wXtQNrGetYbyoG1jPWsN4tRcTaYs6e/YsK3sLGC/qBtaz1jBe1A2sZ61hvNqr64m0pml8NfECKpXd7HLY5cV4tR4vtktjcWM9Y7w6GS+2S2NxYz1jvDoZr/1wRJqIiIiIyAAm0kREREREBjCRJiIiIiIygIk0EREREZEBTKSJiIiIiAxgIk1EREREZAATaSIiIiIiA5hIExEREREZwESaiIiIiMgAJtJERERERAYwkSYiIiIiMoCJNBERERGRAUykiYiIiIgMYCJNRERERGQAE2kiIiIiIgNsn0gXpzzwTBXNLcSahLDHA0/NKwxpzdxi7cYS8bIRxouInMIS/ZmNrpdmUufDdTHywHNRgmp2waiBvRPpNQnTk2YXAlC/zAFSCZqmbb8KSRnRYx6kl8wunY5F4mUbjBcROYVF+jPbXC9NpSJ/B8g+03RxKiC1EIXXkwaHdqzFnon0Urpyd3YsCtnssgAQRnLIjQg174kTBaQALCsWuH+0WLwsj/EiIqewWH9m+eulJQiI3M4h0qd/T8R4MQVgGQpH7y3Fnon04Hj1Dq2E7LDZhdnDmoJls8uwxQ7xshLGi4icwg79mZWulxamKoySFT1ndgGcSYV0LQp5OItS3Z03ERERbeH1silrEuIRGSGpVDdSTWaz54i0VW0vovAid6EE7XYE7BaIiIjq8HrZlO1Fh8dyCD/TGqbFkPmYSLdTXwS56sKADOJciUxERLQbXi+bIozkqlNzMsA17txhRUykO0QYySA7LCN6i+triYiI9sLrZTMERG5kEVqIYo67m1gKE+lOe6Tw7pGIiOggvF42hbubWMu+iXT5YQJe3Wbgl+9sdKtcDqBAWQBw0sd5X0TUFuUNBSv3JGQmryL86hD8L+kPbPDiRGAI4TcTmLuzArVsdmmJmsXrZVPWFMgATvtsGqWtrRjb8ArPW+dmYp9EuozC/bmau8O5z/NgKl1PhXSxcW5XccqPBELIXhLNKRaRBe16WtehXw4/oGBDweJHV3H+pBdHjr6I08Eork5lIN/Po/hE/4kqVh/mIX+cxuXQaXiPvIjwB3moP5lVcHsoL6Xhd1N9MhWvl01ZkxBumAtdRFpMAMNZxAZNKhftau9EulzA4u8rf8bga8HKe7eyWLTCYoDtuxovogsAJv0mdoACAheA6LHai7t/MoWCVr+hukksFS8bYLzIQtR7Yzj/VgaLX7c6AqNAfncI3lcSyH/XkaLZ37cSYhcSzm7XlurPbHC9tIK+AMKI1swI8Hj8SCQL3N3EgvbcR3rjvowZAEAMsfeD8N5bxBxkZO8riFzyda2Auxoch6aNm1sGHWEkB23E7FLsw2LxsjzGi5xkKY2h14+gcH8c4vNmF8ZCNopIj0QhWecJcWdYrD+z/PXSEgREbmuImF0MasoeI9IbyN/JVD68EkLg5QCClyr/u7iQh9KdshERkY7wchDxiVnk8st4ur6OzR+16tZYGrQfN7GuFJBNhtAw1LGUQPyPRXDadNUPRaRf8yPB3Q+IzJMs7PRfLb6stJ/27on0d3ks3qp8OHohgF70InAhXnnjnoT8k12/iohoXzt7oh7mtYxpV80RPIpQMovCs02UHt3FzWQMoTMD8PX2okf/TPG5HvS+ICIykcNTJYtI3XVmZTKLPBe5AFAgvRliEk1EbbFrIq3ez2IOAIRxBF/pAQD0ngthFACQR+bzlW6Vj4iohjqfwpguCRpIBjBgXnE6ThiZRW4iArGvp/kveiGCuYXxurhkkP+H28ekyyhORRH9bGs+h4CIlIV1Jj4Qkd3skkgruPuZDAAQLgXg3+q7e/wIvlP5cOUveTCVJqKu+yGP6Wuy7o0Qxi6JaCHFdI2e/wkjeqr2PeU7Nw9Jl7H6SQyhyZ0ldmJSxtyID0dMLBUR2VtjIv0kD/keAAiInfPrLlA98L82Xlkt+lUW+a+6VUQiooqVTxKY0S0OE28kuNJ/Tz70czexbcp8DIFf72wpJiYLyE/wJoyIDqchkVYeSlgEAOEqzp+p7WJ6xABiAgCsYPpzR28YRERWsyYhdU3X7wijSL3h5Ekdh9WDHu7SAaCyV3Q0spNEC7/MIsskmojaoC6RVpBfyAMABq4F0TCY0RPA+TcrK1jUP91F3u3T7eiQikjzIIQWuDleZeQ/HIV+UkfwehwBJor7KEGtWxjufd6FqWP9XtGDKch/ijTubEJd5ub+rAX1pwFOMUpWU5tIfyUjcx8ABhA9t/tIj3juamV6hzqHfJGZNBm0lIbH4weK+t0Yxhtv3qjC7fH6KoPEB7o5HadSSIwwFdrXxioKd/RvBDDQ32tWaczxrYzL53R7RQ/GcXee+2mbzu39WZOKUx54RKCg37VoglGymppEeuV+trqIcAVjA3scxysmqo/HVKTvFbgvKbVuTUJYTCBV1DDuqm3MDHJ9vFRI18d0o1UC4sk4RBcOrrZi46GMjP6N1yIIHDerNCb4oYj0SBhzW6PyQgTZ+ZsIvmBmoYj9WXPU+XD1xEcH32D8ZRT+lxrzzBfFIQxdvIrERxLy31h/gbQukV5BXmpxL44PZO5LSi0r3opCHs4ixk60KW6PV/n+NEYXdG+8lsLo6y4bWW1VuYhMcq7mrdgbYRdNZ6jfK1pE6s4cIi+YWCQCwP6sOUXMRWSEpJhzk2gAeFJEcZdzSZSlPPILGaTfimKo/yi8gcvI/N26yeZOIr20iOmvAGAA0ysHHIiwMl3dnzSDxS+t+8uRFalQHgGhC8Bc3V1oeN7pZ/Ua4fZ4rSAzOYOd31TA+DtRFyWERpRR/GAUCf3OSoPTiF9wy83Hxu57RQ/yEYb53N6fNWlNwTJCCGOubrQ2DGnN7MJ1n/pwDldf6cfQZB5WzDiriXQZ+b/erFysTkUROLXflwA4FdjenzRzx5q/GFmVAmUBkCMKAvqbs2IKcsTLzrSBu+NVf/gKhmdw9QwTov0o87V7JQMipj8edfShNTvKKE4F4d/+/QVE/lJAlvPpLcLd/VnT1hTIkBF9EqgZxCwkZUSPuTOZBlTkp4YQnCpabkpxJZEuF5C/VanAgTdDTXS4Awj8X/Wzbi0i/13HykdOs6ZgGWh8ZDU4jkISkCNzXLmt5+Z4NRy+ImL6vQiEPb+A6rd52xqNHT1ocMQh6m8ixKSMuV8yibYMN/dnLVCVZQAhZC/VTuwQJwpIQUb0ll2j1ANxOI7xD7O4W3yM0vo6NutmPGyur6O0WkDuwziCu6zpKE7Gkfq7tVLpnwFA+ctFpFUACCByprlOZ+BMtJpwzyF7n3eR1KQ+H07v8U++4yEAy1Bcebe9BxfHq/7wFeGdFOIuSQiNKC+lERATNYnI1sl9bsC9om3Axf1ZKwTfnlGCbxjAIwW2zLoGR1G4fROp30QQHOyH0Nvb0D57ensh/EJE6Dc3cfdf6yhcD9YNnqwgfT0LpXulPtDPgA3k78xU/q+VVd2nQoifq3wof3bXUr8UWZ/8hDWmFa6LV/3hKwgi9esAk6I9lJfSOH+hPol208l9K5jR/f7CGe4VbWWu688MkXlTgV6Iv8tBTtYtubwnIb/LIkWz/Azf5SF/XPmf4HCghY7Hh8BwoPLhPdlSvxRZmYhAEsBkvuERnvJEBobDCPDIZx03xqvx8JWBZAJRN23d1oKNv1eS6Lz+6PRkAYuuSaIBoAz9EJ36MAH/f+6xhWvDy49EzfdKwF//OTwEo03c2J8ZMBhACkDifkOUoCwAoQsBF01x64H4TgrjNb9wHiur1lmd9zP8PITZ6tyUu5dau3/3vfGgOq/lLmK8yFGTxEtZhJCAX3dxquyZCaSucQ5sPdfFq/7wFSGO1BU3JYXN27ifQPAVfRItIHC9MhLtlj06yF5c158ZIiImhYBJP9Lbi61VSBf9SCCFsRGXRanHj8Ava99aVdfNKcsunjO7AORCfRHkNB/SHj88k1tvhpB9piHC0YhGropX/eErgPhuDMGfm1Ygy1LmL2MoMqebVicgeGMRubcHeNNB1uWq/sw4YSQHzZeGR/TsPDEZzqKkufFmowdH/rP2nbyqAhaZvMVEmkwiYlzTMG52MWzDHfFqOHxFGEXqDXds3Na8Daz8MYrgtUXdbAYfYtIDzLpkYSHZnTv6s0MbHIemMUpW97ODP4WIqBvqD18BQjfGEHjetAJZz08KpF+dxml9Ei0EMP63ZZcn0ZXEbN+DxPZ8FZCq+V4pFOo/Z8LR58sRWd+Ptf8besE64/JMpInIEhoOXxmcRsJtcwH3810eiVf9iN7S7XhwPIbZh3eROscZ0UTkVCsofF77jk/wmlOUXXBqBxGZr+HwFQHx92IuOY3vYOVv5hA7cxmSfg3mmXFkb6cQ4PxxInKw8tIisl/p34kj8N/WWQnCRJqITFd/+ApeS2H0dY6yAoBy5yqioUzNAkzfpSwe/DkCH3twInKyH4qYeTuBFf17lwLwW+jywKkdRGSuhsNXBpCajFpkPbbJ/pmGvyaJrmxvt/wpk2giso/i74dw+aNFrH7XwvHeGyuYiYSQ0E/5wwCm3wpZantPJtJEZKLGw1dwKYH4oHUe25nqJ9QdBawi/54fR5s6aGSP10XJnscLE5F9/ZTH3FvnceK/jsB78jyuTs5BXlqFurGB8k+6zytvYOPbFcgfXcZQ/2mMfV7bWwnvTCN+qrtFP4jrE+niVJsuMktpV1ys2hYvl2C8DlB/+ApEy402EFEFr5fNUCFd5MmY+1G/XkRm6jLC4gl4jx7Fkf/QxerIURz1nUb4rbma01oBQDiTgjwZsNw++S5OpCuV3f8oi9L2NkclZBGF15NuOL503+80H4ZHXEb22eG+j7W1L17uwHgdrPHwFeGdlOVGG4iI18vmFJH2eBE9WajdXnHS77Cbhe7zDd/E4l/HIVpwO1T3JtJreeQW6o8kFRC5UTm+NL+0z9fWKGIuIiMkZXSnMgmI3C4ghQSm5x3SdNoWL5dgvA7UcPgKQph5y3qjDUSux+tlc5bySCCE7CX9vuMixospYCGH/JppJTNd/+tZTF8Jtr725XgQo9JjLN+OY8CCSTTg5kS6alk5ZMNdU7AM4LSvfr9bH3zDgHwn76i70EPHy2UYr731nJvWjW5p0LQcjwiuNzhu8JCRfV633XjE8H7qD3MZB49f2R2vl82Qobg4Yd5L76kIRv90F09/3ERptYDcp9MYvxJC4JxYl1z7IJ4LIPbOTWSLT7G5ehfTI/2Wnu7n3nXffQGEh4FoxAvPk8L2yVXFW1HIw1lkBpv8PmsKZACnG/5BgO8kgEkFCmD/C1e74uUWjBcROQWvl80ZDCAFICF6sCyVkBsRAKiQbiSAZIEDBQDwXA+EX4gI/UJE6NKo2aVpCxePSAuI3NZQkkLApH97orsfhdZGbPp8CMENI49tipdrMF5E5BS8Xjan8nSjkATkiLcaJy9yF0o8Zt7BXJxIV1Yge++Eq4+XC0gBlU6ilUUBfRGMJQE5Eoekf5yzJmF6EsCwzzH74bYlXi7CeBGRU/B62YzqokxUFxs+yyKEalLNnTscy72J9FIa/skQsje27qar8+SKKWAhingLix7ECQ0lCYge023hcg0IJwGc9Dlj9LGN8XIFxouInILXy6ao83FEF1IobI0+90WQ03ZG8tNcZO5Irk2kVWUZwGn46ucsDcaQHQbkJ0pL308YydUt6PFBmQRCx+19f72l3fFyOsaLiJyC18vmKE/kXUfVhZExpODkKS3u5tpEumJ5l9W1CpSF3T63RUt5JJDC2Iid76/rdTBejsR4EZFT8HrZlIXKgska1d1KyJlcm0hX7hBlRI/VbgJfnPIjAd2jGQN2Npx3zjZKnYyXEzFeROQUvF42R7xU2VfbXzNvXIV0rbq7iRNuFKiBe7e/q87xCkx54Pckdt4ezqKktbirwpqE8LEo5MN8D8trY7xcgfEiIqfg9bIpfRHktACki154PdGd95MF7trhYC5OpCvECQ3axCG/SV8EOS3SlvJYXVvi5SKMFxE5Ba+XzahsFejk35BquXZqBxERERHRYTCRJiIiIiIygIk0EREREZEBTKSJiIiIiAxgIk1EREREZAATaSIiIiIiA5hIExEREREZwESaiIiIiMgAJtJERERERAYwkSYiIiIiMoCJNBERERGRAUykiYiIiIgMYCJNRERERGSAR9M0ra3f0OPZ9f2zZ8/i7Nmz7fxRRHQIX3zxBQCwXRJZCNslkfV88cUX222z3nPdLATAzoHICuo7BbZLIvOxXRJZz35JNNDFEektbf5xjvWHP/wBAPDb3/7W5JLYA+PVmvp2ynbZHNaz1jBerWG7NIb1rDWMV2sOyms5R5qIiIiIyAAm0kREREREBjCRJiIiIiIygIk0EREREZEBTKSJiIiIiAxgIk1EREREZAATaSIiIiIiA5hIExEREREZwESaiIiIiMgAJtJERERERAYwkSYiIiIiMoCJNBERERGRAUykiYiIiIgMYCJNRERERGQAE2kiIiIiIgOYSB+COh+Gx+OpfV2UoJpdMCIXY7ukTmL9OqQ1CeH6+HnCkNbMLhjZmZntkom0YSryd4DsMw2atvUqILUQhdeTRtHs4hG5EtsldRLr12GpX+YAqaSLn4ZCUkb0mAfpJbNLR/ZkbrtkIm2YgMjtHCJ9+vdEjBdTAJah8O6ayARsl9RJrF+HJYzkkBsRak/8G6AAACAASURBVN4TJwpIAVhWOK5PRpjbLplIt5mqLJtdBCKqw3ZJncT6dUhrChhBardutcvnuvJT3GJNQjwiIySV6u6MiMg0bJfUSaxfh6RCuhaFPJxFqW6kmsiwLrZLjki3wfYk92M5hJ9pDY+tiKj72C6pk1i/Dml70aEXuQslaLcjYATpsMxol0yk20AYyVUnt2eAa1zBTWQFbJfUSaxfh9QXQa66MCyDOHfuoLYwo10ykW4rAZEbWYQWopjj6mMii2C7pE5i/TosYSSD7LCM6C3ue0Lt0r12yUS6Q7j6mMh62C6pk1i/DumRwlF9artOt0sm0u22pkAGcNpn79le5Q0FK/ckZCavIvzqEPwv6Tc69+JEYAjhNxOYu7MCtWx2aYkO4JB2SRbF+nVICpQFACd9nCdN7dOldslE2qg1CeGGuTdFpMUEMJxFbNCkch3GhoLFj67i/Ekvjhx9EaeDUVydykC+n0fxif4TVaw+zEP+OI3LodPwHnkR4Q/yUH8yq+BEVU5sl01QPhnaudGd4uPxjnFp/WofFdLFxrnQxSk/Egghe0k0p1gt2vUUvUO/eKCPYSa3S932d0WkPX4k9vlk4eUATvz3ACLDcYRf86G3s2Wztr4AwvDC64nWvp8sQJuwR2dQT703hvNvyQa+UoH87hBkeRwPPk8h8PO2F42oOQ5slwdTkL+TN7sQ7uDK+tVOAgIXAO8xD2ojmEJBGwcjSIaY3C5b2kda/ToP9es88rdmkHh9GovSKAae71TRrE5A5LaGiNnFsJKlNIZeP4LC/XGIrq0XZC63tcsNFH9/GYl7ZpfDLdxWv9pPGMlBGzG7FOQs5rbL3ad2JAu688q3XptYLy0j+3YAAgD18zEEr+fB6bHOJLwcRHxiFrn8Mp6ur2PzR11d+HET60oB2WQIvvovXEog/sci6wVRh5Q3NrDx7QoW52dwOdAP/3t5LtAiIjJJC3Oke9ArDCByYxap1yrvqLeKWO1MucgURxFKZlF4tonSo7u4mYwhdGYAvt5e9OifXTzXg94XREQmcniqZBGpm8e/MplFfqOrBSdyOBXSxcpcyiNHj+Ko7zTOR8Yw95ApNFG37exVfJjXMqY5p94RDCw29OHE1pQTFRx5dBBhZBa5iQjEvp7mv+iFCOYWxjFQ82YG+X+wZhAREe1GnU9hTLe/8UAyUHcdJbswkEiXsfl99UMBaCHlIofq+Z8woqdq31O+45A0ERFRgx/ymL6mX9gfwtglkfmUTbWeSP9QwOJnlQ/Fd4O8gyIAPvRzuTUREdGBVj5JYEY3K0u8kUCkz7zy0OE0n0j/VIb6lYSx/41iRgV8l3LIvs00mgCgBz3cpYOogyqr0neda1lMmV04ImrWmoTUNd2O0cIoUm8wl7Kz3RPpSX/jZuH/cQTegShmHqrofyOL3Pu77NhgE8WpvTdFT3f4THZnKkF9UvuO93nnPKSq1JfGQwQOst+m/eF5I4vEikg7eAP/trfLpXTt9+FBJa7Gfr/CaH/WgZI4uj/bXRn5D0ehn9QRvB5HwIkDUdX+19i17vA/t5v9vqGTDVc/ieL0f3kxNJmHbWfCDmdR2mV0Z5yraFu3sYrCHf0bAQz0O+O4HnU+DP/kYb5DCoVd6llupMUjS5fS8Hj8QFH/fRx4gEGb2mVxygOPiNrY88AMcnm/f/j+rE3c0p/V+yqDxAe6xPJUCokRuw5J7mNNQljc73i/zjCr329hH+nqXtJKAbNvByBARX5qCP1vLto3maa22HgoI6N/47UIAsfNKk0brUmIR2SkkiY/Oq92Sqmiey74h1FJFnhSGlEN9mcmUyFdH9ONuguIJ+MQnfPwtkqFdC0KOZlCN2uamf1+iyPSlf2DYzceoPDnIABA/TiBzBK3OnOtchGZ5FzNW7E3wrad9rOjiPSxKCCVMH7O5JLcikIeziLmqouOUUXMRWSEpBiTaKJt7M/MVr4/jdEF3RuvpTD6ujOe3OoVp7yIIovSRKCbP9XUft/Q1A4A8A3HEQcArODmQxsey7IQhZfzJw+pjOIHo0h8pXtrcBrxC3bvHFRIF/1IJAutT8FokIBfX88uSi2eQqdCeQSELgBzbZlnbXGHbZdrCpYRQhhzdfNgrTAnlEznyn6/nf3Z4cviqv5s2woykzO6vl/A+DtRBww41doeFb4dQVdrmsn9vuFEGr1H4a1+qK4qtjqiVpyom7LyLIvQpN9AkuNuynwMoUn9hUjE9Mejtt8SceeO+nD3to2nXxWQWojC29KiGgXKAiBHFATqdmqQI15HXXza0i7XFMiQEX0SqPlehaSM6DEm027m1n6/Xf1Ze7inP9OrP3wFwzO4esZhczqW0vBGgOwzE6bUmdzvG0+k9YRe2HoMsi+CjBQCFnLI80LblPJSGtGIVHOHHZGyGD21zxfZQOWOOoTsjU7cUYsYL6YAJJBvdpeANQXLQOMjq8FxFJKAHJlz7kp3A+1SVZYBhJC9VNuVixMFpCAjesux0aJWuaDf72x/ZoAb+7OGw1dETL9nkb9Hu1TnvYekjCn7YZvd7xtPpJ88Rr76YeAln+1P5BFeCSMEGYpDO9R2Ki+lERATNR2emJQxZ/vVxyryd2SkirnOdQaDAaQALCtNjrz0+XB6j3/yHQ8BWHZ0nW21XQq+PaMF3zCAR/Z6ekad5ex+vwv9Watc2J/VH74ivJNC3OYDTvXUL3OQTZw6ZHa/bzCRViAlE9VEOojIGbsnUKg+GqCDlJfSOH+hPokuID/hnONNE2LdPrNiAoCM6LE27HVaHZFplfxEOcxPtS9D7dKpiRG1nQv6/Y72Zwa5pj+rP3wFQaR+HXDMtbJGw/kjfiQAyBFvl/ZqN6/fbymRLm9sQFmSkL44hOhnKiqP828i5oCtziqPBlIIuGwlcSs2/l5JovP6o02TBSw6Jone4/S4YgpACNlnbdjrdE2BjBDCrzR75y4ikAQwmW+44ClPZGA4jIBVRps6oOV2WR3xT9xviBaUBSB0IeCsR6p0KM7u97vQn7XMTf1Z4+ErA8kEog7Il+o1rgeqrgkCEJJKnd+r3eR+v/mTDT0eHDl6FC+KUSQWFAAi4lLefo/z1ySE6xeXLKXh5ZZZ+9q4n0DwFX0SLSBwvTISbev58R1TRLp+tGdrk/rkWEuPWsVLWYSQgF+3w8DWwQqpaw6Za9e2dikiJoWASb9uBKS6awFSGDN91wIyBft9y3BFfwY0Hr4ixJG64pRBJ6sxt99/rqXPFvoROOnHwEgI8QtB+OyYQfX5cHrBD68nWvO2+zaHb54yfxlDkTnsPIwTELyxiNzbA+wU9uSDbzgBv6f2dKeQVILWaqPuiyCn+ZD2+OHZPpWsMqJkmbmPh9XGdimM5KD50vCIHmxHfziLkuagizS1hv2+dbihP2s4fAUQ340h+HPTCuR4Zvb7ukRaxLimYbzDP9B8bvk922EDK3+MInhtUTeS40NMeoBZuz2JOIzBcWhaq19UeawaaVshnF5v2/z7DY5D05wbLWqV09tPCwz1Z+3m7L9Hw+ErwihSb9h9Y9hWVf7GXWVSv9+e7e/IeX5SIP3qNE7rk2ghgPG/LbsriSYiImpa/eErQOjGGALPm1Yg6jAm0tTouzwSr/oRvaVbWX08htmHd5E6Z8f5PERERJ3XcPjK4DQSXJvhaK3NkSbHK38zh9iZy5D0ayTOjCN7O4UA53cRERHtruHwFQHx92K2P+2X9sdEmrYpd64iGsrULJDwXcriwZ8j8LGmEBER7an+8BW8lsLo63yK63RMj6jin2n4Q5maI78D12Xkfsft7YiIiPbVcPjKAFKTUXBFkfNxjjRV/IS6IzRV5N/z4+gu+4k3/arft5WIDFIhXdyjnYm1WyzudQ6AxxOGxBMfiTqg8fAVXEogPsgNYt3ApYn0LhelKWMHpRanar9PeJ6pI+2orx+8uegOtkvqJLfWr7b1Z0tpZ/WL9YevQMT0WyE+ze0ys9qlCxPpItIeL6InC7VHWU76W2zMlWTc/yiL0tb3eZYFIl7DSTk5yS71Qyshiyi89SceUhuxXVInubV+ta8/U+fD8IjL1SPKndAvNh6+IryTQvyUaQVyIXPbpfsS6aU8Egghe0l/KKyI8WIKWMgh3+yjz6U5RBdCyN7QnZrTF0GumAImp/kI1e3W8sgt1B95KyByo3I8bn5pn68l49guqZPcWr/a1p8VMReREZIyulMMBURuF5BCAtM2HNlvOHwFIcy8FeCpv91kcrt0XyINAJChHDKwqrIM4DR89Uea9vkQgozclzbrEAbHdSP0bXrd5pHMy4rN6oHNOa5dbquclHm4Nplz0BHM5nBu/WrOofuzNQXLAE776q8MPviGAflO3nZTPHrOTetG6dnOzGB2u3RfIj0YQApAQtTPn1Eh3UgAybGmG4DyRN79H/p8OA1AfqLs/u/kDn0BhIcBue7RUvFWFPJwFrFBE8vmYGyX1EmurV/t6s/WFOweQQG+kwAWFDg0gtRBZrdL9yXS1fPfC8lqp+DxwOPxInehBG1CPPjLq3zHQwCWDz2yTU5VGUEsSaGaXRT8KHCkvoPYLqmT3Fu/2tSf9fkQAp/UUXuZ3S5dmEhXJ6WjsD0hPYTGO+2DCCNjSEFG9FrtAkV1fhoJAKHj3D3S7YpTHnjvhKuP/QpIAZWLkN1XqFsY2yV1kpvrV1v6s74IxpKAHInXzltdkzA9CWDYx32XqWVmt0vXJdLqfBzRhRQKW6PPfRHktJ077XTTiyZEjG+vNt7ZbiWOMFLYbQ4YucpSGv5J/eKHypMQrZgCFqKI23BRjT2wXVInubR+tbE/Eyc0lCQgeky3Vdk1IJwEcNLHp3VkgLnt0nWJtPJE3vWut3JH0+ojp8YFQDmfggRCjZPeyVX2XPwwGEN22MFzKS2B7ZI6yX31q939mTCSq1uY7oMy6ewRfeo089qlO48Iry5oqLlHqa4mPqzi/QSQLHDVLmFrzpZYUxcUKAsATppUJJdiu6ROckf96mB/tpRHAikURjgeTe3TrXbpuhFp8VJl30t/zbwuFdK1yurjjOGGrNsQvIVFi+RM23O2jtUeMlCc8lcuGKwjXcJ2SZ3kjvrVyf5s54CWcTg3gtRd3W2XrkukK3Oi6+fSVE86bHE3BXU+rDuOsrrzB3dkIAA7u8Mk4NfN2aqcvMQLRiexXVInubN+tbE/W5MQ1n2PygJG7r1Mh2Nmu3Tn1I7qXJrIYb/LSA7aSFsKRA4lTmjQJswuhbuwXVInubl+taU/64sgpx326ktUy8x26b4RaSIiIiKiNmAiTURERERkABNpIiIiIiIDmEgTERERERnARJqIiIiIyAAm0kREREREBjCRJiIiIiIygIk0EREREZEBTKSJiIiIiAxgIk1EREREZAATaSIiIiIiA5hIExEREREZwESaiIiIiMgAj6ZpWlu/ocez6/tnz57F2bNn2/mjiOgQvvjiCwBguySyELZLIuv54osvtttmvee6WQiAnQORFdR3CmyXROZjuySynv2SaKCLI9Jb2vzjHOsPf/gDAOC3v/2tySWxB8arNfXtlO2yOaxnrWG8WsN2aQzrWWsYr9YclNdyjjQRERERkQFMpImIiIiIDGAiTURERERkABNpIiIiIiIDmEgTERERERnARJqIiIiIyAAm0kREREREBjCRJiIiIiIygIk0EREREZEBTKSJiIiIiAxgIk1EREREZAATaSIiIiIiA5hIExEREREZwESaiIiIiMgAJtJERERERAbYPpEuTnngmSqaW4g1CWGPB56aVxjSmrnF2tdSGh5PGiZHzvIsUb+oJep8uK4teuC5KEE1u2DkCI6oXyb0/46IWxcxXvZh70R6TcL0pNmFANQvc4BUgqZp269CUkb0mAfpJbNLtxsV0o2E2YWwPovUL2qFivwdIPtM07XHAlILUXh540iH5oT6ZUb/74S4dRPjZSf2TKSX0pW7s2NRyGaXBYAwkkNuRKh5T5woIAVgWbHS/WMRaY8HHo8X0QWzy2JhFqtf1AoBkds5RPr074kYL6YALEOx8lMisgE71y8z+387x80MjJed2DORHhyv3qGVkB02uzB7WFOwbHYZGogYr97dlqSQ2YWxLjvUL2qJqlivNZJz2KN+Wa//t0fcrIPxsqbnzC6AM6mQrkUhD2dRqhupJqIuW5MQj8gISaW6ER6iNmD9MoZxaw3jZVn2HJG2qu1Fh17kLpSg3Y6AaTSRObYX6xzLIfxMa5h+RXQYrF/GMG6tYbysj4l0O/VFkKs+Ossgbv2dO4gcTBjJVafoZIBrXPFO7cX6ZQzj1hrGy/qYSHeIMJJBdlhG9BbX1xKZS0DkRhahhSjmLLmLDtkb65cxjFtrGC+rYiLdaY8U3j0SWYS1dtEhp2H9MoZxaw3jZS1MpDtGgbIA4KSP86SJzLamQAZw2ueM1lheW4F8awyXXx2C/yX9oQ0vwv9qGFcn5yB/paJsdkHdwmH1q2sYt9Y4JF7lDQUr9yRkJq8i3NCHeXEiMITwmwnM3VmBaoNOjIn0oamQLjbOhS5O+ZFACNlLojnFInKjNQnhhjmERaTFBDCcRWzQpHK1i5rHzMUXceTYaYR/NYO5+3kUn+g/QUHxvozM1GWEB7w48lIY6TurTKjbxen1q1MYt9Y4MV4bChY/uorzJ704cvRFnA5GcXUqA7mhD1Ox+jAP+eM0LodOw3vkRYQ/yEP9yayCH8yeifTWgRlbG8tP+qv/b8aJPwICF4DosdqjPP2TKRS0+g3Vzba1Ib8H3ogMIAF/9f+teQKjSSxVv6glfQGEEYW35mhdPxLJgu130VHuXIXfO4SxBaX5L3oiIxE6gcBbi2jhq2gvtq5fJvb/to6bCRwYL/XeGM6/lcHi161OS1EgvzsE7ysJ5L/rSNEOzZ77SA+OQ9PGzS7FNmEkB23E7FI0o7Ihv3UiZ1EWq1/UCgGR2xoiZhejzZT5KPwR46v1ix+dh38jh5W/hGx5EbYOO9cvM/t/O8fNDIxXg6U0hl4/gsL9cYjPm12YWnuPSP+0gdV7cxj71RCGTnp37ope8mPo4lUkbslYWeMDQyKijvpWwlhDEi0g8MZN5FaeYv17rbo9lgZtcx2l1bu4eSUIX923UT+LI/X5RvfKTUS0C+HlIOITs8jll/F0fR2bP+r6sB83sa4UkE2GGvowLCUQ/2PRclPVdkmky1idH8PQsaM4EbyMmVt55PVD8U+KyC9kkP5VGKePHcGLwTHM/ZOdMxFR+5WR//MoZP1bQhDT/1jFgz/HETrlQ69+dKanF8Ivgoj/6S4er84iUjP8rCLzUY5TPIjIBEcRSmZReLaJ0qO7uJmMIXRmAL7eXvTo50Y814PeF0REJnJ4qmTr+jBgZTKLvMVSzrpEegP59wI4EZlBXgWEMzHcXHyMkn7E4/sSHuezSI30QwCg3JvB5fcXucUbEVHbraB4q7Z3Dd2Yw+j/6z3wK3t+EcPcwjgG9G/eX0Tx23aWj4joYMLILHITEYh9Pc1/0QuRxj4MGeT/Ya0xaV0iXcbK74MY+n1lOZWYLGA1P4v4a/0Q9CMezwvoPxPBuPQYq49mETve3QITEbnGmoLlmjw6jthrzc9y7vmfMKKn9O/I4Ba0RGQXjX0YoHxnrSHpnUT6qwzi71WSaOGXWWQnRBw05tH7cgyzK8uYPt7CHQYRERnkxdGDB6NrPt/7UqfKQkTUaT70W3wX4WoiXUb+9nR1a68QZq5HGid57+X5AYxe50pwIqK2e64HtcMUeTx+ssfnNiUEn6W25CQi2k8Peiy2S0e9SiJdLmDx99XnfVdiCLqko1XnwzV7P+tf4XkXPP+s7pfc9d91e5/m6mvK2rszF6c88HgaD905SPvr184+sE7c17oS591fhva5tVk925Xgw+max5p5ZP7Swqr18mMsL+j+/7UgRJf07/XaXr/sjv1/axgvk5Sg1g0eeJ+31iyISiL9zQry1TdCr5w+cEqHs6RQ0HSLKauv3IjDx9jXJITFRNd/bHHKA4+I2phPWPe5jTofhn/yMN+hTfVrKQ2Pxw8U9d9nHNaNnEHDWZR2idd4iyd52a2e7W0AobeCNe+sTIUQ/uMKmpkluHFPwsz2/wmIXwk3/7TRidpUv2yP/X9rGC/zbKyicEf/RgAD/dbKUn8GABvPFKxU37D7Ge7UDBXStSjkZAqpbv7U+XD1xEebJIBrEuIRGalkN6O0eznCYgKpogsv+AbYrp4dwHfpJrK/1PfLKhavnUZ/YAxzS+reo9PfSoi/Obf9v8IvZzD6urUuQGQG9v+tYbzMtPFQRkb/xmsRBCy2ycXPAKD8Q8nsclAXFae8iCKL0kSgmz8VcxEZISlmk06hiPSxKCCVMH7O5JLcikIeziLGJLoJdqtnzfAh8qdFTL9eO8ihPpzBZdGLIy+dx9WPFrGqPz73WxlXR6KQqk+hhTMpyH9qYe0LORb7/9YwXiYqF5FJztW8FXvDek/V9j7Z0DUS8OvnH100fgyvHWzf5d6OdHeB6JqCZYQQxlzd/MTW5x53ngrpoh+JZKENU3wOW79UKI+A0AVgzg3z+Bei8B5mPqCt6lkLnh/A6F9XsfzhLqd9PVlE5q3zOPFfHrwoXsbY5GX4fWFklgBAQODtHAp/s96xuqY4bP2yOfb/rWG8zFRG8YNRJL7SvTU4jfgF6z1V+xkA9DzvNbscphBGcnVz5QpILUThddgirm1LaXgjQPaZCY+K1hTIkBF9EqiJeSEpI3rMWp3DzgjE4aLUnvqlQFkA5IiCgP57FVOQI15HJdPiRN3c1WdZhCb9rd182Kieta4XA7+ZQ+5GcM/PUJbmMDM1V61f/Rj96woe3AjB99yeX+Iabalfdsb+vzWMl6mU+RhCk/orpYjpj0frDmexhp8BQK/Xu3239fiZK7qUPYgYL6YAJJB32iru6jzbkJRBxIRV+6qyDCCE7KXaLkmcKCAFGdFb1rh1qYxAhJC90YkRCAP1a03BMtD4iG9wHIUkIEfmnHnTBwB9EWSkELCQQ77JC4dd6pkRG19LuCoexelriwAA4cwoZqWbiL/ev0ddXcXM/w5g6JqEVWudX2ANBuqXbbH/bw3jZaryUhrRiP4GV0BEymL01D5fZKLK1I7jAwhX35DuFZpaDe5YgwGkACw77Pgv9csc5LZMVTBG8J3e41988A0DeKRYYFRIRf6OjFQx17nOs9X61efDnpE7HgKwDMXBSYDwShghyE3/jvaoZ61TPr+K4MlodboGIP7uAVbz04iNxHHzr49R+v4pluWbiL9WP/FDRf6PUZzoH0L6767u2XfVav2yK/b/rWG8zFNeSiMgJmoGiMSkjLkRq82M3lFJpHv9CF6pvnNrDrlDbfhvc9URQEea9NfNt/IjAUCOeLu0l6o9LlgJsW6fWTEBQEb0WBv2bjZYv+QnymF+qn2tKZBb/iJ71LNmlZfSiP5vZrveickC8tcDtduUPu/DwIU4bi4+xeazAmbfDtSOUqt5JF4JIr3U9A7U7mCoftkU+//WMF5dV15K4/yF+iS6gPyECGvtHF2rutiwF4H/S1XnniwikZTQ9GX7h1XM/V52zt3RmgIZIYRfcdY2gI3zdatzdgGEpFLn91KtjsQm7tenoZU5wKELAQucjikgcrtxj1mtmAIQQvZZG/Zubrl+iQgkAUzmGxJ45YkMDIcRcPABG5VHnCkEmq2btqhnLSgXMXNFd2E5NY6Zt/e/qPT0iYjdeABlNYt4TdyKSFyIQXbZxXk/Ldcvm2L/3xrGq/s2/l5JovO6ZFJMFrBo8SQa0O3a0TM4ikyykiKon0URfS9/4BSPja8lXD13ApdX7DjKUUS6fnRxa9P15Jgp86KcTURMCgGTft2dfHV3DKQw5rgDcNpXv8RLWYSQgF+3w8DWQTGpa11eTd4paxLC9Yu+ltLwtrwFlLPqmTKfqlm1Hnwr1vTuGz2/iODm/QJS+gu+KiE1v7Ln1zhW2+oXGeOsdtl57orXxv0Egq/ok2gBgeuVkWjr7dHRSLf9XQ/Eiez2xv/F3w+hP3AZmXurUDd0ifIPG1C+kpH59RD6dXP27McH33Dd1mTVfYNdd3JQlwgjOWjFlG7qRHV3DEduON/G+tUXQU4rIKV71FhZTe6gA1r6fDhdvzVZ9RCaVucpOqeeqSjeW9T9/wACAy3OE3xeRPzdWM1bK1Ierkul21i/yBjntMvucEu8lPnLOP2qftBJQPDGIu7+zvoj0VvqNkXyIfKXVfhOxhB9V4bycA5XH87h6p5fLqB/ZAzTyaANR8Uqj/EjZhfDVCLGNa27P3JwHJo23t2feViD42g9TO2uX5W/lc0i14I2/352rGcNKo9xd/jg/Xnr36X3pIgA5pDfeuMrBaUNYMAOQz1t4/T2YwT7/9YwXu21gZU/RhG8tqh7UuRDTHqAWQsvLNzNLruL9kJ8J4env1FRvJND7r6MlX88Rv7r6q96XETgFT9C54IInAug30DHTkREB2jXwueeI3WPR0vY+AGwxTNTInKenxRIvx5C9JZuNZ4QwPhfckids1/HtPc2/T0CxJE4xJF4F4tDREQAgD4f+mvekLG8Wkakr8UHnt+V6haPe9HLUw6JyAzf5ZG4GEX6oW7FwvEYZj+/idgv7DKZoxaPCCcisqQeHK07gCB7v4BWl3YrK3Vzok/54LXfoA8R2Vz5mzlETw7VJNHCmXE8KM7aNokGmEgTEVnUAPyh2tUn6gdjSP29hVT6hzwy7y3WvDUQCVjymF0ici7lzlUE+i9D0g1E+y5lUfhbCgGbTxFmIk1EZFHi62N1K/RXkH4lgMS9Jnbu/y6PxP9GMVPzqUHELzCNJqIu+mca/lCmZmeOwPUClj+NwLf3BGPbYCJNRGRVp+KYmahPfItIB7148WIa0sNVqD/o/qm8AfWbPKSpKE7UPUIFAPF6rI2M5wAAIABJREFUCtHjHS81EdGOn1B3aJ+K/Ht+HPXUnSLcyqt+X3gT2S+RXkrvH9ypQx3g3L5yWeiPXFFEet+Kecijr53CqvWLWlKcqv27heet1Rqb1wPx3QxSZxo3GFUWEogGTsD7n7rf9chRePuHEJ2UsFr3K/su5ZD93YBt9ma1MufUr+5i3MiJ7JdID47vcnSnBu1ZFiEAoePd339QnQ/DIy5Xj5DWoGklZBGF11LJaWUPzMbYlZAdBjDsg712buwQC9YvaoUK6aIH/kdZlHR/O0S89r0Jel7E+F8XcXPYaN0TEJh4gOVPQ2zjh+bA+tUVjBs5l/0S6T0Ub0Uhm3J0ZhFzERkhKaM79llA5HYBKSQwbfU77qU5RBccdNR0h5hXv6glS3OILoSQvaGrz30R5IopYHIa0pqZhTuE5wcQv72Mx9Iogi1MzRDOjGL2H6t4kAxw2+h2cGr96jTGjRzMGYn0moTpSSAkxbp/dGb10ITTvvoEywffMCDfyVtsioeeCulGAhjOIuaUo6Y7wcz6RS1RlWUAp+Hrq/uHPh9CkJH70rqt8WC96B+Zxt1/baK0ksPsRByhcwH067seoR+BczGMfpjFg9V1lPLTiP0/ptDt4uz61TmMm8vt9aT3MK/b1hn8c8B6SUD9MgcZKRTMGC1cUyADON3wDwJ8JwFMKlAAy/zBa6zlkVsAUkXrVEgrMrV+UUuUJ7u3RvT5cBpA4ollW2MLeiCcCiF2KoSY2UVxGXfUr/Zj3MjJHDAivTW1wqTRwj4fQgCWFfvdURdvRSFzNPoAJtcvaonveAjAMhQ+KqYOYP0yhnEjJ7N9Iq3OTyNh5tzVvgjGkoAcidfO86pOB7DsIr5q+Tg3en+m1y9qiTAyhhRkRK/V7ppT+TtysSgdDuuXMYwbOZnNE+nKaCGSAVNHC8UJDSUJiB7Tbe1zDQgnAZz0WTJR3Vo8F+Bo9D6sUb+oFSLGt3fN2WmPcYSRwm5rGYhawfplDONGzmXrRLpyNxtC9pL5aY4wkqubCO+DMmnRO20unmuKleoXtUJA5HbtwpScT0ECocbFTkQtY/0yhnEjZ7LxYsOt0cKCbts5C1nKI2HRBWpbo9FWLJt1WLx+UUuK9xP8W1LHsH4Zw7iRE9g2kbbyaKE6H4Y3AmSf5aw34svR6KZYuX5RK1RIF72IIovSbf4tqd1Yv4xh3Mg57Dm1Y01CPCIDyTFr3MmuSQjr5n1574RR0nLWKFsNFdI1HixyIKvVL2qJOh/WHUPsRe5CyVJ7jpK9sX4Zw7iRU9lzRLovgpwWMbsUO6xWnj1V5qjZoaSmss3fk3YjjOSgjZhdCnIq1i9jGDdyKnuOSBMRERERmYyJNBERERGRAUykiYiIiIgMYCJNRERERGQAE2kiIiIiIgOYSBMRERERGcBEmoiIiIjIACbSREREREQGMJEmIiIiIjKAiTQRERERkQFMpImIiIiIDGAiTURERERkABNpIiIiIiIDup5Iezwevpp4AcAXX3xhejns8mK8Wo8X26WxuLGeMV6djBfbpbG4sZ4xXp2M1760NgPAVxteZ8+eNb0MdnoxXnx148V6xnjxZb0X6xnjZeaLUzuIiIiIiAxgIm1RZ8+exdmzZ80uhm0wXtQNrGetYbyoG1jPWsN4tVfXE2lN0/hq4gVUKrvZ5bDLi/FqPV5sl8bixnrGeHUyXmyXxuLGesZ4dTJe++GINBERERGRAUykiYiIiIgMYCJNRERERGQAE2kiIiIiIgOYSBMRERERGcBEmoiIiIjIACbSREREREQGMJEmIiIiIjKAiTQRERERkQFMpImIiIiIDGAiTURERERkABNpIiIiIiIDmEgTERERERnARJqIiIiIyAAm0kREREREBjgnkV5Kw+NJo2h2OciZWL+MYdyIiMjBHJJIq5BuJMwuBDkW65cxjBsRETnbc2YX4HCKSHv84KWaOoP1yxjGjYiI3MHmI9IixjUNmqahJIXMLgw5DuuXMYwbERG5g80TaSIiIiIiczCRJiIiIiIygIk0EREREZEBTKSJiIiIiAxgIk1EREREZAATadrXxjd5SB9cRfhVP170eODxeODxeHEiMITL72YgPVzFxk9ml5LIJcobUL5ahPRRAlcvDmFIfLHaJquvl/wYevUyxj6SkP9mA2Wzy2tJ5Uq/thXDk96aGHpPDiH85gzya2aX0zzlDQUr9yRkJq8i/OoQ/C/p6li1/w+/mcDcnRWobq5kS+na9neIV3heNfu3IYNsvo80dUr5GwmJawnM3FN2+VcVqw9VrD7MY+4DAMeDGE1OIzXSj55uF5TI8Tag3Mti5uMMcp+vYt/L7ZMi8k+KyN+fwwwA4eUIxj6cwegZoUtltbCfVBQ/m0bq+gwWn+z9aerXechf53H6/0YR6Ote8Uy3oWDxsxlk/pzD4tf71bKd/l/+OA3Ah9D7s8i8HYDAjIJcyOYj0kWkt0YRIjKABPzV/08vmV02uypj9dZlnOiP7pFE7+LJImYiJxB4axFNfoVNsH4Zw7i11doixoJXkTkoid6F+rWEscAAhibz2OhI4exh458ZhPu98P9q/yTazdR7Yzj/VuaAJHo3CuR3h+B9JYH8dx0pGpGl2TyR3jn4of41Pmh22eyojNVPYgj8as5QQlz86DyGfiU7KJlm/TKGcbMWFfmpIQR/v+LCqR5lrH4SRf9/X4XMBLqzltIYej2N4g9mF4SouyqJ9L7zfF6E/9XKfKjMfBEKG4ljlZdmEPu1VDvqJQQQ+/AuHpfWsbmdEG1iXVlG7v0QfHXfQ7kVR2LeOak0kaUI/QheGces/ADLyjrWv6+9UdlcX8fTYhap4fqWCRTfSyDrsmRSmY8hUN+nAfC9FsdNuVDp137UxfD7dTxdyeHmlaCrp6kJLwcRn5hFLr+Mp+t1MfpxE+tKAdlkY/+PpQTifyy68IatKlnYdQChmVduhNOv7KqJEWkFxfuVuVBXI368+J9eDF2TsOrm54ROVC5i5koCRf17g+N48OgBZn8TRL/Qq7uw9KD3hQGE3snh/7N3/6FtXff/+J8aHTiQgQ0bXEECVUihNivEZgNLrH9YTgZR6CASDviKfiGVN+iUBhq7HZ0U/+FcdWy1U0jjDrZogRZdQ4xuYCUOvJMof3ToGjbsQEtUqMktxKALn4IFC0Swgr5/+Ne9smNL15KudO/zAYL6xpaPXz336nXPPed1nhTvVI0y6pAvzWCBj/iIGqQLPaMSMmoRz4uPcedTCbGzQfS/3I3uw1Xf2d0N36CIxK0nePKZCPNH8wLkh+65yS0vphAVq5Lo4zHcWF7Dk4XriJ/1r1/XjPN6D3fDdyKM+Kd3MO66pyc9CE9lkH/6HMWv7uD6VAzhoX74uqti9FIXul/2Q7ycxRMtA7Eq/1uezCDH/IBcZEciLalVd0r/e461tSdYUq4jftoHQEfu4yj6fjmG9Deuve90nNLdNJKPDAcEEZk5CcGf7vODQgjSXNXFVJ/F7Bfu+cAmaqojYdyQExAHhbpGSX1vppF+x3wst1xwx1zpXQYGhCEJ+X/fQOxEt23NamfC6A1kL4vwH6mjl70sIj2fQL/p4Cxy/2ZuQO6x/4j0S13o7vah/2wc1xeeoJiTEBIArKQxNhSD/F3T20hNp2NhLm06EpqSIL5c44+/LGLmath0aOGaguXGNI6ILOnCgN98XuJ7d5TE0z6XzAMDgxKUfybgZw7dcF2/iiB6wnxM+94Vt2tEACwsNhSGErijboxA6jKi7++cf0YdpvwYS/PGA0GEh3bOsdyLcDaOhHFU+lEGuUcv/HYissNPu50/97ecQ3pywXCgH4mPxuE//MKfoAPxoddvdxuI7GOtaodxBHJ+HNcfumGMw8F0varShh99x+t8j64BBM4aDyxj6VveYhHZqbhqPrNDv+yF0wdlS3dlpIyXnvNJTPzK8bcPNupCF29SyMUsl7/bHoHUkZp3d43SjqdrUEwHDll4k2709gdNR3IrxQM0qg1tVLfhDlTUEZ7lkLlqmGAlxBF/o74nTZ2nhPw94zQ1AYk3Q46/ebBXEXpVNRjvYd640IZVGRGPB54r6v7f26Gs15E2jkD+NY9CY9pDHexQt3n5tv606JwbrFUZEX/S7lYQ1aa0jBkxipmtez4B4tVxhPZbPNzpykvI/dV4IIqgn0ldU5UKyN82Hgiiv5e3LgQAKlJHo1UDdc5zgA1ZjCOQBWirDWkP2UHwwbwkqYg1CxmwcLTPfMAxC5t0yJeiUKYkSHY3hehFnpWgPVqAfCWCYz0DmPhiM4sWIP4th/So00ejAXyzjJzx6zcD6NvIo8ury1BuTmDs18Po81bvlRDBhck0Fr5xzK1/y5QeKpg1HjgtIljv1ECn+GwcgVd27sdxzD+M4XMXkPxERs5FfUy9EkByRII0YndLmutAOxseOsy7TkcQhKrC+lnkl52RAjeCesWLKDIoXg7u/81ELbO9FbvH44HnJz041n8G0cnt3UWFoXFkviog89te5y8yBFB6qpmrBb3iRdfXMiZCx3Do6AAib80gfS+Hgml2lgb1noLZK2M409uDY6EJyCztWpuyitkpc8Wn2G8jOzdqcYsVFeoumx5piznk5meRuhjFcG8PvMExzP7L2Qm1PhdBYFJC/lbM8f2hw7cIp4bo6sOA6Y5RR+qjjIO2+rZu+2JQvbkFURs7fx35whqKuWmIP3fPgMeabp5kKHwWRe9rUczcrf1qpt2dQbQ3iAushb+PMtSPxqvKDE4jftY9/c0q/WEaF17vxfCkQ9eXLabgFYHM0wTcUNDlQIn082eO7AIuJCA0GjMfujuG4bdkaD/U+BZlHQtKtuEts5XLLgbkIDcvIPBGFBc+UrDsol1GdT1n/npFs1ieVcXsb6JILXJk+kW0uRjCk8YFZH5M/3W8anMWejEduSvDCF1x2JbqG+uJJDUL8YjdjWmNAyTSZWjfbly0hAH0uiRgTtV9Og6paktc7WYUx3ojSM3lUNBLKBuT6h/KKOkFqLfTmHgrgGOHvDjzkYO2YNm4GITlWddcDMhhVhYw+34EAz87hsgny84c+TIp4/l/dzsuoHd0HDeUPB4X1/D8f8bde7d37o0NVT9zUpE8O4EFF92I1Grn9usCRDmD8RN7/JAjdcE/EkfiWgZ31Mcorq3hecW8O/TztTUUC3lkr8UR2mXuuDoZh/Qvp6TSG4sLp/JIDO7/3U5hPZEu55H7fP0/hfN+9DaoQWSTrn6MfyztHHldUZAUh9Hn7cGhHxvmY/74EHq8fQiExzBzU919GkhX587K1L/MQpnKIzvKCR3UrvxIVKqTwiIe5zKQRnsNU5E0KBcHnDfytUMJ+nfmI/1vZ7D0/4p4LE8jdtaPXqEbXS8Zv2N7594buQIefFB1BdRnkbzpoAGCBigvphD0m7df908p7ljMWm1wHPlb1yG9IyI02Auhe+eGR13d3RBe9SP8znXc+XYN+Q9DVdMEl5H60CFTKRdzSI5kULzsrme4lhNp/fbsRtH7fkycC7piIYvTdQ0msPClhKDF3FEQqn7wFW9nzyueDFStvg4gCUARvfB4PEgt2t1AIqMudHcL6B0SkZAfo/B/5ilJ6mQYyXvOTqWr+V4Por/mkn/dCH6YQebNqjRHzoGp9LryYgpnzlYn0XnkLvuZA9SkG/4PslCmqhLNuzJyuyxS7EjzUXhNn5teROex9XnqxH0YrCXS38kYv7ReGVB4W0LMdY9znKv7Vwk8WH6A6ZHaRxeEoRiu54rI/yVgOh5+uXPTaGE0a3o8t/7KQwIQlouoVCquenRFnaf7lITM30KGIzpmPnbIyFfT+CBemjDP832UR+E7m5rTRkr/Wk+ic4Y8yD+VxwKT6Dp1wf+etLGh3aYclgsOmHw1mNjlc7OIzAiAqTwqlYojn/LWnUiXvk4j6o9C1gEMSlD+wl2jHEcIYvzWE6x9+wCZa+OInQqi19j3hV4ET8Uwfi2DB4U1FHM3EB8SoH9rLrve63Phoz6iNuI7G4NpGbGTRr52EOB7rQFvcyKAkOmAAs15g2h1Kd1LIvS6MYkWEPxwfSSan/8WdAUQfNN8qKCv2dMWOrCX9v+WMkqlIjRVxcLnEq7PFdYXGByPITuXgP9ws5tIduk+HoT4ThDiO7V89zLyXxi/jiPw8+a0i4hq9NN++E8B6XubB3LrSaFbN8yoiQ99IwDm7W5He9DmxjAspg1PMgSEri4g+24/R6It68Khn5iP5HQdcHzFZWfakUgn/R7svRGyD6H3JExPiuhlEk2bVpawYKwnOhLAgOOGKtYXdxF1jkM4VHUeFp7qQGevXngh3/EwYNiQWFnR4NS/tflKWP44itClBUN1Dh9i8gPccOPCQrJIgHirAtHuZjRRDSPSAnqH+uB9uR/hUyEETwXRW/PiDXKL5duzpq15Q6f9/Pgist1zPK+aetlVw1W/UwmvDECAsp34LWvQ4K9znK+I4rcNb1pn+UGD/LthRG8aZtQLQSQ+y0I65bgREnv8z/xlJ68pcrv1S+pgApVKwuamUMdalSG9b1zXHkPsDY5YENmurKFwz3yo76iDP7CP9yMCYHbz69tZqKsifPXUgi8VoRmfrkFE78sNal8n+D6H5LkoUg8NE8OPx3Dji+uIvcrJHI1RPRUS8Alee5pCB8YtwumANMh/HIdxmWH/VAwhPrUgsl35ywVkTEccnhR2BxA8bzygYHquvuJ1pYfKdiIOACcG4HPwvYdR+Zs0oq8Nm5JoYSiBB+oNJtENVF5cQMZ0sxZH8JeMb6diIk0HoGHhYhTRzw0jF0Ic0tssh0Rku2cqpPdnzFtkj5xBwNFJYTeCI3HTtLLl9+O1b/X9TMXsX9KmQ6GLYVdse63dvoBg79h6Ra4NvvMZ5P9PQpADI43zTMXMu0lzbfLzQQQ4Y6ZjMZEma/QcUr8J4MwnxtL8AsRrSY5GEzXKqoyx0AXM3i2gVM9eKt/nkPxNGCnTqJeAxNthx69d6D4dw4SpxruK5NkIZv6zT53eZwWkfx9G0rjRkhBH3A3T1P6TQiA8a9hoZb283dI/RPgcPKf+INQ/DWPskwUUvq/jxCwtY0as6mPox/TFMMsIdjAm0mS2qmBMTEF+WID+zPgPZZRKGpbvykiJffB6h5H8wlxc1T+lID3i9I9potZauzuLC6E+9Bzyou83F5C8qSD3SEOpVDJv+f2sBO2RgvT7ERz7mfnxPAAIb87iwpAbnhX1I/6xZNrVEfoCJn7Zi+FLaeS+0VH+YfufynoBubkUIv19GDM+XXPTwMAPMD+5gI7cHwPoMe1QV+frnAxHl9/+IYf0xTPo+9kheF87gwuTaSiLBeilkql/oVxC6btlKJ+MYbh3ABNVn5vCe9OIc1O7jtbBibSK1J4ncsq0jem+VmVEqt7DnVtAl7E2l0Q02AfvT4zxOISenmMYCEWR3KwlvmW7OL9zPqbZv9oC42ago/DFLFJvRTDcfww9PT04ZIzNT3pwrD+CsY+UnbsXDkpQPnX+aPSmrsFxzHwYrPp7deQ+HsNwrxeHfrwdt0PePgyLSShVG9VwYIBqpX+9gNkrY4j4++Dt6TH1L8+hHvT4BhC5mDbtCgkAwpAEZTLooM9NHfK5vT43I5BX7W5j43VwIr1e0/eF21GO+GovebSYgudoFAOq4X1UCUm/M/eFbyghiMTCMh584KQkGmD/agOMW0MIb0xj6a7bNs/qgv+DO1i4GrJw8yAgdHXJYQMD1G58I9ex8E+nnZfrNaN3fm5WkJ8CgIH6Kuh0iA5OpF9gMY3oPCBdEmu+gKr3ksBIBjHjvLrBBPJTgHI75+zHU1YJvRD/8gBF7QGk0y4atWH/ahnGDcCREKZzGUjn662FDOB4COPyYxT+OY5+V07A7EL/u3dQ+PcNxIZqO1uFoXFkvirgDnfto330vpHB9Nshy+fl0q04+h2VRO9hVcb0JBCWY+YpVw7hsGUEOuSru3z41mJeA/fAAnDYh+DbYZSWl5FbNDwgPu5H0NeH/lN+BE4FEfq5z9EbO+yO/avlXB+3bviGRCSGRCT+Voa+soy8msfSv/NQV4rQ7qmGaRw++E/1Y2AwhGDYrefoTt2/iOFGLgrp0QLuyAuQ/5PH44eb09PWNxwL/EJE+K0IQq+68o6De0lY0H1CxPinIsav1XJe+tB3IoxgOITwL9x3Xqo3o1AgIT/qzCu5s/53ruaQnQcktfbRQgDwn5KAySQCniVknmYhHsHWHVS979Xxuv2If5pF3O52tCP2r5Zi3Kq81AXhVT/Cr/oRPj9ud2s6TBeEE2HEToQRs7sp5Cw8L/ehIufg0WjAYYm0ejMKZSSD2XpHCwcTqFSCSHkCiB71IAoACCPztLL+4U0E9q+WY9yIiDqaPjeNpINHowEnzZHeHKmqY+6q8WcjngCwsaipKIcBKIgedXOFADJh/2o9xo2IqIOpSIuKo0ejAQcl0ptzcIL1jhZCh3wpCmUqj8TGzwqj2a3qDEl/nWXOyJHYv1qNcSMi6mTro9FhRF537mg04JRE+kArQjVo80D4ePXaWwHiJQnAEjQH1j2kOrB/2YBxIyLqXOuj0ZiacPxUPEfMkW7EilBlZWdtAF1bOmDLyAnYv+zDuBERdZ7N0ejMeSdP6ljX+SPSB65P6EdMDgOTAfMmD6sy4qKCsDzr+Lsp2gP7l00YNyKizuSe0Wig4xPpjXmUkDBxgNFCYTSLytMMIHq3t7Lc2FEt6+CVprQf9i87MW5ERJ1HvRJwzWg00PFTO9a3oxQb8VZHRGQrDXkncgz2L9sxbkREHcV/uYLKZbtb0TodPiJNRERERGQPJtJERERERBYwkSYiIiIisoCJNBERERGRBUykiYiIiIgsYCJNRERERGQBE2kiIiIiIguYSBMRERERWcBEmoiIiIjIAibSREREREQWMJEmIiIiIrKAiTQRERERkQVMpImIiIiILPBUKpVKQ9/Q49n1+MmTJ3Hy5MlG/ioiOoD79+8DAM9LojbC85Ko/dy/f3/r3Kz2UisbAfDiQNQOqi8KPC+J7Mfzkqj97JVEAy0ckd7U4F/nWH/+858BAH/4wx9sbklnYLzqU32e8rysDftZfRiv+vC8tIb9rD6MV332y2s5R5qIiIiIyAIm0kREREREFjCRJiIiIiKygIk0EREREZEFTKSJiIiIiCxgIk1EREREZAETaSIiIiIiC5hIExERERFZwESaiIiIiMgCJtJERERERBYwkSYiIiIisoCJNBERERGRBUykiYiIiIgsYCJNRERERGQBE2kiIiIiIguYSLvdqoyIJwJ51e6GtLnFFDyeFFQrP7sqI+LxwGN6WXyvDqFe8cBzxcl/IdmJ/avz6HORqmugB55zMnS7G9amGK/OwUTa5dSbUSh2N6Lt6ZCvJq3/9JdZQC6iUqlsvfJTSQScegOzKmN60u5GkGOxf3UgHbnbQOZpxXAdzEOaj8Lr8EEFaxivTsJE2pV0yOfW73AD/EDag4qUxwOPx4vovPV3EUazyI4KpmP+y3lIUJD90kHjC4up9VGTo7w5oyZg/+pgAsRbWYhHjMf8SKgSgCVoThxQOBDGq5MwkXYlAeKtjbtcVbK7MW3Mj8TGaEBRDjflNygrWlPe1xaDiY2RkyIyI3Y3hhyH/ctxdG3J7iZ0FMarPb1kdwOIXGkxhySA8HGf3S0hImq9VRlxUUFYLlaNvNKuGK+2xRFpopbbnHMdRuR1Yd/vJiJyiq1FdEeziDyt7Jj2RmaMV/tjIk3UYvpcHNF5ICzPcmSBiFxFGM1uTNGZBS6xEsV+GK/2x0SaqIX0uQi8ogJM5TmyQEQuJkC8mkF4Por0ot1t6QSMV7tiIk3UIsYkunLZb3dziIjawpLGMdZ6MF7txeWJdBmlb3KQP0niwrlhDL/mNRU/9742jMjvZ5BjqRk6oM0kOiwXmUQTEQHAqgYFwICPT+dq4rB4lVeXodycwNivhxF4xbj5zDEEfh3Bhck0lEc6ynY3dB/uTKR/0KHenMCZVw6hp3cY0YspzM7nkPvafJenf52D8tcJqEyk6QCMSTSnc1A9dt3d7MAvbuhALbYqI7Jjbq+KlD8JjGQQG7SpXe3K6fHSc5g5dwyHjg4g8tYM0vdyUFeM36BBvadg9soYIv1eHHolgtTtQtsm1K5LpEv/mUWk14vAWzNYWNn/+51pe0MWjz8JQEH06PrXkTk+Mtq2uSGLZ31KBpIIbHydqnmOmo7c7fXtIxTRu0tS46DdDTc3zNjcwGYywMSNGof9q3MdCSKCKLyma18Ayak8KrdEcHihioPjpd2+gIB3GBPzdeyhsKIgGe5D8OIC2nHnBRfVkS6j8PcYgr/jitfNDVlEu5vR9tY3ZEkc6D1cFOvBBCqVg0WL6IXYvzqYi66DDeHMeGlzUQRE6zmY+skZBEpZLH8WbqubCdeMSGtzuyfRvtNxXFfyeFxcw/P/Gfa1/+8anixncf3tELpsaTERERGRA3wnY2JHEi0g+NvryC4/wdp/DfnX8zUUC3dw/e0Qqrcs0z+PQ/qi1Lp218AViXR5MYVo9f/A4zHcWF7Dk4XriJ/1o1foRpdxfP5wN3wnwoh/egfjnT4fiYg60nYN2YO8ljDNaxgR2aaM3N/GoRgPCSFM/7uAB3+LI3zCh+7Dhn/r6obwagjxT+/gceEGRNPws47ZT7JtNcXDnEhvzUGr/dX2c2rLKmbeTprm0AlDEvL/voHYiW7bmkVE1Ar6nIQJw5z+/qkg+u1rDhG5zjLUm+ZcMXw1jfFf7J+Ddb0aQ3o+Yb5m3VuA+l0j23cwjh+R1j6XkHxkODAoQflnAn7m0ETkdM9ymL5kHAcKY+K8n9PViKh1VjUsmfLoOGKna5/l3PWrCKInjEcUtFMp7Rcm0pJa22PDti7nVc4hPblgONCPxEfj8B9+4U8QETnG8t/Ak7tiAAAgAElEQVSTmDF84PivJrktPRHZzIueugYzvfC+0qy2HJyjR6RLd2WkjHct55OY+BXHYojIBVZlSJcMk9qEcUi/5aQOImqxl7qqnoLl8PhA5YfD8LXRgICDE+kS8vfShq8FJN4MgTM6drEqI+LxwHOF1Vj3tLGGoO3XBXS4vTYhYexrVUbumnlxT+jDOIJ8Gsf+tYnXs/owXtYJPgyYpmbkMPuZWvsGK+XHWJo3fH06BD8T6RYoLyH3V+OBKIJ+jkbvpCJ1NGpeTUs7rcqI+JN2t8JFJOQ7bSpZO3k0i+RHhg/8ExKSo9WFpNzM5f2L17P6MF4H1I/wxZDpyPKVMCIfL6OWQnaluzJmtr4SEH87sqMsnp2cm0h/s4yc8es3A+jbyKON+7v3eXff333hm/aqU9gs6pUAkiMSpBG7W9LOdMiXolCmJEh2N4VoXzrkDycMlYoExKfi4DgCreP1rD6MVyP4zl9H5k3jjaqOhUsD6A1OIL2ov3h0+jsZ8d9vzy4Q3pzB+BvtNbfAsYl06amGZeOBV7zo+lrGRMi8v3vB9JRme3/3M709OBaagPxNu+7ufnD6XASBSQn5W7G2urtrN+oVL6LIoHg5aHdTiPZVvjeNcdNjUKntPnjIPrye1YfxahQfxE8XMP2G+amP/nAGY34vDr1yBhc+WUDhe8M/fqfgwmgU8kaeJgxJUD4V2y5feWEinfR3dh3pNb1g+lr4LIre16KYuVt7GW/t7gyivUFc+KKdSn83yGIKXhHIPE3Ab3db2tj2zYbYVluSOl8SAeO15pz1bWXdZRmzkzOGWAlIvBdtuw8e+7mzf/F6Vh/Gq8EO92P8nwUsXQvvvCatLGD24hn0/cyDY/4xTEyOIeCLYHYRAAQE380i/3+Jtqy69tL+39KZdD1n/nrFajKsYvY3UXjVHBKDDnk2ujHfS1IrLIW1F95s2EIYzaIyajyiIuUJwOvRkK/w/8VeqjdfwcgMLgw55LrVIK7tX7ye1YfxapJu9L+TRvaHMgYuLez6HdpiGjNb17FejP8zt2Mku504tI50Gc//u9txAb2j47ih5PG4uIbn/zP+Lc+xtvYES8p1xIaq/yYVybMTWPh+t/fsNBuLC6fySHDb4BfbuNkIy7O82bCdHwlVApBEbnHfb3avHZuv+DH9R46k7c8F/YvXs/owXk1T+lrGBX/PVhItDI3jhnwd8Td6X3CtKmDmN/0YviSj0KZL1xw6R7oE/Tvzkf63M1j6f0U8lqcRO+tHr9CNLtN4fBe6u33oPxvHjVwBDz6ougfVZ5G8uYyOt5hDciSD4mXeY+9F/zILZSrfpjeKLjQYhARgqZ22s2oz1ZuvCO9JiJ948feTgcP7F69n9WG8mkP74gJCr0U3pmsA/g8eoJCbRmw0juv/fIzif9cHM+Onqyd+6Mh9HEVf7zBS/2q/bNqhifROvteD6P9prd/djeCHmaoVpsCynIMDUmlgPgqvaa67F9F5AJOBtp733nIb8dh+BZAEoIheeDwepJw6etWOVjUs2d2Gdla9+QpCkH4X5FbgtXJD/+L1rD6MV0OVF1OI/mZ2q5qQfyqP3IdB894eh9cHM68vPMHzp3nceDdoHqXWc0i+HkJqsb2KQLgmka6fD+KlCZj2AXuUR+E7m5rTKIOJXaboFJEZATCVb+PpOq0ljGZ3iVMeEoCwXESlUuHUmFZa1aAgjMjr7Js77dx8pX8qiehx2xrUeRzev3g9qw/j1WBlFTNvJ7dLcp5IYOZd/543+l1H/IhdfQCtkEHcFGsVybMxKKtNa23dHJpIC/C91oC3ORGAuYS4Aoc++SNqEypSnhRMe2xuboYwNcH5irup3nxFiEN6e+8PKfdi/yJqNW1OQvLR9tehi7Gaq290vSri+r08JGMyrcuQ5tpnfoBDE+lG8aGPG5UQtZAPvpGq0mRHo4BcRIXz+ndRvfkK4H8/hlDN09jchv2LqLV0qHeN1Tn6EeyvsyDnYT/i78dMh9ppqq1jy9/5jocBw8NOZUUDuH79BQSItyoQ7W5G2/MjUanY3QiHY1+sx47NV4RxSL/tf+H3E/vXNl7P6sN4WaNBM16j4IPXwo1+92t+BJHe3rH6kYZiCehvg72mHDsiLbwyYE6blzXUX0m6iOK3DWsSEVEDVW++AoSvTiDYhhsWEJFLNWohb9ch88JEFFF61og3PjjH7myI4/2IGL++nYVa7+T0UhHaI+MBEb0vH7RhREQHt2PzlcFpJLlQmIjayREfek0HFCwVLFTd+L5YNRjqRXebDBo4dkQa3QEEzxsPKJiuc3J66aGCWeOBEwPw8XOKiOy2Y/MVAfE/xsBJHUTUXrrQU1XPPnMvj3pTaW25ak70CR+8bTCtA6hOpHctjdaJOxsCQDeCI3HT9I7l9+O11x98pmL2L2nTodDFMD+oiMh21Zuv4LSE8Tfa5FOFiGhLPwJhc56ofzQB6V91pNLPcpj9o3k78X4x2Db5mHNHpAF0n45hYkf9wQhm/rPPzjjPCkj/Poyk8bGpEEf8jTpXmhIRNdqOzVf6IU1GwasTEbUj/xsTMNfEWUbq9SCSd2uYGvx9DsnfRM0DBwghfrZd0miHJ9JAP+IfS+b/gfoCJn7Zi+FLaeS+0VH+YfufynoBubkUIv19GPvc+H9NgHgtyZJSRGSznZuv4HwS8UFWjSaiNnUijpnL1YmvilTIi2PnUpAfFqAbFw6WS9C/yUG+EkXfa8NIPTQn3P4PpbbacMrhiTTQNTiOmQ+rtpmEjtzHYxju9eLQj7cXTh7y9mFYTEJZMb+Hf0pBeqRdp7AQ0QstpswLpM/JaNPl0bWp3nwFfkxfDIOTOmzitP7VZOqVDilWQA3WBf/7s5CGduZR2nwS0WAfvD8x9I1DPfD2DiM6KaNQ1UV857PIfNDfVhtOOT6RBrrg/+AOFq6GLFSRFhC6uoTcZe4SRtRp9LkIPP4lZJ5urukoIoMovNU723WMnZuvCO9JiJ944Q9QEzmvfzWTDvmcB4GvMihurrF6mgFELzxXGC1XOOxH4p8LuD5idRKagODlB1j6R7jtprG5IJEGgC70v3sHhX/fQGyXO6LdCEPjyHxVwJ132+vOh4hqoSItKgjLs4ZtnwWIt/KQkMR0B46E7dh8BWHMXAzy+mQL5/WvplpMIzofRuaquD2gdUREVpWAyWnI9Zampc50uB/xW0t4LI8jVMfUDGFoHDf+XcCDqWBbPn1zSSK9rvsXMdzIaSguZ3HjvRiCQ72GUWoBvUNBxN67gTuFNRRz0xB/3o7/y4hoXxubAAzsqFfpg28EUG7nOu4RfNep6e3RvEoFlUrWkMRRSzmwfzWTri0BGICvur8e8SEMBdkvGS336Ebv6DTufPt8PRe7HEf4VBC9xlNJ6EXwVAzj1zJ4sJGPxX7RvvmYY7cIf7EuCCfCiJ0II7b/NxNRJ1rVoAAY2PEPAnyvAZhc3+mUKx/IEvavumgru0cLR3wYAJBcYbTcxzm5mKtGpInIJY74EAawpHGki5qA/asuvuNhAEvQOIWDHIiJNBE5zxERE1OAIsbN8y9XZUxPAhjxtd2CFeog7F91EUYnIEFB9JK5qok+N40kgPBxRos6FxNpInIk/+UKijIQPWooq3QJiEwBeM3HB8l0IOxf9fAjsVXVZDtecUQgYbe55kSdg4k0ETmWMJo1LM6roHLLB22SI2DUGOxf9RAg3qqY4pX1aUgivHMRIlEHceFiQyJyrcUckpCQH+UIGDUB+1dd1HtJYCrP6jPU0ZhIE5Er6HMReEUg8zQLv92NIcdh/6qHDvmcF1FkULzFaFFn49QOInKmVRkRw3xM7+0Iiqy9TI3C/lUXfS5i2B7ci+zZIiq3RM4lp47HEWkicqYjIrIV0e5WkFOxf9VFGM2iMmp3K4gajyPSREREREQWMJEmIiIiIrKAiTQRERERkQVMpImIiIiILGAiTURERERkARNpIiIiIiILmEgTEREREVnARJqIiIiIyAIm0kREREREFjCRJiIiIiKygIk0EREREZEFTKSJiIiIiCxgIk1EREREZIGnUqlUGvqGHs+ux0+ePImTJ0828lcR0QHcv38fAHheErURnpdE7ef+/ftb52a1l1rZCIAXB6J2UH1R4HlJZD+el0TtZ68kGmjhiPSmBv86x/rzn/8MAPjDH/5gc0s6A+NVn+rzlOdlbdjP6sN41YfnpTXsZ/VhvOqzX17LOdJERERERBYwkSYiIiIisoCJNBERERGRBUykiYiIiIgsYCJNRERERGQBE2kiIiIiIguYSBMRERERWcBEmoiIiIjIAibSREREREQWMJEmIiIiIrKAiTQRERERkQVMpImIiIiILGAiTURERERkARNpIiIiIiILmEgTEREREVnARJqIiIiIyAIm0kREREREFjCRJiIiIiKygIk0EREREZEFTKSJiIiIiCxgIk1EREREZAETaSIiIiIiC5hIExERERFZwESaiIiIiMiCl+xuALWZxRQ8/mRD3iosF5EdFRryXm2vXIL2TR7ql3nkv1RReKoht6ht//txP4K+PvS/EUToVAiBV7vRZV9r20a5pKGgqsireeQWCyhqOagrm/8qoHeoD72v+hE6FcGZ0/0QGDQiImojTKSJLCtBu5vBzF9nkf2iAH2vb11RkVtRkbuXxgwA4eciJq7NYHzIJTcaRiUNC5/PYPZvWSx8vVfUdBQe6ig8zEH5awqAD+G/3MDsu0EIvHK9UHkxhaA/CXXriIR8JQG/jW0iciPt78M49rvc+hdTeVQu8yx0Ik7tILJqdQEToQuY3S+J3oX+tYyJYD+GJ3MoNaVx7Uu/O4EzF2f3SaJ3o0F5fxje15PIfd+UpnW+72TEzhqTaCKyh4bc7ZzdjaAWYCJNZBsduSvDCP1pGWW7m9JJFlMYfiMF9ZndDWkzJRWp0Sjkeu9PiKjBSlD/NIbkXbvbQa3ARJr2NpVHpVKx9HLN/GgAEHoRejuBG8oDLGlrWPuvORbP19bwRM1AGvHt+FH1j0lkVnZ5TxcQfh5C/PINZHNLeLK2huf/M8Ttf8+xpuWRmQpjR9QWk4h/rPIGZNMzFanTASQX7W4IkTuVSyWUvlvGwtwMxoK9CPwxV/eTSupMnGlIZFkXekYlZC7GEB4U9lw82NXdDd+giMQtEeLnUQT+P9lwkV2A/FBD7PjOJNuZehCeymDifBj+I3tE7aUudL/sh3g5C/FNGVG/ebR1eTKD3Dt+hLqb3+L2pkH+fZhJNFHL6ZDPeRGdt7sdZCeOSBNZdSSMG3IC4j5JdDXfm2mk3zEfyy0XXDNXWhi9gexlce8kutrLItLzCfSbDs4i92+3j0mXoV6JIvr55h2GAFHOIGFrm4iI3IOJNFHLdWHAHzYf+r7EaQr76PpVBNET5mPa9265/dhNGYW/xxCe3F5a6J9SkB714ZCNrSIicpMdibQ+F4HH46njleIKcaKD+inrSu/Ph15Wj9qizcUQ/N32FCH/VB65y372IyKiFuKINJENiqua6evQL3vh+qm+++pC12G729AeyospRMXtJFp4M4MMk2iiFhMg3nrBgntVsrtx1CJ7JNJhZJ7WUp2Bhf6J6vIsh8zV5e2vhTjib7hloeFBFKFXVTfxHnZh6lhdK3pQgvKpuLOyCVE7WkyZn2pf4TNtaiAb+hdHpIlaqbSMGTGKma3qEwLEq+MI/dTORnWIUgH528YDQfT3umwc/zsFY6cM1UsG47gzl4CfI/XUAdQrHnj8QN44GMfd/qhB7OpfTKRpb5+NI/DKzrnxx/zDGD53AclPZOS+cfOCrxo8K0F7tAD5SgTHegYw8YWhwsLfckiPciyxFqWHCmaNB06LCB63qzU2eKYiNRpBenNUXhCRmbuO0Mt2NoqoNvpcBIFJbldPzWFn/2IdadrbirrrYlJtMQdtMYfc/CxSAIShGJJT04j/ymUjhLtSkfIEkNzjO4ShccxcS0L8OeNVk7KK2am06VDstxEXTWeorhXth3Q7DfFlG5tEVDMVaVFBWJ5lEk1NYG//4og0NYT+MI0Lr/dieDLnmnrIlpy/jnxhDcXcNJPompWhfjSO5CPDocFpxM+6JX6l3WtFD7pwfjh1plUNSwgjgnTV080I5FW7G0cdz+b+xUSaGkhH7sowQle4dfML3byAwBtRXPhIwfL3djemM2hz5lrJgB/Tfx2v2pzFqcpQr4QQ2Pr7BYif5ZHhdCDqJKsaFCiIrgRNxQryUwqiR5lM0wHZ3L/2SKQVRI/uU0Oaq20dqAv+kTgS1zK4oz5GcW0Nz6sqtTxfW0OxkEf2WhyhXeaoqpNxSP9iKv1CKwuYfT+CgZ8dQ+STZY7g76G6zNvmaOz4iT1+yEGqbyL8UwrSbzKJps6ia0sAwsicNz9491/OQ4KC6E3mEmSd3f2LI9JkNjiO/K3rkN4RERrshdC9c6OQru5uCK/6EX7nOu58u4b8hyEIpu9YRurDDDS4lR8J083Hc6ytFfE4l4E02muIlQbl4gBH8F+gvJhC0J80zdHf3LnPDVgrmpxC8A284F988I0A+Eoz3CwT1cfu/nWwOtIsW0Pohv+DLJSpqr5wV0ZuZfefcJ8udHcL6B0SkZAfo/B/5lXF6mQYyXtMpY3KiymcOVudRLtp575lzBj+fmGItaKp0ynQOIWDmsa+/sURaWqALvjfk5AwDUvnsFzgpIXddJ+SkPlbyHBEx8zHbh7BNyv9az2JzhmGEPxTeSy4JokGgDKMQyj6wyQCP9lnqt3Wq7piTBIBTssjOw0GIQFI3qvudxq0eSB8Nlj1VJOoDjb3LybS1BhdAQTfNB8q6Gv2tKUD+M7GEDMe4Ag+AKB0L4nQ68YkWkDww/WRaLfU6CByHj9ichiYDCC1VcJRh3wugCQkTIwyjaaDsLd/sY40NUgXDv3EfCSn6wAfRu/up/3wnwLS9zYP5KDpANy0wUgVbW4Mw2LaMDIvIHR1Adl3+100Ek3kTMJoFhVfCh6/Z/uJyUgGxYrI0Wg6MDv7FxNpIlscwqGqIdbCUx1w5UdKCcsfRxG6tGCYzeBDTH6AGy5ZWEjkCoMJVCoJu1tBTmVT/+LUDmqc/5m/DL/sxqSwVs/xvGoKeZcbb2t/0CC/NYABYxItBJH4vyWXJ9HVlV/qeeUhmd5LQp4LxYmImoKJNDXIMvJfmI/4BK89TekEZQ2Fe+ZDfUddduPxfQ7JXwcQvWlYZnk8hhsP70A6xRnRRETU/tw4BkZNUF5cQMa4hTPiCP6SM1tfpPzlAjKmIyJ6X7anLXYof5NGbGgMsqEyhTCUQOaWhOBP7WsXERFRPZhI08E9UzHzbhLLxmPngwhwUHF3z1RI78+YC8SPnEHAJQPS2u0LiIZnTTWifeczePA3ET5ekYiIqINwagdtUf80jLFPFlD4vo7NQUrLmBHDSC4aD/Zj+mLY2eXKVmWMhS5g9m4BpXr2Uvk+h+RvwkiZRu8FJN4Ou2OZ4X9SCJiS6PXydkv/YBJNRESdZ0ciLYxmNxakZCEesaNJZJsfckhfPIO+nx2C97UzuDCZhrJYgF4qofyD4fvKJZS+W4byyRiGewcw8YV5803hvWnET7S26XZYuzuLC6E+9Bzyou83F5C8qSD3SEOpVDJv+f2sBO2RgvT7ERz72TBSD6vi9eYsLgy5ZBrMD6jaqlVH7o8B9NS00cgLXudkbi9MRDbQIZ97wXXJb94WCZOBF1zDIpC542NH6+ARaRWpPT9gU6hr765VGZGq90gt7v9jTqV/vYDZK2OI+Pvg7enBoR8bYnOoBz2+AUQupk27zwEbWxlPBl1W91dH4YtZpN6KYLj/GHp6enDI2Jd+0oNj/RGMfaTs3L1wUILyqUtGo4lstUvSY3GHR/WK+X0ic+1+K9fgz0urrei4uFFt3N2/OjiRflF5qCIyIwBGfLVvBbKYgudoFAOq4X1UCUk/T/R6+EauY+GfCfgP292SziC8MY2lu4wXUfOpSHm8iL6WN5cJnAzU+URjPRkPfJVBcfN9nmYA0dvm26438PPSkk6NG9XG3f2rgxPpF1hMIzoPSJdq381GvZcERjKIDRoODiaQnwKU2znXPDbufSOD6bdD9Xf44yGMy4+xdCuOfrckhUdCmM5lIJ33W45X4Z/j6Hf0RHKiNrGYQxJhZM4b62f7kVAlYD6LXK2P1hfTiM6Hkblq+Hw5IiKrSsDkdOc9orfweWn99zgoblQbl/Qvhy3v0SFf3SUprsW8Bg3u3FduU/cJEeOfihi/Voa+soy8msfSv/NQV4rQ7qmGaQk++E/50HcijGA4hPAvfC7cTKQbviERiSERib/VEq9+DAyGEAwHEfq5G+O1gTubtcD66BCjXE2BtgrgAGt/dG0JwAB81e9xxIcwksh+qUMc7ZRPkQN8Xtb7mxwVNyMB4q0KRLub0Zbc07+c9XG+mkN2HpDU+u5+/KckYDKJgGcJmacbiyxXZUxP1v9ejvBSF4RX/Qi/6kf4/LjdrWl/jBdRexsMQgKQ9HuwJBeRHRWw9UE/la95Yb22ogAY2PkPR3wYAJBc6aDhGIufl1Y4Km5UGxf1L0dN7VBvRqFYufsZTGxsq6sgenRjovrRLCJPK0g0+U6KiIiabX2UPj8FKKJ3YzGSF9mzxbq2S/cdDwNYWh/Z7nCWPy8tcFLcqDZu6l/OSaQ3R5CtzMVZlRHxBICNxYZFOQxsJNVurtxBROQMG4uRkN9aiBTGRlJdx2IkYXRifcDlknmBoj43jSSA8PHmLqlqmIN8XlrgmLhRbVzWvxyTSKs3o1AgIVj33Y8O+VIUylR+a/R5vZb2+mrTpL81ZVuIiKg59Lk4ovMS8pujz0dEZDcHTSYDdQyY+JGoFJFBFF5Dma04IpAADPg6Y3qC9c9Lq5wRN6qN2/qXMxLpjbufsBxD7Q/pNmnQ5ne7YxEgXpLAx1FERJ1NW1F2LcG1PpIFLGn11GZaX2BmLPOV9WlIIrxzsVM7OtDn5UF0eNyoNi7sX45YbLh595M/wKpMZZfJ6OsrQYmIqOPtVplpVUMjrvLqvfoWLdqpEZ+XDWtLB8WNauPG/tX5I9IHvvvxI7bxeM+0+cqqjLioICzP8iQnIupg/vMZhJFEwLT5ysa0vpEMZi1/6Bs2gqhj0aJtbBstrNZhcaPauLR/dXgivXEhhISJA9z9CKPZ7V1wNufXbOx0mG2DuyoiIjqAIyKyO+ZQbux0eKu+BVH6XMSwDfFG5Y8638Mejfm8tPzbOzZuVBv39q8On9rRwGLoR0RkKyyrTkTkTI35vBBGs6iMNqRBLWbv5iGdGzeqjXv7V4ePSBMRERER2YOJNBERERGRBUykiYiIiIgsYCJNRERERGQBE2kiIiIiIguYSBMRERERWcBEmoiIiIjIAibSREREREQWMJEmIiIiIrKAiTQRERERkQVMpImIiIiILGAiTURERERkARNpIiIiIiILWp5Iezwevmp4AcD9+/dtb0envBiv+uPF89Ja3NjPGK9mxovnpbW4sZ8xXs2M154qDQaArwa8Tp48aXsbOunFePHVihf7GePFV/u92M8YLztfnNpBRERERGQBE+k2dfLkSZw8edLuZnQMxotagf2sPowXtQL7WX0Yr8ZqeSJdqVT4quEFrHd2u9vRKS/Gq/548by0Fjf2M8armfHieWktbuxnjFcz47UXjkgTEREREVnARJqIiIiIyAIm0kREREREFjCRJiIiIiKygIk0EREREZEFTKSJiIiIiCxgIk1EREREZAETaSIiIiIiC5hIExERERFZwESaiIiIiMgCJtJERERERBYwkSYiIiIisoCJNBERERGRBUykiYiIiIgsYCJNRERERGQBE2mXUa944Lmi2t2MjsF4WdMWcVuVEfF44DG9IpBX7W0WHdxB+pd6pbpPeBCZ0+t/ow7sXzwvm02HfG5n/0otWninuciO9/Gck2Ghp7beYgoeTwqt7Gl2xouJtJusypietLsRHYTxsqZN4qZ/mQXkIiqVytYrP6UgetTaBxu1iQP1LxW5SQl5Q5+oPM0AorfuBLPj+hfPy+ZbzSGLDIrG/qVKSPrrvVnTkbsNZJ4a3qeShzQfhbfFCWr9dMhXky3/nXbGi4m0Gyym1u/Ojkah2N2WTsB4WdNmcRNGs8iOCqZj/st5SACWtI4Y1yGjhvQvPxKVBPzGQ0dEzMphYDJX1wdux/Qvnpetc0RE9pYI0183mEB+ClBu5+oYHRUg3spCPGI85kdClQAsQWvL0XsVKY8HHo8X0flW/25748VE2g0GExt3aEVkRuxuTAdgvKzphLitaliyuw1kTdP7VwM+cNuxf/G8bA/zGrQDvoWutXOU/EhsjAYX5bDdjQHQuni91JLfQkRkOx3ypSiUkQyKVSNi5GY6crcVABJ8R/b95j3fh/3LCqfHTUVuEsCID76DvM2qjLioICwXq0ZeaVctjBdHpInI2bYWN3mRPVtEpfrRK7nbYnr9UfRU0Dzlo1bsX9a4JG763DSSAMJng5b+vq1FdEeziDyt7JgWQ2Z2xIuJNBE52xER2Y1HjrOIO6hCAB2cipQ/CUBC/rKlNJr9yyo3xG1jVBQjGcxaTOiE0ezG1JxZ4FIHVe6wiR3xYiJNRK4hjM4iM6IgerO9171TK6hIeQJIIozM04S10egq7F/WODJuqzIiR6NQICHfkNF2AeLVDMLzUaQ7vbpJS7QuXkykich9vtI4quNqxiS6erV/A7B/WeOUuBmT6OoqMQ3Q8dVNWqzZ8WIiTUQuokGbB/Car6PnY5a+yUH+6AIivw7g2NYGBF70BYcx9v4s5IcFlH6wu5XtajOJlpCvNDqJdkb/aj0HxW0ziR7JoNjoJHpVgwJgwNfxUWqNFsWLibRBeTGFgGlnnHYvfE5Eu9Mhn9s551K9sjEKeb7RY0StUf5GxkToGHp6hxF9fxbKPWXiiXUAACAASURBVNVQUktH4WEO6Y8uIBrsQ0/vGUzMFVC2sb3tx5hEHyTJcWb/aj6Hx82YRB9kOseqjMiOub0b8/lHMogNHrilzmJzvJhIb/pORuxs0pmJ82ZB/s1C6ZMB3ijshfGypq3iJiB4FogeNW8ZG5hsxihkK5RRuDmGvt4oZu7WWI12ZQEzYh+CFxcOXL+2LTSify3msL7nWrJq0GTjVfPuhh3Uv3hetoz+ZXZ905v5KLy79K+adzc8EkQE1e8RQHIq38bVTTY3ZPHAKyownmNN37HS5nixjjQAlFSkRqOQnTrtaDCBSiVhdys6B+NlTZvFTRjNojJqdysaoYzC32MI/s7a6nP1kzMYfpbFg3+ED1bH1m6N6F8N7KMd0794XrZM4/42AeKtCsRGvFXLrG/IYk9PszdeHJF+piJ1OoAkV8ESURsqL84gVp1EC0HErt3B4+Ianm+UEKtUnmNNW0L2LzsTZu1mHMk5R4xLExG1FZcn0hrk34eZRBNReyqrmHm7asrZYAIPvnqAG++E0Ct0o2vrH7rQ/XI/wu9l8aR4BwnTvEAd8qUZLHzfonYTEbmEixPpMtQrUUQ/3xznESDKGZseSxAR7VS6m0bykeGAICIzJyH4031+UAhBmstANE4O1Gcx+wVHpYmIGsmlifT6nMPw5PY4j39KQXrUh0M2toqIaJuOhbm06UhoSoL4co0//rKImath06GFawqWG9M4IiLCHol06ZsFpCer65R64H1tGMNvTWB2bgHLq51ZWEmbMy/c8U/lkbvsNzwiJSKyWfkxluaNB4IID9W3XFA4G0fCOCr9KIPcoxd+OxER1WlH1Y7S1zKki+OYebj7+nD96xz0r3PI3ZwBAPhOxzH+zjhip30dkYiWF1OIittJtPBmBhkm0UTUbnS9qmydH33H63yPrgEEzgL46+aBZSx9qwMn2rOAFhFRpzGMSJdR+HsUva9F15Po42FI8gM8Lj7fWBG+/nq+9gRLynXET6+PjGh3Z3EhJHfG48LqWtGDEpRPxc4uCdXRtutOOrFOsz4X2Vmntt56oibOjhdV0dd35dpmZeJZN3r7g6YjuZXiARpFbsXrmU226oDXW+vcpWyI11YibZzu4DufwZNCFonRIHoF81htV7cP/WfjuL7wBGtf3UCs3hESu3ynYOyUoVb0YBx35hLwH7a1Ve61mILHEwDUiuFGrcHbqbYFCflKxXQzWqlUkB2tc0TQNfGiRjvUbe5r+tMiSja1hTodr2etpF7xwOOHOeaXGaUXsSte64n0qoyJjekOwpsZPPiHCF8NW7V0/zyGG8uPceN8m0+MeKYiNRpBemXja0FEZu46Qi/b2SgXW5UR8SchqZWqEl20K8bLnQQfzEsFi1izkAELR/vMB74vcdtwsg+vZzXR5yIbOz7yBqMWdsbrR0AZuU/HNx4hhiBN1jnV4XAvYv8Yb+P/0dW1ov2QbqdrX/lODafejEIZySDGi2hNGC+XEoSqa3EW+WWmwNTZeD2rhYq0qCAsx9o4t2on9sbrRyjnkbu5Md/hfAyRTpmqUZPS7rWiB9t8BN3RdGhfAeGzQLoh8+zaXRIB4995rt5tnt0WL9rS1YeBEeMBHamPMmAlaLIPr2ctsaphCWFEkK6ajx6BvGp349qQzfH6Eb5ZxsJG/w2fCqC7+b+zRcpQr4QQ2KoVLUD8LI/MKJcW2kuDNg8oooagcR6TKkERvY66mAqj2aq5hHlI81F461pU4554UTUBodGY+dDdMQy/JUP7oca3KOtYULINbxm5D69nLbSqQYGC6ErQFPP8lILoUSbTO9gcrx+VnmpbFTcGfM4piaTN7bLhyptMom23qmEJ2PkIZjCB/BSgiGkHr9z2I6FKAJLI1botvavjRd2n45CqHoFrN6M41htBai6Hgl5C2ZhU/1BGSS9AvZ3GxFsBHDvkxZmPOqKmEnUcXs+aRdeWAISROW+eqOC/nIcEBdGbjJKR3fH6UfmZ80ohsVZ0Gzviw8AL/sl3PAxgCZqT77YHg5AALGk1jry4PV5u19WP8Y+lnfP+VhQkxWH0eXtw6MeGR5k/PoQebx8C4THM3FR3nwbSxSshNQivZ00h+F4YJfhGAHyl1TmlxtnsjleNW4TrkM/tXj+y/eo/LmPGUCtaGGKt6HakrLh0pufGiEy9XBsvQtdgAgtfSghafGAoCFU/+IoXznn2SLbi9ayJFN5U1MW+eP2o67DXnt/cNGUYbz30h0kEfrLXTYDxFUDS9F5VCytYDL0B/AhOAZjM7bj50lYUYCSC4BE72tUiqxoUhBF5vdZUxuXxIgBA968SeLD8ANMjtQ8JCEMxXM8Vkf9LwHQ8/DLTaGoQXs+aY2OkP3lvR5SgzQPhs0HeDBvZHK8fdR/1oX/ji6VvX3SXKEC8tbMIe36qiS0jx/KfzyCMJAKGm5L1GpCAdEl0yAVCRar6Sc1G/VRMTUCs48PCHfGifQlBjN96grVvHyBzbRyxU0H0Gv/nC70Inoph/FoGDwprKOZuID4kQP/WvD9ir4/P56hevJ61lh8xOQxMBpDamn+uQz4XQBISJurdAMfx7I3XS3i1H0EAywCUh8sovelzUOUOaktHRGQrPqQ8AXgmNw+GkXlaqeuC3N588I0kEfCYn3GE5SIq9Z7UrogX1ar7eBDiO0GI79Ty3cvIf2H8Oo7Az5vTLnIyXs9aTRjNouJLweP3bD8pH8mgWOHNxm7sjNdL6Aog9IGAmT/pwM1ppC+GMX6iyb+VCH4kKhUk7G5G06w/xREb9n5Ojxc1xcoSFh4Zvh4JYIAjJVQ3Xs9sMZhApcIo1cymeP0I6ELwLQkhAICKibdTUJ+1vB0NtH6CVk9Dqe2Vh2R6L8m8Zzv3uSeiDrJ8exY5w9eh036OZhERNdB61Y7jMUhXNxLExSTC4gyWSza2ioiIDmZVhvS+sYZ0DLE3OD+aiKiRtsrf9b+7gPyH6ysb9S8mMNA7jLFPFCx/V0LZ8APlUgnaowXIH12A9FnrG0xERPvRIP9xHMZlhv1TMYR+aluDiIgc6aXt/+yG/4MHWB6cQfx3E1BWckhfzCF9ce838J2OY/wdcavyBxER2UnDwsUoop8b6oAKcUhvc1MqIqJGe6n6gDA0juy3ceiPFnBHyWFhcQnL97Z3yPINBtHf70foVATBU/3wHW5xi4mIaHd6DqnfRZH8wriPlwDxWpKj0URETbAjkV7XBeFEGLETYcRa2x4iIqq2qmDs/QKCvw0j+MteCFsDGGWUSkVoqoqFzyVcnyvs2ArXP6UgPcIlhkREzVDjFuHUsRZTe+/mWOdOjeqVqp8/Jzd1D/uWY7zaAuNWrYy1uSSiwT54TTu1HkJPzzEMhKJI7kiiBQQ/zCN3mVM6qrmmf/F6ZgMd8jm37YisIrXnrtGpHTtZOgkTaacbTOxe6u9pBmEA4eO1ruJfvzgEvsqguPU+RWQQhddJJwnjZTPGrSGEIBILy3jwAZNoM5f1L17PWkxFyuNF9LW8uazuZMDhNx0vKjtcRGYEwIgPTq4XxETapdSbUSj1bJ25mkN2vnoLVwHi1fXtXnOLe/ysAzBeLcK4HYzQC/EvD1DUHkA6zekcO7B/AeD1rGkWc0gijMx5434TfiRUCZjPIrdqW8vssZhGdEe/cR4m0ibVd1UJOHL7lVUZ05NAWI7V/fctac69p34hxqvlGLcqh30Ivh1GcLBqXOe4H8FTMYz/5Qayy0/w/OljZN4LQuAw9J5c3b94PWsyBZrbEuZd6ZCvJoGRDGKDdreluV6w2JCcTP8yCwUS8rWORgDAkSAiI0BU9MKzkt/a4VG9GYUyksGsg08UxquFGLfddfsR/zSLuN3t6HTsX7yeNdNgEBKApN+DJbmI7KiArYRyKg/xiN0NbKHNpxiqs0ejAY5Iu5CKtKhYGI0QIN6qoCiHgcnA1iKCAPKo3HLyicJ4tRbjRs3k9v7F61lzrT/Vzk8BiujdiJMX2bPFrZsPt9i8yXL6aDTARNp19LlpJOuZG2egXvHAezuysdgkDwlYv6g6eBEF49V6jBs1k5v7F69nzbaxKBN506JORfS6oHKHwcb0IafPjd7ERNpV1kcjMBWsf+73YgqByTAyVzdPjI355KoEzEcRn3PipZTxajnGjZrJ1f2L17Nm0+fiiM5LyG+OPh8Rka1sj+SnXLIoc3Mxa9AFo9EAE2lXWR+NqF5RXOPPaksABuCrnuM1GENmBFBWtN1+rKMxXq3HuFEzubl/8XrWfNqKsmupN2F0AhJcsljzAItZOxUTadfYHI2YOMCCh6VdViNr0OYP1rL2xHjZh3GjZnJj/+L1rGXmNey4rVjVsGRHW2xQd2lFB2Ai7RIHGY0ANu+oFUSPmovvq1cCSMLwKMshGC97MG7UTG7tX7yetYb//Hpd7YBp3rgO+dJGdROnJ5cuHI0GWP7OHVZlxEXlgOV31ufEBa94EPAktw+PZFCsOGxBAeNlI8aNmsmF/YvXs9Y5IiJbCUI+54XXE90+PpV3QdWOjRuGeksrOgATaTc4IiJbERvyVv7LFVQuN+St2hfjZTvGjZrJVf2L17MWWy8V2JiIdxK3/t2c2kFEREREZAkTaSIiIiIiC5hIExERERFZwESaiIiIiMgCJtJERERERBYwkSYiIiIisoCJNBERERGRBUykiYiIiIgsYCJNRERERGQBE2kiIiIiIguYSBMRERERWcBEmoiIiIjIAibSREREREQWeCqVSqWhb+jx7Hr85MmTOHnyZCN/FREdwP379wGA5yVRG+F5SdR+7t+/v3VuVnuplY0AeHEgagfVFwWel0T243lJ1H72SqKBFo5Ib2rwr3OsP//5zwCAP/zhDza3pDMwXvWpPk95XtaG/aw+jFd9eF5aw35WH8arPvvltZwjTURERERkARNpIiIiIiILmEgTEREREVnARJqIiIiIyAIm0kREREREFjCRJiIiIiKygIk0EREREZEFTKSJiIiIiCxgIk1EREREZAETaSIiIiIiC5hIExERERFZwESaiIiIiMgCJtJERERERBYwkSYiIiIisoCJNBERERGRBc5JpBdT8HhSUO1uBzkT+5c1jBs100H616qMiMcDj+nlkr7K85JaYVVGxBOBvGp3Q5rLIYm0Dvlq0u5GkGOxf1nDuFEzHax/6V9mAbmISqWy9cpPJRFw/Ac/z0tqDfVmFIrdjWiBDk+kVaQ8Hng8XkTn7W4LOQ/7lzWMGzVTY/qXMJpFdlQwHfNfzkOCguyX+gHb2I54XlIr6JDPrT/hCUza3ZbW6PBE2o/ExkhCUQ7b3RhyHPYvaxg3aqbm9y9lRWvK+9qL5yW1ggDx1sZTHlWyuzEt0eGJNBERUYMs5pAEED7us7slRNQhmEgTERFtzR0OI/K6sO93ExEBTKSJiIigz8URnQfC8izEI3a3hog6BRNpIiJyNX0uAq+oAFP5HQsQiYj2wkSaiIhcy5hEVy777W4OEXUYJtK0u3IJ2qMFyJ8kceHcMIb9x8wbF7wSwPCvxzDxiYzcNyWU7W4vkWuVUfr/27v/0Dbu+3/gT0ELNrQgwwYnSCAKKVSmhdhsYIntD5+bQhQ6iIQLPtEvpPIGmdLAYjejleI/bKkf1tgppHEHW7zAhs4QIwVWosAntfJHh2TYsAItUaAmN4hBB5+CBQtEsIC+f8g/7iTbkWRJZ909H6A/dJaUd9993/te9773+/V+nN45V9926M5Vx9sj8P92DmlT50ZuzlYQ7ZMLDKLpwIqP05CvXoD/XQ+Ob5+DDvSLIxi/PA/5QR7FF0aXklrtFaMLQIdJEcq9OOb+OI/E13nsm0l1LYv0Whbp+wuYAyC8JWHy+hwmhvlYlKgjXqjI/m0W0c/mkFrb+2Pq92kkv09j8P9NQOTc323aIJrTOeggSo9lRC5FMHdvt7SJKvIPVOQfpLFwFcAJLyamZxEdc6Gn0wWltujyEemtBPO2yqM5RODZfB9bMbpsXWg9hUnvBcy/LIjehfq9jElxACNTaRTbUjgjsH01h/XWbsV/zcPvcsDz4f5BtDm1on2pSN+p7LmWlBxV24TbYDPl7oY8L1uvhPytcfS7AnsE0btYS2FO6od4MQUzZivXbshic0cAJBE4WnnvXzTjRkddPyJdSTAfNroYtElFemYE3t5VpD8ZMMHdNttXc1hv7VNC/s9BiL+RG77ZNY9WtK/KphFSi0rUHXhettbBzsXsl2cw8iyB5b/4YK6s5dY7t7p8RJraRnDBez6Mm8llrCob2PjP5k5Fm6/nGxt4ko0jOlrbBWQ/jSBuuVEyovZTFne/cDtPh3AjmcGjwgae/1dzrv5nA09yCdw47zXBjS3R4VFamUOw+lwURASv362ch9vXy+fYUFaR+Lw2YFZuhRBZNOe4tJUwkCaNHvSNRRHPFvC88Ah3v4oieFbEwDE77K9VfdJuh3NIQvj2Ezz5qwT9DMMU5AfsHIhaqbQSQ0CqunCfCOJmbgNPUjcQOuuGS7CjR/uc8TU7nCd9CH11FxNDHS4wkVmVspg7H0FWe2wojOXvlnHzI2/lPNz+Qw/sxwbg+ziBJ4W7COvOQxXypTmkfuxQuaktGEjTjiM+3JTDkIaEhkavnB8sYOEj/bF0Lm+iudJEBtvlwi0MR5H5500ET9oNKxaRFRXvLSDyUHNAkBBfjEL8yUu+KHgRXYxD0o48qfOY/5oDT92MgTS1QA8G3T79oR+ZEo+oVZS/RfUX7qEokn8Pw80YmqjDVKQWF3RHvNNRSMfq/PoxCXPX9NfL1PUkcq0pHBmAgTS1x0/snJNJ1AqlNBamUpoDAwhfnYD7tT2/QUTtUnqE1SXtARG+4caWCwpnQwhrR6UfxpF+uOfH6ZBjIE0tUVjXP5ry/twFDpYRHVzxnoyYdmL0uQgmf8HbVCJDqGpV2jo3+k80+Bs9g/Cc1R7IYfUH6+bh6XabgfROfknbTHb/b2zKzmzl24yhvm8cZpr//pqXGf772uxZGvFrmgdTQgih98yV0Odg2L6oWUVk7msfIwsIf+DlTSod3Eqsydy+Fu/PVAVJ3YHeJn7EDteAqDuSXiscoFCH2LoMfwOxZTfiiLSGTy7oUrxVXmFw49h9FHOYkwKY2+6LBUjXJuB92aILC2L7ooaVVpH+o/ZAAKKbo9F0QOsy/O7IgX6C/dnB9Nr1ua7UpwUTLtDPInY0UHXjYT4MpKlxz4pQHqYgz/hxvG8Qk19vRdECpD+lsTDG0WiilnicQ1r7/gMP+jfj6NJ6Dslbkxh/dwT9Du2o4HF43vXjwtQCUo/Nd2mmg1IhXwogOR1F1OiidCPBCf1SwQI2mjjNhKP9+gMmXKCfnfEgMhpFdNTokrQXA2mqQ9WjvNf7cHzgDAJTye25YsLwBOLf5RH/tYuLDIlapPhU0a/mf8OBnu9lTHqPo/foIPwfzmHhfhp53dN5Bdn7SczPjOOMqw/HvZOQH5vtEk3Nys44EEAchSviyz9MtQShamOVBDI5nl/V1EU/PFNRZG4HTbZzYy0G0hpJyaGb7xVbMbpEXeDcDWTyGyikZyG9xZmb+2H7okZtqHnde+GvAbjeDmDuXv15Z5V7cwi4RFxgrlrL2wluqjfRapxl+7OefgzqRlhVxK7GwbNLYyUGhwTEn1pjqg8DaQCAG+GquV4F2YeIu5mFGBZz6wI87wVw4WoSOe7OtAe2L2qOqqb179eUmu3B65PF/K8CiK1w5MyyWhbcWL0/E+AdC+oP3RvHyIcylBd1/kRJRSqZaHnJDoXN+ffRbALSEaML0xkMpPcgjM0jPgok76SbvHBZyFoK85f9GPzpcfi/zJlwwUTrsX3Ry5Xw/D+7HRfgGpvAzWQGjwobeP5fbVDzHBsbT7CavIHgcPWYYxaRs5PcjtiKNoMbnzzfluDGav2Z/XQI0SH9MeVWAMddfsQW08irRZS0QfWLEopqHtk7C5j80IPjvQ6cuWrGLVg2FxdOZ6q2Qjc3BtJ7EiCe9QFLCh/Z1IxAPMfGRgGP0nFEx1yaR4QKkhcH4Z3Jmm7RROuxfdHLFKH+W39k4Hwcq/9XwCN5FsGzbrgEO3pe0X6iB3a7EwNnQ7iZzmP5k6qxR3UekVtmvIDTftRvE0hOZ5AYO+iEjr1YrD/rGcDEF9Hakf21JCLSCPodfeh9VbOu6NVe9Dn64fGNY+5Wdvc66jHB6qKVNCKjcRSuWGFCx47aQHrKs0d+SP3LM2VAaTtMWTN70pZm9cBuF+AalhCWHyH/v/pHhdkpHyL3GUq/DNsXNcr5SxEDdaeWtEP8LI74B/rgKSenuR2xFdVc2z2IYGeu80HnOFutP+sZCiP1bRRik/cmglD1xTccB563figsBeDQtTMHAkvYbn9mnP7DEek9qVC+AzAtWmKy/EHYT0UR/5NXc0TF3BdcfLE/ti/qBCekS5MY0B56mEH+3wYVhwwhjCV2yfmcQRQ7+aAP9ijemv2Z/RdhLOeWMTtaf14KYTiIG+kCMp97dMd9x0wQRg+Fd2lnBcRHAUxnUC6X2/hUxDi1gfTmf+zLXplpA0rbJuqiv+YuKTvjQGDJh/g5K3ULzXOeDUK3/OKejPSaUaU5XNi+qDkCnG+34GdOeuDVHUhCMd+gEHUI+7MqgoiJ20+w8cMy4tcnEDwlwqWNFQUXxFNBTFyPYzm/gUL6JkLDAtQf9CP4LqfZk8SZ1ysv/4j5Cc5BJN0O2CTt0Sgy3KWpfj8ZgPsUsHB/60C6crE+YWCZDgm2LzKWE/2jAJaMLgeZAfuz3dlPiJA+EiF9VM+nc8h8rX0fguet9pSL2o+BNLD5OCJsdCm6XC96q9JI55+qgDlmfR0M2xc1yXnCB2g22E2uKeA5Ra1RWUTeMPZnB7e2itRDzftRDwZNuw2DAOl2GdLLP9i1OEeaWuQ5nlflvevhbRrRgQhvDOrD5lwzWREKKPzQsiIR0QHl7sxDmyHee9rN2+MuxkCaWqOkIH9ff6j/KLsGogM5MQC/9v2dBLLrDf5GsQBFO/oFCa5jBy0YETVlXUb0sjZvThDB9zg/upsxkKaWKH2bQlx3hBdrogOzeyCe0x5IYnaxseR1xQdJzGsPnByEk/e4RAZQIH86Ae0yw4HpILx1p7Skw4iBNB3csyyil+f0O1qNnoGHF2uiA7JDHA3pHvvmLofq3+r7WRbzny/oDnkv+vTp8IioAxSkLgYQ+JvmSimEED3vhgm2YrE0BtJUsS5j3HsB8/fyKDayl8qPaUR+5UNM9+hYQPi8j3O+iFrAfjqISV2O3ywiZ/2Y+1dxr69UPMtj4bc+RLQbbQghhPgYmaiz1DRiv/LgzJdZzUEB0vUIR6NNgIE0bdu4N48L3n709TrQ/6sLiNxKIv1QQbFY1G/5/awI5WESC5f9OP7TEcQe6HOKCh/M48Iw77GJWmMAoertiNUUJn/uwsilBaQfqyi92PlTSc0jvRiDf6Af49rRL164iVprPYlxKQb5QR7qM+0fSigWFeTuyYhJ/XA4RhD5Wn+ddE8nsTDK4SYz6OJAOovYvtuYx5B9+Y/sWJfhr/qNg26Z2r1U5L+eR+xDP0YGjqOvrw+92rp5vQ/HB/wYv5qszSAwFEXyKzOMRrN9HQqsNwBAz9AE5j4Tq84rFekvxjHicqD31Z366XX0Y0SKIFm1IRIv3LuwTPtif9YeJWwsRhAQ++F4XVsfvejrO45BbwCRxTyqhpogfpZB+ooZp3SokN/fr535ITe6WLoLbAbSlXyS5XIZ5Sv1pVR3X9na5dCoJOyaMu+2HeWoE3U/wFyJwXY0gMGs5neyUUTc5twXvl2E92axei8M92tGl6QV2L4Mx3rT6IH7k7tIXfM2cZMqwHtt1aQX7gOwVPtif3YoCCLCqRyWPzHruVjJGb33btiDcB4xuoyt18Uj0ntYWUBgCYhekuq+4GTvR4DROILaeYhDYWSmgeSdNCzRNRzxYjYdR/Scu/4OdcsJLybkR8j/fQIDpk0qv4ntq2NYb9V6MPC7u8j/8yaCw/W1PmF4AvHv8rj7uwGTXribx/YF9medIrggfb6MgrKM6GkLPhValzE7BfjkoCl3vzTZlhkq5Gu7nOT1WKpsdGDBJr7JDuewhPCwhPCfSlDXcshkM1j9ZwbZtQKU+1nNNA4n3KcGMDjkhegT4X3LaZHNV9i+Oo71VsP+syBupgOIPkzhrpyC/K8MHj3YenwswDXcD8/PJPg+9MP7ptnvbA/I0u2L/dmBveaEeN6HYi6H9IpmouMJN0RnPwZOueE5ZaVr5O6ytwJIIorMmDlbjLn+166nkVgCotn6764BwH0qCkxF4LGtIv40AekItu+gGv0tU3ilB8KbbvjedMN3bsLo0hwebF8dxXrbTw+Ekz4ET/oQNLooXcry7Yv92cHZ3Qh9lUDI6HIcalmkTTwaDZgskM7eCiA5Gsd8o3fXQ2GUyyJiNg8CR20IAAB8iD8tVzoJIrB9dRzrjdrJ4u2L/Rl1gro4i4iJR6MBM82R3rojbmCul/a7fpsH2Fw8UZB9AJIIHLXqSmSqwfbVeaw3aicrty/2Z9QRWSxISVOPRgMmCqS35uCIjd5dQ4V8KYDkdAbhze8KY4nt1cwRd4NpgciU2L46jfVG7WTt9sX+jDqhMhrtg/+X5h2NBswSSB9oRagCZQnwnajOVSFAuhQFsArFhHkPqQFsXwZgvVE7Wbh9sT+jjqiMRmN60vRTfkwxR7oVK0KTa7VrkFVl9YAlIzNg+zIO643ayYrti/0ZdcLWaHT8nJkndVR0/4j0gfMTuhGUfcCUR59Mfl1GSErCJ8+b/m6K9sH2ZRDWG7WTRdsX+zPqCOuMRgNdH0hvztdCFJMHuLsWxhIoP40DkmNnK8vNnZsSJl5pSi/D9mUk1hu1k/XaF/sz6ozsjMcyo9FA10/tqGxHKbXip45ISJRb8ktkGmxfhmO9MorZXAAAE/RJREFUUTtZqn2xP6POcF8po3zF6FJ0TpePSBMRERERGYOBNBERERFRExhIExERERE1gYE0EREREVETGEgTERERETWBgTQRERERURMYSBMRERERNYGBNBERERFRExhIExERERE1gYE0EREREVETGEgTERERETWBgTQRERERURMYSBMRERERNcFWLpfLLf1Bm23X4++88w7eeeedVv5TRHQA33zzDQDwvCQ6RHheEh0+33zzzfa5We2VThYCYOdAdBhUdwo8L4mMx/OS6PDZL4gGOjgivaXF/5xp/eEPfwAA/P73vze4JN2B9dWY6vOU52V92M4aw/pqDM/L5rCdNYb11ZiXxbWcI01ERERE1AQG0kRERERETWAgTURERETUBAbSRERERERNYCBNRERERNQEBtJERERERE1gIE1ERERE1AQG0kRERERETWAgTURERETUBAbSRERERERNYCBNRERERNQEBtJERERERE1gIE1ERERE1AQG0kRERERETWAgTURERETUBAbSFpOdscE2kzW6GERE1GGHov9fl+G32WDTvfyQ140t1mGjLvqr6sgG2/syVKMLVo+VGGy2GDrZ0oysLwbSVrIuY3bK6EIQEVHHHZL+X/02AcgFlMvl7VdmOonAURtiK0aX7rBQkb4DxJ+WNfWUQXQpAEeHA9TGqZCvRTr+bxpZXwykrWAlVrk7OxpA0uiyEBFR5xyy/l8YSyAxJuiOua9kEAWwqnTFeGsHCJBuJyAd0R5zI5yNAliFcihH77OI2Wyw2RwILHX63za2vhhIW8FQePMOrYD4qNGFISKijumG/n9dwarRZegCqnKYa8mN8OZocEH2GV0YAJ2rr1c68q8QERER1VAhXwogORpHoWqkmjTWZYSkJHxyoWrklXbVwfriiDQRERF11vaiQwcSZwso35bAMLrW9iK6own4n5ZrpsWQnhH1xUCaiIiIOuuIhMTmVIB5hJi5Yw/CWGJzas48cKmLMncYxIj6YiBNREREhhHG5hEfTSJw63DnozCWAOlaHL6lABaY3aQOnasvBtJERERkvO8UjrbWgdlNGtPu+rJMIF0qKsjdkzE/dQH+d0fgeUObuNuBfnEE/t9GsHAnB7VkdGmpWxUfpyFfvQD/ux4cr2pf45fnIT/Io/jC6FJS19lKYdaCl3+RF2E6bBQoSwDednKe9H7WFSQBDDpZS3XpUH2ZO5AuKkh9eQFn3nagt+84Br0BXJiZR/J+Gtk17QdV5B+kkfxjDOO+QTh6j8N/NQ2VAQ/VqfRYxqT3OPpcIwhcnkfyfhbK9l8r7Wvh6gUExH70uc5gcjEP3q/Vp7QSg0cXDB72DQnIKLvubnbgF9tb66iQ36+dC52d8SACH+Ln3MYU67BZl+GvmdubRcwdAUbjCA4ZVK7DyuD6MnUgrd6bxJmL80h93+gIjILk5RE4fhlB+se2FK2ztkezNhOlT3l4gWiZEvK3xtHvCmDunvLyjwPAWgpzUj/EiynU+Q3r+reM4NkI2ylRsw5V/y9APAsEjupvVjxTUWTK1RtqWNgREX4E4NDd0HkQmc4c4uwmWxuy2OCQkgAi2wMgbd+x0uD6Yh7p/azEMPJeLzL3w3C/ZnRhDmAojHI5bHQpTKiE/J+DEH/T3Krg7JdnMPIsgeW/+OBsedlMoJhFbCwAmTMRiJp3yPp/YSyB8pjRpTjsBEi3y5CMLkZDKhuyGNPSjK0vU49IawlveRG6chOJ9CqebGzg+X81e7L/9zk2lAzi07sENCsRhL7I8jE81SitzCFYHUQLIoLX7+JRYQPPt9pX+Tk2lFUkPq9tX8qtECKLHJeu8SyL2GkPIlydvrvpzE7/1eCLeWiJiFrH5IF0H3zTcWSePkfhu7u4MR2Eb3gATrsdPdqx+Fd6YD/mhnQlgSdKHFLVdSY3FUe62NGC02FXymLufNWUg6Ewlr9bxs2PvHAJdvRs/6EH9mMD8H2cwJPCXYR187VUyJfmkDLDFKKWUSD/1scgmhq2k0P2IK9VzHIOKhHVydSBtDB2E4krEtxHel7+4S3HJCwshTGgOziP9D85Jk07ivcWEHmoOSBIiC9GIf7kJV8UvIguVt2sqfOY/5qj0hUlZGcCCPxta5xfgCTHDXpcSFakLkYxqbmJG5gWq64HREQ7TB1IN6vnF34ETuqPKT9ySJq2qEgtLuiOeKejkI7V+fVjEuau+XSHUteTyLWmcF2sMufcN7Uzzu+eTmJhzIleA0tFFvIsjdlLSc0BHybPudHAUAwRWQwD6V054WIWHtpL6RFWl7QHRPiGG1suKJwNIawdlX4YR/rhnh+3BGVRv3DTPZ1B+gqDGOqc3J8jmNMsenBfizCTBBHti4H0rnrQ081ZOqi9VLUqbZ0b/Sca/I2eQXjOag/ksPqDddNTlFZiCEg7QbTwQRxxBtHUSesyopc0qx6ECUR/zUkdRLQ/BtK7KkBd0x9xvMZLeuvt5J3sqrzWamW3pB3NTDywwzUg6o6k1woHKFQXq84VPRRF8iuJKQGpg0pIX5/Qndfez0IQOaDSRl3a/3da9a6mM6ylfRlQXwykd1PMI3NHe0DEgMtuVGnMaSUGm80DZLWr5cOw0oyaXrs+PYz6tADLzcT/dxLjpzS5oodCuLvY5Xnbqfs8nEfkquaJ0MkoImO8lWsb9v91yc7YYHMDGW1WmSuspb0YVV97BtJ7b7Vau72n2RQfJDGvPXBagtjoo3va27oMvzuCaLZclQquSwhO6JcKFrDRRAQsHO3XH/ixaK185c+yiI35sbD19EeQEF+8Ae8xIwvVJf46Ac8btf3zcfcIRt6/gMiXMtKPLXdb1iQV8meTmtFQAaHpENx8CNke3d7/d4i66N/c8ZE3GPUwsr44Il2tlMX8tD4jQ/DXfj5mbqHsrQCSo3EEu7UTFYSq9pBAJmepELgFqnNFuxG9s1B/5hOrW8siu1Z7WFlJI700j9jFAEZcfXCI45j/BwPq/ZTuz2JCu3j4dBQT7/EJZLt0ff/fEVksSEn45CCD6LoYW197BtLVie0Lsm+vj5pICdmrE/r8wEOzCJ1lp9o6KpTvAN9ZYKFqNM2/2CWL7Xr6MTiqPaAidjUOZoKuV3H3XNFDHAJsNfXBAi780oWRqbT1pg3VJYf5qTnN7qQCwh8HOHDSNibo/zthXcEqfPBjwXIzAppicH1xRFpDWdTnsAXcmP3jBJPxt5QCZQlISgpE7TymbBRJydElnakA71hQf+jeOEY+lKG8qPMnSipSyUTLS3b4lZCd8cKzfZ4JkP6aQZzzUdtIRXpmBN6ZrLWmDtWhevMVjM7hwjBv6NrHDP1/B6wrSCKJwJqoG9DMTCcROMpguobB9cVAelN1+q2tUbKJk/t8iRq3rmAVqH0EMxRGZhpISgtdsXLbfjqEaNWjSeVWAMddfsQW08irRZS0QfWLEopqHtk7C5j80IPjvQ6cuWq9LViqb1bd00ksfMAg+uV64B4NIXw9jrvZRyhsbOB51dbWzzc2UMhnkLgegneXNR3ZqRCi/2Aova1m8xU3Zj+VIOz5BTowk/T/7aYqqwB8iJ/TT1RwX8kgiiQCt1hLWkbXFwNpVIJo0R3RncBbO6pRix1xYnCPPzlP+ACsQumGu+2eAUx8Ea2dj7WWREQaQb+jD72vah4xvdqLPkc/PL5xzN3K7j4NpMfcI2HMFX0AQxPI3L6B6EcSvEMuCHZ7Tb312O0Q3nTD99EN3P1hA5nPvFVBYQ6xzzgFaUv15ivCx1GEOHDSXmbp/9tMcO5ZS3COAvhOAcfudxhdX5YPpEsrMZw5Wx1Ec0e1dkuudf/lvGcojNS3UYhNDmEJQtUX33CYeDQshznNeSYMM1d0e9nh/iSB5HTVrd49GeldFilaTvXmK/Ai+huRfX6HmKH/b78kbyoaYlx9WTqQLv6jEkSntVvCTmeQYhDdRm6I0wCm0jWP8JS1JDDqh9hFW/LafxHGcm4Zs6P1h4TCcBA30gVkPvfojvuOmTeMBkrQDgmoDyLwvL5bes3dXh5EdL8Vgaf6M9ykYBc9cH8c1W9FjzRyeasvO6zdfGVgOoIAU5x2gLn6/7YZEhEFELlfU0tQlgDfWdHEgy5NMLi+LBtIF+9H4P2lNogWIH5WGYlmjo72cp+Lw4cIPJrgp5IDEohe6sI5ioKIidtPsPHDMuLXJxA8JcKl/Y8QXBBPBTFxPY7l/AYK6ZsIDQtQf9Dvj+hycnyWWqzHA/ED/aG8umFMWQ6L6s1XhBCi5zl40imm6//bwo2g7AOmPIhtL4ZVIb/vQQRRTI6xlvSMra9X2vrrh5SyOI4RaUEzV1CA91oKid8NsDPthCMSEmUnYjYPbFNbB32IPy1D6uLRCPsJEdJHIqSP6vl0Dpmvte9D8LzVnnKRlfWg93X9kbSqApadVFO9+QrgvhyE9yeGFch6TNr/t5owlkDZGYPNbdt5IjcaR6HMm43dGFlfFguki8h9EYD3UkrzlNmJoLyMm1xY2GFuhMtlhI0uhlHWVpHS5isf9WCQj0KI2qpm8xVhAtFfM8Fp51m8/6/XUBjlMmupbgbVl3WmdrxQIH84iEFtEC2ICP/vKoNo6rjcnXmkNe+9p90mH2WoXDjLTb0yiOp+K4pM9WeucP+vPf1X/9bcc/H3U735CuC7NgnxNcMKREQmYI1A+sc0Iu96ELilWSl8IoibD+4ieorDgNRh6zKil7U5pIMIvsebOWqH6ilEgFNwGFMUg9VsvjI0iwjnmhLRAZl+akfp8QKCw+OQtWtLhsOI345C5Lw46jgF8qfVGQM4R5Pao7SSQlw7hQghiD+34EqQms1XBIQ+DXLXWiI6MFMH0sqdCwj45nULS5zn4lj+kwSnqf/L6XBSkLoYQOBvzBhAHfAsi7nfRaDbP/OcCI8FH8JVb76C01FMvGfBiiCiljPv1I5/xeDRBdGV9Harf2EQTQZQ04j9yoMzX2pv6wRI1yMcjaZ9Zf9nBONfppD/sYHtvYs5zEk+RLRTGTCA2Ys+66X3rNl8ZQDRqYBl85YQUWvVGUgXkbm/+VjspAeubkhR8wJVW0KqSH/qQV9dG0Ds8Xpf5racpLeexLgUg/wgD/WZ9g8lFIsKcvdkxKR+OBwjiHytbz3u6SQWRjlHk17iRRoLF8+g/6e9cLx9BhemFpBcyUMtFlF6oflcqYjiv3NIfjmOEdcgJqvam/DxrAW3wK7dfAXnIggN8RkQEbWGPpBeT2JcmkPqcRHbYx/PFKT/J4DQrcpb3+UA55VZWHaGNxd6JWwsRhAQ++HQ7dTXi76+4xj0BhBZzFfV0c7mP7ycUyPU71OYnxmH390PR18fel/VtLnePvQ5B+G/uKDbrRXY3JJ9yoJbYFdvvgK3NUflW4T9fz1UyO9z51UrqRqRLmFjcRJnXH3o3WoArx/HyKcpqBAgXlnGAlc5W1Slc/B8F0dhO+1YAXEE4LDFarZ7pT0IIsKpHJY/YRBNneEcvYHU38NwWy7NW+3mK8LHUQuOyrcC+//6ZBGzORB4O6NP3znl4U2HiekD6dec8JwTIQ67dnLannBDPBdFPJvD8rTIO3mrWk8jsVS9hasA6Vplu9f0yj7fJUBwQfp8GQVlGdHTvBml+rnei2P2vLfxOb0nvJiQH2H1dggDlguid9l8BT7MXbTgqHwrsP+vz0oaEfgQP6fNa+9GOBsFlhJIrxtWMmoj/bI7uxsTf1nGhEGFaSnuCNQWq4oKDDEQ3PaaE+J5H4q5HNIr2jzlbojOfgyccsNzSoT3LSd6uMi1SdbeBc1+UsLEVxImrpegruWQyWaw+s8MsmsFKPez2Gl1TrhPOdF/0gfR54XvZ9Zucz2nZlEozxpdDFNh/1+PJJR1AN2wloxawsLdLDXkiAj/KBCQHLCtZbZ3ksveCiA5Gsf8kMHlM4rdjdBXCYSMLgeZ3ys9EN50w/emG75zphjuoG7B/r8+QyKiACJuG1blAhJjAgAV8rUIMJ2BxODalMyb/o5aTIB0u4yC7AOmPNuLKDzIoHxbMvn21kREVsb+vz6Vp2eZaSApOTbryYHE2cL2zQeZDwNpqlt2xgbHHf/mYpMMokClU+UiCiIiU2P/X4/NRZnYXGz4NA4fNoNqZu4wLQbSVJ+VGDxTPsSvbY0+VO68y9kosBRAaJFdKRGRKbH/r4u6GEJgKYrM1ujzEQmJ8s5IfoyLMk2JgTTVRVVWAQzCWT3HayiI+CiQXFN2+xoREXU59v/1UdaSwKizJsOOMDaJKDYXa5LpMJCmBqxWViPrKFCWdvssERGZB/v/uiwpqLmtWFewakRZqCMYSFNdKnfUSQSO6pPvZ2c8iEDzKIuIiEyF/X993OcqebU9unnjKuRLm9lNuKGdKTH9HdWpMidOnLHBY4vsHB6No1Dmqm0iIvNi/1+XIxISZRHy+w44bIGd49MZZu0wMQbS1BD3lTLKV4wuBRERdRr7/3pUUgVKRheDOoZTO4iIiIiImsBAmoiIiIioCQykiYiIiIiawECaiIiIiKgJDKSJiIiIiJrAQJqIiIiIqAkMpImIiIiImsBAmoiIiIioCQykiYiIiIiawECaiIiIiKgJDKSJiIiIiJrAQJqIiIiIqAkMpImIiIiImtDxQNpms/FVxwsAvvnmG8PL0S0v1lfj9cXzsrl6YztjfbWzvnheNldvbGesr3bW177KLQaArxa83nnnHcPL0E0v1hdfnXixnbG++Dp8L7Yz1peRL9tm8NsydUXvRERERERdjnOkiYiIiIiawECaiIiIiKgJDKSJiIiIiJrAQJqIiIiIqAkMpImIiIiImvD/AV8PvObP7ZOfAAAAAElFTkSuQmCC;" vertex="1" parent="1">
          <mxGeometry x="40" y="220" width="722" height="782" as="geometry" />
        </mxCell>
        <mxCell id="CZFwYiIEyRFxqFMBFOEH-6" style="edgeStyle=orthogonalEdgeStyle;rounded=0;orthogonalLoop=1;jettySize=auto;html=1;strokeWidth=6;" edge="1" parent="1" source="CZFwYiIEyRFxqFMBFOEH-2" target="CZFwYiIEyRFxqFMBFOEH-4">
          <mxGeometry relative="1" as="geometry" />
        </mxCell>
        <mxCell id="CZFwYiIEyRFxqFMBFOEH-2" value="" style="shape=image;verticalLabelPosition=bottom;labelBackgroundColor=default;verticalAlign=top;aspect=fixed;imageAspect=0;image=data:image/png,iVBORw0KGgoAAAANSUhEUgAAAtIAAAMOCAYAAAAz4eFKAAAgAElEQVR4nOzdbWgbV74/8K+WXnCgFxzYCyNwoCoprEMDcfhf8IjbF5GTQhV6IRIOWGIvZJUupMoWGrtdtpb9QpaybGtnoY22sLUb2KIxxGgCW+LAplFedJEMu9iFlLiwIVOIQQNbsKEFC1qY/wvJ9kjygzSWNE/fD4i6ih+Ofz7nzG/OnAdoLlGSQhoADcmC2UWxrh83tacrOW12Iq6FzomaD6jEDD5NPBfTUlJBK/1odiGtaFNbX32gZT8c1WLnAlq/sBU3aL7BgBZ7Z1a7+691swtpI5taISluxzBVNLs8FlNMbcemmVdIKpldYmv692Pt7qe7tdlx7S6bq6ZpmlZINl/Ptl/DWY01bsf6v+5qs+/EtMDLwnaMhJcDWujKTe3uKivaXtb/dVe7eSWkicd1echwXJuWl7V1i+UhMLsA3fFUyw6DifS+lrWU0EQneTymza5uml1YC1nWpo83c4ERtMDEA43d5sGeShFN0MWOiXQdJtKH8+NTLfdOUDdQUP8KadlnZhfSGphIH8a69mAiUNOX7fYSf3NXe2p2US2libgNxrW7itnl3PEzOFl5A+o3i5i5OITogtmFsboyoAIQ+hFJZlFQ1rH5owZN06BtruPxYgpBAcCTOVw+M4bF78wur1WUUX4CAD4Er9zE3dUS1jercdM2sa48wPSwD4CK/NQQop8oJpfX2spLaUQjElSzC2ITqeJWXdv7lRsRzC6mdfxQRPpVP8IfLEIRAoh9eBePS5vbsdr892Pcvd6PHrPLaRHixMH1a+v19NOg2cW1kDKKU0EMTeWhwofQ+w/wdF1Xz5QCZt8OQABQ/Og8olNFlM0usiXo4yYi/mkBT7/fJQ9ZyuD8SBrFH8wub1XXUvauKmipve5kOCK9h2Xt5ttZ7fE+Q6abxZQmVuMY+DPvoSsK2vTwtPZg3yGYp9rsa9X6d2paW+5W0exGyWoRARogaqlknCPSe9GNSDM2rShpuV8K2yNaOcXs8jjI9w+00eoTzSCvDZr2r1ktuPVE6C97xWNTK0wM8CmIzubfRqsj0YI2+rfdn3xvrkxvx3YgWdCs8Hzc2SPS1IIBxG9E0N+792f0DEYQO1f5OH+/yFFDAICI0dujCOw76OfDCbH64Vdljjzs5oci0iNRSKqAiJTF+Dmv2SUih9n4PIX4ZyqAELLzNxF6wewSOcfKJwnMqACEUYyO+MwujunUlTwWAQAhhM/sFY8eiKEoBgAAMpS1LhXOslTIn8xU8orXUoif2/25UM+pUaTer0RtZTKL/Eb3SrgXhybSIsZrHjsVkDK7SI5wBEf2SbRpHz9W/3uqh4+N6/1QRPqcH4klQEzKmOOFmNpOQe7jDFQAA+8nEHnB7PI4yHeLmHu/CAAIXo8j8LzJ5bGUDWxy5KQ55cdYrk7BFV45jf2uAgOvhFEZu8og/w/zA+zQRJo6YxObFrj7s51vJdz8pPJh8M1QdQSCKhRIb4aQWAKEX2aRnRB5o0Ht95WMzD0AGED0HFtg+5RR/DiBjArgVAoJ3gQDAISXTlf7+TwSSQl7rYxRVwtYAQBhHOKpbpXOor5Tt+Pkf+GAJ5K/GEC4+uHKt6VOlqopTKSpeU/ykO9XPhwQ+8ElTAf4QcXqvRmEz1WmLASuF5B9gxeaHWUUp6KIfqZC+OUs8n+K7DsKQY0Sogcez9bLixOBIVx+dw6LT3jHq6c8qiYsCML/8gaUexlcvTiEE96t2L0I/6uXkZ4vQv3J5MLayZMsUpOVyIbejUHkXXDFqTgyycp8PvWzKPyBMUhf1bXJH4q4+b4MQEDkRgwBxm7HT5v7/3vvUWyl2nnVApNMzZ6k3R26xYdcbGiQfmHEgDa9YnZ5rKp+oaugBd6Y1nKPuPFdve1t7gZTWuH7un/kgrq9NbX9Hbdb1Nvexu0Xom5fWntsrWVdm9qDdwQuot7TulZ4P1SzzaLwckQb/fSutlzMavHByt7IsU8fW2LBnPl0W/C+8+CAmFgrp+OINDWlvDSD0anKyIPwzjTibn8M1TQV+c/nMPenLPIWuHG2iu1t7oQIsvPjEDmvsnmD47tvQfZ9CY/zsxg9I2Bru8XgH1fMLq0FqFAeVT/8pgh1IIVs/jFK3+/EbnP9KQqfxiEC1ttay6q+yiDxgQpAQDwZ45S1Br0Q35jG9O/E7XfUryXM/Oo8TotRZJb6Ebv9ALOXuN1iRT/ES9Xn3B8kMLNk/tznppmYxHeRte5ebGd7W7I9Rg9pdz9uautKQZv9TfWUPiGgpYoce9hcnd3Z5m6veHBE2rjvl7Xpre0WEdNy/za7QGYr7RzIdSG77+EX64uj2wdBBD/lNm57W9fuXtnaSpCj0bvZXLmphY5X+rnxxVLl5OBiVpu+UnsYkG94Wiu4vo1W6XMNIaCNy4+1ki7f2Fx/qi3LN7XYmZ1TIq2Q0zGRpv0pOS229ShUiGhZxewC2ZHuonMqpRVcnktXHrMLWkTaJ1FhIn0om/nx7YQw/le3T/DQJdIHnrr3VJs911zS7WabxZQ2cMB+v672LFdNCPfo59afanevB3dO7+MA1badG5C9X8KZwPaZFlY4uZVTO2hv3+WRGAlj7gkAIYLZh3PcNsqQXgQjscqHX91E/mtzS2MNKqTIi7qFcnUvMbH9mTsL6sKQXL/XanN6XjoBf/Xj0g82ekRqOh9ODFY/vKNwr/xdKcgmE5XFm/vs9+teZeT/FIekAjiX2H0nk14fgr+7i4IUqSzaX0og/gmnYQFAz6k4co9KePBhHKEzuk0NjosIXEohWyxB+TS2vdiw/5j52x4wkabdfbuIq68PIb2E7SQ69gt2mIb1nUAIAKBi+V+8PBN1jwDfyeqHXyo4cLOs/+hwcWyufD+DxD0AEDD+TpQ77TRYRfFWtY9/5TT69/lM38gYxqrrjVaKq7xx29IjIPCbm8jlH6O0tQbkXwU8+HQckUEB+NcyZABAHP6XTS4rmEjTbr6VcPnceWSWAByPIVvMMok+rO8UFKofep93dyzFiV0WytW/ijtHKKWKW+/nEOkzseB2Ut7E1mZbPc+ZWhJL8B2v3MZCXcbqvk81NrC+lWnz8KRdrCAzWT19bngGV88wQo3KaD4j9sL7UifL4kRlFO5nKx9eCcJvgUPimEhTjfJXMzgvRivTOQbH8aA4y+kcbaA8KlT71gAG9juHnagNlC9l5AEAQQQGzH/0aTbhv4MIAgBkZO/vdTwGgPIyCneqXxPycyeKOhufz2F6CQAGkLoW4lkCu+pBz9auVl8uY3Xfz1WgfFn98Oe9vHFrQnlpprpbjIjpXwdhhaspE2natnE/gcDAGBZVQPjlLB7fTyHwc7NLZW3qwhjG5lex7/EX30pIvLdY+fi1CALHu1EycqQ1GWOTi1D3m/asq2/ClTjCrG/A8TDiVypp3+J7CUjf7v5pykIGaRUARIy9Lu7+SW5VLiIzWTlmHZcSiA8y7dvdAAL/V60791NIze9946bM38RNFQAEjA8HLJEUWtq3EmIXEigCEJMz1tmG16xVjt3FXTsOsr4Y315BLP7mLlerN6kkhbY32k9JD7THpfWdjeS/f6oty9M7K5C560nzuGvH7p5ltRCgQejXIsmsVlB09W1zXXu8yPq2J/3WWsdD2nT+qbb5Y/Xfvn+qPdAdniFeX+YhGXW2+jpA5IFcB/m+oKUGdw5HCl6/qz3+906N2vz3Y+2urr75LuUO2E3GRZ7ltNT7D7Sn27uYbGrryrKWq4uXlXIUhybS9afL7fNiYq1pmr6TbOHF2GklObazhdF+r+Mh7eYKL81NYyK9u1JOizRV32La7CrrW73N1dmd7Tx3ffm00IdMoht8/0Abrd6ECFfu8sTMZvz7gTau3+941xdPIG2wNViwT/u0Wrw4tYPoEIQLsyh9/xTL8izGr4QQGNStYRf6ERiOY1oqoLSaQ/wUH4XSIQkhZDdL+9c3eRnrq7NcILyLnl/EMLtaQkFKIabbWkt4OYDYO7N4UHqK3G8GOFe1zsonCcyoABBE6po15qVa3s8DSOUVlIpZpC4FEHh5Z0a5b7Ba354peJDklI4az/XCt+t19AGerlfap9Xi5dE0TTO7EEREREREdsMRaSIiIiIiA5hIExEREREZwESaiIiIiMgAJtJERERERAYwkSYiIiIiMuC5dn9Dj8fT7m9JRERERGQ5HJEmIiIiIjKAiTQRERERkQFMpImIiIiIDGAiTURERERkABNpIiIiIiIDmEhb1NmzZ80ugq0wXtQNrGetYbyoG1jPWsN4tRcTaYs6e/YsK3sLGC/qBtaz1jBe1A2sZ61hvNqr64m0pml8NfECKpXd7HLY5cV4tR4vtktjcWM9Y7w6GS+2S2NxYz1jvDoZr/1wRJqIiIiIyAAm0kREREREBjCRJiIiIiIygIk0EREREZEBTKSJiIiIiAxgIk1EREREZAATaSIiIiIiA5hIExEREREZwESaiIiIiMgAJtJERERERAYwkSYiIiIiMoCJNBERERGRAUykiYiIiIgMYCJNRERERGQAE2kiIiIiIgNsn0gXpzzwTBXNLcSahLDHA0/NKwxpzdxi7cYS8bIRxouInMIS/ZmNrpdmUufDdTHywHNRgmp2waiBvRPpNQnTk2YXAlC/zAFSCZqmbb8KSRnRYx6kl8wunY5F4mUbjBcROYVF+jPbXC9NpSJ/B8g+03RxKiC1EIXXkwaHdqzFnon0Urpyd3YsCtnssgAQRnLIjQg174kTBaQALCsWuH+0WLwsj/EiIqewWH9m+eulJQiI3M4h0qd/T8R4MQVgGQpH7y3Fnon04Hj1Dq2E7LDZhdnDmoJls8uwxQ7xshLGi4icwg79mZWulxamKoySFT1ndgGcSYV0LQp5OItS3Z03ERERbeH1silrEuIRGSGpVDdSTWaz54i0VW0vovAid6EE7XYE7BaIiIjq8HrZlO1Fh8dyCD/TGqbFkPmYSLdTXwS56sKADOJciUxERLQbXi+bIozkqlNzMsA17txhRUykO0QYySA7LCN6i+triYiI9sLrZTMERG5kEVqIYo67m1gKE+lOe6Tw7pGIiOggvF42hbubWMu+iXT5YQJe3Wbgl+9sdKtcDqBAWQBw0sd5X0TUFuUNBSv3JGQmryL86hD8L+kPbPDiRGAI4TcTmLuzArVsdmmJmsXrZVPWFMgATvtsGqWtrRjb8ArPW+dmYp9EuozC/bmau8O5z/NgKl1PhXSxcW5XccqPBELIXhLNKRaRBe16WtehXw4/oGBDweJHV3H+pBdHjr6I08Eork5lIN/Po/hE/4kqVh/mIX+cxuXQaXiPvIjwB3moP5lVcHsoL6Xhd1N9MhWvl01ZkxBumAtdRFpMAMNZxAZNKhftau9EulzA4u8rf8bga8HKe7eyWLTCYoDtuxovogsAJv0mdoACAheA6LHai7t/MoWCVr+hukksFS8bYLzIQtR7Yzj/VgaLX7c6AqNAfncI3lcSyH/XkaLZ37cSYhcSzm7XlurPbHC9tIK+AMKI1swI8Hj8SCQL3N3EgvbcR3rjvowZAEAMsfeD8N5bxBxkZO8riFzyda2Auxoch6aNm1sGHWEkB23E7FLsw2LxsjzGi5xkKY2h14+gcH8c4vNmF8ZCNopIj0QhWecJcWdYrD+z/PXSEgREbmuImF0MasoeI9IbyN/JVD68EkLg5QCClyr/u7iQh9KdshERkY7wchDxiVnk8st4ur6OzR+16tZYGrQfN7GuFJBNhtAw1LGUQPyPRXDadNUPRaRf8yPB3Q+IzJMs7PRfLb6stJ/27on0d3ks3qp8OHohgF70InAhXnnjnoT8k12/iohoXzt7oh7mtYxpV80RPIpQMovCs02UHt3FzWQMoTMD8PX2okf/TPG5HvS+ICIykcNTJYtI3XVmZTKLPBe5AFAgvRliEk1EbbFrIq3ez2IOAIRxBF/pAQD0ngthFACQR+bzlW6Vj4iohjqfwpguCRpIBjBgXnE6ThiZRW4iArGvp/kveiGCuYXxurhkkP+H28ekyyhORRH9bGs+h4CIlIV1Jj4Qkd3skkgruPuZDAAQLgXg3+q7e/wIvlP5cOUveTCVJqKu+yGP6Wuy7o0Qxi6JaCHFdI2e/wkjeqr2PeU7Nw9Jl7H6SQyhyZ0ldmJSxtyID0dMLBUR2VtjIv0kD/keAAiInfPrLlA98L82Xlkt+lUW+a+6VUQiooqVTxKY0S0OE28kuNJ/Tz70czexbcp8DIFf72wpJiYLyE/wJoyIDqchkVYeSlgEAOEqzp+p7WJ6xABiAgCsYPpzR28YRERWsyYhdU3X7wijSL3h5Ekdh9WDHu7SAaCyV3Q0spNEC7/MIsskmojaoC6RVpBfyAMABq4F0TCY0RPA+TcrK1jUP91F3u3T7eiQikjzIIQWuDleZeQ/HIV+UkfwehwBJor7KEGtWxjufd6FqWP9XtGDKch/ijTubEJd5ub+rAX1pwFOMUpWU5tIfyUjcx8ABhA9t/tIj3juamV6hzqHfJGZNBm0lIbH4weK+t0Yxhtv3qjC7fH6KoPEB7o5HadSSIwwFdrXxioKd/RvBDDQ32tWaczxrYzL53R7RQ/GcXee+2mbzu39WZOKUx54RKCg37VoglGymppEeuV+trqIcAVjA3scxysmqo/HVKTvFbgvKbVuTUJYTCBV1DDuqm3MDHJ9vFRI18d0o1UC4sk4RBcOrrZi46GMjP6N1yIIHDerNCb4oYj0SBhzW6PyQgTZ+ZsIvmBmoYj9WXPU+XD1xEcH32D8ZRT+lxrzzBfFIQxdvIrERxLy31h/gbQukV5BXmpxL44PZO5LSi0r3opCHs4ixk60KW6PV/n+NEYXdG+8lsLo6y4bWW1VuYhMcq7mrdgbYRdNZ6jfK1pE6s4cIi+YWCQCwP6sOUXMRWSEpJhzk2gAeFJEcZdzSZSlPPILGaTfimKo/yi8gcvI/N26yeZOIr20iOmvAGAA0ysHHIiwMl3dnzSDxS+t+8uRFalQHgGhC8Bc3V1oeN7pZ/Ua4fZ4rSAzOYOd31TA+DtRFyWERpRR/GAUCf3OSoPTiF9wy83Hxu57RQ/yEYb53N6fNWlNwTJCCGOubrQ2DGnN7MJ1n/pwDldf6cfQZB5WzDiriXQZ+b/erFysTkUROLXflwA4FdjenzRzx5q/GFmVAmUBkCMKAvqbs2IKcsTLzrSBu+NVf/gKhmdw9QwTov0o87V7JQMipj8edfShNTvKKE4F4d/+/QVE/lJAlvPpLcLd/VnT1hTIkBF9EqgZxCwkZUSPuTOZBlTkp4YQnCpabkpxJZEuF5C/VanAgTdDTXS4Awj8X/Wzbi0i/13HykdOs6ZgGWh8ZDU4jkISkCNzXLmt5+Z4NRy+ImL6vQiEPb+A6rd52xqNHT1ocMQh6m8ixKSMuV8yibYMN/dnLVCVZQAhZC/VTuwQJwpIQUb0ll2j1ANxOI7xD7O4W3yM0vo6NutmPGyur6O0WkDuwziCu6zpKE7Gkfq7tVLpnwFA+ctFpFUACCByprlOZ+BMtJpwzyF7n3eR1KQ+H07v8U++4yEAy1Bcebe9BxfHq/7wFeGdFOIuSQiNKC+lERATNYnI1sl9bsC9om3Axf1ZKwTfnlGCbxjAIwW2zLoGR1G4fROp30QQHOyH0Nvb0D57ensh/EJE6Dc3cfdf6yhcD9YNnqwgfT0LpXulPtDPgA3k78xU/q+VVd2nQoifq3wof3bXUr8UWZ/8hDWmFa6LV/3hKwgi9esAk6I9lJfSOH+hPol208l9K5jR/f7CGe4VbWWu688MkXlTgV6Iv8tBTtYtubwnIb/LIkWz/Azf5SF/XPmf4HCghY7Hh8BwoPLhPdlSvxRZmYhAEsBkvuERnvJEBobDCPDIZx03xqvx8JWBZAJRN23d1oKNv1eS6Lz+6PRkAYuuSaIBoAz9EJ36MAH/f+6xhWvDy49EzfdKwF//OTwEo03c2J8ZMBhACkDifkOUoCwAoQsBF01x64H4TgrjNb9wHiur1lmd9zP8PITZ6tyUu5dau3/3vfGgOq/lLmK8yFGTxEtZhJCAX3dxquyZCaSucQ5sPdfFq/7wFSGO1BU3JYXN27ifQPAVfRItIHC9MhLtlj06yF5c158ZIiImhYBJP9Lbi61VSBf9SCCFsRGXRanHj8Ava99aVdfNKcsunjO7AORCfRHkNB/SHj88k1tvhpB9piHC0YhGropX/eErgPhuDMGfm1Ygy1LmL2MoMqebVicgeGMRubcHeNNB1uWq/sw4YSQHzZeGR/TsPDEZzqKkufFmowdH/rP2nbyqAhaZvMVEmkwiYlzTMG52MWzDHfFqOHxFGEXqDXds3Na8Daz8MYrgtUXdbAYfYtIDzLpkYSHZnTv6s0MbHIemMUpW97ODP4WIqBvqD18BQjfGEHjetAJZz08KpF+dxml9Ei0EMP63ZZcn0ZXEbN+DxPZ8FZCq+V4pFOo/Z8LR58sRWd+Ptf8besE64/JMpInIEhoOXxmcRsJtcwH3810eiVf9iN7S7XhwPIbZh3eROscZ0UTkVCsofF77jk/wmlOUXXBqBxGZr+HwFQHx92IuOY3vYOVv5hA7cxmSfg3mmXFkb6cQ4PxxInKw8tIisl/p34kj8N/WWQnCRJqITFd/+ApeS2H0dY6yAoBy5yqioUzNAkzfpSwe/DkCH3twInKyH4qYeTuBFf17lwLwW+jywKkdRGSuhsNXBpCajFpkPbbJ/pmGvyaJrmxvt/wpk2giso/i74dw+aNFrH7XwvHeGyuYiYSQ0E/5wwCm3wpZantPJtJEZKLGw1dwKYH4oHUe25nqJ9QdBawi/54fR5s6aGSP10XJnscLE5F9/ZTH3FvnceK/jsB78jyuTs5BXlqFurGB8k+6zytvYOPbFcgfXcZQ/2mMfV7bWwnvTCN+qrtFP4jrE+niVJsuMktpV1ys2hYvl2C8DlB/+ApEy402EFEFr5fNUCFd5MmY+1G/XkRm6jLC4gl4jx7Fkf/QxerIURz1nUb4rbma01oBQDiTgjwZsNw++S5OpCuV3f8oi9L2NkclZBGF15NuOL503+80H4ZHXEb22eG+j7W1L17uwHgdrPHwFeGdlOVGG4iI18vmFJH2eBE9WajdXnHS77Cbhe7zDd/E4l/HIVpwO1T3JtJreeQW6o8kFRC5UTm+NL+0z9fWKGIuIiMkZXSnMgmI3C4ghQSm5x3SdNoWL5dgvA7UcPgKQph5y3qjDUSux+tlc5bySCCE7CX9vuMixospYCGH/JppJTNd/+tZTF8Jtr725XgQo9JjLN+OY8CCSTTg5kS6alk5ZMNdU7AM4LSvfr9bH3zDgHwn76i70EPHy2UYr731nJvWjW5p0LQcjwiuNzhu8JCRfV633XjE8H7qD3MZB49f2R2vl82Qobg4Yd5L76kIRv90F09/3ERptYDcp9MYvxJC4JxYl1z7IJ4LIPbOTWSLT7G5ehfTI/2Wnu7n3nXffQGEh4FoxAvPk8L2yVXFW1HIw1lkBpv8PmsKZACnG/5BgO8kgEkFCmD/C1e74uUWjBcROQWvl80ZDCAFICF6sCyVkBsRAKiQbiSAZIEDBQDwXA+EX4gI/UJE6NKo2aVpCxePSAuI3NZQkkLApH97orsfhdZGbPp8CMENI49tipdrMF5E5BS8Xjan8nSjkATkiLcaJy9yF0o8Zt7BXJxIV1Yge++Eq4+XC0gBlU6ilUUBfRGMJQE5Eoekf5yzJmF6EsCwzzH74bYlXi7CeBGRU/B62YzqokxUFxs+yyKEalLNnTscy72J9FIa/skQsje27qar8+SKKWAhingLix7ECQ0lCYge023hcg0IJwGc9Dlj9LGN8XIFxouInILXy6ao83FEF1IobI0+90WQ03ZG8tNcZO5Irk2kVWUZwGn46ucsDcaQHQbkJ0pL308YydUt6PFBmQRCx+19f72l3fFyOsaLiJyC18vmKE/kXUfVhZExpODkKS3u5tpEumJ5l9W1CpSF3T63RUt5JJDC2Iid76/rdTBejsR4EZFT8HrZlIXKgska1d1KyJlcm0hX7hBlRI/VbgJfnPIjAd2jGQN2Npx3zjZKnYyXEzFeROQUvF42R7xU2VfbXzNvXIV0rbq7iRNuFKiBe7e/q87xCkx54Pckdt4ezqKktbirwpqE8LEo5MN8D8trY7xcgfEiIqfg9bIpfRHktACki154PdGd95MF7trhYC5OpCvECQ3axCG/SV8EOS3SlvJYXVvi5SKMFxE5Ba+XzahsFejk35BquXZqBxERERHRYTCRJiIiIiIygIk0EREREZEBTKSJiIiIiAxgIk1EREREZAATaSIiIiIiA5hIExEREREZwESaiIiIiMgAJtJERERERAYwkSYiIiIiMoCJNBERERGRAUykiYiIiIgMYCJNRERERGSAR9M0ra3f0OPZ9f2zZ8/i7Nmz7fxRRHQIX3zxBQCwXRJZCNslkfV88cUX222z3nPdLATAzoHICuo7BbZLIvOxXRJZz35JNNDFEektbf5xjvWHP/wBAPDb3/7W5JLYA+PVmvp2ynbZHNaz1jBerWG7NIb1rDWMV2sOyms5R5qIiIiIyAAm0kREREREBjCRJiIiIiIygIk0EREREZEBTKSJiIiIiAxgIk1EREREZAATaSIiIiIiA5hIExEREREZwESaiIiIiMgAJtJERERERAYwkSYiIiIiMoCJNBERERGRAUykiYiIiIgMYCJNRERERGQAE2kiIiIiIgOYSB+COh+Gx+OpfV2UoJpdMCIXY7ukTmL9OqQ1CeH6+HnCkNbMLhjZmZntkom0YSryd4DsMw2atvUqILUQhdeTRtHs4hG5EtsldRLr12GpX+YAqaSLn4ZCUkb0mAfpJbNLR/ZkbrtkIm2YgMjtHCJ9+vdEjBdTAJah8O6ayARsl9RJrF+HJYzkkBsRak/8G6AAACAASURBVN4TJwpIAVhWOK5PRpjbLplIt5mqLJtdBCKqw3ZJncT6dUhrChhBardutcvnuvJT3GJNQjwiIySV6u6MiMg0bJfUSaxfh6RCuhaFPJxFqW6kmsiwLrZLjki3wfYk92M5hJ9pDY+tiKj72C6pk1i/Dml70aEXuQslaLcjYATpsMxol0yk20AYyVUnt2eAa1zBTWQFbJfUSaxfh9QXQa66MCyDOHfuoLYwo10ykW4rAZEbWYQWopjj6mMii2C7pE5i/TosYSSD7LCM6C3ue0Lt0r12yUS6Q7j6mMh62C6pk1i/DumRwlF9artOt0sm0u22pkAGcNpn79le5Q0FK/ckZCavIvzqEPwv6Tc69+JEYAjhNxOYu7MCtWx2aYkO4JB2SRbF+nVICpQFACd9nCdN7dOldslE2qg1CeGGuTdFpMUEMJxFbNCkch3GhoLFj67i/Ekvjhx9EaeDUVydykC+n0fxif4TVaw+zEP+OI3LodPwHnkR4Q/yUH8yq+BEVU5sl01QPhnaudGd4uPxjnFp/WofFdLFxrnQxSk/Egghe0k0p1gt2vUUvUO/eKCPYSa3S932d0WkPX4k9vlk4eUATvz3ACLDcYRf86G3s2Wztr4AwvDC64nWvp8sQJuwR2dQT703hvNvyQa+UoH87hBkeRwPPk8h8PO2F42oOQ5slwdTkL+TN7sQ7uDK+tVOAgIXAO8xD2ojmEJBGwcjSIaY3C5b2kda/ToP9es88rdmkHh9GovSKAae71TRrE5A5LaGiNnFsJKlNIZeP4LC/XGIrq0XZC63tcsNFH9/GYl7ZpfDLdxWv9pPGMlBGzG7FOQs5rbL3ad2JAu688q3XptYLy0j+3YAAgD18zEEr+fB6bHOJLwcRHxiFrn8Mp6ur2PzR11d+HET60oB2WQIvvovXEog/sci6wVRh5Q3NrDx7QoW52dwOdAP/3t5LtAiIjJJC3Oke9ArDCByYxap1yrvqLeKWO1MucgURxFKZlF4tonSo7u4mYwhdGYAvt5e9OifXTzXg94XREQmcniqZBGpm8e/MplFfqOrBSdyOBXSxcpcyiNHj+Ko7zTOR8Yw95ApNFG37exVfJjXMqY5p94RDCw29OHE1pQTFRx5dBBhZBa5iQjEvp7mv+iFCOYWxjFQ82YG+X+wZhAREe1GnU9hTLe/8UAyUHcdJbswkEiXsfl99UMBaCHlIofq+Z8woqdq31O+45A0ERFRgx/ymL6mX9gfwtglkfmUTbWeSP9QwOJnlQ/Fd4O8gyIAPvRzuTUREdGBVj5JYEY3K0u8kUCkz7zy0OE0n0j/VIb6lYSx/41iRgV8l3LIvs00mgCgBz3cpYOogyqr0neda1lMmV04ImrWmoTUNd2O0cIoUm8wl7Kz3RPpSX/jZuH/cQTegShmHqrofyOL3Pu77NhgE8WpvTdFT3f4THZnKkF9UvuO93nnPKSq1JfGQwQOst+m/eF5I4vEikg7eAP/trfLpXTt9+FBJa7Gfr/CaH/WgZI4uj/bXRn5D0ehn9QRvB5HwIkDUdX+19i17vA/t5v9vqGTDVc/ieL0f3kxNJmHbWfCDmdR2mV0Z5yraFu3sYrCHf0bAQz0O+O4HnU+DP/kYb5DCoVd6llupMUjS5fS8Hj8QFH/fRx4gEGb2mVxygOPiNrY88AMcnm/f/j+rE3c0p/V+yqDxAe6xPJUCokRuw5J7mNNQljc73i/zjCr329hH+nqXtJKAbNvByBARX5qCP1vLto3maa22HgoI6N/47UIAsfNKk0brUmIR2SkkiY/Oq92Sqmiey74h1FJFnhSGlEN9mcmUyFdH9ONuguIJ+MQnfPwtkqFdC0KOZlCN2uamf1+iyPSlf2DYzceoPDnIABA/TiBzBK3OnOtchGZ5FzNW7E3wrad9rOjiPSxKCCVMH7O5JLcikIeziLmqouOUUXMRWSEpBiTaKJt7M/MVr4/jdEF3RuvpTD6ujOe3OoVp7yIIovSRKCbP9XUft/Q1A4A8A3HEQcArODmQxsey7IQhZfzJw+pjOIHo0h8pXtrcBrxC3bvHFRIF/1IJAutT8FokIBfX88uSi2eQqdCeQSELgBzbZlnbXGHbZdrCpYRQhhzdfNgrTAnlEznyn6/nf3Z4cviqv5s2woykzO6vl/A+DtRBww41doeFb4dQVdrmsn9vuFEGr1H4a1+qK4qtjqiVpyom7LyLIvQpN9AkuNuynwMoUn9hUjE9Mejtt8SceeO+nD3to2nXxWQWojC29KiGgXKAiBHFATqdmqQI15HXXza0i7XFMiQEX0SqPlehaSM6DEm027m1n6/Xf1Ze7inP9OrP3wFwzO4esZhczqW0vBGgOwzE6bUmdzvG0+k9YRe2HoMsi+CjBQCFnLI80LblPJSGtGIVHOHHZGyGD21zxfZQOWOOoTsjU7cUYsYL6YAJJBvdpeANQXLQOMjq8FxFJKAHJlz7kp3A+1SVZYBhJC9VNuVixMFpCAjesux0aJWuaDf72x/ZoAb+7OGw1dETL9nkb9Hu1TnvYekjCn7YZvd7xtPpJ88Rr76YeAln+1P5BFeCSMEGYpDO9R2Ki+lERATNR2emJQxZ/vVxyryd2SkirnOdQaDAaQALCtNjrz0+XB6j3/yHQ8BWHZ0nW21XQq+PaMF3zCAR/Z6ekad5ex+vwv9Watc2J/VH74ivJNC3OYDTvXUL3OQTZw6ZHa/bzCRViAlE9VEOojIGbsnUKg+GqCDlJfSOH+hPokuID/hnONNE2LdPrNiAoCM6LE27HVaHZFplfxEOcxPtS9D7dKpiRG1nQv6/Y72Zwa5pj+rP3wFQaR+HXDMtbJGw/kjfiQAyBFvl/ZqN6/fbymRLm9sQFmSkL44hOhnKiqP828i5oCtziqPBlIIuGwlcSs2/l5JovP6o02TBSw6Jone4/S4YgpACNlnbdjrdE2BjBDCrzR75y4ikAQwmW+44ClPZGA4jIBVRps6oOV2WR3xT9xviBaUBSB0IeCsR6p0KM7u97vQn7XMTf1Z4+ErA8kEog7Il+o1rgeqrgkCEJJKnd+r3eR+v/mTDT0eHDl6FC+KUSQWFAAi4lLefo/z1ySE6xeXLKXh5ZZZ+9q4n0DwFX0SLSBwvTISbev58R1TRLp+tGdrk/rkWEuPWsVLWYSQgF+3w8DWwQqpaw6Za9e2dikiJoWASb9uBKS6awFSGDN91wIyBft9y3BFfwY0Hr4ixJG64pRBJ6sxt99/rqXPFvoROOnHwEgI8QtB+OyYQfX5cHrBD68nWvO2+zaHb54yfxlDkTnsPIwTELyxiNzbA+wU9uSDbzgBv6f2dKeQVILWaqPuiyCn+ZD2+OHZPpWsMqJkmbmPh9XGdimM5KD50vCIHmxHfziLkuagizS1hv2+dbihP2s4fAUQ340h+HPTCuR4Zvb7ukRaxLimYbzDP9B8bvk922EDK3+MInhtUTeS40NMeoBZuz2JOIzBcWhaq19UeawaaVshnF5v2/z7DY5D05wbLWqV09tPCwz1Z+3m7L9Hw+ErwihSb9h9Y9hWVf7GXWVSv9+e7e/IeX5SIP3qNE7rk2ghgPG/LbsriSYiImpa/eErQOjGGALPm1Yg6jAm0tTouzwSr/oRvaVbWX08htmHd5E6Z8f5PERERJ3XcPjK4DQSXJvhaK3NkSbHK38zh9iZy5D0ayTOjCN7O4UA53cRERHtruHwFQHx92K2P+2X9sdEmrYpd64iGsrULJDwXcriwZ8j8LGmEBER7an+8BW8lsLo63yK63RMj6jin2n4Q5maI78D12Xkfsft7YiIiPbVcPjKAFKTUXBFkfNxjjRV/IS6IzRV5N/z4+gu+4k3/arft5WIDFIhXdyjnYm1WyzudQ6AxxOGxBMfiTqg8fAVXEogPsgNYt3ApYn0LhelKWMHpRanar9PeJ6pI+2orx+8uegOtkvqJLfWr7b1Z0tpZ/WL9YevQMT0WyE+ze0ys9qlCxPpItIeL6InC7VHWU76W2zMlWTc/yiL0tb3eZYFIl7DSTk5yS71Qyshiyi89SceUhuxXVInubV+ta8/U+fD8IjL1SPKndAvNh6+IryTQvyUaQVyIXPbpfsS6aU8Egghe0l/KKyI8WIKWMgh3+yjz6U5RBdCyN7QnZrTF0GumAImp/kI1e3W8sgt1B95KyByo3I8bn5pn68l49guqZPcWr/a1p8VMReREZIyulMMBURuF5BCAtM2HNlvOHwFIcy8FeCpv91kcrt0XyINAJChHDKwqrIM4DR89Uea9vkQgozclzbrEAbHdSP0bXrd5pHMy4rN6oHNOa5dbquclHm4Nplz0BHM5nBu/WrOofuzNQXLAE776q8MPviGAflO3nZTPHrOTetG6dnOzGB2u3RfIj0YQApAQtTPn1Eh3UgAybGmG4DyRN79H/p8OA1AfqLs/u/kDn0BhIcBue7RUvFWFPJwFrFBE8vmYGyX1EmurV/t6s/WFOweQQG+kwAWFDg0gtRBZrdL9yXS1fPfC8lqp+DxwOPxInehBG1CPPjLq3zHQwCWDz2yTU5VGUEsSaGaXRT8KHCkvoPYLqmT3Fu/2tSf9fkQAp/UUXuZ3S5dmEhXJ6WjsD0hPYTGO+2DCCNjSEFG9FrtAkV1fhoJAKHj3D3S7YpTHnjvhKuP/QpIAZWLkN1XqFsY2yV1kpvrV1v6s74IxpKAHInXzltdkzA9CWDYx32XqWVmt0vXJdLqfBzRhRQKW6PPfRHktJ077XTTiyZEjG+vNt7ZbiWOMFLYbQ4YucpSGv5J/eKHypMQrZgCFqKI23BRjT2wXVInubR+tbE/Eyc0lCQgeky3Vdk1IJwEcNLHp3VkgLnt0nWJtPJE3vWut3JH0+ojp8YFQDmfggRCjZPeyVX2XPwwGEN22MFzKS2B7ZI6yX31q939mTCSq1uY7oMy6ewRfeo089qlO48Iry5oqLlHqa4mPqzi/QSQLHDVLmFrzpZYUxcUKAsATppUJJdiu6ROckf96mB/tpRHAikURjgeTe3TrXbpuhFp8VJl30t/zbwuFdK1yurjjOGGrNsQvIVFi+RM23O2jtUeMlCc8lcuGKwjXcJ2SZ3kjvrVyf5s54CWcTg3gtRd3W2XrkukK3Oi6+fSVE86bHE3BXU+rDuOsrrzB3dkIAA7u8Mk4NfN2aqcvMQLRiexXVInubN+tbE/W5MQ1n2PygJG7r1Mh2Nmu3Tn1I7qXJrIYb/LSA7aSFsKRA4lTmjQJswuhbuwXVInubl+taU/64sgpx326ktUy8x26b4RaSIiIiKiNmAiTURERERkABNpIiIiIiIDmEgTERERERnARJqIiIiIyAAm0kREREREBjCRJiIiIiIygIk0EREREZEBTKSJiIiIiAxgIk1EREREZAATaSIiIiIiA5hIExEREREZwESaiIiIiMgAj6ZpWlu/ocez6/tnz57F2bNn2/mjiOgQvvjiCwBguySyELZLIuv54osvtttmvee6WQiAnQORFdR3CmyXROZjuySynv2SaKCLI9Jb2vzjHOsPf/gDAOC3v/2tySWxB8arNfXtlO2yOaxnrWG8WsN2aQzrWWsYr9YclNdyjjQRERERkQFMpImIiIiIDGAiTURERERkABNpIiIiIiIDmEgTERERERnARJqIiIiIyAAm0kREREREBjCRJiIiIiIygIk0EREREZEBTKSJiIiIiAxgIk1EREREZAATaSIiIiIiA5hIExEREREZwESaiIiIiMgAJtJERERERAbYPpEuTnngmSqaW4g1CWGPB56aVxjSmrnF2tdSGh5PGiZHzvIsUb+oJep8uK4teuC5KEE1u2DkCI6oXyb0/46IWxcxXvZh70R6TcL0pNmFANQvc4BUgqZp269CUkb0mAfpJbNLtxsV0o2E2YWwPovUL2qFivwdIPtM07XHAlILUXh540iH5oT6ZUb/74S4dRPjZSf2TKSX0pW7s2NRyGaXBYAwkkNuRKh5T5woIAVgWbHS/WMRaY8HHo8X0QWzy2JhFqtf1AoBkds5RPr074kYL6YALEOx8lMisgE71y8z+387x80MjJed2DORHhyv3qGVkB02uzB7WFOwbHYZGogYr97dlqSQ2YWxLjvUL2qJqlivNZJz2KN+Wa//t0fcrIPxsqbnzC6AM6mQrkUhD2dRqhupJqIuW5MQj8gISaW6ER6iNmD9MoZxaw3jZVn2HJG2qu1Fh17kLpSg3Y6AaTSRObYX6xzLIfxMa5h+RXQYrF/GMG6tYbysj4l0O/VFkKs+Ossgbv2dO4gcTBjJVafoZIBrXPFO7cX6ZQzj1hrGy/qYSHeIMJJBdlhG9BbX1xKZS0DkRhahhSjmLLmLDtkb65cxjFtrGC+rYiLdaY8U3j0SWYS1dtEhp2H9MoZxaw3jZS1MpDtGgbIA4KSP86SJzLamQAZw2ueM1lheW4F8awyXXx2C/yX9oQ0vwv9qGFcn5yB/paJsdkHdwmH1q2sYt9Y4JF7lDQUr9yRkJq8i3NCHeXEiMITwmwnM3VmBaoNOjIn0oamQLjbOhS5O+ZFACNlLojnFInKjNQnhhjmERaTFBDCcRWzQpHK1i5rHzMUXceTYaYR/NYO5+3kUn+g/QUHxvozM1GWEB7w48lIY6TurTKjbxen1q1MYt9Y4MV4bChY/uorzJ704cvRFnA5GcXUqA7mhD1Ox+jAP+eM0LodOw3vkRYQ/yEP9yayCH8yeifTWgRlbG8tP+qv/b8aJPwICF4DosdqjPP2TKRS0+g3Vzba1Ib8H3ogMIAF/9f+teQKjSSxVv6glfQGEEYW35mhdPxLJgu130VHuXIXfO4SxBaX5L3oiIxE6gcBbi2jhq2gvtq5fJvb/to6bCRwYL/XeGM6/lcHi161OS1EgvzsE7ysJ5L/rSNEOzZ77SA+OQ9PGzS7FNmEkB23E7FI0o7Ihv3UiZ1EWq1/UCgGR2xoiZhejzZT5KPwR46v1ix+dh38jh5W/hGx5EbYOO9cvM/t/O8fNDIxXg6U0hl4/gsL9cYjPm12YWnuPSP+0gdV7cxj71RCGTnp37ope8mPo4lUkbslYWeMDQyKijvpWwlhDEi0g8MZN5FaeYv17rbo9lgZtcx2l1bu4eSUIX923UT+LI/X5RvfKTUS0C+HlIOITs8jll/F0fR2bP+r6sB83sa4UkE2GGvowLCUQ/2PRclPVdkmky1idH8PQsaM4EbyMmVt55PVD8U+KyC9kkP5VGKePHcGLwTHM/ZOdMxFR+5WR//MoZP1bQhDT/1jFgz/HETrlQ69+dKanF8Ivgoj/6S4er84iUjP8rCLzUY5TPIjIBEcRSmZReLaJ0qO7uJmMIXRmAL7eXvTo50Y814PeF0REJnJ4qmTr+jBgZTKLvMVSzrpEegP59wI4EZlBXgWEMzHcXHyMkn7E4/sSHuezSI30QwCg3JvB5fcXucUbEVHbraB4q7Z3Dd2Yw+j/6z3wK3t+EcPcwjgG9G/eX0Tx23aWj4joYMLILHITEYh9Pc1/0QuRxj4MGeT/Ya0xaV0iXcbK74MY+n1lOZWYLGA1P4v4a/0Q9CMezwvoPxPBuPQYq49mETve3QITEbnGmoLlmjw6jthrzc9y7vmfMKKn9O/I4Ba0RGQXjX0YoHxnrSHpnUT6qwzi71WSaOGXWWQnRBw05tH7cgyzK8uYPt7CHQYRERnkxdGDB6NrPt/7UqfKQkTUaT70W3wX4WoiXUb+9nR1a68QZq5HGid57+X5AYxe50pwIqK2e64HtcMUeTx+ssfnNiUEn6W25CQi2k8Peiy2S0e9SiJdLmDx99XnfVdiCLqko1XnwzV7P+tf4XkXPP+s7pfc9d91e5/m6mvK2rszF6c88HgaD905SPvr184+sE7c17oS591fhva5tVk925Xgw+max5p5ZP7Swqr18mMsL+j+/7UgRJf07/XaXr/sjv1/axgvk5Sg1g0eeJ+31iyISiL9zQry1TdCr5w+cEqHs6RQ0HSLKauv3IjDx9jXJITFRNd/bHHKA4+I2phPWPe5jTofhn/yMN+hTfVrKQ2Pxw8U9d9nHNaNnEHDWZR2idd4iyd52a2e7W0AobeCNe+sTIUQ/uMKmpkluHFPwsz2/wmIXwk3/7TRidpUv2yP/X9rGC/zbKyicEf/RgAD/dbKUn8GABvPFKxU37D7Ge7UDBXStSjkZAqpbv7U+XD1xEebJIBrEuIRGalkN6O0eznCYgKpogsv+AbYrp4dwHfpJrK/1PfLKhavnUZ/YAxzS+reo9PfSoi/Obf9v8IvZzD6urUuQGQG9v+tYbzMtPFQRkb/xmsRBCy2ycXPAKD8Q8nsclAXFae8iCKL0kSgmz8VcxEZISlmk06hiPSxKCCVMH7O5JLcikIeziLGJLoJdqtnzfAh8qdFTL9eO8ihPpzBZdGLIy+dx9WPFrGqPz73WxlXR6KQqk+hhTMpyH9qYe0LORb7/9YwXiYqF5FJztW8FXvDek/V9j7Z0DUS8OvnH100fgyvHWzf5d6OdHeB6JqCZYQQxlzd/MTW5x53ngrpoh+JZKENU3wOW79UKI+A0AVgzg3z+Bei8B5mPqCt6lkLnh/A6F9XsfzhLqd9PVlE5q3zOPFfHrwoXsbY5GX4fWFklgBAQODtHAp/s96xuqY4bP2yOfb/rWG8zFRG8YNRJL7SvTU4jfgF6z1V+xkA9DzvNbscphBGcnVz5QpILUThddgirm1LaXgjQPaZCY+K1hTIkBF9EqiJeSEpI3rMWp3DzgjE4aLUnvqlQFkA5IiCgP57FVOQI15HJdPiRN3c1WdZhCb9rd182Kieta4XA7+ZQ+5GcM/PUJbmMDM1V61f/Rj96woe3AjB99yeX+Iabalfdsb+vzWMl6mU+RhCk/orpYjpj0frDmexhp8BQK/Xu3239fiZK7qUPYgYL6YAJJB32iru6jzbkJRBxIRV+6qyDCCE7KXaLkmcKCAFGdFb1rh1qYxAhJC90YkRCAP1a03BMtD4iG9wHIUkIEfmnHnTBwB9EWSkELCQQ77JC4dd6pkRG19LuCoexelriwAA4cwoZqWbiL/ev0ddXcXM/w5g6JqEVWudX2ANBuqXbbH/bw3jZaryUhrRiP4GV0BEymL01D5fZKLK1I7jAwhX35DuFZpaDe5YgwGkACw77Pgv9csc5LZMVTBG8J3e41988A0DeKRYYFRIRf6OjFQx17nOs9X61efDnpE7HgKwDMXBSYDwShghyE3/jvaoZ61TPr+K4MlodboGIP7uAVbz04iNxHHzr49R+v4pluWbiL9WP/FDRf6PUZzoH0L6767u2XfVav2yK/b/rWG8zFNeSiMgJmoGiMSkjLkRq82M3lFJpHv9CF6pvnNrDrlDbfhvc9URQEea9NfNt/IjAUCOeLu0l6o9LlgJsW6fWTEBQEb0WBv2bjZYv+QnymF+qn2tKZBb/iJ71LNmlZfSiP5vZrveickC8tcDtduUPu/DwIU4bi4+xeazAmbfDtSOUqt5JF4JIr3U9A7U7mCoftkU+//WMF5dV15K4/yF+iS6gPyECGvtHF2rutiwF4H/S1XnniwikZTQ9GX7h1XM/V52zt3RmgIZIYRfcdY2gI3zdatzdgGEpFLn91KtjsQm7tenoZU5wKELAQucjikgcrtxj1mtmAIQQvZZG/Zubrl+iQgkAUzmGxJ45YkMDIcRcPABG5VHnCkEmq2btqhnLSgXMXNFd2E5NY6Zt/e/qPT0iYjdeABlNYt4TdyKSFyIQXbZxXk/Ldcvm2L/3xrGq/s2/l5JovO6ZFJMFrBo8SQa0O3a0TM4ikyykiKon0URfS9/4BSPja8lXD13ApdX7DjKUUS6fnRxa9P15Jgp86KcTURMCgGTft2dfHV3DKQw5rgDcNpXv8RLWYSQgF+3w8DWQTGpa11eTd4paxLC9Yu+ltLwtrwFlLPqmTKfqlm1Hnwr1vTuGz2/iODm/QJS+gu+KiE1v7Ln1zhW2+oXGeOsdtl57orXxv0Egq/ok2gBgeuVkWjr7dHRSLf9XQ/Eiez2xv/F3w+hP3AZmXurUDd0ifIPG1C+kpH59RD6dXP27McH33Dd1mTVfYNdd3JQlwgjOWjFlG7qRHV3DEduON/G+tUXQU4rIKV71FhZTe6gA1r6fDhdvzVZ9RCaVucpOqeeqSjeW9T9/wACAy3OE3xeRPzdWM1bK1Ierkul21i/yBjntMvucEu8lPnLOP2qftBJQPDGIu7+zvoj0VvqNkXyIfKXVfhOxhB9V4bycA5XH87h6p5fLqB/ZAzTyaANR8Uqj/EjZhfDVCLGNa27P3JwHJo23t2feViD42g9TO2uX5W/lc0i14I2/352rGcNKo9xd/jg/Xnr36X3pIgA5pDfeuMrBaUNYMAOQz1t4/T2YwT7/9YwXu21gZU/RhG8tqh7UuRDTHqAWQsvLNzNLruL9kJ8J4env1FRvJND7r6MlX88Rv7r6q96XETgFT9C54IInAug30DHTkREB2jXwueeI3WPR0vY+AGwxTNTInKenxRIvx5C9JZuNZ4QwPhfckids1/HtPc2/T0CxJE4xJF4F4tDREQAgD4f+mvekLG8Wkakr8UHnt+V6haPe9HLUw6JyAzf5ZG4GEX6oW7FwvEYZj+/idgv7DKZoxaPCCcisqQeHK07gCB7v4BWl3YrK3Vzok/54LXfoA8R2Vz5mzlETw7VJNHCmXE8KM7aNokGmEgTEVnUAPyh2tUn6gdjSP29hVT6hzwy7y3WvDUQCVjymF0ici7lzlUE+i9D0g1E+y5lUfhbCgGbTxFmIk1EZFHi62N1K/RXkH4lgMS9Jnbu/y6PxP9GMVPzqUHELzCNJqIu+mca/lCmZmeOwPUClj+NwLf3BGPbYCJNRGRVp+KYmahPfItIB7148WIa0sNVqD/o/qm8AfWbPKSpKE7UPUIFAPF6rI2M5wAAIABJREFUCtHjHS81EdGOn1B3aJ+K/Ht+HPXUnSLcyqt+X3gT2S+RXkrvH9ypQx3g3L5yWeiPXFFEet+Kecijr53CqvWLWlKcqv27heet1Rqb1wPx3QxSZxo3GFUWEogGTsD7n7rf9chRePuHEJ2UsFr3K/su5ZD93YBt9ma1MufUr+5i3MiJ7JdID47vcnSnBu1ZFiEAoePd339QnQ/DIy5Xj5DWoGklZBGF11LJaWUPzMbYlZAdBjDsg712buwQC9YvaoUK6aIH/kdZlHR/O0S89r0Jel7E+F8XcXPYaN0TEJh4gOVPQ2zjh+bA+tUVjBs5l/0S6T0Ub0Uhm3J0ZhFzERkhKaM79llA5HYBKSQwbfU77qU5RBccdNR0h5hXv6glS3OILoSQvaGrz30R5IopYHIa0pqZhTuE5wcQv72Mx9Iogi1MzRDOjGL2H6t4kAxw2+h2cGr96jTGjRzMGYn0moTpSSAkxbp/dGb10ITTvvoEywffMCDfyVtsioeeCulGAhjOIuaUo6Y7wcz6RS1RlWUAp+Hrq/uHPh9CkJH70rqt8WC96B+Zxt1/baK0ksPsRByhcwH067seoR+BczGMfpjFg9V1lPLTiP0/ptDt4uz61TmMm8vt9aT3MK/b1hn8c8B6SUD9MgcZKRTMGC1cUyADON3wDwJ8JwFMKlAAy/zBa6zlkVsAUkXrVEgrMrV+UUuUJ7u3RvT5cBpA4ollW2MLeiCcCiF2KoSY2UVxGXfUr/Zj3MjJHDAivTW1wqTRwj4fQgCWFfvdURdvRSFzNPoAJtcvaonveAjAMhQ+KqYOYP0yhnEjJ7N9Iq3OTyNh5tzVvgjGkoAcidfO86pOB7DsIr5q+Tg3en+m1y9qiTAyhhRkRK/V7ppT+TtysSgdDuuXMYwbOZnNE+nKaCGSAVNHC8UJDSUJiB7Tbe1zDQgnAZz0WTJR3Vo8F+Bo9D6sUb+oFSLGt3fN2WmPcYSRwm5rGYhawfplDONGzmXrRLpyNxtC9pL5aY4wkqubCO+DMmnRO20unmuKleoXtUJA5HbtwpScT0ECocbFTkQtY/0yhnEjZ7LxYsOt0cKCbts5C1nKI2HRBWpbo9FWLJt1WLx+UUuK9xP8W1LHsH4Zw7iRE9g2kbbyaKE6H4Y3AmSf5aw34svR6KZYuX5RK1RIF72IIovSbf4tqd1Yv4xh3Mg57Dm1Y01CPCIDyTFr3MmuSQjr5n1574RR0nLWKFsNFdI1HixyIKvVL2qJOh/WHUPsRe5CyVJ7jpK9sX4Zw7iRU9lzRLovgpwWMbsUO6xWnj1V5qjZoaSmss3fk3YjjOSgjZhdCnIq1i9jGDdyKnuOSBMRERERmYyJNBERERGRAUykiYiIiIgMYCJNRERERGQAE2kiIiIiIgOYSBMRERERGcBEmoiIiIjIACbSREREREQGMJEmIiIiIjKAiTQRERERkQFMpImIiIiIDGAiTURERERkABNpIiIiIiIDup5Iezwevpp4AcAXX3xhejns8mK8Wo8X26WxuLGeMV6djBfbpbG4sZ4xXp2M1760NgPAVxteZ8+eNb0MdnoxXnx148V6xnjxZb0X6xnjZeaLUzuIiIiIiAxgIm1RZ8+exdmzZ80uhm0wXtQNrGetYbyoG1jPWsN4tVfXE2lN0/hq4gVUKrvZ5bDLi/FqPV5sl8bixnrGeHUyXmyXxuLGesZ4dTJe++GINBERERGRAUykiYiIiIgMYCJNRERERGQAE2kiIiIiIgOYSBMRERERGcBEmoiIiIjIACbSREREREQGMJEmIiIiIjKAiTQRERERkQFMpImIiIiIDGAiTURERERkABNpIiIiIiIDmEgTERERERnARJqIiIiIyAAm0kREREREBjgnkV5Kw+NJo2h2OciZWL+MYdyIiMjBHJJIq5BuJMwuBDkW65cxjBsRETnbc2YX4HCKSHv84KWaOoP1yxjGjYiI3MHmI9IixjUNmqahJIXMLgw5DuuXMYwbERG5g80TaSIiIiIiczCRJiIiIiIygIk0EREREZEBTKSJiIiIiAxgIk1EREREZAATadrXxjd5SB9cRfhVP170eODxeODxeHEiMITL72YgPVzFxk9ml5LIJcobUL5ahPRRAlcvDmFIfLHaJquvl/wYevUyxj6SkP9mA2Wzy2tJ5Uq/thXDk96aGHpPDiH85gzya2aX0zzlDQUr9yRkJq8i/OoQ/C/p6li1/w+/mcDcnRWobq5kS+na9neIV3heNfu3IYNsvo80dUr5GwmJawnM3FN2+VcVqw9VrD7MY+4DAMeDGE1OIzXSj55uF5TI8Tag3Mti5uMMcp+vYt/L7ZMi8k+KyN+fwwwA4eUIxj6cwegZoUtltbCfVBQ/m0bq+gwWn+z9aerXechf53H6/0YR6Ote8Uy3oWDxsxlk/pzD4tf71bKd/l/+OA3Ah9D7s8i8HYDAjIJcyOYj0kWkt0YRIjKABPzV/08vmV02uypj9dZlnOiP7pFE7+LJImYiJxB4axFNfoVNsH4Zw7i11doixoJXkTkoid6F+rWEscAAhibz2OhI4exh458ZhPu98P9q/yTazdR7Yzj/VuaAJHo3CuR3h+B9JYH8dx0pGpGl2TyR3jn4of41Pmh22eyojNVPYgj8as5QQlz86DyGfiU7KJlm/TKGcbMWFfmpIQR/v+LCqR5lrH4SRf9/X4XMBLqzltIYej2N4g9mF4SouyqJ9L7zfF6E/9XKfKjMfBEKG4ljlZdmEPu1VDvqJQQQ+/AuHpfWsbmdEG1iXVlG7v0QfHXfQ7kVR2LeOak0kaUI/QheGces/ADLyjrWv6+9UdlcX8fTYhap4fqWCRTfSyDrsmRSmY8hUN+nAfC9FsdNuVDp137UxfD7dTxdyeHmlaCrp6kJLwcRn5hFLr+Mp+t1MfpxE+tKAdlkY/+PpQTifyy68IatKlnYdQChmVduhNOv7KqJEWkFxfuVuVBXI368+J9eDF2TsOrm54ROVC5i5koCRf17g+N48OgBZn8TRL/Qq7uw9KD3hQGE3snh/7N3/6Ft3Pf/wJ8aGTiQgQ0bnCCBKKRQmRZis4El1j8sJ4ModBAJB3yiX0jlDTq5gcZuRyvFfzhSx1o7hTRqobMWaNEZYqTAShRYGuWPDsnQYQVaokJNrhCDDj4BCxaIoAV9//CvO9mJpbOkk+6eDxDUZ1t+95237l73uvf79X5YulWTZVQgXZxDho/4iJqkB31jUSTzJTwtPcCtT6IInvVg4Ggveg/V/GRvLxxDIsI3HuLh5yK0l+YMpHvWucmtLMUQEGuC6ONBzBfW8DBzDaGzrvXzmnpe76FeOE74EPrkFiYt9/SkD76ZJHKPnqL07S1cmwnCNzwAR29NHx3oQe9RF8RLKTyUkxBr4r/CdBJZxgdkITsC6Wi+5k7pp6dYW3uI5fQ1hE47ACjIfhRA/+/GkfjesvedplO+nUDkvuqAICK5EIXn13v8ouBFdKHmZKrEEf/SOhdsopY67MO8FIY4JDSUJXW8lkDiTe2xbKFojbnSuyQGhOEoct/MI3ii17BmdTJhbB6pSyJchxsYZUdFJBbDGNAcjCP7DWMDso69M9IHetDb68DA2RCuZR6ilI3CKwBYSWB8OAjpx5a3kVpOQWYhoTninYlCPFrnrx8VMXfFpzmUuZpGoTmNIyJdejDo0n4u8dgaJfHkL6LaxMBQFOl/heFiDN10Pb/3I3BCe0x+bInbNSIAOhYbCsNh3MpvZCAVCYF3ds4/oy5TeYDlRfUBD3zDO+dYPo9wNoSwOit9P4ns/Wf+OBEZ4de95p/7W8kiMZ1RHRhA+MNJuA498zdoXxxwuoxuA5Fx9FXtUGcgFydx7Z4Vchwmpig1lTZc6D/e4Hv0DMJ9Vn2ggOUfeItFZKTSqvaT7f2dE2ZPypZvS4ipTz3nI5j6velvHwzUgx7epJCF6S5/t52BVBBbtHaN0q6nyEhrDhzU8Sa9cA54NEeyK6V9NKoDbVS34Q5U1BWeZJG8oppgJYQQerWxJ03dp4zcHfU0NQHh17ymv3kwVglKTTUY+yHeuNCGVQl+mw22y/m9f7ZL6a8jrc5AfppDsTntoS52sFe7fFt5VDLPDdaqBL8rYnQriOpTLmBODGBu655PgHhlEt69Fg93u8oysp+qDwTgcTGoa6lyEbmb6gMeDDh560IAkEfsSKAmUWc++9iQRZ2BLEJebUp7yAiCA9olSSWs6YiAhSP92gOmWdikQLoYQHomiqjRTSF6lidlyPczkC77caxvEFNfbkbRAsTPskiMmT0bDeD7ArLqr19zo38jjq6sFpC+PoXxP4yg3167V4IfE9MJZL43za1/25TvpRFXHzgtwtPo1ECz+HwS7hd27sdxzDWCkXMTiHwsIWuhMZa/7EZkNIroqNEtaa197Wx48BDvOk1BEGoK66eQK5gjBG6G/GU7AkiidMmz9w8Ttc32Vuw2mw22X/Xh2MAZBKa3dxcVhieR/LaI5J+c5l9kCKD8SNZWC3rBjp7vJEx5j+HgkUH4X59D4k4WRc3sLBn5O2nEL4/jjLMPx7xTkFjatT6VPOIz2opPwT/5d27UYhUreeR32fRIXsoiuxhH7EIAI84+2D3jiP/H3AG1suCHezqK3I2g6cdDl28RTk3R049BzR2jgtiHSRNt9a3f9smgdnMLog52/hpyxTWUsrMQX7JOwmNN0U4yFD4PwPlyAHO36z+bybfnEHB6MMFa+HuoIP/hZE2ZwVmEzlpnvOml3Etg4hUnRqZNur5sKQa7CCQfhWGFgi77CqSfPjHlELAgAd6xoPbQ7XGMvC5B/rnOt6goyKRTTW+ZoSx2MiATuT4B96sBTHyYRsFCu4wqSlb79YqsszxrHvE/BhBbYmb6WeSFIHzT6gVkLsx+OlmzOQs9m4Ls5RF4L5tsS/WN9UTRfAriYaMb0x77CKQrkH/YOGkJg3BapMPMqvd0CNGaLXHl6wEcc/oRW8iiqJRRUQfVP1dQVorI30xg6nU3jh2048yHJtqCZeNk4JPiljkZkMmsZBB/x4/B3xyD/+OCOTNfGhU8/d9uxwU4xyYxn87hQWkNT39S7967vXNvcLj2mVMekbNTyFjoRqReO7dfFyBKSUyeeM4vmVIPXKMhhK8mcSv/AKW1NTytaneHfrq2hlIxh9TVELy7zB3PT4cQ/Y9ZQumNxYUzOYSH9v5ps9AfSFdyyH6x/p/CeRecTWoQGaRnAJMfRXdmXlfSiIgj6Lf34eAvVfMxf3kQffZ+uH3jmLue330aSE/3zspUvk4hPZNDaowTOqhTuRCu1gaFJTzIJhEdc6qmIslIXxg0X+ZrhzKUH7VHBt5IYvn/SnggzSJ41gWn0IueA+qf2N65dz5bxN13a86AShyR6yZKEDRBZSkGj0u7/bprJm2Nxay1hiaRu3EN0TdFeIecEHp3bnjU09sL4UUXfG9ew60f1pB731szTbCA2PsmmUq5lEVkNInSJWs9w9UdSCs34xtF7wcwdc5jiYUsZtczFEbm6yg8OmNHQaj5xRfs3T2veNpds/rajQiAtGiHzWZDbMnoBhKp9aC3V4BzWERYeoDiv7VTkvLTPkTumDuUruV4xYOBukv+9cLzfhLJ12rCHCkLhtLrKksxnDlbG0TnkL3kYgxQl1643k0hPVMTaN6WkN1lkWJXWgzArrlu2hFYxNb11Iz7MOgLpH+UMHlxvTKg8EYUQcs9zjGv3t+HcbdwF7Oj9WcXhOEgrmVLyH3g1hz3He3eMFoYS2kez62/cogC8EklVKtVSz26ou7TeyqK5Gde1REFcx+ZJPPVMg6IF6e083zv51D80aDmdJDyf9aD6KwqDnLN5JBhEN2gHrjejm5saLcpi0LRBJOvhsK7XDdLSI4CmMmhWq2a8ilvw4F0+bsEAq4AJAXAUBTpD7hrlOkIHkzeeIi1H+4ieXUSwVMeONVjX3DCcyqIyatJ3C2uoZSdR2hYgPKDtuy602HBR31EHcRxNgjNMmIzZb52EOB4uQlvc8INr+ZAGrL5kmgNKd+JwPuKOogW4Hl/PRPN678OPW54XtMeKiprxrSF9u3A3j9SQblcgpzPI/NFFNcWiusLDI4HkVoIw3Wo1U0ko/Qe90B80wPxzXp+uoDcl+qvQ3C/1Jp2EVGdfj0A1ykgcWfzQHY9KLTqhhl1caB/FMCi0e3oDPLCOEbEhOpJhgDvlQxSbw0wE61bDw7+SnskqyiA6Ssum9OOQDrisuH5GyE74H07itlpEU4G0bRpZRkZdT3RUTcGTZeqWF/cRdQ9DuJgzeew+EgBunv1wjM5jvsA1YbE6RUZZv1/bb0yCh8F4L2YUVXncCAo3cW8FRcWkk4CxBtViEY3o4XqyEgLcA73w350AL5TXnhOeeCse/EGWUXhZlyzNa/3tIuXLyLDPcXTmqmXPXWc9buV8MIgBKS3A7+CDBmuBvN8JZR+aHrTusvPMqQ/jyBwXTWjXvAg/HkK0VOmy5AY4yftl928psjq1k+pQ2FUq2GDm0Jda1VC9B31uvYggq8yY0FkuIqM4h3tof4jJr5gHx+AH0B88+ubKeRXRTgaqQVfLkFWP12DCOfRJrWvGzzOInIugNg91cTw40HMf3kNwRc5maM5aqdCAg7BbkxTaN+4RTjtkwzpvUmolxkOzATh5VMLIsNVvs4gqTli8qCw1w3PefWBNGYXGiteV76X3g7EAeDEIBwmvvdQq3yfQODlEU0QLQyHcTc/zyC6iSpLGSQ1N2sheH7H/u1WDKRpH2RkLgQQ+EKVuRBCiL7BckhEhnuSR/SdOe0W2aNn4DZ1UNgLz2hIM62s8E6o/q2+n+QR/yChOeS94LPEttfyzQl4nOPrFbk2OM4nkft3FB4mRprnSR5zb0W0tcnPe+DmjJmuxUCa9FGyiP3RjTMfq0vzCxCvRpiNJmqWVQnj3gnEbxdRbmQvlcdZRP7oQ0yT9RIQfsNn+rULvaeDmNLUeM8jctaPuf/uUaf3SRGJv/gQUW+0JIQQssI0tf/G4PbFVRutrJe3W/6nCIeJ59TvR/5vIxj/OIPi4wY+mOUC5sSaMYYBzF7wsYxgF2MgTVqraYyLMUj3ilCeqL9RQbkso3BbQkzsh90+gsiX2uKqrpk0EqNmv0wTtdfa7TgmvP3oO2hH/x8nELmeRva+jHK5rN3y+0kZ8v00Eu/4cew32sfzACC8FsfEsBWeFQ0g9FFUs6sjlAymfufEyMUEst8rqPy8/a2KUkR2IQb/QD/G1U/XrJQY+BnaJxdQkH3PjT7NDnUNvs5JMHX57Z+zSFw4g/7fHIT95TOYmE4gvVSEUi5rxhcqZZR/LCD98ThGnIOYqrluCm/PIsRN7bpaFwfSecSe+0GOabYx3dOqBH/Ne1hzC+gK1hYiCHj6Yf+Vuj8Ooq/vGAa9AUQ2a4lv2S7Ob57LNMdXR2C/qSgofhlH7HU/RgaOoa+vDwfVffOrPhwb8GP8w/TO3QuHokh/Yv5s9KaeoUnMve+p+f9VkP1oHCNOOw7+crvfDtr7MSJGkK7ZqIaJAaqX8l0G8cvj8Lv6Ye/r04wv28E+9DkG4b+Q0OwKCQDCcBTpaY+JrpsKpHPPu276Ia0a3cbm6+JAer2m7zO3oxx11F/yaCkG25EABvOq98lHEXGZc1/4phI8CGcKuPuumYJogOOrA7DfmkJ4dRbLt622eVYPXO/eQuaKV8fNgwDvlWWTJQao0zhGryHzL7N9LtdrRu+8blaRmwGAwcYq6HSJLg6kn2EpgcAiEL0o1n0Czd+JAKNJBNXz6obCyM0A6ZtZcz+e0ktwQvzgLkryXURPWyhrw/HVNuw3AIe9mM0mET3faC1kAMe9mJQeoPivSQxYcgJmDwbeuoXiN/MIDtf3aRWGJ5H8tohb3LWP9uB8NYnZN7y6P5fLN0IYMFUQ/RyrEmanAZ8U1E65MgmTLSNQIF3Z5eJbj0UZ3AMLwCEHPG/4UC4UkF1SPSA+7oLH0Y+BUy64T3ngfclh6o0ddsfx1XaW77deOIZFhIdFhD+rQFkpIJfPYfmbHPIrJch38qppHA64Tg1gcMgLj8+qn9Gden8bxHw2gOj9DG5JGUj/zeHBvc3paesbjrl/K8L3uh/eFy15x8G9JHToPSFi8hMRk1fr+Vw60H/CB4/PC99vrfe5zF8PII0ocmPmPJOb659zNYvUIhDN158tBADXqSgwHYHbtozkoxTEw9i6g2r0vbperwuhT1IIGd2OTsTx1VbstxoHeiC86ILvRRd85yeNbk2X6YFwwofgCR+CRjeFzIWfyz3kkTVxNhowWSCdvx5AejSJeKPZwqEwqlUPYjY3AkdsCAAAfEg+qq5fvInA8dV27Dcioq6mLMwiYuJsNGCmOdKbmaoG5q6qf9dvcwMbi5pKkg9AGoEjVq4QQBocX+3HfiMi6mJ5JMS0qbPRgIkC6c05OJ5Gs4VQIF0MID2TQ3jjd4Wx1FZ1hoirwTJnZEocX+3GfiMi6mbr2Wgf/K+YNxsNmCWQ3teKUBnyIuA7Xrv2VoB4MQpgGbIJ6x5SAzi+DMB+IyLqXuvZaMxMmX4qninmSDdjRWh6ZWdtAEVe3mfLyAw4vozDfiMi6j6b2ejkeTNP6ljX/RnpfdcndCEo+YBpt3aTh1UJITENnxQ3/d0UPQfHl0HYb0RE3ck62Wig6wPpjXmUiGJqH9lCYSyF6qMkINq3t7Lc2FEtZeKVprQXji8jsd+IiLpP/rLbMtlooOundqxvRyk2460Oi0hVm/JOZBocX4ZjvxERdRXXpSqql4xuRft0eUaaiIiIiMgYDKSJiIiIiHRgIE1EREREpAMDaSIiIiIiHRhIExERERHpwECaiIiIiEgHBtJERERERDowkCYiIiIi0oGBNBERERGRDgykiYiIiIh0YCBNRERERKQDA2kiIiIiIh0YSBMRERER6WCrVqvVpr6hzbbr8ZMnT+LkyZPN/FNEtA9fffUVAPBzSdRB+Lkk6jxfffXV1mez1oF2NgLgyYGoE9SeFPi5JDIeP5dEned5QTTQxoz0pib/OdP6+9//DgD461//anBLugP7qzG1n1N+LuvDcdYY9ldj+LnUh+OsMeyvxuwV13KONBERERGRDgykiYiIiIh0YCBNRERERKQDA2kiIiIiIh0YSBMRERER6cBAmoiIiIhIBwbSREREREQ6MJAmIiIiItKBgTQRERERkQ4MpImIiIiIdGAgTURERESkAwNpIiIiIiIdGEgTEREREenAQJqIiIiISAcG0kREREREOjCQtrpVCX6bH9Kq0Q0hM8lftsF2OW90M8ikOL66j7Lgh81m077OSVCMbliHYn91DwbSFpe/HkDa6EaQuaxKmJ02uhFkWhxfXUhB9iaQfFRFtbr5yiG6GIDdFgNviWqxv7oJA2lLUiCdW7/DdfOCRM2yFFvPmhzhzRm1AMdXFxMg3khBPKw+5kI4HwWwDJlPRGuwv7oJA2lLEiDe2LjLzUeNbgyZxVB4I3NSQnLU6MaQ6XB8mY4iLxvdhK7C/upMB4xuABEREVnMqoSQmIZPKtVkXmlX7K+OxYw0ERERtcXWIrojKfgfVZEaE4xuUkdjf3U+BtJERETUFsJYamOKThy4yEoUe2F/dT4G0kRERNRmAsQrSfgWA0gsGd2WbsD+6lQMpImIiMgwyzJzrI1gf3UWiwfSFZS/z0L6OIKJcyMYedmuKX5uf3kE/r/MIctSM7SHSllG4baE+PQE/H8YgfsFdSF9O/o9I/D/JYLEzQKUitGtJSLqAKsy0gAGHZz3WxeT9VdltYD09SmM77hmHoP7D35MTCeQvq+g0y+Z1qza8bOC/BeziL4/h8zKs39M+S6L9HdZDP6/SXi4SpZqlWVkvphD/LMUMt89L0OgoHhPQfFeFulPYwAc8H0wj/hbHgjW/ARSnZQFP+xis6smR5GrhuFq8rsSPdOqBP9FIH5DxHYImEfMFQFGkwgOGdi2TmT2/lKymLswjqlF+Rk/ICN/R0b+ThrxywCO+xD9IIrJs070tLOddbJcRrr83zj8Tjvcrz8/iDa37Q1ZbK4IgDQCR9a/9i/wkVG9lNtTOHMhvkcQvRsZ6XdGYH8lguzjljTNGJsbZtjsCCwCmHZvfM2duKgJOL6612EP/AjArtny2o3ITA5VTbBIAEzdX/LNCbjtI88JonexkkbE1w/PhQwa+K22sVA+rILiP4Lw/JkrXjc3ZBGNbobVLcUw8upB5O6E4TpkdGOaYCiMajVsdCvIrDi+uhivOY0xZ3/JCwG4Rf0xWP7jM3CXUyh87uuomwnLZKTlhd2DaMfpEK6lc3hQWsPTn1T72v9vDQ8LKVx7w9uRjxKoswgveRG6NI9UdhkP12rG0k9PsSbnkJzxwVH7i0sRhD7Kd/wcMCIiIt1+lDC1I4gW4PnTNaQKD7H2P9U18+kaSsVbuPaGd8c1U/kihOiX5fa1uw6WCKQrSzEEav8BjwcxX1jDw8w1hM664BR60aPOzx/qheOED6FPbmGy2+cjUYv0wTeTRO7RU5S+vYVrM0H4hgfg6K0ZSwd60HvUBfFSCg/lJMSaW+nCdBLZzjovUIfYriG7n9cyZnkOIyLDVJD9bBKa1R6CF7PfFHH3sxB8JxzoVT+V7emF8KIXoU9u4UFxvuaaqSD+caqjpnhoA+mtOWj1vzp+Tm0lj7k3Ipo5dMJwFLlv5hE80WtYs6j7CWPzSF0S4TrcwDOLoyISi2EMaA7Gkf2GOWlqDWUhiilV3dmBGU/N+CMiaqUC8te1saLvSgKTv907But5Mbjzmnkng/yPzWzf/pg+Iy1/EUXkvurAUBTpf4XhYgxNBun5vR+BE9pj8mOmpKkFnmQxe1GdB/Jh6ryL09WIqH1WZSxr4ugQgqfrn+W885qZRieV0n5mIB3N1/fYsKP3fa9kkZjOqA54mjwyAAAgAElEQVQMIPzhpDkWdlEXc8DJ2mPUBoV/RDCnuuC4rkQgspQnERnKjr6Gkpl22F9oVVv2z9QZ6fJtCTH1Xcv5CKZ+z1wMGa0HPbyZo1ZblRC9qJrUJkwi+idO6iCiNjvQU/MULIsH+yo/7IOjgxICJg6ky8jdSai+FhB+zQvO6NjFqgS/zQbbZVZjbY8SlJqTiP0Qb/A2KQv+7l2T0TEqyF7VLu7xvh+ChzdwHF+bNtZEWer/eT/YX/oJDgxqpmZkEf+8gWpVlQdYXlR9fdoLFwPpNqgsI/up+kAAHheDlZ3yiB0JoNl7p9FzlIvI3VQf8GDAyVs8rShy3TaVrJPcjyPyoeqCfyKKyNiO4osWZvHxtSrB74oY3Yruwf7apwH4Lng1RwqXffB/VEA9q4PKtyXMbX0lIPSGf2cpWQOZN5D+voCs+uvX3OjfiKPV+7v323ff3z3zvTUWf+UvuxEZjSI6anRLrKN8L424+sBpEZ7jRrWGzEeB9P6UqlKRgNBMCMwj0DoF0sUA0jNRRI1uSldgfzWD4/w1JF9T36gqyFwchNMzhcSS8uzs9I8SQn/Znl0gvDaHyVc7K/Fk2kC6/EhGQX3gBTt6vpMw5T2Gg0cG4X99Dok7WRQ1T2k293YfxxlnH455pyB9b96yZMqCH+7pKHI3gh11d2dqlTziMwnNoeCfOuvumrpb5c4sJjWPQaMdd+Eh4+Qv2xFAEqVLHqOb0hXYX83igPhJBrOvap/6KPfmMO6y4+ALZzDxcQbFx6pv/pjGxFgA0kacJgxHkf5E7Ljr5TMD6Yiru+tIrylFzdfC5wE4Xw5g7nb9Zbzl23MIOD2Y+LKTSn83yVIMdhFIPgqDBSTapYL8h5M15RhnETrLIGenCNzqc805/dvKWksB8ek5VV8JCL8d6LgLj/GsOb62kydiR22x3KnYX012aACT/ypi+eouu/yuZBC/cAb9v7HhmGscU9PjcDv8iC8BgADPWynk/h3uyKprB/b+ke6kKFnt1yt6g+E84n8MwJ7PIjxkkmejG/O9ovkqS2G1kbwQhG9avaDThdlPJ7k5Rg1hLIXqmPpIHjGbG3abjFyVN37PU7v5CkbnMDFskvNWk1h2fDF50hj2V4v0YuDNBFI/VzB4MbPrT8hLCcxtncecmPxXdkcmu5OYtI50BU//t9txAc6xScync3hQWsPTn9T/L0+xtvYQy+lrCA7X/j/lETk7hczj3d6z22wsLpzJIcxtg9tm5zb1AkQpickTz/kl2uBCOB8FEEF2ac8ftq4dm6+4MPseM2l7s8D42kie+KQ4kyf1YH+1TPk7CROuvq0gWhiexLx0DaFXnc84VxUx98cBjFyUUOzQpWsmnSNdhvKj9sjAG0ks/18JD6RZBM+64BR60aPJx/egt9eBgbMhzGeLuPtuzT2oEkfkegFdbymLyGgSpUu8x26XylIMHpd2m3rXTBoJVlGo35AHUQDLnbSdVYep3XxFeDuKEG/U6mPy8aV8nUJ6Jtehia/Ow/5qDfnLCXhfDmxM1wBc795FMTuL4FgI1/71AKX/rSczQ6drr40Ksh8F0O8cQew/nRdNmzSQ3snxigcDv673p3vheT9Zs8IUKEhZmCCUBhYDsGvmutsRWAQw7e7oee/dqLIUw5mztUF0DtlL3Ka5Iasylo1uQyer3XwFXkT/7OEYq5cVxtfG+X375UYEQFq0w2azIWbWbLxe7K+mqizFEPhjfOta6JrJIfu+R7u3x6H1ZOa1zEM8fZTD/FsebZZaySLyihexpc4qAmGZQLpxDogXp7TzV+/nUPzRoOY0y1B4lyk6JSRHAczkOni6Tvcp/2c9iM6qt2ieySHDILpxqzLS8MH/CsfmTjs3XxmYiSDAkor1M/n4EsZSu5z3c4gC8EklVKtVTvVTYX81WSWPuTdUCaUTYcy99fzrYM9hF4JX7kIuJhHS9HUekbNBpFdb1tqGmTSQFuB4uQlvc8INbQnxNEz65I+arHwnAu8r6iBagOf99Uw0a3Q8Tx4xW0yTwd/aDGFmivMVd1O7+YoQQvQN3qztjuOLqN3khaimWpX3QrDu6hs9L4q4dieHqDqYViREFzpnfoBJA+lmcaCfG5VQg+SFcQz+IabZEMN7JYNb7zK42ZsDjtGa0mRHAoBUQpXz+ndRu/kK4HonCG/d09ishuOLqL0U5G+rq3MMwDPQ4PqgQy6E3glqDnXSVFvTlr9zHPcBqoed6RUZ4Pr1ZxAg3qhCNLoZXa+MwkcBeC9mVNU5HAhKdzHPhYV14lhsxI7NV4RJRP/EgorPxvG1zYVwtWp0I7oI+0sfGbL6HAUH7Dpu9HtfdsGDxPaO1fdllMrAQAc84jVtRlp4YVAbNhdkNF5JuoTSD01rEpnZzzKk1wcxqA6iBQ/C/15mEE0tUrv5CuC7MgVPB25YQEQW1ayFvD0Ha6ZFllB+0ow33j/T7myI4wPwq7++mUK+0cnp5RJk9S50EOE8ut+Gkek8ziLyBzcC11W3aseDmL93C9FTHXC7TKa0Y/OVoVlEuFCYiDrJYQecmgNpLBd1VN14XKpJhtrR2yFJA9NmpNHrhue8+kAasw1OTi/fSyOuPnBiEA5ep0il8n0CgZdHELun2mplOIy7+XkEX+SMaGqRHZuvCAi9F+QumUTUYXrQV1PPPnknh0ZDablQMyf6hAP2DslTaQPpXUujdePOhgDQC89oSDO9o/BOqP76g0/yiH+Q0BzyXvDxQkVb5JsT8DjHIakeyjjOJ5H7dxQeLvaiFqrdfAWno5h8tUOuKkREWwbg9mnjROXDKUT/00Ao/SSL+Hva7cQHRE/HxGPmzUgD6D0dxNSO+oN+zP13j51xnhSR+IsPEfVjUyGE0Kuc60ob/huD2xfXVObwvJ/D8j9FOEy7hJc6wo7NVwYQnQ6AZyci6kSuV6egrYlTQOwVDyK365ga/DiLyB8D2sQBvAid7ZQw2uSBNDCA0EdR7T+gksHU75wYuZhA9nsFlZ+3v1VRisguxOAf6Mf4F+p/NQHi1QhLStG2nwHtKUBB9j03+upYV/DM1zkJHbrigDrGzs1XcD6C0BCnERFRhzoRwtyl2sA3j5jXjmPnYpDuFaGoFw5WylC+z0K6HEB/zdRJAHC9H+2oDadMHkgDPUOTmHu/ZptJKMh+NI4Rpx0Hf7kdyBy092NEjCC9on0P10waidFOncJCRM+0FDPXzUrt5itwYfaCj5v8GMVs46vF8pe7pFgBNVkPXO/EER3eGUfJixEEPP2w/0o1Ng72we4cQWBaQrFmiDjOp5B8d6Cj9mQwfSAN9MD17i1krnh1VJEW4L2yjCy3dCbqOsqCHzbXMpKPNtd0lJBEAPbane26xs7NV4S3owideOYvUAuZb3y1kgLpnA3ub5Moba6xepQERDtsl9lblnDIhfC/Mrg2qncSmgDPpbtY/qev46axWSCQBoAeDLx1C8Vv5hHc5Y5oN8LwJJLfFnHrrc668yGieuSRENPwSXHVts8CxBs5RBHBbBdmwnZsvgIf5i54eH4yhPnGV0stJRBY9CF5RdxOaB0WkcpHgelZSI2WpqXudGgAoRvLeCBNwtvA1AxheBLz3xRxd8bTkU/fLBJIr+v9bRDzWRmlQgrzbwfhGXaqstQCnMMeBN+ex63iGkrZWYgvdeI/GXUEHRVu9nzdELn3ZrNsbAIwuKNepQOOUSB9M9t1j+B7Ts1uZ/OqVVSrKVUQR21lwvHVSoq8DGAQjtrxetgBH9JIfc3eso5eOMdmceuHp+ux2KUQfKc8cKo/SoITnlNBTF5N4u5GPBb8befGYxasL9AD4YQPwRM+BPf+YSLqRqsy0gAGd3xDgONlANPrO53yxoV04fhqiLyye2/hsAODACIr7C3rMU8sZqmMNBFZxGEHfACWZWa6qAU4vhriOO4DsAyZUzjIhBhIE5H5HBYxNQOkxZB2/uWqhNlpAKOOjluwQl2E46shwtgUokgjcFFb1URZmEUEgO84e4u6FwNpIjIl16UqShIQOKIqq3QR8M8AeNnBB8m0LxxfjXAhvFXVZLu/QvAjit3mmhN1DwbSRGRawliqZkGnA/I0M2DUHBxfjRAg3tAusE45ZETg27kIkaiLWHCxIRFZ1lIWEUSRG2MGjFqA46sh+TsRYCbH6jPU1RhIE5ElKAt+2EUg+SgFl9GNIdPh+GqEAumcHQEkUbrB3qLuxqkdRGROqxL8qvmY9pt+lFh7mZqF46shyoJftT24HamzJdbOJ1NgRpqIzOmwiFRVNLoVZFYcXw0RxlKojhndCqLmY0aaiIiIiEgHBtJERERERDowkCYiIiIi0oGBNBERERGRDgykiYiIiIh0YCBNRERERKQDA2kiIiIiIh0YSBMRERER6cBAmoiIiIhIBwbSREREREQ6MJAmIiIiItKBgTQRERERkQ4MpImIiIiIdLBVq9VqU9/QZtv1+MmTJ3Hy5Mlm/iki2oevvvoKAPi5JOog/FwSdZ6vvvpq67NZ60A7GwHw5EDUCWpPCvxcEhmPn0uizvO8IBpoY0Z6U5P/nGn9/e9/BwD89a9/Nbgl3YH91Zjazyk/l/XhOGsM+6sx/Fzqw3HWGPZXY/aKazlHmoiIiIhIBwbSREREREQ6MJAmIiIiItKBgTQRERERkQ4MpImIiIiIdGAgTURERESkAwNpIiIiIiIdGEgTEREREenAQJqIiIiISAcG0kREREREOjCQJiIiIiLSgYE0EREREZEODKSJiIiIiHRgIE1EREREpAMDaSIiIiIiHRhIExERERHpwECaiIiIiEgHBtJERERERDowkCYiIiIi0oGBNBERERGRDgykiYiIiIh0YCBNRERERKQDA2kiIiIiIh0YSBMRERER6XDA6AZQh1mKweaKNOWtfFIJqTGhKe/V8SplyN/nkP86h9zXeRQfycguydvfP+6Cx9GPgVc98J7ywv1iL3qMa23HqJRlFPN55PI5ZJeKKMlZ5Fc2vyvAOdwP54sueE/5ceb0AAR2GhERdRAG0kS6lSHfTmLu0zhSXxahPO9HV/LIruSRvZPAHADhJRFTV+cwOWyRGw21sozMF3OIf5ZC5rvn9ZqC4j0FxXtZpD+NAXDA98E84m95IPDM9UyVpRg8rgjyW0eiyFXDcBnYJiIrkv8xgmN/zq5/MZND9RI/hWbEqR1Eeq1mMOWdQHyvIHoXyncSpjwDGJnOotySxnUu5fYUzlyI7xFE70ZG+p0R2F+JIPu4JU3rfj9KCJ5VB9FEZAwZ2ZtZoxtBbcBAmsgwCrKXR+D9WwEVo5vSTZZiGHk1hvwToxvSYcp5xMYCkBq9PyGiJisj/7dxRG4b3Q5qBwbS9HwzOVSrVV0vy8yPBgDBCe8bYcyn72JZXsPa/7R98XRtDQ/zSURHHTt+Nf9eBMmVXd7TAoSXvAhdmkcqu4yHa2t4+pOq3356ijU5h+SMDzt6bSmC0Ed53oBsepJH7LQbkSWjG0JkTZVyGeUfC8gszGHc44T7vWzDTyqpO3GmIZFuPegbiyJ5IQjfkPDcxYM9vb1wDIkI3xAhfhGA+/9JqpNsBtI9GcHjO4Nsc+qDbyaJqfM+uA4/p9cO9KD3qAvipRTE1yQEXNpsa2E6ieybLnh7W9/iziZD+ouPQTRR2ymQztkRWDS6HWQkZqSJ9Drsw7wUhrhHEF3L8VoCiTe1x7KFomXmSgtj80hdEp8fRNc6KiKxGMaA5mAc2W+snpOuIH85gMAXm3cYAkQpibChbSIisg4G0kRt14NBl0976HGZ0xT20PN7PwIntMfkx1a5/dhNBcV/BOGb3l5a6JpJIzHmwEEDW0VEZCU7AmllwQ+bzdbAK8YV4kT79WvWld6bA05Wj9oiLwTh+fP2FCHXTA7ZSy6OIyKiNmJGmsgApVVZ87X3d05YfqrvnnrQc8joNnSGylIMAXE7iBZeSyLJIJqozQSIN56x4D4fNbpx1CbPCaR9SD6qpzoDC/0TNeRJFskrhe2vhRBCr1ploeF+lKDUVDexH7Jg6FhbK3ooivQn4s7KJkSdaCmmfap9mc+0qYkMGF/MSBO1U7mAOTGAua3qEwLEK5Pw/trIRnWJchG5m+oDHgw4LZbH/zGN8VOq6iVDIdxaCMPFTD11gfxlG2wuIKdOxnG3P2oSo8YXA2l6vs8n4X5h59z4Y64RjJybQORjCdnvrbzgqw5PypDvZyBd9uNY3yCmvlRVWPgsi8QYc4n1KN9LI64+cFqE57hRrTHAkzxiY34kNrPygojkwjV4jxrZKKL6KAt+uKe5XT21hpHji3Wk6flW8rsuJpWXspCXssguxhEDIAwHEZmZRej3FssQ7iqPmM2NyHN+QhiexNzVCMSX2F91qeQRn0loDgX/5LfQdIbaWtEuRG8mIB41sElEdcsjIabhk+IMoqkFjB1fzEhTUyj3Eph4xYmR6axl6iHrcv4acsU1lLKzDKLrVkH+w0lE7qsODc0idNYq/VfevVb0kAXnh1N3WpWxDB/8SNQ83fRDWjW6cdT1DB5fDKSpiRRkL4/Ae5lbNz/T9Qm4Xw1g4sM0Co+Nbkx3kBe0tZIBF2Y/nazZnMWsKshf9sK99f8vQPw8hySnA1E3WZWRRhqBFY+mWEFuJo3AEQbTtE8Gj6/nBNJpBI7sUUOaq21NqAeu0RDCV5O4lX+A0toantZUanm6toZSMYfU1RC8u8xRzU+HEP0PQ+lnWskg/o4fg785Bv/HBWbwn6O2zNtmNnbyxHN+yURqbyJcM2kkXmMQTd1FkZcB+JA8r33w7rqUQxRpBK4zliD9jB5fzEiT1tAkcjeuIfqmCO+QE0Lvzo1Cenp7Ibzogu/Na7j1wxpy73shaH6igNj7SciwKhfCmpuPp1hbK+FBNonomFPVVzLSFwaZwX+GylIMHldEM0d/c+c+K2CtaDILwTH4jO844BgF8K2sulkmaozR42t/daRZtobQC9e7KaRnasbCbQnZld1/w3p60NsrwDksIiw9QPHf2lXF+WkfIncYSqtVlmI4c7Y2iLbSzn0FzKn+/4Vh1oqmbpeGzCkc1DLGjS9mpKkJeuB6O4qwJi2dRaHISQu76T0VRfIzr+qIgrmPrJzB1yr/Zz2IzqpSCK6ZHDKWCaIBoAJ1CkW5F4H7V3tMtdt61VaMicDNaXlkpCEPogAid2rHnQx5EfCd9dQ81SRqgMHji4E0NUePG57XtIeKypoxbekCjrNBBNUHmMEHAJTvROB9RR1EC/C8v56JtkqNDiLzcSEo+YBpN2JbJRwVSOfciCCKqTGG0bQfxo4v1pGmJunBwV9pj2QVBeDD6N39egCuU0DizuaBLGQFgJU2GKkhL4xjREyoMvMCvFcySL01YKFMNJE5CWMpVB0x2Fy27Scmo0mUqiKz0bRvRo4vBtJEhjiIgzUp1uIjBbDkJaWMwkcBeC9mVLMZHAhKdzFvkYWFRJYwFEa1Gja6FWRWBo0vTu2g5vlJ+6XvqBWDwno9xdOaKeQ9Vryt/VmG9PogBtVBtOBB+N/LFg+iayu/NPLKIap5ryhyXChORNQSDKSpSQrIfak94hDsxjSlG1RkFO9oD/UfsdiNx+MsIn9wI3BdtczyeBDz924heoozoomIqPNZMQdGLVBZyiCp3sIZIXh+x5mtz1L5OoOk5ogI51Fj2mKEyvcJBIfHIakqUwjDYSRvROH5tXHtIiIiagQDadq/J3nMvRVBQX3svAduJhV39ySP6Dtz2gLxo2fgtkhCWr45gYAvrqkR7TifxN3PRDh4RiIioi7CqR20Jf+3EYx/nEHxcQObg5QLmBN9iCypDw5g9oLP3OXKViWMeycQv11EuZG9VB5nEfmjDzFN9l5A+A2fNZYZ/jcGtyaIXi9vt/xPBtFERNR9dgTSwlhqY0FKCuJhI5pEhvk5i8SFM+j/zUHYXz6DiekE0ktFKOUyKj+rfq5SRvnHAtIfj2PEOYipL7WbbwpvzyJ0or1NN8La7TgmvP3oO2hH/x8nELmeRva+jHK5rN3y+0kZ8v00Eu/4cew3I4jdq+mv1+KYGLbINJifUbNVq4Lse2701bXRyDNe5yRuL0xEBlAgnXvGecml3RYJ0+5nnMP8kLjjY1fr4ox0HrHnXmBjaGjvrlUJ/pr3iC3t/WtmpXyXQfzyOPyuftj7+nDwl6q+OdiHPscg/BcSmt3ngI2tjKc9Fqv7q6D4ZRyx1/0YGTiGvr4+HFSPpV/14diAH+MfpnfuXjgURfoTi2SjiQy1S9Cjc4fH/GXt+/gXOv1WrsnXS72t6Lp+o/pYe3x1cSD9rPJQJSRHAYw66t8KZCkG25EABvOq98lHEXHxg94Ix+g1ZP4VhuuQ0S3pDsKrs1i+zf4iar08YjY7Ai/ntGUCp90NPtFYD8bd3yZR2nyfR0lAtHf4tutNvF7q0q39RvWx9vjq4kD6GZYSCCwC0Yv172aTvxMBRpMIDqkODoWRmwHSN7OWeWzsfDWJ2Te8jQ/4415MSg+wfCOEAasEhYe9mM0mET3v0t1fxX9NYsDUE8mJOsRSFhH4kDyvrp/tQjgfBRZTyNb7aH0pgcCiD8krquvLYRGpfBSYnu2+R/Q6rpf6/46J+o3qY5HxZbLlPQqkK7sExfVYlCHDmvvKbeo9IWLyExGTVytQVgrI5XNY/iaH/EoJ8p28alqCA65TDvSf8MHj88L3W4cFNxPphWNYRHhYRPizevprAINDXnh8HnhfsmJ/beDOZm2wnh1iL9dKQ14FsI+1P4q8DGAQjtr3OOyADxGkvlYgjnXLVWQf18tG/5Kp+k1NgHijCtHoZnQk64wvc13OV7NILQLRfGN3P65TUWA6ArdtGclHG4ssVyXMTjf+XqZwoAfCiy74XnTBd37S6NZ0PvYXUWcb8iAKIOKyYVkqITUmYOtCP5Ore2G9vJIGMLjzG4cdGAQQWemidIzO66Uepuo3qo+FxpeppnbkrweQ1nP3MxTe2FY3jcCRjYnqR1LwP6oi3OI7KSIiarX1LH1uBkiL9o3FSHakzpYa2i7dcdwHYHk9s93ldF8vdTBTv1F9rDS+zBNIb2aQ9czFWZXgt7mBjcWGJckHbATVVq7cQURkDhuLkZDbWojkw0ZQ3cBiJGFsaj3hclG7QFFZmEUEgO94a5dUNc1+rpc6mKbfqD4WG1+mCaTz1wNIIwpPw3c/CqSLAaRnclvZ5/Va2uurTSOu9pRtISKi1lAWQggsRpHbzD4fFpHaTJpMuxtImLgQrpaQRAB2VZmtEPyIAhh0dMf0BP3XS73M0W9UH6uNL3ME0ht3Pz4piPof0m2SIS/udsciQLwYBR9HERF1N3klvWsJrvVMFrAsN1KbaX2BmbrMV8ohIwLfzsVOnWhf18v96PJ+o/pYcHyZYrHh5t1Pbh+rMtO7TEZfXwlKRERdb7fKTKsymnGWz99pbNGikZpxvWxaW7qo36g+Vhxf3Z+R3vfdjwvBjcd7ms1XViWExDR8UpwfciKiLuY6n4QPEbg1m69sTOsbTSKu+6Kv2giigUWLhjEsW1iry/qN6mPR8dXlgfTGiRBRTO3j7kcYS23vgrM5v2Zjp8NUB9xVERHRPhwWkdoxh3Jjp8MbjS2IUhb8qm2INyp/NPgexmjO9VL3X+/afqP6WHd8dfnUjiYWQz8sIlVlWXUiInNqzvVCGEuhOtaUBrWZsZuHdG+/UX2sO766PCNNRERERGQMBtJERERERDowkCYiIiIi0oGBNBERERGRDgykiYiIiIh0YCBNRERERKQDA2kiIiIiIh0YSBMRERER6cBAmoiIiIhIBwbSREREREQ6MJAmIiIiItKBgTQRERERkQ4MpImIiIiIdGh7IG2z2fiq4wUAX331leHt6JYX+6vx/uLnUl+/cZyxv1rZX/xc6us3jjP2Vyv767mqTQaArya8Tp48aXgbuunF/uKrHS+OM/YXX5334jhjfxn54tQOIiIiIiIdGEh3qJMnT+LkyZNGN6NrsL+oHTjOGsP+onbgOGsM+6u52h5IV6tVvup4AeuD3eh2dMuL/dV4f/Fzqa/fOM7YX63sL34u9fUbxxn7q5X99TzMSBMRERER6cBAmoiIiIhIBwbSREREREQ6MJAmIiIiItKBgTQRERERkQ4MpImIiIiIdGAgTURERESkAwNpIiIiIiIdGEgTEREREenAQJqIiIiISAcG0kREREREOjCQJiIiIiLSgYE0EREREZEODKSJiIiIiHRgIE1EREREpAMDaYvJX7bBdjlvdDO6BvtLn47ot1UJfpsNNs3LD2nV2GbR/nF86cN+o7ZYisFmi6GdI01Z8NeMKRts5yQobfjbDKStZFXC7LTRjegi7C99OqTflK9TgFRCtVrdeuVm0ggcsSG2ZHTrSDeOL33Yb9QWCqQrkbb/zexNIPmoqhpXOUQXA7C3IaBnIG0FS7H1u7MjAaSNbks3YH/p02H9JoylkBoTNMdcl3KIAliW25GnoKbi+NKH/UZtkUfMZoPNZkdgsd1/W4B4IwXxsPqYC+F8FMAy5BY/7WAgbQVD4Y07tBKSo0Y3pguwv/Tphn5blbFsdBtIH44vfdhv1BYuhDeywSXJZ3RjAACK3J5RdaAtf4WIyHAKpIsBpEeTKNVkxIj2j+NLH/YbtcCqhJCYhk8q1WSqm48ZaSIyt63FTXakzpZQvSGCl2tqGo4vfdhv1AJbiw6PpOB/VN0xjagVGEgTkbkdFpHaeOQYR4gVAqi5OL70Yb9RCwhjqY2pTHHgYnsqdzCQJiLLEMbiSI6mEbjOkobUfBxf+rDfqPkEiFeS8C0GkGhxNRgG0kRkPd/KbakvShbF8aUP+41aoNXVYBhIE5GFyJAXAbzs6Or5mOXvs5A+nID/D24c29qAwI5+zwjG34lDuldE+WejW2lF5hhf7dfd/VYpyyjclhCfnoD/DyNwv6DeGGT9c3YTt2oAACAASURBVOn/SwSJmwUoFaNbayGrMtIABh2tHVUMpFUqSzG4NTvjtHdnHiJqFgXSuZ1zLvOX3YjAh+R5lzHN2qfK9xKmvMfQ5xxB4J040nfykLe+q6B4L4vEhxMIePrR5zyDqYUieN1uBXOOr9YzUb+VZWQ+nsCZl+042HcMg94AJi7Hkb6TRX5F/YPrn8v0pzGM+wZhP3gM/g+zUHij2zyrEvw75kLnEXNFgNEkgkOt/fMMpDf9KCF4NmLOwHmzIP9mofRpN28Unof9pU9H9ZsAz1kgcES7Zax7OopctbZwfzeooHh9HP3OAOZuy3v/OACsZDAn9sNzIYM6f6OzcXzpw35rCeX2FM5ciCPzXaPTBmSk3xmB/ZUIso9b0jSDbG7IYoNdTAOIbCUmW75j5WEP/AjArkmEuhGZybWlGgzrSANAOY/YWACSWSdnDYVRrYaNbkX3YH/p02H9JoylUB0zuhXNUEHxH0F4/qxv9Xn+4zMYeZLC3X/64Gh629qI40sf9ltnWoph5NWDyN0Jw3XI6MY0w/qGLMaMNAHijSpEQ/42M9LAkzxip92ItPqOiYhIh8rSHIK1QbTgQfDqLTworeHpRgmxavUp1uRlpD7YGTDL10OILJgiL03UcYSXvAhdmkcqu4yHa2t4+tPmZ7KK6k9PsSbnkJzZ5UZ2KYLQR3lOv+pyFg+kZUh/8TGIJqLOVMlj7o2aKWdDYdz99i7m3/TCKfSiZ+sbPeg9OgDf2yk8LN1CWDMvUIF0cQ4ZUz1KJjJSH3wzSeQePUXp21u4NhOEb3gAjt5e9Kif9R/oQe9RF8RLKTyUkxBr5hkUppPIltvacGoyCwfSFeQvBxD4YjPPI0CUkgY9liAi2ql8O4HIfdUBQURyIQrPr/f4RcGL6ELNRVuJI/4ls9JEzSCMzSN1SYTrcM/eP7zpqIjEYhgDmoNxZL9hTrqbWTSQXp9z6JvezvO4ZtJIjDlw0MBWERFtU5BZSGiOeGeiEI/W+etHRcxd8WkOZa6mUWhO44hIh57f+xE4oT0mP2ZKups9M5Auf59BYrq2TqkN9pdHMPL6FOILGRRWu/MuSl7QLtxxzeSQveRCA/eVREStVXmA5UX1AQ98w40tFxTOhhBWZ6XvJ5G9/8wfJ6KWc8DZRVX+aG87qnaUv5MQvTCJuXu7rw9XvstC+S6L7PU5AIDjdAiTb04ieNrRFYFoZSmGgLgdRAuvJZFkEE1EnUZRasrWudB/vMH36BmE+yyATzcPFLD8gwKc6MZtL4jMoAc9pqjSQZtUGekKiv8IwPlyYD2IPu5DVLqLB6Wn26tPq1U8XXuI5fQ1hE6vZ0bk23FMeKXueFxYWyt6KIr0J2J3l4Tqatt1J81Yp1lZ8Gtqpapf/gVdhcxM3V9UQ1nflWubnolnvXAOeDRHsiulfTSKrIrns2YpQVnRHrEfYiqvabbqpm+8Lrd+VG0F0urpDo7zSTwsphAe88ApaP+Be3odGDgbwrXMQ6x9O49goxkSo/yYxvgpVa3ooRBuLZilfmMXWorBZnMDeVWZoGoY5nviFUWuWtXcjFarVaTGGswIWqa/qNkO9mrHmvKoBM7IJH14Ptu3chG5m+oDHgw4e41qjankL9tgc0E7Ri+1flStB9KrEqY2pjsIryVx958iHHVs1dL7UhDzhQeYP9/hd1NP8oiN+ZHYvAsURCQXrsF71MhGWdiqBL8rgmi+WlOii3bF/rImwQHtUsES1nREwMKRfu2Bx2XWrSXjWPx8Vr6XRlx94LQIT7ckJDuYsuDf2CGz/TdkvwAqyH4yufEI0YvodINTHQ45EfznZAffSdbWinYhejNR/8p3arr89QDSo0kELXgS1YP9ZVGCUHMuTiFXYAhM3c3S57NKHvEZbSWe4J/8nF66b3kkxDR8UtCQWPQXqOSQvb4x3+F8EH5T3RmVd68VPdThGXRTUyB/C/jOAommzLPrdBG41f+f5xrd5tlq/UVbevoxOKo+oCD2YRKsBE3G4flMvwryH05q68IPzSJ0ltM69m1VxjJ88CNRM3/fD2m19X/+F/i+gMzG+PWdcsM8/6QV5C974d6qFS1A/DyH5Bjv/YwlQ14E0qIMj3oeUz6KtGg31clUGEvVzCXMIboYgL2hRTXW6S+qJcA7FtQeuj2OkdclyD/X+RYVBZl0quktI+vh+Wx/5AXt3hWAC7OfTtZszkK6rMpII43AikczRnMzaQSOtD6Y/kX5kbxVcWPQYZ6SSLWD1jWTRuI1BtGGW5WxDOx8BDMURm4GSIsJE6/cdiGcjwKIIFvvtvSW7i/qPR1CtOYRuHw9gGNOP2ILWRSVMirqoPrnCspKEfmbCUy97saxg3ac+bAraipR1+H5rF61ZXc3n45PnnjOL1HdFHkZgA/J89qJHa5LOUSRRuB6a0fVLypPzFcKibWiO9hhBwaf8S3HcR+AZchteBRjmCEPogCW5TozL1bvL6vrGcDkR9Gd8/5W0oiII+i39+HgL1WPMn95EH32frh945i7nt99GkgPz4TUJDyf7amyFIPHFdHcIGzupEzNITieOargGAXwrdzgFKTG1LlFuALp3O71Izuv/mMBc6pa0cIwa0V3ovSKRWd6bmRkGmXZ/iL0DIWR+ToKj84HhoJQ84sv2GGeZ49kKJ7PnquyFMOZs7VBNHdSbo20YTdhv+g5ZDfmL7dMBepbD+VeBO5fPe8mQP1yI6J5r5qFFW0q7m1uLnhmAExnd9x8yStpYNQPz2Ej2tUmqzLS8MH/Sr2hjMX7iwAAvb8P427hLmZH608JCMNBXMuWkPvArTnuO8owmpqE57NnKv9nPYjOquIR10wOGQbRzbfxZCRyZ8eogrwI+M56Wpo8+EXvEcfWZPflH551lyhAvLGzCHtupoUtI9NynU/ChwjcqpuS9RqQQPSiaJJsWR6x2ic1G/VTMTMFsYGLhTX6i/YkeDB54yHWfriL5NVJBE954FT/4wtOeE4FMXk1ibvFNZSy8wgNC1B+0O6P6HTw+Rw1iuezRpTvROB9RR1EC/C8v56JNk9Bh07iQlDyAdNuxLbm6yuQzrkRQRRTjW4Y1KADeHEAHgAFAOl7BZRfc/AfmlrrsIhU1YGYzQ3b9OZBH5KPqg2dkDubA47RCNw27TMOn1RCtdEPtSX6i+rVe9wD8U0PxDfr+ekCcl+qvw7B/VJr2kVmxvNZveSFcYyICdX6BAHeKxmk3hpgJrqFhLEUqo4YbC7b9syC0SRK1dbfnB1AjxvedwXM/U0Brs8iccHHlaTUBi6Eq1WEjW5Gy6w/xRGb9n5m7y9qiZVlZNR1a0fdGGSmhBrG89neyih8FID3YkY1u9SBoHQX81xY2B5DYVSr7R9VvwB64Hk9Ci8AII+pN2LIP2l7O5po/QNaOw2lvlcOUc17RbV7trdp33YiomYo3Iwjq/rae9plikfnRB3lZxnS64MYVAfRggfhfy8ziLaA9aodx4OIXtkIEJci8IlzKJQNbBUREe3PqoToO+oa0kEEX+VFnaipHmcR+YMbgeuqNWbHg5i/dwvRU3z8YwVb5e8G3sog9/76ykblyykMOkcw/nEahR/LqKh+oVIuQ76fgfThBKKft7/BRES0FxnSe5NQLzMcmAnC+2vDGkRkOpXvEwi8PILYPdVWK8Nh3M3PI/giZ0RbxYHt/+yF6927KAzNIfTnKaRXskhcyCJx4flv4DgdwuSbIre5JCLqCDIyFwIIfKGquyWEEH2DZbeImkW+OYGAL66pZOI4n8Tdz0Q4Djzz18iEdvxzC8OTSP0QgnI/g1vpLDJLyyjc2d4hyzHkwcCAC95TfnhODcBxqM0tJiKi3SlZxP4cQORL9T5eAsSrEWajiZrlvzG4fXHNlt+e99NIvcvydlb0jPumHggnfAie8CHY3vYQEVGt1TTG3ynC8ycfPL9zQthKYFRQLpcg5/PIfBHFtYXijq1wXTNpJEa5xJCoaX5GzedMQfY9N/re28d7jiZRumGOOtpWU+cW4dS1lmLP382xwZ0a85drfv+c1NI97NuO/dUR2G+1KlhbiCDg6Ydds1PrQfT1HcOgN4DIjiB6exMITunQssz44vmM2iKP2HN3jY7t2MnSTBhIm91QePdSf4+S8AHwHa93Fb8C6ZwN7m+TKG29TwlJBGA304eE/WUw9ltTCB6EMwXcfZdBtJbFxhfPZ9QWzyo7XEJyFMCoA2auF8RA2qLy1wNIN7J15moWqcXaLVwFiFfWt3vNLj3nd02A/dUm7Lf9EZwQP7iLknwX0dN8SLwDxxcAns+oTZYSCOwYN+bDtaUaZtxtaRerEmanAZ8URKPbyyzLCjBk5o/ELthfbcd+q3HIAc8bPpQLBWSX1PVqXfA4+jFwygX3KQ+8LznQw7P6niw9vng+2z+DdtDrLgqkKxFgNIngkNFtaS2eci1I+TqFNKLI1ZuNAIDDHvhHgYBoh20lt7XDY/56AOnRJOIm/qCwv9qI/ba7XhdCn6QQMrod3Y7ji+czao/Npxh5c2ejAU7tsKA8EmJaRzZCgHijipLkA6bdW4sI3MihauqVxuyv9mK/UStZfXzxfEbtsXmTZfZsNMBA2nKUhVlEGpkbp5K/bIP9pn9jsUkOUWD9pGrildvsr/Zjv1ErWXl88XxGbbExfcjsc6M3MZC2lPVsBGY8Dc+Nw1IM7mkfklc2Pxgbq3TzUWAxgNCCGU+l7K+2Y79RK1l6fPF8Ru2xuZjVY4FsNMBA2lLWsxE+JM83fBqFIi8DGITjcM03hoJIjgLpFXm3X+tq7K/2Y79RK1l5fPF8Rm2xj8Ws3YqBtGVsZiOmINaeDOu2DHm19pgMeXF/LetM7C/jsN+olaw4vng+o/ZouLSiCTCQtoj9ZCMAQBibQhRpBI5oi+/nL7sRQRS5S+a692R/GYP9Rq1k1fHF8xm1hQWz0QDL31nDqoSQmAZmcvvIRqzPifNctsFti2wfHk2iVDXZggL2l4HYb9RKFhxfPJ9RWyiQLgYaL61oAgykreCwiFRVbMpbuS5VUb3UlLfqXOwvw7HfqJUsNb54PqO2WC+R2JyR1l04tYOIiIiISAcG0kREREREOjCQJiIiIiLSgYE0EREREZEODKSJiIiIiHRgIE1EREREpAMDaSIiIiIiHRhIExERERHpwECaiIiIiEgHBtJERERERDowkCYiIiIi0oGBNBERERGRDgykiYiIiIh0sFWr1WpT39Bm2/X4yZMncfLkyWb+KSLah6+++goA+Lkk6iD8XBJ1nq+++mrrs1nrQDsbAfDkQNQJak8K/FwSGY+fS6LO87wgGmhjRnpTk/+caf39738HAPz1r381uCXdgf3VmNrPKT+X9eE4awz7qzH8XOrDcdYY9ldj9oprOUeaiIiIiEgHBtJERERERDowkCYiov/f3h2FtnGlfQP/C1qwoQUZdmEECUQhhcq0EJt9wRLbC4+bQhS6EAkXPKIfpPIudJUGNna7tFJ8YUt92cZOIY1a2I03sIvGECMFtkSBTa1cdNEYuliBljhQk1mIQQNvwYINRNCAvgs59oxsJ9JY0lij/w904bEkn5ycOfPMmXOeQ0REJjCQJiIiIiIygYE0EREREZEJDKSJiIiIiExgIE1EREREZAIDaSIiIiIiExhIExERERGZwECaiIiIiMgEBtJERERERCYwkCYiIiIiMoGBNBERERGRCQykiYiIiIhMYCBNRERERGSCfQLp5QQcjgQUq8tB9sT2ZQ7rjejg4XlJ7bAuI+gIQl63uiCtZZNAWoN8KWZ1Ici22L7MYb0RHTw8L6k9lGshZKwuRBu8YHUB9kdBwuEDuwRqDbYvc1hvRAcPz0tqBw3yOy6EFq0uR/t0+Ii0F9FKBZVKBUU5YHVhyHbYvsxhvREdPDwvqR0ESNer7ayixK0uTFt0eCBNRERERGQNBtJERERERCYwkCYiIiIiMoGBNBERERGRCQykiYiIiIhM6PD0d9Qy5RLU+3ko3+aR/1bB6kMVuWV1+/fHvBDd/Rh4W4T/hB++V53osa60RF2sjNL9PLK3c9VzdfUecj9oW78VXhPhe8OPyCcTEA9ZWEwLlEsqVhUFeSWP3PIqimoOytrT3wrwDPfD86oX/hNBnDo5AIGdGO1D6X4O2a8zSN9eQeG2guoVs9rOfL8KQDwpwv+GB05GXrbC/07SKUG9lcLcV0mkv16F9qy3rinIrSnI3Z7HHADhNQmTl+cwMSy0qaxEXe6JBuXvs4h/Oofs2t5v037IIfNDDoP/r0sC6ZKK7N/nkPxzGtkfntWLaVi9o2H1Tg6ZrxIA3Ah8dhXJP4gQeGWkBpTvy4idj2HulrrLb7fb2fxFAMf8mJieRXzMw8Enm+jwqR0KEg4HHA4HXFIGQAy+zZ8Ty1aXrQOtZzHpP4vk84LoXWg/yJgUBzAylUOpJYWzAtuXOay3Viv9O4mgxwXfe88OoruRdmsSp84lnxNE70ZF5qMRuN6IIfdTS4pmMZ6XzVfG6rVx9HtCewTRu1jLYk7qh3guizo/0WE0yO9U25XDGwOQQehw9efgQqPnZGfo8PvuaoL5qNXFoE0acjMj8PeuIPfxgA3uttm+zGG9tU4Zq38JQ/yd3PDNLtVpOYGRt3uRvx2F9yWrC9NMPC+ba3/novLFKYw8SmPprwG4m142K1U3ZJGsLkYbdfiINLWM4IH//SiuZpawom5g47+bOxVtvh5vbOCBkkJ8dGcXoHwSQ4qjZERNpy7sfuF2n4zgSiaPe8UNPP5Zd67+dwMPCmlced9vgxvbxgmv+RG5cBXp3AoebNTUzc+PsaHmkZreJZBZjiHyuYKyFYWmjlBenkO49lwURIQv36yeh1vXy8fYUFeQ/mxnO1OvRRBbsOe4dDdhIE06PegbiyOlFPG4eA83v4wjfFrEwBEnnDUjMz1OJ9xDEqLXH+DB3yQYZ0ZnId9h50DUTOXlBEJSzYX7WBhXCxt4kL2CyGkvPIITPfrnjC854T4eQOTLm5gYanOBLdOHwHQK+YePUfz+Jq5MhxEYHoDbWVM3L/TAecQL6UIaD9QUpJrlHYWpFHL2madGzVRWMPd+DIr+2FAUS98v4eoH/up5uPWLHjiPDCDwYRoPijcRNZyHGuTzc8jacipR92AgTdsOBXBVjkIaEhoavXK/O4/5D4zHcoVVG82VJrLYLhduYTiO/HdXET7utKxYB5EwdhXpCxK8hxroxY5ImF+MYsBwMIncdxyTpp1Kt+YRu6s7IEhILcQh/uI5HxT8iC/U3LRpSSS/5sBTJ2MgTU3Qg0FvwHjopxIfixI1ifr3uPHCPRRH5h9ReBlDN03Pr4MIHTceU3/icADV0pBdmDcc8U/HIR2p8+NHJMxdMl4vs5czKDSncGQBBtLUGr9gXmmipijnMD+V1R0YQPTihM0Wwh0Ebni8VpeBDrzyPaws6g+ICAw3tlxQOB1BVD8qfTeF3N09304HHANpaoriuvHRlP9/POBgGdH+lW7JSOgnRp+JYfLXvE1tvh708OaEnkfTatLWedF/rMHv6BmE77T+QAErPzIPT6faDKS380s6ZpRnf2KTMrP5fkcC9X3iINP9+3e87PDva7FHOaQu6R5MCRFE3rZXQp/9Yfsis0rI39Y/RhYQfdfPm9SWKEKryTbkesnGNyzLCZO5fbu8P9NUZAwHek18iROeAdFwJLdW3EehDrB1GcEGYstOxBFpnYBcNKR4q76i4NO+ZygVMCeFMLfVFwuQLk3A/7xFF12I7YsaVl5B7iv9gRBEr42DOyuVVpG/oT8gYsBj01uWdRlBb2xfX8H+bH96ncY0MdrDog0X6CtIHA7V3HjYDwNpatyjEtS7WcgzQRztG8Tk10+jaAHSn3OYH+NoNFFT3C8gp//5XR/6N+Po8noBmWuTGH9rBP0u/ajgUfjeCuLs1Dyy9+13aW6V0p0MkvoDJyWIjT6y7wga5PMhZKbjiFtdlE4kuGFcKljEhonTTDjcbzxgwwX6yowPsdE44qNWl6S1GEhTHWoe5b3ch6MDpxCaymzNFROGJ5D6fhWp33q4yJCoSUoPVeNq/ldc6PlBxqT/KHoPDyL43hzmb+ewang6r0K5nUFyZhynPH046p+EfN9ul+gmKytIThszMYR/G7TZjnNVyowLIaRQvCA+/820kyDUtIs08gWeX7W0hSB8U3Hkr4dteR7pMZDWyUguw3yvxLLVJeoAZ64gv7qBYm4W0ms2fQzaJGxf1KgNbdXws/C3EDyvhzB3q/68s+qtOYQ8Is4yV+0eylAuTtSkF5xF5LT9+rPt4KZ2E63GdW1/1tOPQcMIq4bExRR4duksJ+CSgNTD7pjqw0AaAOBFtGauV1EOIOY1sxCjy1w7C9/bIZy9mEGBuzPtge2LzNG0nPHnNXXH9uD1UZD8TQiJZY6c1VIXwghM6RdCeTH71UTN5iw20LTgptv7MwH+sbDx0K1xjLwnQ31S51eUNWQz6aaX7EDYnH8fV9KQDlldmPZgIL0HYSyJ1CiQuZEzeeHqImtZJD8KYvCXRxH8omDDBRPNx/ZFz1fG4//udlyAZ2wCVzN53Ctu4PHP+qDmMTY2HmAlcwXh4doxRwWx05Pcjlhn57brAiQ5hYnjz/hQJ9oMbgJysiXBTbf1Z86TEcSHjMfUayEc9QSRWMhhVSuhrA+qn5RR0lah3JjH5Hs+HO114dRFO27Bsrm4cDpfsxW6vTGQ3pMA8XQAWFT5yGbHCMRjbGwUcS+XQnzMo3tEqCJzbhD+GcV2iyaaj+2LnqcE7T/GIwPvp7Dyf0Xck2cRPu2FR3Ci5wX9O3rgdLoxcDqCq7lVLH1cM/aoJRG7ZscLeOPKywmIXuO2697pjC0XS2vfppGZziM9tt8JHXvpsv6sZwATn8d3juyvZRCTRtDv6kPvi7p1RS/2os/VD19gHHPXlN3rqMcGq4uWc4iNplC80A0TOrbtDKSnfHvkhzS+fFMWlLbN1DW7J20xqwdOpwDPsISofA+r/zQ+KlSmAojdZij9PGxf1Cj3GyIG6k4t6YT4aQqpd43BU0HOdf12xOXlBE6drg2i88hd8Np3sfSOa7sPMWzPdd7vHOdu6896hqLIfhuHaPLeRBBqPviKa9/z1g+ExRBchnbmQmgRW+3PjtN/OCK9Jw3q9wCmxa6YLL8fzhNxpP7s1x3RMPc5F188G9sXtYMb0vlJ43zfu3ms/sei4hwApX9Vg+ic7nrunc4ja+MgWhhL75LzOY84tvNB7+9RfHf2Z85fR7FUWMLsaP1PMYThMK7kish/5jMcDxyxQRg9FN2lnRWRGgUwnUelUmnhUxHr7AykN/+xz3vlpy0obYtoC8Edd0nKjAuhxQBSZ7qpWzDPfToMw/KLWzJya3u9u7uwfZE5AtyvN+FrjvvgNxzIQLXfoFBdSrdj8L+hD6IFiJ9WR6Ltl6OjNdif1RBETFx/gI0fl5C6PIHwCREefawoeCCeCGPicgpLqxso5q4iMixA+9E4gu9x229KUbd44flvsT/BPYiM1wWHpD8aR567NNXvFwPwngDmbz89kKterG25oUFj2L7IWm70jwJYtLoc1lIXxjEizeuelAnwX8oi/YcB245EtwL7s905j4mQPhAhfVDPuwvIf63/OQLfa60pF7UeA2lg83FE1OpSdLhe9NYM6aw+1AB7zPraH7YvMsl9LADoNtjNrKngOdWoEgqfh+A/n9VllHAjLC/hqg0XFtavuoi8YezP9m9tBVl93vJRHwZt+0hEgHS9Aun5b+xYnCNNTfIYj2vy3vXwNo1oX4RXBo1hc8FMVoQiij82rUid5YkK+b1BDOqDaEFE9J8rXR5Ek5UKN5LQZ4j3n/Ty9riDMZCm5iirWL1tPNR/mF0D0b4cG0BQ//ONNJT1Br+jVISqH/2CBM+R/RasA/yUQ+wtH0LXdLcex8K4eucm4idsO/xHB926jPhH+rw5YYTf5k1dJ2MgTU1R/jaLlOFIl1ysiVrJ6YN4Rn8gg9mFxpLXle5kkNQfOD4It83vccv35xF6fQSJO7qtVoajWFKuIvwqZ0STVVTIn0xAv8xwYDoMf90pLekgYiBN+/dIQfyjOeOOVqOn4LP5xZqo9ZwQRyOGx76FjyL1b/X9SEHys3nDIf+5gP22v9ZRb5yF6BmHrOuQ3GdSyP8zDpEBC1lGRfZcCKG/6xqmEEH8ffumXewWDKSpal3GuP8skrdWUWpkL5Wfcoj9JoCE4dGxgOj7Ac75ImoC58kwJg05fhXETgcx9+/SXh+perSK+d8HENNvtCFEELHzY+R/J+ALJHUbrVTT2638VYKbazbIKloOid/4cOoL/RZAAqTLMY5G2wADadqycSuJs/5+9PW60P+bs4hdyyB3V0WpVDJu+f2oBPVuBvMfBXH0l8bHpwAgvJvE2WHeYxM1xwAitdsRa1lM/o8HI+fnkbuvofxk+1dlbRW5hQSCA/0Y149+dcOF+wmMT8agIfeJD3117Na75+sdGV2adpueZz2DcSkB+c4qtEf6X5RRKqko3JKRkPrhco0g9rWxFXmnM5gf5XCTHXRwIK0g8cwOMGHY/vW51mUEa75jv1umdi4Nq18nkXgviJGBo+jr60Ovvm5e7sPRgSDGL2Z2ZhAYiiPzpR1Go9m+DgTWGwCgZ2gCc5+KNeeVhtzn4xjxuND74nb99Lr6MSLFkKnZEIkX7m7G/qw1ythYiCEk9sP1sr4+etHXdxSD/hBiC6s1N2LbmwDZb7hJg/zOs9pZEHKji6U7wGYgXc0nWalUULlQX0p174WnuxxalYRdV+bdtqMcdaPuB5jLCTgOhzCo6L5HiSPmtee+8K0ivD2LlVtReF+yuiTNwPZlOdabTg+8H99E9pLfxE2qAP+lFZteuKk+7M8OBEFENFvA0sd2PRerOaP33g17EO5DVpex+Tp4RHoPy/MILQLx4iovsgAAFtRJREFU81LdFxzldgwYTSGsn4c4FEV+GsjcyHXHY71DfszmUoif8dbfoT51zI8J+R5W/zGBAbtnlWL7ahvWW60eDPzhJla/u4rwcH2tTxieQOr7Vdzk7n20G/Zn7SF4IH22hKK6hPjJLnwqtC5jdgoIyGFb7n5ps+UXGuRLu5zk9VisbnTQhU18kxPuYQnRYQnRP5ehrRWQV/JY+S4PZa0I9baim8bhhvfEAAaH/BADIvyvubtk8xW2r7Zjve3g/FUYV3MhxO9mcVPOQv53HvfuPH18LMAz3A/fryQE3gvC/6rd72xrcNe9BrA/27eX3BDfD6BUKCC3rM9X7oXo7sfACS98J7rpGrk75VoIGcSRH7Nni7HXf+16DulFIK7Uf3cNAN4TcWAqBp9jBamHaUiHsHUH1eh32cILPRBe9SLwqheBMxNWl+bgYPtqK9bbs/RAOB5A+HgAYauLQp2J/dn+Ob2IfJlGxOpyHGgKcjYejQZsFkgr10LIjKaQbPTueiiKSkVEwuFD6LADIQBAAKmHlWonQQS2r7ZjvRG1DPszagdtYRYxG49GA3aaI/30jriBuV76zwYdPmBz8URRDgDIIHS4W1ci0w5sX+3HeiNqDfZn1BYK5qWMrUejARsF0k/n4IiN3l1Dg3w+hMx0HtHNzwpj6a3VzDFvg2mByJbYvtqN9UbUKuzPqB2qo9EBBN+w72g0YJdAel8rQlWoi0DgWG2uCgHS+TiAFag2zHtIDWD7sgDrjagl2J9RW1RHozE9afspP7aYI92MFaGZtZ1rkDV1ZZ8lIztg+7IO642oudifUTs8HY1OnbHzpI6qzh+R3nd+Qi/CcgCY8hmTya/LiEgZBOSk7e+m6BnYvizCeiNqOvZn1BbdMxoNdHwgvTlfC3FM7uPuWhhLo/IwBUiu7a0sN3duStt4pSk9D9uXlVhvRM3E/ozaQ5nxdc1oNNDxUzuq21FKzfiqQxLSlaZ8E9kG25flWG9ETcL+jNrDe6GCygWrS9E+HT4iTURERERkDQbSREREREQmMJAmIiIiIjKBgTQRERERkQkMpImIiIiITGAgTURERERkAgNpIiIiIiITGEgTEREREZnAQJqIiIiIyAQG0kREREREJjCQJiIiIiIygYE0EREREZEJDKSJiIiIiExwVCqVSlO/0OHY9fibb76JN998s5l/ioj24ZtvvgEAnpdEBwjPS6KD55tvvtk6N2u90M5CAOwciA6C2k6B5yWR9XheEh08zwqigTaOSD/V5D9nW3/6058AAH/84x8tLklnYH01pvY85XlZH7azxrC+GsPz0hy2s8awvhrzvLiWc6SJiIiIiExgIE1EREREZAIDaSIiIiIiExhIExERERGZwECaiIiIiMgEBtJERERERCYwkCYiIiIiMoGBNBERERGRCQykiYiIiIhMYCBNRERERGQCA2kiIiIiIhMYSBMRERERmcBAmoiIiIjIBAbSREREREQmMJAmIiIiIjKBgXSXUWYccMwoVheDiIja7ED0/+sygg4HHIZXEPK6tcU6aLSFYE0dOeB4R4ZmdcHqsZyAw5FAO1ualfXFQLqbrMuYnbK6EERE1HYHpP/Xvk0DchGVSmXrlZ/OIHTYgcSy1aU7KDTkbgCphxVdPeURXwzB1eYAtXEa5Euxtv9NK+uLgXQ3WE5U784Oh5CxuixERNQ+B6z/F8bSSI8JhmPeC3nEAayoHTHe2gYCpOtpSIf0x7yIKnEAK1AP5Oi9goTDAYfDhdBiu/+2tfXFQLobDEU379CKSI1aXRgiImqbTuj/11WsWF2GDqCpB7mWvIhujgYX5YDVhQHQvvp6oS1/hYiIiGgHDfL5EDKjKRRrRqpJZ11GRMogIBdrRl5pV22sL45IExERUXttLTp0IX26iMp1CQyjd9paRHc4jeDDyo5pMWRkRX0xkCYiIqL2OiQhvTkVIIkIM3fsQRhLb07NSQLnOyhzh0WsqC8G0kRERGQZYSyJ1GgGoWsHOx+FtQRIl1IILIYwz+wmdWhffTGQJiIiIut9r3K0tQ7MbtKYVtdX1wTS5ZKKwi0ZyamzCL41At8r+sTdLvSLIwj+Pob5GwVoZatLS52qdD8H+eJZBN/y4WhN+xr/KAn5zipKT6wuJXWcpynMmvAKLvAiTAeNCnURwOtuzpN+lnUVGQCDbtZSXdpUX/YOpEsqsl+cxanXXejtO4pBfwhnZ5LI3M5BWdO/UcPqnRwyXyUwHhiEq/coghdz0BjwUJ3K92VM+o+izzOC0EdJZG4rULd+W21f8xfPIiT2o89zCpMLq+D9Wn3Kywn4DMHgQd+QgKyy6+5m+36xvTWPBvmdnXOhlRkfYgggdcZrTbEOmnUZwR1zexUkvDFgNIXwkEXlOqgsri9bB9LarUmcOpdE9odGR2BUZD4ageuNGHI/taRo7bU1mrWZKH3KxwtE05Sxem0c/Z4Q5m6pz387AKxlMSf1QzyXRZ2f6F7/kRE+HWM7JTLrQPX/AsTTQOiw8WbFNxVHvlK7oUYXOyQiiBBchhs6H2LT+QOc3eTphiwOuKQMgNjWAEjLd6y0uL6YR/pZlhMYebsX+dtReF+yujD7MBRFpRK1uhQ2VMbqX8IQf2duVbDyxSmMPEpj6a8BuJteNhsoKUiMhSBzJgKReQes/xfG0qiMWV2Kg06AdL0CyepiNKS6IYs1Lc3a+rL1iLSe8JofkQtXkc6t4MHGBh7/rNuT/efH2FDzSE3vEtAsxxD5XOFjeNqhvDyHcG0QLYgIX76Je8UNPH7aviqPsaGuIP3ZzvalXosgtsBx6R0eKUic9CHG1em7m85v918NvpiHloioeWweSPchMJ1C/uFjFL+/iSvTYQSGB+B2OtGjH4t/oQfOI15IF9J4oKYg1VxnClMp5EptLTgddGUFc+/XTDkYimLp+yVc/cAPj+BEz9YveuA8MoDAh2k8KN5E1DBfS4N8fg5ZO0whahoV8u8DDKKpYds5ZPfzWsEs56ASUZ1sHUgLY1eRviDBe6jn+W9+6oiE+cUoBgwHk8h9xzFp2la6NY/YXd0BQUJqIQ7xF8/5oOBHfKHmZk1LIvk1R6WrylBmQgj9/ek4vwBJTln0uJC6kbYQx6TuJm5gWqy5HhARbbN1IG1Wz6+DCB03HlN/4pA0PaUhuzBvOOKfjkM6UufHj0iYuxQwHMpezqDQnMJ1sOqc88DU9ji/dzqD+TE3ei0sFXWRRznMns/oDgQwecaLBoZiiKjLMJDelRseZuGhvZTvYWVRf0BEYLix5YLC6Qii+lHpuynk7u759q6gLhgXbnqn88hdYBBD7VP4SwxzukUP3ksxZpIgomdiIL2rHvR0cpYOai1Nq0lb50X/sQa/o2cQvtP6AwWs/Ni96SnKywmEpO0gWng3hRSDaGqndRnx87pVD8IE4r/lpA4iejYG0rsqQlszHnG9xEt6823nneyovNZadbekbWYmHjjhGRANR3JrxX0UqoPV5ooeiiPzpcSUgNRGZeQuTxjOa/+nEYgcUGmhDu3/2612V9MZ1tIzWVBfDKR3U1pF/ob+gIgBj9Oq0tjTcgIOhw9Q9Kvlo+imGTW9TmN6GO1hEV03E/8/GYyf0OWKHorg5kKH522nznM3idhF3ROh43HExngr1zLs/+uizDjg8AJ5fVaZC6ylvVhVX3sG0ntvtbpze0+7Kd3JIKk/cFKC2Oije9rbuoygN4a4UqlJBdchBDeMSwWL2DARAQuH+40Hfip1V77yRwoSY0HMP336I0hILVyB/4iVheoQf5uA75Wd/fNR7whG3jmL2Bcycve77rbMJA3yp5O60VABkekIvHwI2Rqd3v+3ibYQ3NzxkTcY9bCyvjgiXausIDltzMgQ/m2Qj5mbSLkWQmY0hXCndqKCUNMe0sgXuioEboLaXNFexG/M15/5pNutKVDWdh5Wl3PILSaROBfCiKcPLnEcyX8xoH6W8u1ZTOgXD5+MY+JtPoFslY7v/9tCwbyUQUAOM4iui7X1tWcgXZvYvigH9nqrjZShXJww5gcemkXkNDvV5tGgfg8ETgPzNaNpwYUOWWzX04/BUf0BDYmLKTATdL1Ku+eKHuIQYLNpd+Zx9g0PRqZy3TdtqC4FJKfmdLuTCoh+GOLAScvYoP9vh3UVKwggiPmumxFgisX1xRFpHXXBmMMW8GL2qwkm428qFeoikJFUiPp5TEocGcnVIZ2pAP9Y2Hjo1jhG3pOhPqnzK8oaspl000t28JWhzPjh2zrPBEh/yyPF+agtpCE3MwL/jNJdU4fqULv5CkbncHaYN3StY4f+vw3WVWSQQWhNNAxo5qczCB1mML2DxfXFQHpTbfqtp6NkE8ef8SFq3LqKFWDnI5ihKPLTQEaa74iV286TEcRrHk2q10I46gkisZDDqlZCWR9UPymjpK1CuTGPyfd8ONrrwqmL3bcFS+3Nqnc6g/l3GUQ/Xw+8oxFEL6dwU7mH4sYGHtdsbf14YwPF1TzSlyPw77KmQ5mKIP4vhtJbdmy+4sXsJxKEPT9A+2aT/r/VNHUFQACpM8aJCt4LecSRQegaa0nP6vpiII1qEC16Y4YT+OmOatRkh9wY3ONX7mMBACtQO+Fuu2cAE5/Hd87HWssgJo2g39WH3hd1j5he7EWfqx++wDjmrim7TwPpsfdIGHNF78PQBPLXryD+gQT/kAeC07mj3nqcTgivehH44Apu/riB/Kf+mqCwgMSnnIL0VO3mK8KHcUQ4cNJadun/W0xw71lLcI8C+F4Fx+63WV1fXR9Il5cTOHW6Nojmjmqtllnr/Mt5z1AU2W/jEE0OYQlCzQdfcdl4NKyAOd15JgwzV3RrOeH9OI3MdM2t3i0ZuV0WKXad2s1X4Ef8dyL7/DaxQ//fehneVDTEuvrq6kC69K9qEJ3Tbwk7nUeWQXQLeSFOA5jK7XiEp65lgNEgxA7aktf56yiWCkuYHa0/JBSGw7iSKyL/mc9wPHDEvmE0UIZ+SEC7E4Pv5d3Sa+728iFm+K4YfLXv4SYFu+iB98O4cSt65FBY7fZlhzs3XxmYjiHEFKdtYK/+v2WGRMQBxG7vqCWoi0DgtGjjQRcTLK6vrg2kS7dj8L+hD6IFiJ9WR6KZo6O1vGdSCCAGny74qeaABOLnO3COoiBi4voDbPy4hNTlCYRPiPDo/xGCB+KJMCYup7C0uoFi7ioiwwK0H437I3rcHJ+lJuvxQXzXeGhV27CmLAdF7eYrQgTx9zl40i626/9bwouwHACmfEhsLYbVIL/jQwxxTI6xloysra8XWvrtB5S6MI4RaV43V1CA/1IW6T8MsDNth0MS0hU3Eg4fHFNPDwaQeliB1MGjEc5jIqQPREgf1PPuAvJf63+OwPdaa8pF3awHvS8bj+Q0DejaSTW1m68A3o/C8P/CsgJ1H5v2/80mjKVRcSfg8Dq2n8iNplCs8GZjN1bWV5cF0iUUPg/Bfz6re8rsRlhewlUuLGwzL6KVCqJWF8MqayvI6vOVj/owyEchRC21Y/MVYQLx3zLBaft1ef9fr6EoKhXWUt0sqq/umdrxRIX83iAG9UG0ICL6zxUG0dR2hRtJ5HQ/+096bT7KUL1wVky98ogbviuOfO17LnD/rz39bPzR3nPxn6V28xUgcGkS4kuWFYiIbKA7Aumfcoi95UPomm6l8LEwrt65ifgJDgNSm63LiH+kzyEdRvht3sxRK9ROIQLcgsuaolhsx+YrQ7OIca4pEe2T7ad2lO/PIzw8Dlm/tmQ4itT1OETOi6O2UyF/UpsxgHM0qTXKy1mk9FOIEIH4P124EmTH5isCIp+EuWstEe2brQNp9cZZhAJJw8IS95kUlv4swW3rfzkdTCqy50II/Z0ZA6gNHimY+0MMhv0zz4jwdeFDuNrNV3Ayjom3u7AiiKjp7Du1498J+AxBdDW93cpfGUSTBbQcEr/x4dQX+ts6AdLlGEej6ZmU/x3B+BdZrP7UwPbepQLmpABi+qkMGMDsuUD3pffcsfnKAOJToa7NW0JEzVVnIF1C/vbmY7HjPng6IUXNE9RsCakh94kPfXVtALHH6x2Z23KS0XoG41IC8p1VaI/0vyijVFJRuCUjIfXD5RpB7Gtj6/FOZzA/yjma9BxPcpg/dwr9v+yF6/VTODs1j8zyKrRSCeUnuveVSyj9p4DMF+MY8Qxisqa9CR/OduEW2Ds3X8GZGCJDfAZERM1hDKTXMxiX5pC9X8LW2McjFbn/DSFyrfpj4KMQ55V1MWWGNxdGZWwsxBAS++Ey7NTXi76+oxj0hxBbWK2po+3Nf3g5p0ZoP2SRnBlH0NsPV18fel/UtbnePvS5BxE8N2/YrRXY3JJ9qgu3wK7dfAXe7hyVbxL2//XQIL/DnVe7Sc2IdBkbC5M45elD79MG8PJRjHyShQYB4oUlzHOVc5eqdg6+71MobqUdKyKFEFyOxI7tXmkPgohotoCljxlEU3u4R68g+48ovF2X5m3n5ivCh/EuHJVvBvb/9VGQcLgQej1vTN855eNNh40ZA+mX3PCdESEOe7Zz2h7zQjwTR0opYGla5J18t1rPIb1Yu4WrAOlSdbvX3PIzPkuA4IH02RKK6hLiJ3kzSvXzvJ3C7Pv+xuf0HvNjQr6HlesRDHRdEL3L5isIYO5cF47KNwP7//os5xBDAKkz+rz2XkSVOLCYRm7dspJRCxmX3Tm9mPjrEiYsKkxTcUegllhRNWCIgeCWl9wQ3w+gVCggt6zPU+6F6O7HwAkvfCdE+F9zo4eLXE3q7l3QnMclTHwpYeJyGdpaAXklj5Xv8lDWilBvK9hudW54T7jRfzwAMeBH4Ffd3eZ6TsyiWJm1uhi2wv6/Hhmo6wA6YS0ZNUUXd7PUkEMigqNASHLBsZbf2klOuRZCZjSF5JDF5bOK04vIl2lErC4H2d8LPRBe9SLwqheBM7YY7qBOwf6/PkMi4gBiXgdW5CLSYwIADfKlGDCdh8Tg2pbsm/6OmkyAdL2CohwApnxbiyh8yKNyXbL59tZERN2M/X99qk/P8tNARnJt1pML6dPFrZsPsh8G0lQ3ZcYB143g5mKTPOJAtVPlIgoiIltj/1+PzUWZ2Fxs+DCFADaDambusC0G0lSf5QR8UwGkLj0dfajeeVeUOLAYQmSBXSkRkS2x/6+LthBBaDGO/NPR50MS0pXtkfwEF2XaEgNpqoumrgAYhLt2jtdQGKlRILOm7vYxIiLqcOz/66OuZYBR944MO8LYJOLYXKxJtsNAmhqwUl2NbKBCXdztvUREZB/s/+uyqGLHbcW6ihUrykJtwUCa6lK9o84gdNiYfF+Z8SEG3aMsIiKyFfb/9fGeqebV9hnmjWuQz29mN+GGdrbE9HdUp+qcOHHGAZ8jtn14NIVihau2iYjsi/1/XQ5JSFdEyO+44HKEto9P55m1w8YYSFNDvBcqqFywuhRERNRu7P/rUU0VKFldDGobTu0gIiIiIjKBgTQRERERkQkMpImIiIiITGAgTURERERkAgNpIiIiIiITGEgTEREREZnAQJqIiIiIyAQG0kREREREJjCQJiIiIiIygYE0EREREZEJDKSJiIiIiExgIE1EREREZAIDaSIiIiIiE9oeSDscDr7qeAHAN998Y3k5OuXF+mq8vnhemqs3tjPWVyvri+eluXpjO2N9tbK+nqnSZAD4asLrzTfftLwMnfRiffHVjhfbGeuLr4P3YjtjfVn5cmwGv01TV/RORERERNThOEeaiIiIiMgEBtJERERERCYwkCYiIiIiMoGBNBERERGRCQykiYiIiIhM+P+tRb6inkPF7wAAAABJRU5ErkJggg==;" vertex="1" parent="1">
          <mxGeometry x="870" y="220" width="722" height="782" as="geometry" />
        </mxCell>
        <mxCell id="CZFwYiIEyRFxqFMBFOEH-4" value="" style="shape=image;verticalLabelPosition=bottom;labelBackgroundColor=default;verticalAlign=top;aspect=fixed;imageAspect=0;image=data:image/png,iVBORw0KGgoAAAANSUhEUgAAAtIAAAMOCAYAAAAz4eFKAAAgAElEQVR4nOzdbWgbV74/8K+WXnCgFxzYCyNwoCoprEMDcfhf8IjbF5GTQhV6IRIOWGIvZJUupMoWGrtdtpb9QpaybGtnoY22sLUb2KIxxGgCW+LAplFedJEMu9iFlLiwIVOIQQNbsKEFC1qY/wvJ9kjygzSWNE/fD4i6ih+Ofz7nzG/OnAdoLlGSQhoADcmC2UWxrh83tacrOW12Iq6FzomaD6jEDD5NPBfTUlJBK/1odiGtaFNbX32gZT8c1WLnAlq/sBU3aL7BgBZ7Z1a7+691swtpI5taISluxzBVNLs8FlNMbcemmVdIKpldYmv692Pt7qe7tdlx7S6bq6ZpmlZINl/Ptl/DWY01bsf6v+5qs+/EtMDLwnaMhJcDWujKTe3uKivaXtb/dVe7eSWkicd1echwXJuWl7V1i+UhMLsA3fFUyw6DifS+lrWU0EQneTymza5uml1YC1nWpo83c4ERtMDEA43d5sGeShFN0MWOiXQdJtKH8+NTLfdOUDdQUP8KadlnZhfSGphIH8a69mAiUNOX7fYSf3NXe2p2US2libgNxrW7itnl3PEzOFl5A+o3i5i5OITogtmFsboyoAIQ+hFJZlFQ1rH5owZN06BtruPxYgpBAcCTOVw+M4bF78wur1WUUX4CAD4Er9zE3dUS1jercdM2sa48wPSwD4CK/NQQop8oJpfX2spLaUQjElSzC2ITqeJWXdv7lRsRzC6mdfxQRPpVP8IfLEIRAoh9eBePS5vbsdr892Pcvd6PHrPLaRHixMH1a+v19NOg2cW1kDKKU0EMTeWhwofQ+w/wdF1Xz5QCZt8OQABQ/Og8olNFlM0usiXo4yYi/mkBT7/fJQ9ZyuD8SBrFH8wub1XXUvauKmipve5kOCK9h2Xt5ttZ7fE+Q6abxZQmVuMY+DPvoSsK2vTwtPZg3yGYp9rsa9X6d2paW+5W0exGyWoRARogaqlknCPSe9GNSDM2rShpuV8K2yNaOcXs8jjI9w+00eoTzSCvDZr2r1ktuPVE6C97xWNTK0wM8CmIzubfRqsj0YI2+rfdn3xvrkxvx3YgWdCs8Hzc2SPS1IIBxG9E0N+792f0DEYQO1f5OH+/yFFDAICI0dujCOw76OfDCbH64Vdljjzs5oci0iNRSKqAiJTF+Dmv2SUih9n4PIX4ZyqAELLzNxF6wewSOcfKJwnMqACEUYyO+MwujunUlTwWAQAhhM/sFY8eiKEoBgAAMpS1LhXOslTIn8xU8orXUoif2/25UM+pUaTer0RtZTKL/Eb3SrgXhybSIsZrHjsVkDK7SI5wBEf2SbRpHz9W/3uqh4+N6/1QRPqcH4klQEzKmOOFmNpOQe7jDFQAA+8nEHnB7PI4yHeLmHu/CAAIXo8j8LzJ5bGUDWxy5KQ55cdYrk7BFV45jf2uAgOvhFEZu8og/w/zA+zQRJo6YxObFrj7s51vJdz8pPJh8M1QdQSCKhRIb4aQWAKEX2aRnRB5o0Ht95WMzD0AGED0HFtg+5RR/DiBjArgVAoJ3gQDAISXTlf7+TwSSQl7rYxRVwtYAQBhHOKpbpXOor5Tt+Pkf+GAJ5K/GEC4+uHKt6VOlqopTKSpeU/ykO9XPhwQ+8ElTAf4QcXqvRmEz1WmLASuF5B9gxeaHWUUp6KIfqZC+OUs8n+K7DsKQY0Sogcez9bLixOBIVx+dw6LT3jHq6c8qiYsCML/8gaUexlcvTiEE96t2L0I/6uXkZ4vQv3J5MLayZMsUpOVyIbejUHkXXDFqTgyycp8PvWzKPyBMUhf1bXJH4q4+b4MQEDkRgwBxm7HT5v7/3vvUWyl2nnVApNMzZ6k3R26xYdcbGiQfmHEgDa9YnZ5rKp+oaugBd6Y1nKPuPFdve1t7gZTWuH7un/kgrq9NbX9Hbdb1Nvexu0Xom5fWntsrWVdm9qDdwQuot7TulZ4P1SzzaLwckQb/fSutlzMavHByt7IsU8fW2LBnPl0W/C+8+CAmFgrp+OINDWlvDSD0anKyIPwzjTibn8M1TQV+c/nMPenLPIWuHG2iu1t7oQIsvPjEDmvsnmD47tvQfZ9CY/zsxg9I2Bru8XgH1fMLq0FqFAeVT/8pgh1IIVs/jFK3+/EbnP9KQqfxiEC1ttay6q+yiDxgQpAQDwZ45S1Br0Q35jG9O/E7XfUryXM/Oo8TotRZJb6Ebv9ALOXuN1iRT/ES9Xn3B8kMLNk/tznppmYxHeRte5ebGd7W7I9Rg9pdz9uautKQZv9TfWUPiGgpYoce9hcnd3Z5m6veHBE2rjvl7Xpre0WEdNy/za7QGYr7RzIdSG77+EX64uj2wdBBD/lNm57W9fuXtnaSpCj0bvZXLmphY5X+rnxxVLl5OBiVpu+UnsYkG94Wiu4vo1W6XMNIaCNy4+1ki7f2Fx/qi3LN7XYmZ1TIq2Q0zGRpv0pOS229ShUiGhZxewC2ZHuonMqpRVcnktXHrMLWkTaJ1FhIn0om/nx7YQw/le3T/DQJdIHnrr3VJs911zS7WabxZQ2cMB+v672LFdNCPfo59afanevB3dO7+MA1badG5C9X8KZwPaZFlY4uZVTO2hv3+WRGAlj7gkAIYLZh3PcNsqQXgQjscqHX91E/mtzS2MNKqTIi7qFcnUvMbH9mTsL6sKQXL/XanN6XjoBf/Xj0g82ekRqOh9ODFY/vKNwr/xdKcgmE5XFm/vs9+teZeT/FIekAjiX2H0nk14fgr+7i4IUqSzaX0og/gmnYQFAz6k4co9KePBhHKEzuk0NjosIXEohWyxB+TS2vdiw/5j52x4wkabdfbuIq68PIb2E7SQ69gt2mIb1nUAIAKBi+V+8PBN1jwDfyeqHXyo4cLOs/+hwcWyufD+DxD0AEDD+TpQ77TRYRfFWtY9/5TT69/lM38gYxqrrjVaKq7xx29IjIPCbm8jlH6O0tQbkXwU8+HQckUEB+NcyZABAHP6XTS4rmEjTbr6VcPnceWSWAByPIVvMMok+rO8UFKofep93dyzFiV0WytW/ijtHKKWKW+/nEOkzseB2Ut7E1mZbPc+ZWhJL8B2v3MZCXcbqvk81NrC+lWnz8KRdrCAzWT19bngGV88wQo3KaD4j9sL7UifL4kRlFO5nKx9eCcJvgUPimEhTjfJXMzgvRivTOQbH8aA4y+kcbaA8KlT71gAG9juHnagNlC9l5AEAQQQGzH/0aTbhv4MIAgBkZO/vdTwGgPIyCneqXxPycyeKOhufz2F6CQAGkLoW4lkCu+pBz9auVl8uY3Xfz1WgfFn98Oe9vHFrQnlpprpbjIjpXwdhhaspE2natnE/gcDAGBZVQPjlLB7fTyHwc7NLZW3qwhjG5lex7/EX30pIvLdY+fi1CALHu1EycqQ1GWOTi1D3m/asq2/ClTjCrG/A8TDiVypp3+J7CUjf7v5pykIGaRUARIy9Lu7+SW5VLiIzWTlmHZcSiA8y7dvdAAL/V60791NIze9946bM38RNFQAEjA8HLJEUWtq3EmIXEigCEJMz1tmG16xVjt3FXTsOsr4Y315BLP7mLlerN6kkhbY32k9JD7THpfWdjeS/f6oty9M7K5C560nzuGvH7p5ltRCgQejXIsmsVlB09W1zXXu8yPq2J/3WWsdD2nT+qbb5Y/Xfvn+qPdAdniFeX+YhGXW2+jpA5IFcB/m+oKUGdw5HCl6/qz3+906N2vz3Y+2urr75LuUO2E3GRZ7ltNT7D7Sn27uYbGrryrKWq4uXlXIUhybS9afL7fNiYq1pmr6TbOHF2GklObazhdF+r+Mh7eYKL81NYyK9u1JOizRV32La7CrrW73N1dmd7Tx3ffm00IdMoht8/0Abrd6ECFfu8sTMZvz7gTau3+941xdPIG2wNViwT/u0Wrw4tYPoEIQLsyh9/xTL8izGr4QQGNStYRf6ERiOY1oqoLSaQ/wUH4XSIQkhZDdL+9c3eRnrq7NcILyLnl/EMLtaQkFKIabbWkt4OYDYO7N4UHqK3G8GOFe1zsonCcyoABBE6po15qVa3s8DSOUVlIpZpC4FEHh5Z0a5b7Ba354peJDklI4az/XCt+t19AGerlfap9Xi5dE0TTO7EEREREREdsMRaSIiIiIiA5hIExEREREZwESaiIiIiMgAJtJERERERAYwkSYiIiIiMuC5dn9Dj8fT7m9JRERERGQ5HJEmIiIiIjKAiTQRERERkQFMpImIiIiIDGAiTURERERkABNpIiIiIiIDmEhb1NmzZ80ugq0wXtQNrGetYbyoG1jPWsN4tRcTaYs6e/YsK3sLGC/qBtaz1jBe1A2sZ61hvNqr64m0pml8NfECKpXd7HLY5cV4tR4vtktjcWM9Y7w6GS+2S2NxYz1jvDoZr/1wRJqIiIiIyAAm0kREREREBjCRJiIiIiIygIk0EREREZEBTKSJiIiIiAxgIk1EREREZAATaSIiIiIiA5hIExEREREZwESaiIiIiMgAJtJERERERAYwkSYiIiIiMoCJNBERERGRAUykiYiIiIgMYCJNRERERGQAE2kiIiIiIgNsn0gXpzzwTBXNLcSahLDHA0/NKwxpzdxi7cYS8bIRxouInMIS/ZmNrpdmUufDdTHywHNRgmp2waiBvRPpNQnTk2YXAlC/zAFSCZqmbb8KSRnRYx6kl8wunY5F4mUbjBcROYVF+jPbXC9NpSJ/B8g+03RxKiC1EIXXkwaHdqzFnon0Urpyd3YsCtnssgAQRnLIjQg174kTBaQALCsWuH+0WLwsj/EiIqewWH9m+eulJQiI3M4h0qd/T8R4MQVgGQpH7y3Fnon04Hj1Dq2E7LDZhdnDmoJls8uwxQ7xshLGi4icwg79mZWulxamKoySFT1ndgGcSYV0LQp5OItS3Z03ERERbeH1silrEuIRGSGpVDdSTWaz54i0VW0vovAid6EE7XYE7BaIiIjq8HrZlO1Fh8dyCD/TGqbFkPmYSLdTXwS56sKADOJciUxERLQbXi+bIozkqlNzMsA17txhRUykO0QYySA7LCN6i+triYiI9sLrZTMERG5kEVqIYo67m1gKE+lOe6Tw7pGIiOggvF42hbubWMu+iXT5YQJe3Wbgl+9sdKtcDqBAWQBw0sd5X0TUFuUNBSv3JGQmryL86hD8L+kPbPDiRGAI4TcTmLuzArVsdmmJmsXrZVPWFMgATvtsGqWtrRjb8ArPW+dmYp9EuozC/bmau8O5z/NgKl1PhXSxcW5XccqPBELIXhLNKRaRBe16WtehXw4/oGBDweJHV3H+pBdHjr6I08Eork5lIN/Po/hE/4kqVh/mIX+cxuXQaXiPvIjwB3moP5lVcHsoL6Xhd1N9MhWvl01ZkxBumAtdRFpMAMNZxAZNKhftau9EulzA4u8rf8bga8HKe7eyWLTCYoDtuxovogsAJv0mdoACAheA6LHai7t/MoWCVr+hukksFS8bYLzIQtR7Yzj/VgaLX7c6AqNAfncI3lcSyH/XkaLZ37cSYhcSzm7XlurPbHC9tIK+AMKI1swI8Hj8SCQL3N3EgvbcR3rjvowZAEAMsfeD8N5bxBxkZO8riFzyda2Auxoch6aNm1sGHWEkB23E7FLsw2LxsjzGi5xkKY2h14+gcH8c4vNmF8ZCNopIj0QhWecJcWdYrD+z/PXSEgREbmuImF0MasoeI9IbyN/JVD68EkLg5QCClyr/u7iQh9KdshERkY7wchDxiVnk8st4ur6OzR+16tZYGrQfN7GuFJBNhtAw1LGUQPyPRXDadNUPRaRf8yPB3Q+IzJMs7PRfLb6stJ/27on0d3ks3qp8OHohgF70InAhXnnjnoT8k12/iohoXzt7oh7mtYxpV80RPIpQMovCs02UHt3FzWQMoTMD8PX2okf/TPG5HvS+ICIykcNTJYtI3XVmZTKLPBe5AFAgvRliEk1EbbFrIq3ez2IOAIRxBF/pAQD0ngthFACQR+bzlW6Vj4iohjqfwpguCRpIBjBgXnE6ThiZRW4iArGvp/kveiGCuYXxurhkkP+H28ekyyhORRH9bGs+h4CIlIV1Jj4Qkd3skkgruPuZDAAQLgXg3+q7e/wIvlP5cOUveTCVJqKu+yGP6Wuy7o0Qxi6JaCHFdI2e/wkjeqr2PeU7Nw9Jl7H6SQyhyZ0ldmJSxtyID0dMLBUR2VtjIv0kD/keAAiInfPrLlA98L82Xlkt+lUW+a+6VUQiooqVTxKY0S0OE28kuNJ/Tz70czexbcp8DIFf72wpJiYLyE/wJoyIDqchkVYeSlgEAOEqzp+p7WJ6xABiAgCsYPpzR28YRERWsyYhdU3X7wijSL3h5Ekdh9WDHu7SAaCyV3Q0spNEC7/MIsskmojaoC6RVpBfyAMABq4F0TCY0RPA+TcrK1jUP91F3u3T7eiQikjzIIQWuDleZeQ/HIV+UkfwehwBJor7KEGtWxjufd6FqWP9XtGDKch/ijTubEJd5ub+rAX1pwFOMUpWU5tIfyUjcx8ABhA9t/tIj3juamV6hzqHfJGZNBm0lIbH4weK+t0Yxhtv3qjC7fH6KoPEB7o5HadSSIwwFdrXxioKd/RvBDDQ32tWaczxrYzL53R7RQ/GcXee+2mbzu39WZOKUx54RKCg37VoglGymppEeuV+trqIcAVjA3scxysmqo/HVKTvFbgvKbVuTUJYTCBV1DDuqm3MDHJ9vFRI18d0o1UC4sk4RBcOrrZi46GMjP6N1yIIHDerNCb4oYj0SBhzW6PyQgTZ+ZsIvmBmoYj9WXPU+XD1xEcH32D8ZRT+lxrzzBfFIQxdvIrERxLy31h/gbQukV5BXmpxL44PZO5LSi0r3opCHs4ixk60KW6PV/n+NEYXdG+8lsLo6y4bWW1VuYhMcq7mrdgbYRdNZ6jfK1pE6s4cIi+YWCQCwP6sOUXMRWSEpJhzk2gAeFJEcZdzSZSlPPILGaTfimKo/yi8gcvI/N26yeZOIr20iOmvAGAA0ysHHIiwMl3dnzSDxS+t+8uRFalQHgGhC8Bc3V1oeN7pZ/Ua4fZ4rSAzOYOd31TA+DtRFyWERpRR/GAUCf3OSoPTiF9wy83Hxu57RQ/yEYb53N6fNWlNwTJCCGOubrQ2DGnN7MJ1n/pwDldf6cfQZB5WzDiriXQZ+b/erFysTkUROLXflwA4FdjenzRzx5q/GFmVAmUBkCMKAvqbs2IKcsTLzrSBu+NVf/gKhmdw9QwTov0o87V7JQMipj8edfShNTvKKE4F4d/+/QVE/lJAlvPpLcLd/VnT1hTIkBF9EqgZxCwkZUSPuTOZBlTkp4YQnCpabkpxJZEuF5C/VanAgTdDTXS4Awj8X/Wzbi0i/13HykdOs6ZgGWh8ZDU4jkISkCNzXLmt5+Z4NRy+ImL6vQiEPb+A6rd52xqNHT1ocMQh6m8ixKSMuV8yibYMN/dnLVCVZQAhZC/VTuwQJwpIQUb0ll2j1ANxOI7xD7O4W3yM0vo6NutmPGyur6O0WkDuwziCu6zpKE7Gkfq7tVLpnwFA+ctFpFUACCByprlOZ+BMtJpwzyF7n3eR1KQ+H07v8U++4yEAy1Bcebe9BxfHq/7wFeGdFOIuSQiNKC+lERATNYnI1sl9bsC9om3Axf1ZKwTfnlGCbxjAIwW2zLoGR1G4fROp30QQHOyH0Nvb0D57ensh/EJE6Dc3cfdf6yhcD9YNnqwgfT0LpXulPtDPgA3k78xU/q+VVd2nQoifq3wof3bXUr8UWZ/8hDWmFa6LV/3hKwgi9esAk6I9lJfSOH+hPol208l9K5jR/f7CGe4VbWWu688MkXlTgV6Iv8tBTtYtubwnIb/LIkWz/Azf5SF/XPmf4HCghY7Hh8BwoPLhPdlSvxRZmYhAEsBkvuERnvJEBobDCPDIZx03xqvx8JWBZAJRN23d1oKNv1eS6Lz+6PRkAYuuSaIBoAz9EJ36MAH/f+6xhWvDy49EzfdKwF//OTwEo03c2J8ZMBhACkDifkOUoCwAoQsBF01x64H4TgrjNb9wHiur1lmd9zP8PITZ6tyUu5dau3/3vfGgOq/lLmK8yFGTxEtZhJCAX3dxquyZCaSucQ5sPdfFq/7wFSGO1BU3JYXN27ifQPAVfRItIHC9MhLtlj06yF5c158ZIiImhYBJP9Lbi61VSBf9SCCFsRGXRanHj8Ava99aVdfNKcsunjO7AORCfRHkNB/SHj88k1tvhpB9piHC0YhGropX/eErgPhuDMGfm1Ygy1LmL2MoMqebVicgeGMRubcHeNNB1uWq/sw4YSQHzZeGR/TsPDEZzqKkufFmowdH/rP2nbyqAhaZvMVEmkwiYlzTMG52MWzDHfFqOHxFGEXqDXds3Na8Daz8MYrgtUXdbAYfYtIDzLpkYSHZnTv6s0MbHIemMUpW97ODP4WIqBvqD18BQjfGEHjetAJZz08KpF+dxml9Ei0EMP63ZZcn0ZXEbN+DxPZ8FZCq+V4pFOo/Z8LR58sRWd+Ptf8besE64/JMpInIEhoOXxmcRsJtcwH3810eiVf9iN7S7XhwPIbZh3eROscZ0UTkVCsofF77jk/wmlOUXXBqBxGZr+HwFQHx92IuOY3vYOVv5hA7cxmSfg3mmXFkb6cQ4PxxInKw8tIisl/p34kj8N/WWQnCRJqITFd/+ApeS2H0dY6yAoBy5yqioUzNAkzfpSwe/DkCH3twInKyH4qYeTuBFf17lwLwW+jywKkdRGSuhsNXBpCajFpkPbbJ/pmGvyaJrmxvt/wpk2giso/i74dw+aNFrH7XwvHeGyuYiYSQ0E/5wwCm3wpZantPJtJEZKLGw1dwKYH4oHUe25nqJ9QdBawi/54fR5s6aGSP10XJnscLE5F9/ZTH3FvnceK/jsB78jyuTs5BXlqFurGB8k+6zytvYOPbFcgfXcZQ/2mMfV7bWwnvTCN+qrtFP4jrE+niVJsuMktpV1ys2hYvl2C8DlB/+ApEy402EFEFr5fNUCFd5MmY+1G/XkRm6jLC4gl4jx7Fkf/QxerIURz1nUb4rbma01oBQDiTgjwZsNw++S5OpCuV3f8oi9L2NkclZBGF15NuOL503+80H4ZHXEb22eG+j7W1L17uwHgdrPHwFeGdlOVGG4iI18vmFJH2eBE9WajdXnHS77Cbhe7zDd/E4l/HIVpwO1T3JtJreeQW6o8kFRC5UTm+NL+0z9fWKGIuIiMkZXSnMgmI3C4ghQSm5x3SdNoWL5dgvA7UcPgKQph5y3qjDUSux+tlc5bySCCE7CX9vuMixospYCGH/JppJTNd/+tZTF8Jtr725XgQo9JjLN+OY8CCSTTg5kS6alk5ZMNdU7AM4LSvfr9bH3zDgHwn76i70EPHy2UYr731nJvWjW5p0LQcjwiuNzhu8JCRfV633XjE8H7qD3MZB49f2R2vl82Qobg4Yd5L76kIRv90F09/3ERptYDcp9MYvxJC4JxYl1z7IJ4LIPbOTWSLT7G5ehfTI/2Wnu7n3nXffQGEh4FoxAvPk8L2yVXFW1HIw1lkBpv8PmsKZACnG/5BgO8kgEkFCmD/C1e74uUWjBcROQWvl80ZDCAFICF6sCyVkBsRAKiQbiSAZIEDBQDwXA+EX4gI/UJE6NKo2aVpCxePSAuI3NZQkkLApH97orsfhdZGbPp8CMENI49tipdrMF5E5BS8Xjan8nSjkATkiLcaJy9yF0o8Zt7BXJxIV1Yge++Eq4+XC0gBlU6ilUUBfRGMJQE5Eoekf5yzJmF6EsCwzzH74bYlXi7CeBGRU/B62YzqokxUFxs+yyKEalLNnTscy72J9FIa/skQsje27qar8+SKKWAhingLix7ECQ0lCYge023hcg0IJwGc9Dlj9LGN8XIFxouInILXy6ao83FEF1IobI0+90WQ03ZG8tNcZO5Irk2kVWUZwGn46ucsDcaQHQbkJ0pL308YydUt6PFBmQRCx+19f72l3fFyOsaLiJyC18vmKE/kXUfVhZExpODkKS3u5tpEumJ5l9W1CpSF3T63RUt5JJDC2Iid76/rdTBejsR4EZFT8HrZlIXKgska1d1KyJlcm0hX7hBlRI/VbgJfnPIjAd2jGQN2Npx3zjZKnYyXEzFeROQUvF42R7xU2VfbXzNvXIV0rbq7iRNuFKiBe7e/q87xCkx54Pckdt4ezqKktbirwpqE8LEo5MN8D8trY7xcgfEiIqfg9bIpfRHktACki154PdGd95MF7trhYC5OpCvECQ3axCG/SV8EOS3SlvJYXVvi5SKMFxE5Ba+XzahsFejk35BquXZqBxERERHRYTCRJiIiIiIygIk0EREREZEBTKSJiIiIiAxgIk1EREREZAATaSIiIiIiA5hIExEREREZwESaiIiIiMgAJtJERERERAYwkSYiIiIiMoCJNBERERGRAUykiYiIiIgMYCJNRERERGSAR9M0ra3f0OPZ9f2zZ8/i7Nmz7fxRRHQIX3zxBQCwXRJZCNslkfV88cUX222z3nPdLATAzoHICuo7BbZLIvOxXRJZz35JNNDFEektbf5xjvWHP/wBAPDb3/7W5JLYA+PVmvp2ynbZHNaz1jBerWG7NIb1rDWMV2sOyms5R5qIiIiIyAAm0kREREREBjCRJiIiIiIygIk0EREREZEBTKSJiIiIiAxgIk1EREREZAATaSIiIiIiA5hIExEREREZwESaiIiIiMgAJtJERERERAYwkSYiIiIiMoCJNBERERGRAUykiYiIiIgMYCJNRERERGQAE2kiIiIiIgOYSB+COh+Gx+OpfV2UoJpdMCIXY7ukTmL9OqQ1CeH6+HnCkNbMLhjZmZntkom0YSryd4DsMw2atvUqILUQhdeTRtHs4hG5EtsldRLr12GpX+YAqaSLn4ZCUkb0mAfpJbNLR/ZkbrtkIm2YgMjtHCJ9+vdEjBdTAJah8O6ayARsl9RJrF+HJYzkkBsRak/8G6AAACAASURBVN4TJwpIAVhWOK5PRpjbLplIt5mqLJtdBCKqw3ZJncT6dUhrChhBardutcvnuvJT3GJNQjwiIySV6u6MiMg0bJfUSaxfh6RCuhaFPJxFqW6kmsiwLrZLjki3wfYk92M5hJ9pDY+tiKj72C6pk1i/Dml70aEXuQslaLcjYATpsMxol0yk20AYyVUnt2eAa1zBTWQFbJfUSaxfh9QXQa66MCyDOHfuoLYwo10ykW4rAZEbWYQWopjj6mMii2C7pE5i/TosYSSD7LCM6C3ue0Lt0r12yUS6Q7j6mMh62C6pk1i/DumRwlF9artOt0sm0u22pkAGcNpn79le5Q0FK/ckZCavIvzqEPwv6Tc69+JEYAjhNxOYu7MCtWx2aYkO4JB2SRbF+nVICpQFACd9nCdN7dOldslE2qg1CeGGuTdFpMUEMJxFbNCkch3GhoLFj67i/Ekvjhx9EaeDUVydykC+n0fxif4TVaw+zEP+OI3LodPwHnkR4Q/yUH8yq+BEVU5sl01QPhnaudGd4uPxjnFp/WofFdLFxrnQxSk/Egghe0k0p1gt2vUUvUO/eKCPYSa3S932d0WkPX4k9vlk4eUATvz3ACLDcYRf86G3s2Wztr4AwvDC64nWvp8sQJuwR2dQT703hvNvyQa+UoH87hBkeRwPPk8h8PO2F42oOQ5slwdTkL+TN7sQ7uDK+tVOAgIXAO8xD2ojmEJBGwcjSIaY3C5b2kda/ToP9es88rdmkHh9GovSKAae71TRrE5A5LaGiNnFsJKlNIZeP4LC/XGIrq0XZC63tcsNFH9/GYl7ZpfDLdxWv9pPGMlBGzG7FOQs5rbL3ad2JAu688q3XptYLy0j+3YAAgD18zEEr+fB6bHOJLwcRHxiFrn8Mp6ur2PzR11d+HET60oB2WQIvvovXEog/sci6wVRh5Q3NrDx7QoW52dwOdAP/3t5LtAiIjJJC3Oke9ArDCByYxap1yrvqLeKWO1MucgURxFKZlF4tonSo7u4mYwhdGYAvt5e9OifXTzXg94XREQmcniqZBGpm8e/MplFfqOrBSdyOBXSxcpcyiNHj+Ko7zTOR8Yw95ApNFG37exVfJjXMqY5p94RDCw29OHE1pQTFRx5dBBhZBa5iQjEvp7mv+iFCOYWxjFQ82YG+X+wZhAREe1GnU9hTLe/8UAyUHcdJbswkEiXsfl99UMBaCHlIofq+Z8woqdq31O+45A0ERFRgx/ymL6mX9gfwtglkfmUTbWeSP9QwOJnlQ/Fd4O8gyIAPvRzuTUREdGBVj5JYEY3K0u8kUCkz7zy0OE0n0j/VIb6lYSx/41iRgV8l3LIvs00mgCgBz3cpYOogyqr0neda1lMmV04ImrWmoTUNd2O0cIoUm8wl7Kz3RPpSX/jZuH/cQTegShmHqrofyOL3Pu77NhgE8WpvTdFT3f4THZnKkF9UvuO93nnPKSq1JfGQwQOst+m/eF5I4vEikg7eAP/trfLpXTt9+FBJa7Gfr/CaH/WgZI4uj/bXRn5D0ehn9QRvB5HwIkDUdX+19i17vA/t5v9vqGTDVc/ieL0f3kxNJmHbWfCDmdR2mV0Z5yraFu3sYrCHf0bAQz0O+O4HnU+DP/kYb5DCoVd6llupMUjS5fS8Hj8QFH/fRx4gEGb2mVxygOPiNrY88AMcnm/f/j+rE3c0p/V+yqDxAe6xPJUCokRuw5J7mNNQljc73i/zjCr329hH+nqXtJKAbNvByBARX5qCP1vLto3maa22HgoI6N/47UIAsfNKk0brUmIR2SkkiY/Oq92Sqmiey74h1FJFnhSGlEN9mcmUyFdH9ONuguIJ+MQnfPwtkqFdC0KOZlCN2uamf1+iyPSlf2DYzceoPDnIABA/TiBzBK3OnOtchGZ5FzNW7E3wrad9rOjiPSxKCCVMH7O5JLcikIeziLmqouOUUXMRWSEpBiTaKJt7M/MVr4/jdEF3RuvpTD6ujOe3OoVp7yIIovSRKCbP9XUft/Q1A4A8A3HEQcArODmQxsey7IQhZfzJw+pjOIHo0h8pXtrcBrxC3bvHFRIF/1IJAutT8FokIBfX88uSi2eQqdCeQSELgBzbZlnbXGHbZdrCpYRQhhzdfNgrTAnlEznyn6/nf3Z4cviqv5s2woykzO6vl/A+DtRBww41doeFb4dQVdrmsn9vuFEGr1H4a1+qK4qtjqiVpyom7LyLIvQpN9AkuNuynwMoUn9hUjE9Mejtt8SceeO+nD3to2nXxWQWojC29KiGgXKAiBHFATqdmqQI15HXXza0i7XFMiQEX0SqPlehaSM6DEm027m1n6/Xf1Ze7inP9OrP3wFwzO4esZhczqW0vBGgOwzE6bUmdzvG0+k9YRe2HoMsi+CjBQCFnLI80LblPJSGtGIVHOHHZGyGD21zxfZQOWOOoTsjU7cUYsYL6YAJJBvdpeANQXLQOMjq8FxFJKAHJlz7kp3A+1SVZYBhJC9VNuVixMFpCAjesux0aJWuaDf72x/ZoAb+7OGw1dETL9nkb9Hu1TnvYekjCn7YZvd7xtPpJ88Rr76YeAln+1P5BFeCSMEGYpDO9R2Ki+lERATNR2emJQxZ/vVxyryd2SkirnOdQaDAaQALCtNjrz0+XB6j3/yHQ8BWHZ0nW21XQq+PaMF3zCAR/Z6ekad5ex+vwv9Watc2J/VH74ivJNC3OYDTvXUL3OQTZw6ZHa/bzCRViAlE9VEOojIGbsnUKg+GqCDlJfSOH+hPokuID/hnONNE2LdPrNiAoCM6LE27HVaHZFplfxEOcxPtS9D7dKpiRG1nQv6/Y72Zwa5pj+rP3wFQaR+HXDMtbJGw/kjfiQAyBFvl/ZqN6/fbymRLm9sQFmSkL44hOhnKiqP828i5oCtziqPBlIIuGwlcSs2/l5JovP6o02TBSw6Jone4/S4YgpACNlnbdjrdE2BjBDCrzR75y4ikAQwmW+44ClPZGA4jIBVRps6oOV2WR3xT9xviBaUBSB0IeCsR6p0KM7u97vQn7XMTf1Z4+ErA8kEog7Il+o1rgeqrgkCEJJKnd+r3eR+v/mTDT0eHDl6FC+KUSQWFAAi4lLefo/z1ySE6xeXLKXh5ZZZ+9q4n0DwFX0SLSBwvTISbev58R1TRLp+tGdrk/rkWEuPWsVLWYSQgF+3w8DWwQqpaw6Za9e2dikiJoWASb9uBKS6awFSGDN91wIyBft9y3BFfwY0Hr4ixJG64pRBJ6sxt99/rqXPFvoROOnHwEgI8QtB+OyYQfX5cHrBD68nWvO2+zaHb54yfxlDkTnsPIwTELyxiNzbA+wU9uSDbzgBv6f2dKeQVILWaqPuiyCn+ZD2+OHZPpWsMqJkmbmPh9XGdimM5KD50vCIHmxHfziLkuagizS1hv2+dbihP2s4fAUQ340h+HPTCuR4Zvb7ukRaxLimYbzDP9B8bvk922EDK3+MInhtUTeS40NMeoBZuz2JOIzBcWhaq19UeawaaVshnF5v2/z7DY5D05wbLWqV09tPCwz1Z+3m7L9Hw+ErwihSb9h9Y9hWVf7GXWVSv9+e7e/IeX5SIP3qNE7rk2ghgPG/LbsriSYiImpa/eErQOjGGALPm1Yg6jAm0tTouzwSr/oRvaVbWX08htmHd5E6Z8f5PERERJ3XcPjK4DQSXJvhaK3NkSbHK38zh9iZy5D0ayTOjCN7O4UA53cRERHtruHwFQHx92K2P+2X9sdEmrYpd64iGsrULJDwXcriwZ8j8LGmEBER7an+8BW8lsLo63yK63RMj6jin2n4Q5maI78D12Xkfsft7YiIiPbVcPjKAFKTUXBFkfNxjjRV/IS6IzRV5N/z4+gu+4k3/arft5WIDFIhXdyjnYm1WyzudQ6AxxOGxBMfiTqg8fAVXEogPsgNYt3ApYn0LhelKWMHpRanar9PeJ6pI+2orx+8uegOtkvqJLfWr7b1Z0tpZ/WL9YevQMT0WyE+ze0ys9qlCxPpItIeL6InC7VHWU76W2zMlWTc/yiL0tb3eZYFIl7DSTk5yS71Qyshiyi89SceUhuxXVInubV+ta8/U+fD8IjL1SPKndAvNh6+IryTQvyUaQVyIXPbpfsS6aU8Egghe0l/KKyI8WIKWMgh3+yjz6U5RBdCyN7QnZrTF0GumAImp/kI1e3W8sgt1B95KyByo3I8bn5pn68l49guqZPcWr/a1p8VMReREZIyulMMBURuF5BCAtM2HNlvOHwFIcy8FeCpv91kcrt0XyINAJChHDKwqrIM4DR89Uea9vkQgozclzbrEAbHdSP0bXrd5pHMy4rN6oHNOa5dbquclHm4Nplz0BHM5nBu/WrOofuzNQXLAE776q8MPviGAflO3nZTPHrOTetG6dnOzGB2u3RfIj0YQApAQtTPn1Eh3UgAybGmG4DyRN79H/p8OA1AfqLs/u/kDn0BhIcBue7RUvFWFPJwFrFBE8vmYGyX1EmurV/t6s/WFOweQQG+kwAWFDg0gtRBZrdL9yXS1fPfC8lqp+DxwOPxInehBG1CPPjLq3zHQwCWDz2yTU5VGUEsSaGaXRT8KHCkvoPYLqmT3Fu/2tSf9fkQAp/UUXuZ3S5dmEhXJ6WjsD0hPYTGO+2DCCNjSEFG9FrtAkV1fhoJAKHj3D3S7YpTHnjvhKuP/QpIAZWLkN1XqFsY2yV1kpvrV1v6s74IxpKAHInXzltdkzA9CWDYx32XqWVmt0vXJdLqfBzRhRQKW6PPfRHktJ077XTTiyZEjG+vNt7ZbiWOMFLYbQ4YucpSGv5J/eKHypMQrZgCFqKI23BRjT2wXVInubR+tbE/Eyc0lCQgeky3Vdk1IJwEcNLHp3VkgLnt0nWJtPJE3vWut3JH0+ojp8YFQDmfggRCjZPeyVX2XPwwGEN22MFzKS2B7ZI6yX31q939mTCSq1uY7oMy6ewRfeo089qlO48Iry5oqLlHqa4mPqzi/QSQLHDVLmFrzpZYUxcUKAsATppUJJdiu6ROckf96mB/tpRHAikURjgeTe3TrXbpuhFp8VJl30t/zbwuFdK1yurjjOGGrNsQvIVFi+RM23O2jtUeMlCc8lcuGKwjXcJ2SZ3kjvrVyf5s54CWcTg3gtRd3W2XrkukK3Oi6+fSVE86bHE3BXU+rDuOsrrzB3dkIAA7u8Mk4NfN2aqcvMQLRiexXVInubN+tbE/W5MQ1n2PygJG7r1Mh2Nmu3Tn1I7qXJrIYb/LSA7aSFsKRA4lTmjQJswuhbuwXVInubl+taU/64sgpx326ktUy8x26b4RaSIiIiKiNmAiTURERERkABNpIiIiIiIDmEgTERERERnARJqIiIiIyAAm0kREREREBjCRJiIiIiIygIk0EREREZEBTKSJiIiIiAxgIk1EREREZAATaSIiIiIiA5hIExEREREZwESaiIiIiMgAj6ZpWlu/ocez6/tnz57F2bNn2/mjiOgQvvjiCwBguySyELZLIuv54osvtttmvee6WQiAnQORFdR3CmyXROZjuySynv2SaKCLI9Jb2vzjHOsPf/gDAOC3v/2tySWxB8arNfXtlO2yOaxnrWG8WsN2aQzrWWsYr9YclNdyjjQRERERkQFMpImIiIiIDGAiTURERERkABNpIiIiIiIDmEgTERERERnARJqIiIiIyAAm0kREREREBjCRJiIiIiIygIk0EREREZEBTKSJiIiIiAxgIk1EREREZAATaSIiIiIiA5hIExEREREZwESaiIiIiMgAJtJERERERAbYPpEuTnngmSqaW4g1CWGPB56aVxjSmrnF2tdSGh5PGiZHzvIsUb+oJep8uK4teuC5KEE1u2DkCI6oXyb0/46IWxcxXvZh70R6TcL0pNmFANQvc4BUgqZp269CUkb0mAfpJbNLtxsV0o2E2YWwPovUL2qFivwdIPtM07XHAlILUXh540iH5oT6ZUb/74S4dRPjZSf2TKSX0pW7s2NRyGaXBYAwkkNuRKh5T5woIAVgWbHS/WMRaY8HHo8X0QWzy2JhFqtf1AoBkds5RPr074kYL6YALEOx8lMisgE71y8z+387x80MjJed2DORHhyv3qGVkB02uzB7WFOwbHYZGogYr97dlqSQ2YWxLjvUL2qJqlivNZJz2KN+Wa//t0fcrIPxsqbnzC6AM6mQrkUhD2dRqhupJqIuW5MQj8gISaW6ER6iNmD9MoZxaw3jZVn2HJG2qu1Fh17kLpSg3Y6AaTSRObYX6xzLIfxMa5h+RXQYrF/GMG6tYbysj4l0O/VFkKs+Ossgbv2dO4gcTBjJVafoZIBrXPFO7cX6ZQzj1hrGy/qYSHeIMJJBdlhG9BbX1xKZS0DkRhahhSjmLLmLDtkb65cxjFtrGC+rYiLdaY8U3j0SWYS1dtEhp2H9MoZxaw3jZS1MpDtGgbIA4KSP86SJzLamQAZw2ueM1lheW4F8awyXXx2C/yX9oQ0vwv9qGFcn5yB/paJsdkHdwmH1q2sYt9Y4JF7lDQUr9yRkJq8i3NCHeXEiMITwmwnM3VmBaoNOjIn0oamQLjbOhS5O+ZFACNlLojnFInKjNQnhhjmERaTFBDCcRWzQpHK1i5rHzMUXceTYaYR/NYO5+3kUn+g/QUHxvozM1GWEB7w48lIY6TurTKjbxen1q1MYt9Y4MV4bChY/uorzJ704cvRFnA5GcXUqA7mhD1Ox+jAP+eM0LodOw3vkRYQ/yEP9yayCH8yeifTWgRlbG8tP+qv/b8aJPwICF4DosdqjPP2TKRS0+g3Vzba1Ib8H3ogMIAF/9f+teQKjSSxVv6glfQGEEYW35mhdPxLJgu130VHuXIXfO4SxBaX5L3oiIxE6gcBbi2jhq2gvtq5fJvb/to6bCRwYL/XeGM6/lcHi161OS1EgvzsE7ysJ5L/rSNEOzZ77SA+OQ9PGzS7FNmEkB23E7FI0o7Ihv3UiZ1EWq1/UCgGR2xoiZhejzZT5KPwR46v1ix+dh38jh5W/hGx5EbYOO9cvM/t/O8fNDIxXg6U0hl4/gsL9cYjPm12YWnuPSP+0gdV7cxj71RCGTnp37ope8mPo4lUkbslYWeMDQyKijvpWwlhDEi0g8MZN5FaeYv17rbo9lgZtcx2l1bu4eSUIX923UT+LI/X5RvfKTUS0C+HlIOITs8jll/F0fR2bP+r6sB83sa4UkE2GGvowLCUQ/2PRclPVdkmky1idH8PQsaM4EbyMmVt55PVD8U+KyC9kkP5VGKePHcGLwTHM/ZOdMxFR+5WR//MoZP1bQhDT/1jFgz/HETrlQ69+dKanF8Ivgoj/6S4er84iUjP8rCLzUY5TPIjIBEcRSmZReLaJ0qO7uJmMIXRmAL7eXvTo50Y814PeF0REJnJ4qmTr+jBgZTKLvMVSzrpEegP59wI4EZlBXgWEMzHcXHyMkn7E4/sSHuezSI30QwCg3JvB5fcXucUbEVHbraB4q7Z3Dd2Yw+j/6z3wK3t+EcPcwjgG9G/eX0Tx23aWj4joYMLILHITEYh9Pc1/0QuRxj4MGeT/Ya0xaV0iXcbK74MY+n1lOZWYLGA1P4v4a/0Q9CMezwvoPxPBuPQYq49mETve3QITEbnGmoLlmjw6jthrzc9y7vmfMKKn9O/I4Ba0RGQXjX0YoHxnrSHpnUT6qwzi71WSaOGXWWQnRBw05tH7cgyzK8uYPt7CHQYRERnkxdGDB6NrPt/7UqfKQkTUaT70W3wX4WoiXUb+9nR1a68QZq5HGid57+X5AYxe50pwIqK2e64HtcMUeTx+ssfnNiUEn6W25CQi2k8Peiy2S0e9SiJdLmDx99XnfVdiCLqko1XnwzV7P+tf4XkXPP+s7pfc9d91e5/m6mvK2rszF6c88HgaD905SPvr184+sE7c17oS591fhva5tVk925Xgw+max5p5ZP7Swqr18mMsL+j+/7UgRJf07/XaXr/sjv1/axgvk5Sg1g0eeJ+31iyISiL9zQry1TdCr5w+cEqHs6RQ0HSLKauv3IjDx9jXJITFRNd/bHHKA4+I2phPWPe5jTofhn/yMN+hTfVrKQ2Pxw8U9d9nHNaNnEHDWZR2idd4iyd52a2e7W0AobeCNe+sTIUQ/uMKmpkluHFPwsz2/wmIXwk3/7TRidpUv2yP/X9rGC/zbKyicEf/RgAD/dbKUn8GABvPFKxU37D7Ge7UDBXStSjkZAqpbv7U+XD1xEebJIBrEuIRGalkN6O0eznCYgKpogsv+AbYrp4dwHfpJrK/1PfLKhavnUZ/YAxzS+reo9PfSoi/Obf9v8IvZzD6urUuQGQG9v+tYbzMtPFQRkb/xmsRBCy2ycXPAKD8Q8nsclAXFae8iCKL0kSgmz8VcxEZISlmk06hiPSxKCCVMH7O5JLcikIeziLGJLoJdqtnzfAh8qdFTL9eO8ihPpzBZdGLIy+dx9WPFrGqPz73WxlXR6KQqk+hhTMpyH9qYe0LORb7/9YwXiYqF5FJztW8FXvDek/V9j7Z0DUS8OvnH100fgyvHWzf5d6OdHeB6JqCZYQQxlzd/MTW5x53ngrpoh+JZKENU3wOW79UKI+A0AVgzg3z+Bei8B5mPqCt6lkLnh/A6F9XsfzhLqd9PVlE5q3zOPFfHrwoXsbY5GX4fWFklgBAQODtHAp/s96xuqY4bP2yOfb/rWG8zFRG8YNRJL7SvTU4jfgF6z1V+xkA9DzvNbscphBGcnVz5QpILUThddgirm1LaXgjQPaZCY+K1hTIkBF9EqiJeSEpI3rMWp3DzgjE4aLUnvqlQFkA5IiCgP57FVOQI15HJdPiRN3c1WdZhCb9rd182Kieta4XA7+ZQ+5GcM/PUJbmMDM1V61f/Rj96woe3AjB99yeX+Iabalfdsb+vzWMl6mU+RhCk/orpYjpj0frDmexhp8BQK/Xu3239fiZK7qUPYgYL6YAJJB32iru6jzbkJRBxIRV+6qyDCCE7KXaLkmcKCAFGdFb1rh1qYxAhJC90YkRCAP1a03BMtD4iG9wHIUkIEfmnHnTBwB9EWSkELCQQ77JC4dd6pkRG19LuCoexelriwAA4cwoZqWbiL/ev0ddXcXM/w5g6JqEVWudX2ANBuqXbbH/bw3jZaryUhrRiP4GV0BEymL01D5fZKLK1I7jAwhX35DuFZpaDe5YgwGkACw77Pgv9csc5LZMVTBG8J3e41988A0DeKRYYFRIRf6OjFQx17nOs9X61efDnpE7HgKwDMXBSYDwShghyE3/jvaoZ61TPr+K4MlodboGIP7uAVbz04iNxHHzr49R+v4pluWbiL9WP/FDRf6PUZzoH0L6767u2XfVav2yK/b/rWG8zFNeSiMgJmoGiMSkjLkRq82M3lFJpHv9CF6pvnNrDrlDbfhvc9URQEea9NfNt/IjAUCOeLu0l6o9LlgJsW6fWTEBQEb0WBv2bjZYv+QnymF+qn2tKZBb/iJ71LNmlZfSiP5vZrveickC8tcDtduUPu/DwIU4bi4+xeazAmbfDtSOUqt5JF4JIr3U9A7U7mCoftkU+//WMF5dV15K4/yF+iS6gPyECGvtHF2rutiwF4H/S1XnniwikZTQ9GX7h1XM/V52zt3RmgIZIYRfcdY2gI3zdatzdgGEpFLn91KtjsQm7tenoZU5wKELAQucjikgcrtxj1mtmAIQQvZZG/Zubrl+iQgkAUzmGxJ45YkMDIcRcPABG5VHnCkEmq2btqhnLSgXMXNFd2E5NY6Zt/e/qPT0iYjdeABlNYt4TdyKSFyIQXbZxXk/Ldcvm2L/3xrGq/s2/l5JovO6ZFJMFrBo8SQa0O3a0TM4ikyykiKon0URfS9/4BSPja8lXD13ApdX7DjKUUS6fnRxa9P15Jgp86KcTURMCgGTft2dfHV3DKQw5rgDcNpXv8RLWYSQgF+3w8DWQTGpa11eTd4paxLC9Yu+ltLwtrwFlLPqmTKfqlm1Hnwr1vTuGz2/iODm/QJS+gu+KiE1v7Ln1zhW2+oXGeOsdtl57orXxv0Egq/ok2gBgeuVkWjr7dHRSLf9XQ/Eiez2xv/F3w+hP3AZmXurUDd0ifIPG1C+kpH59RD6dXP27McH33Dd1mTVfYNdd3JQlwgjOWjFlG7qRHV3DEduON/G+tUXQU4rIKV71FhZTe6gA1r6fDhdvzVZ9RCaVucpOqeeqSjeW9T9/wACAy3OE3xeRPzdWM1bK1Ierkul21i/yBjntMvucEu8lPnLOP2qftBJQPDGIu7+zvoj0VvqNkXyIfKXVfhOxhB9V4bycA5XH87h6p5fLqB/ZAzTyaANR8Uqj/EjZhfDVCLGNa27P3JwHJo23t2feViD42g9TO2uX5W/lc0i14I2/352rGcNKo9xd/jg/Xnr36X3pIgA5pDfeuMrBaUNYMAOQz1t4/T2YwT7/9YwXu21gZU/RhG8tqh7UuRDTHqAWQsvLNzNLruL9kJ8J4env1FRvJND7r6MlX88Rv7r6q96XETgFT9C54IInAug30DHTkREB2jXwueeI3WPR0vY+AGwxTNTInKenxRIvx5C9JZuNZ4QwPhfckids1/HtPc2/T0CxJE4xJF4F4tDREQAgD4f+mvekLG8Wkakr8UHnt+V6haPe9HLUw6JyAzf5ZG4GEX6oW7FwvEYZj+/idgv7DKZoxaPCCcisqQeHK07gCB7v4BWl3YrK3Vzok/54LXfoA8R2Vz5mzlETw7VJNHCmXE8KM7aNokGmEgTEVnUAPyh2tUn6gdjSP29hVT6hzwy7y3WvDUQCVjymF0ici7lzlUE+i9D0g1E+y5lUfhbCgGbTxFmIk1EZFHi62N1K/RXkH4lgMS9Jnbu/y6PxP9GMVPzqUHELzCNJqIu+mca/lCmZmeOwPUClj+NwLf3BGPbYCJNRGRVp+KYmahPfItIB7148WIa0sNVqD/o/qm8AfWbPKSpKE7UPUIFAPF6rI2M5wAAIABJREFUCtHjHS81EdGOn1B3aJ+K/Ht+HPXUnSLcyqt+X3gT2S+RXkrvH9ypQx3g3L5yWeiPXFFEet+Kecijr53CqvWLWlKcqv27heet1Rqb1wPx3QxSZxo3GFUWEogGTsD7n7rf9chRePuHEJ2UsFr3K/su5ZD93YBt9ma1MufUr+5i3MiJ7JdID47vcnSnBu1ZFiEAoePd339QnQ/DIy5Xj5DWoGklZBGF11LJaWUPzMbYlZAdBjDsg712buwQC9YvaoUK6aIH/kdZlHR/O0S89r0Jel7E+F8XcXPYaN0TEJh4gOVPQ2zjh+bA+tUVjBs5l/0S6T0Ub0Uhm3J0ZhFzERkhKaM79llA5HYBKSQwbfU77qU5RBccdNR0h5hXv6glS3OILoSQvaGrz30R5IopYHIa0pqZhTuE5wcQv72Mx9Iogi1MzRDOjGL2H6t4kAxw2+h2cGr96jTGjRzMGYn0moTpSSAkxbp/dGb10ITTvvoEywffMCDfyVtsioeeCulGAhjOIuaUo6Y7wcz6RS1RlWUAp+Hrq/uHPh9CkJH70rqt8WC96B+Zxt1/baK0ksPsRByhcwH067seoR+BczGMfpjFg9V1lPLTiP0/ptDt4uz61TmMm8vt9aT3MK/b1hn8c8B6SUD9MgcZKRTMGC1cUyADON3wDwJ8JwFMKlAAy/zBa6zlkVsAUkXrVEgrMrV+UUuUJ7u3RvT5cBpA4ollW2MLeiCcCiF2KoSY2UVxGXfUr/Zj3MjJHDAivTW1wqTRwj4fQgCWFfvdURdvRSFzNPoAJtcvaonveAjAMhQ+KqYOYP0yhnEjJ7N9Iq3OTyNh5tzVvgjGkoAcidfO86pOB7DsIr5q+Tg3en+m1y9qiTAyhhRkRK/V7ppT+TtysSgdDuuXMYwbOZnNE+nKaCGSAVNHC8UJDSUJiB7Tbe1zDQgnAZz0WTJR3Vo8F+Bo9D6sUb+oFSLGt3fN2WmPcYSRwm5rGYhawfplDONGzmXrRLpyNxtC9pL5aY4wkqubCO+DMmnRO20unmuKleoXtUJA5HbtwpScT0ECocbFTkQtY/0yhnEjZ7LxYsOt0cKCbts5C1nKI2HRBWpbo9FWLJt1WLx+UUuK9xP8W1LHsH4Zw7iRE9g2kbbyaKE6H4Y3AmSf5aw34svR6KZYuX5RK1RIF72IIovSbf4tqd1Yv4xh3Mg57Dm1Y01CPCIDyTFr3MmuSQjr5n1574RR0nLWKFsNFdI1HixyIKvVL2qJOh/WHUPsRe5CyVJ7jpK9sX4Zw7iRU9lzRLovgpwWMbsUO6xWnj1V5qjZoaSmss3fk3YjjOSgjZhdCnIq1i9jGDdyKnuOSBMRERERmYyJNBERERGRAUykiYiIiIgMYCJNRERERGQAE2kiIiIiIgOYSBMRERERGcBEmoiIiIjIACbSREREREQGMJEmIiIiIjKAiTQRERERkQFMpImIiIiIDGAiTURERERkABNpIiIiIiIDup5Iezwevpp4AcAXX3xhejns8mK8Wo8X26WxuLGeMV6djBfbpbG4sZ4xXp2M1760NgPAVxteZ8+eNb0MdnoxXnx148V6xnjxZb0X6xnjZeaLUzuIiIiIiAxgIm1RZ8+exdmzZ80uhm0wXtQNrGetYbyoG1jPWsN4tVfXE2lN0/hq4gVUKrvZ5bDLi/FqPV5sl8bixnrGeHUyXmyXxuLGesZ4dTJe++GINBERERGRAUykiYiIiIgMYCJNRERERGQAE2kiIiIiIgOYSBMRERERGcBEmoiIiIjIACbSREREREQGMJEmIiIiIjKAiTQRERERkQFMpImIiIiIDGAiTURERERkABNpIiIiIiIDmEgTERERERnARJqIiIiIyAAm0kREREREBjgnkV5Kw+NJo2h2OciZWL+MYdyIiMjBHJJIq5BuJMwuBDkW65cxjBsRETnbc2YX4HCKSHv84KWaOoP1yxjGjYiI3MHmI9IixjUNmqahJIXMLgw5DuuXMYwbERG5g80TaSIiIiIiczCRJiIiIiIygIk0EREREZEBTKSJiIiIiAxgIk1EREREZAATadrXxjd5SB9cRfhVP170eODxeODxeHEiMITL72YgPVzFxk9ml5LIJcobUL5ahPRRAlcvDmFIfLHaJquvl/wYevUyxj6SkP9mA2Wzy2tJ5Uq/thXDk96aGHpPDiH85gzya2aX0zzlDQUr9yRkJq8i/OoQ/C/p6li1/w+/mcDcnRWobq5kS+na9neIV3heNfu3IYNsvo80dUr5GwmJawnM3FN2+VcVqw9VrD7MY+4DAMeDGE1OIzXSj55uF5TI8Tag3Mti5uMMcp+vYt/L7ZMi8k+KyN+fwwwA4eUIxj6cwegZoUtltbCfVBQ/m0bq+gwWn+z9aerXechf53H6/0YR6Ote8Uy3oWDxsxlk/pzD4tf71bKd/l/+OA3Ah9D7s8i8HYDAjIJcyOYj0kWkt0YRIjKABPzV/08vmV02uypj9dZlnOiP7pFE7+LJImYiJxB4axFNfoVNsH4Zw7i11doixoJXkTkoid6F+rWEscAAhibz2OhI4exh458ZhPu98P9q/yTazdR7Yzj/VuaAJHo3CuR3h+B9JYH8dx0pGpGl2TyR3jn4of41Pmh22eyojNVPYgj8as5QQlz86DyGfiU7KJlm/TKGcbMWFfmpIQR/v+LCqR5lrH4SRf9/X4XMBLqzltIYej2N4g9mF4SouyqJ9L7zfF6E/9XKfKjMfBEKG4ljlZdmEPu1VDvqJQQQ+/AuHpfWsbmdEG1iXVlG7v0QfHXfQ7kVR2LeOak0kaUI/QheGces/ADLyjrWv6+9UdlcX8fTYhap4fqWCRTfSyDrsmRSmY8hUN+nAfC9FsdNuVDp137UxfD7dTxdyeHmlaCrp6kJLwcRn5hFLr+Mp+t1MfpxE+tKAdlkY/+PpQTifyy68IatKlnYdQChmVduhNOv7KqJEWkFxfuVuVBXI368+J9eDF2TsOrm54ROVC5i5koCRf17g+N48OgBZn8TRL/Qq7uw9KD3hQGE3snh/7N3/6FtXff/+J8aHTiQgQ0bXEECUUihNi3EZgNLrH9YbgZR6CASDviKfiGVN+iUBhq7Ha0U/2FLfbPWTqGNWuisBVZ0DTFSYCUKLI3yR4euocMKtESFmtxCDLrwCViwQAQt6PuHf90r/5KuZV3p3ucDBPG1JZ8c3x+ve+45r9ej0u2aUUYV0pVZZPmIj6hJutAzGkNKLuFZ6SFufxpD6LwX/Se60X205ie7u+EaFBG5+QiP/ilCf2nOQrpvn5vcymIcQbEmiD4VwlxhFY+y1xE+7147r2nn9R7thuu0H+FPb2Pcdk9PeuCfSiH/+BlK397G9akQ/EP9cHXX9NFzXeg+4YZ4NY1HSgpiTfxXmEwhx/iAbGRbIB2Ta+6UfnqG1dVHWMpcR/isC4CK3EdB9P1uDMnvbXvfaTnlO0lEH2g2CCJS8zF4f73PGwUfYvM1J1M1gcSX9rlgEx2qY37MSRGIg0JDo6Su15JIvqnflisU7TFXeoeBAWEohvw3cwid7jatWe1MGJ1D+qoI97EG9rITIpILEfTrNiaQ+4axAdnH/iPSz3Whu9uF/vNhXM8+QikXg08AsJzE2FAI0o+H3kY6dCqy80ndFt9UDOKJOt9+QsTsNb9uU/bjDArNaRwRGdKFAbf+uMQTe6TEU76I6QcGBmPI/CsCN2Popuv6fQDB0/ptyhNb3K4RATCw2FAYiuC2vD4CqUoIvrN9/hl1mMpDLC1oN3jhH9o+x3IvwvkwItpR6Qcp5B7s+uNEZIZfd1t/7m8lh+RkVrOhH5EPx+E+uus76EBc6HWb3QYi8xjL2qEdgVwYx/X7dhjjsDBVrcm04UbfqQY/o2sAnvPaDQUs/cBbLCIzlVb0R7bvd72w+qBs+Y6EuPbUczGKid9b/vbBRF3o4k0K2Zjh9HdbI5Aq4gv2zlHa8VQFGd2GIwY+pBu9/V7dltxy6QCNakPr2W1YgYo6wtMcUtc0E6yEMMKvNvakqfOUkb+rnaYmIPKaz/I3D+YqQa3JBuM8yhsXWrciIeBwwDEt7/+zHcp4HmntCORneRSb0x7qYEe69cu31ccl69xgrUgIuKNmt4KoPuUCZsUgZjfv+QSI18bh22/xcKerLCH3mXZDEF43g7pDVS4if0u7wYv+Xt66EADIiB8P1gzUWc8BCrJoRyCLUFaa0h4yg+CCfklSCasGImDheJ9+g2UWNqmQrgSRmYohZnZTiHbztAzlQRbSdAAnewYw8eVGFC1A/DyH5KjVR6MBfF9ATvv1ax70rcfRlZUCMjcmMPaHYfQ5a2slBHBpMons95a59W+Z8v0MEtoNZ0V4G50aaBX/HIfn+e31OE66hzF84RKin0jI2Wgfk6c9iI7EEBsxuyWH60CVDY8c5V2nJQhCTWL9NPIFa4TAzSBPOxFECqWr3v1/mKhltkqxOxwOOH7Vg5P95xCc3KouKgyNI/VtEak/9Vp/kSGA8mNFny3oeSe6vpMw4TuJI8cHEHh9Fsm7ORR1s7MUyHczSEyP4VxvD076JiAxtWt9KjISU/qMT6E/BbYXarGLZRnyDkWPlMUccgsJxC8HMdzbA6d3DIn/WDugVucD8EzGkL8Zsvz+0OElwqkpuvowoLtjVBH/MGWhUt/GbZ0MaotbELWxi9eRL66ilJuB+KJ9BjxWVf0kQ+GfQfS+FMTsnfrPZsqdWQR7vbjEXPj7qED+cLwmzeAMwufts78Zpd5P4tLLvRietOj6ssU4nCKQehyBHRK6HCiQfvbUkruADQnwjYb0m+6MYfh1CcrPdX5ERUU2k256y0xls5MBWciNS/C8GsSlDzMo2KjKqKrm9F8vKwbTs8pI/DGI+CJHpnejzIfgn9QuIHNj5rPxmuIstDsVuelh+KYtVlJ9fT1RTE5DPGZ2Y1rjAIF0BcoP6yctYQC9Nukwq+o+G0aspiSuciOIk70BxOdzKKplVLRB9c8VlNUi5FtJTLzuwckjTpz70EIlWNZPBn4pYZuTAVnMchaJdwIY+M1JBD4pWHPkS6eCZ//babuA3tFxzGXyeFhaxbOftNV7tyr3hoZqnznJiJ6fQNZGNyL12l5+XYAopTB+eo83WVIX3CNhRD5O4bb8EKXVVTyr6qtDP1tdRamYR/rjMHw7zB2XJ8OI/ccqofT64sKpPCKD+/+0VRgPpCt55L5Y+6dw0Y3eJjWITNLVj/GPYttHXpcziIrD6HP24MgvNfMxf3kEPc4+ePxjmL0h7zwNpKtzZ2WqX6eRmcojPcoJHdSu3IhUa4PCEh7mUoiN9mqmIinIXB6w3sjXNmWoP+q39L+RwtL/K+GhNIPQeTd6hW50Paf9ia3KvXO5Iu69W3MGVBOI3rDQAEETVBbj8Lr15dfdUxl7LGatNTiO/M3riL0pwjfYC6F7e8Gjru5uCC+44X/zOm7/sIr8+76aaYIFxN+3yFTKxRyiIymUrtrrGa7hQFq9lVhPet+PiQteWyxksbquwQiyX8fgNRg7CkLNG593dva84klPzeprD6IAMqITDocD8UWzG0ik1YXubgG9QyIi0kMU/62fkiRP+hG9a+1QupbrZS/660751w3v+ymkXqsJc6QcGEqvqSzGce58bRCdR+6qmzFAXbrhfjeNzFRNoHlHQm6HRYodaSEIp+666URwAZvXUyvWYTAWSP8oYfzKWmZA4Y0YQrZ7nGNd3b+P4F7hHmZG6h9dEIZCuJ4rIf+BR7fdf6Jzw2hhNK17PLf2yiMGwC+VUK1WbfXoijpP95kYUp/7NFtUzH5kkZGvQ+OCeGVCP8/3QR7FH01qThsp/2ctiM5p4iD3VB5ZBtEN6oL77dh6QbsNORSKFph8NRjZ4bpZQmoEwFQe1WrVkk95Gw6ky98lEXQHIakABmPIfMCqUZYjeDF+8xFWf7iH1MfjCJ3xole77wu98J4JYfzjFO4VV1HKzSE8JED9QZ92vddlw0d9RG3EdT4E3TJiK418bSPA9VITPua0Bz7dhgwU6w2iNaR8Nwrfy9ogWoD3/bWRaF7/DejywPuaflNRXTWnLXRgz+3/IxWUyyUosozsFzFcny+uLTA4FUJ6PgL30cNuIpml+5QX4pteiG/W89MF5L/Ufh2G58XDaRcR1enX/XCfAZJ3Nzbk1oJCuxbMqIsLfSMAFsxuR3tQ5scwLCY1TzIE+K5lkX6rnyPRhnXhyK/0W3KqClg+47I1bQuko24H9i6E7ILv7RhmJkX0MoimDctLyGrziY54MGC5oYq1xV1EneMIjtQch8XHKtDZqxd25TrlBzQFiTPLCqz6fz18ZRQ+CsJ3JavJzuFCSLqHOTsuLCSDBIg3qxDNbsYhqmNEWkDvUB+cJ/rhP+OD94wXvXUv3iC7KNxK6Erz+s66efkiMt0zPKuZetlVx1m/UwnPD0BAZivwKyhQ4G5wnK+E0g9Nb1pn+VmB9OdhBG9oZtQLXkT+mUbsjOVGSMzxk/7LTl5TZHdrp9TBCKrViMlNoY61IiH2jnZdewihVzliQWS6ioLiXf2mvuMWvmCf6kcAQGLj61tpyCsiXI3kgi+XoGifrkFE74kmta8TPMkheiGI+H3NxPBTIcx9eR2hFziZozlqp0ICLsFpTlPowFginA5IgfTeOLTLDPunQvDxqQWR6SpfZ5HSbbF4UNjtgfeidkMGM/ONJa8r389sBeIAcHoALgvfe2hVvk8i+NKwLogWhiK4J88xiG6iymIWKd3NWhje37F/OxUDaToABdnLQQS/0IxcCGHE3mA6JCLTPZURe2dWXyJ75Bw8lg4Ku+EdCeumlRXeCddf6vupjMQHSd0m32W/LcpeK7cuwds7tpaRa53rYgr5f8fg5cBI8zyVMftWVJ+b/KIXHs6Y6VgMpMkYNYf4Hz0494k2Nb8A8eMoR6OJmmVFwpjvEhJ3iig3UkvlSQ7RP/oR1416CYi84bf82oXusyFM6HK8y4ieD2D2v/vk6X1aRPIvfkS1hZaEMMJ2mKb23zg8/oSm0Mpaerulf4hwWXhO/UHI/zeMsU+yKD5p4MAsFzAr1uxj6MfMZT/TCHYwBtKkt5LBmBiHdL8I9an2GxWUywoKdyTExT44ncOIfqlPruqeyiA5YvXLNFFrrd5J4JKvDz1HnOj74yVEb2SQe6CgXC7rS34/LUN5kEHynQBO/kb/eB4AhNcSuDRkh2dF/Qh/FNNVdYSaxcTvejF8JYnc9yoqP299q6IWkZuPI9DfhzHt0zU7DQz8DP2TC6jIvedBj65CXYOvCxIsnX775xySl8+h7zdH4HzpHC5NJpFZLEItl3X7FypllH8sIPPJGIZ7BzBRc90U3p5BmEXtOloHB9Iy4nseyHFdGdN9rUgI1HyGPUtAV7A6H0XQ2wfnr7T9cQQ9PScx4AsiupFLfNNWcn7rXKa5f7UF9puGiuKXCcRfD2C4/yR6enpwRNs3v+rByf4Axj7MbK9eOBhD5lPrj0Zv6Bocx+z73pr/r4rcR2MY7nXiyC+3+u2Isw/DYhSZmkI1HBigeqnfZZGYHkPA3QdnT49u/3Ic6UGPawCBy0ldVUgAEIZiyEx6LXTdVCFd2Ou6GYC0YnYbm6+DA+m1nL67lqMccdWf8mgxDsfxIAZkzefIMUTd1qwL31SCF5FsAffetVIQDXD/agPst6YQXp3B0h27Fc/qgvvd28he8xm4eRDgu7ZksYEBajeukevI/stqx+Vazujt180q8lMAMNBYBp0O0cGB9C4WkwguALErYt0nUPluFBhJIaSdVzcYQX4KyNzKWfvxlFFCL8QP7qGk3EPsrI1Gbbh/tQz7DcAxH2ZyKcQuNpoLGcApH8alhyj+axz9tpyA2YX+t26j+M0cQkP1Ha3C0DhS3xZxm1X7aB+9r6Yw84bP8HG5dDOMfksF0XtYkTAzCfilkH7KlUVYbBmBCunaDhffeiwoYA0sAEdd8L7hR7lQQG5R84D4lBteVx/6z7jhOeOF70WXpQs77Iz7V8vZvt+64RoSERkSEfm8AnW5gLycx9I3ecjLJSh3Zc00DhfcZ/oxMOiD12/XY3S77t+GMJcLIvYgi9tSFtJ/83h4f2N62lrBMc9vRfhfD8D3gi3vOFhLwoDu0yLGPxUx/nE9x6ULfaf98Pp98P/WfselfCOIDGLIj1rzTG6tP+dKDukFICbXP1oIAO4zMWAyCo9jCanHaYjHsHkH1ehndbxuN8KfphE2ux3tiPtXS7HfajzXBeEFN/wvuOG/OG52azpMF4TTfoRO+xEyuylkLTwu9yEjZ+HRaMBigbR8I4jMSAqJRkcLByOoVr2IOzwIHncgCADwI/W4unbxJgL3r5ZjvxERdTR1fgZRC49GA1aaI70xUtXA3FXtewMOD7C+qKkk+QFkEDxu5wwBpMP9q/XYb0REHUxGUsxYejQasFAgvTEHx9voaCFUSFeCyEzlEVl/rzCa3szOEHU3mOaMLIn7V6ux34iIOtnaaLQfgZetOxoNWCWQPtCKUAXKAuA/Vbv2VoB4JQZgCYoF8x5SA7h/mYD9RkTUudZGozE1YfmpeJaYI92MFaGZ5e25AVRl6YAtIyvg/mUe9hsRUefZGI1OXbTypI41nT8ifeD8hG6EJD8w6dEXeViREBYz8EsJy99N0R64f5mE/UZE1JnsMxoNdHwgvT6PEjFMHGC0UBhNo/o4BYjOrVKW6xXV0hZeaUr74f5lJvYbEVHnkac9thmNBjp+asdaOUqxGR91TES62pRPIsvg/mU69hsRUUdxX62ietXsVrROh49IExERERGZg4E0EREREZEBDKSJiIiIiAxgIE1EREREZAADaSIiIiIiAxhIExEREREZwECaiIiIiMgABtJERERERAYwkCYiIiIiMoCBNBERERGRAQykiYiIiIgMYCBNRERERGQAA2kiIiIiIgMc1Wq12tQPdDh23P7KK6/glVdeaeavIqID+OqrrwCAxyVRG+FxSdR+vvrqq81js9ZzrWwEwJMDUTuoPSnwuCQyH49LovazVxANtHBEekOTf51l/e1vfwMA/PWvfzW5JZ2B/dWY2uOUx2V9uJ81hv3VGB6XxnA/awz7qzH7xbWcI01EREREZAADaSIiIiIiAxhIExEREREZwECaiIiIiMgABtJERERERAYwkCYiIiIiMoCBNBERERGRAQykiYiIiIgMYCBNRERERGQAA2kiIiIiIgMYSBMRERERGcBAmoiIiIjIAAbSREREREQGMJAmIiIiIjKAgTQRERERkQEMpO1uRULAEYC0YnZDiIjqI0874JiWzW4GNUCdD8DhcOhfFySoZjesTbG/OgcDaZuTbwSRMbsRRET1WpEwM2l2I6gxKnK3gNTjKqrVjVcesYUgnI44eEtUi/3VSRhI25IK6cLaHa6HFyQi6gSL8bVRueO8+e88AsSbaYjHtNvciMgxAEtQ+ES0BvurkzCQtiUB4s31u1w5ZnZjiIj2NxhZH5krITVidmOoGVRlyewmdBT2V3t6zuwGEBERkc2sSAiLGfilUs3IK+2I/dW2OCJNRERELbG5iO54GoHHVaRHBbOb1NbYX+2PgTQRERG1hDCaXp+ikwCuMBPFfthf7Y+BNBEREbWYAPFaCv6FIJKLZrelE7C/2hUDaSIiIjLNksIx1kawv9qLzQPpCsrf5yB9EsWlC8MYfsmpS37ufGkYgb/MIsdUM7SPSllB4Y6ExOQlBP4wDM/z2kT6TvR5hxH4SxTJWwWoFbNbS0TUBlYUZAAMuDjvty4W66/KSgGZGxMY23bNPAnPHwK4NJlE5oGKdr9k2jNrx88q5C9mEHt/Ftnl3X9M/S6HzHc5DPx/4/BylSzVKivIfjGLxOdpZL/ba4RARfG+iuL9HDKfxQG44P9gDom3vBDseQRSndT5AJxis7Mmx5CvRuBu8qcS7WpFQuAKkLgpYisElBF3R4GRFEKDJratHVm9v9QcZi+PYWJB2eUHFMh3Fch3M0hMAzjlR+yDGMbP96Krle2sk+1GpMv/TSDQ64Tn9b2DaGvbKsjicEcBZBA8vvZ1YJ6PjOql3pnAucuJfYLonSjIvDMM58tR5J4cStOIrGejIIvDieACgEnP+tes9Nb2jnkRQBBOXclrD6JTeVR1wSIBsHR/KbcuweMc3iOI3sFyBlF/H7yXs2jgXS1jo/GwCop/D8H7Z6543SjIIprdDLtbjGP41SPI343AfdTsxhC1ucEIqtWI2a0gQ3jNaYw1+0uZD8IjGo/B5E/OwVNOo/BPf1vdTNhmRFqZ3zmIdp0N43omj4elVTz7SVPX/n+reFRI4/obvrZ8lEDtRXjRh/DVOaRzS3i0WrMv/fQMq0oeqSk/XLVvXIwi/JHc9nPAiIiIDPtRwsS2IFqA90/XkS48wur/NNfMZ6soFW/j+hu+bddM9YswYl+WW9fuOtgikK4sxhGs/QOeCmGusIpH2esIn3ejV+hGl3Z8/mg3XKf9CH96G+OdPh+JDkkP/FMp5B8/Q+nb27g+FYJ/qB+u7pp96bkudJ9wQ7yaxiMlBbHmVrowmUKuvc4L1Ca2csge5LWEGZ7DiMg0FeQ+H4dutYfgw8w3Rdz7PAz/aRe6tU9lu7ohvOBD+NPbeFicq7lmqkh8km6rKR76QHpzDlr9r7afU1uRMftGVDeHThiKIf/NHEKnu01rFnU+YXQO6asi3McaeGZxQkRyIYJ+3cYEct9wTJoOhzofw4Qm72z/lLdm/yMiOkwFyDf0saL/WhLjv90/But6IbT9mnk3C/nHZrbvYCw/Iq18EUP0gWbDYAyZf0XgZgxNJun6fQDB0/ptyhMOSdMheJrDzBXtOJAfExfdnK5GRK2zomBJF0eHETpb/yzn7dfMDNoplfaugXRMru+xYVvXfa/kkJzMajb0I/LhOBd2kclc6GXuMWpxjTjWAAAgAElEQVSBwt+jmNVccNzXohCZypOITOVET0ODmU44nz+sthycpUeky3ckxLV3LRejmPg9x2LIbF3o4s0cHbYVCbErmkltwjhif+KkDiJqsee6ap6C5fDwQOmH/XC10YCAhQPpMvJ3k5qvBURe84EzOnawIiHgcMAxzWysrVGCWnMScR7lDZ48vftajPji/u8nrQpyH+sX9/jeD8PLGzio84HOXfPTTOtromz1fz4I9pdxggsDuqkZOST+2UC2qspDLC1ovj7rg5uBdAtUlpD7TLshCK+bwcp2MuLHg2h27TTaQ7mI/C3tBi/6e3mLBwAYSaG0wxSyCLNONOZBAtEPNRf80zFER7clX7SxGPKdNlWxmVYkBNxRs1vROdhfB9QP/2Wfbkth2o/ARwXUszqofEfC7OZXAsJvBLankjWRdQPp7wvIab9+zYO+9ThaW9+9z7lzfffs9/ZY/CVPexAdiSE2YnZL7KN8P4OEdsNZEd5TZrWGrEeF9P6EJlORgPBUGBxHoDUqpCtBZKZiiJndlI7A/moG18XrSL2mvVFVkb0ygF7vBJKL6u6j0z9KCP9la3aB8Nosxl9tr4EnywbS5ccKCtoNzzvR9Z2ECd9JHDk+gMDrs0jezaGoe0qzUdt9DOd6e3DSNwHpe+umJVPnA/BMxpC/GWqruztLq8hITCV1m0J/aq+7a+pslbszGNc9Bo213YWHzCNPOxFECqWrXrOb0hHYX83igvhpFjOv6p/6qPdnMeZ24sjz53DpkyyKTzTf/DGDS6NBSOtxmjAUQ+ZTse2ul7sG0lF3Z+eRXlWLuq+FfwbR+1IQs3fqT+Ot3JlFsNeLS1+2U+rvJlmMwykCqccRMIFEq1Qgfzhek45xBuHzDHI2LQTh1J5jOG+/QQUkJmc1xacERN4Ott2Fx3xReLT72QXjZYs7ydbgidhWJZbbFfuryY72Y/xfRSx9vEOV3+UsEpfPoe83Dpx0j2FicgweVwCJRQAQ4H0rjfy/I22Zdc2yI9KqmtN/vawYPFHKSPwxiPiihUam1+d7xeQ0U2G1kDIfgn9SGxi6MfPZOItjrHNfrZmz+jgF/6THNkFOM9QWX8HILC4NcU6H1vZqkXnEFoJwOuKw9G0bB08aw/46JN3ofzOJ9DXfrj+hLCYxO51cPx57Mf6vAu5d88P13K5vMZVF80hX8Ox/O20X0Ds6jrlMHg9Lq3j2k/b/8gyrq4+wlLmO0FDt/0lG9PwEsk92+sxOs764cCrPBVwttL1MvQBRSmH89B5vsrtjIhKSH1hII7didmM6wLbiK27MvMeRtP25EZFjAKLIWTU7zPrgiV9KcPCkHuyvQ1P+TsIldw8GrqzV+BCGxjEnXUf41d5dzlVFzP6xH8NXJBTbdOmaRUeky1B/1G/pfyOFpf9XwkNpBqHzbvQK3ejS3d10obvbhf7zYczlirj3bs09qJpA9EYBHW8xh+hICqWrvMdulcpiHF63vky9eyqDJLMo7Et4OQA/MlAYSO+rtviK8HYMYd6o1WfQixiApXYql9ZE6tdpZKbybTrw1X7YX4dD+fISfC8F16drAO5376GYm0FoNIzr/3qI0v/WBjPDZ2uvjSpyHwXR1zuM+H/aL5q2aCC9netlL/p/Xe9Pd8P7fqpmhSlQkHKwQCi9fR6qw4ngAoBJT1vPe+9ElcU4zp2vDaLzyF1lmea6rChMzViP2uIr8CH2Zy/3sXqtKFgyuw2Hbf38vvXyIAogIzqZq30n7K+mqizGEfxjYvNa6J7KI/e+V1/b4+jaYOb17CM8e5zH3Fte/Si1mkP0ZV/bTbW1TSDdOBfEKxP6+asP8ij+aFJzmmUwssMUnRJSIwCm8m08XafzlP+zFkTntCWap/LIMoium6osAYjBy2lIe9hefKV/KoogUyrWb0VBBn4EXrbmuW/7vPD1ueEA/FKJudprsL+arCJj9g3NgNLpCGbf2vs62HXMjdC1e1CKKYR1fS0jej6ETBs9pbRoIC3A9VITPua0B/rp8BlY9MkfNVn5bhS+l7VBtADv+2sj0czRsYMVCYHaRYWLcTjFDPxSiIt99lJbfEUII/YGb9Z2JiNeu6hwo9jG1ATnwxIdAmU+pstW5bscqjv7RtcLIq7fzSOmDaZVCbH59pkfYNFAullc6GOhEmqQMj+GgT/EdQUxfNeyuP0ug5tdHXNhoHbKkTuKmMwnJHurLb4CuN8JwVf3NDa7ccE1UpP67ngQkEqoct0I0SFQId/Jar7uh7e/wfVBR90IvxPSbWqnqbZtmkzk4Fyn/IDmYWdmWQG4fn0XAsSbVYhmN6PjlVH4KAjflaxmZNWFkHQPc1xYuA83ItUqImY3o8NsK74ijCP2JyZU3B3PdVvWjjmqF/vLGAWK9hwFF5wGbvS7X3LDi+RWxeoHCkploL8NHvFadkRaeH5AHzYXFDReVqWE0g9NaxJZ2c8KpNcHMKANogUvIv9eYhBNh6S2+ArgvzYBbxsWLCAim2rWQt6uIzXTIksoP23GBx+cZSsb4lQ/Atqvb6UhNzo5vVyCoq1CBxG9Jw7aMLKcJzlE/+BB8IbmVu1UCHP3byN2pg1ul8mSthVfGZxBlNNgiKidHHOhV7chg6WigawbT0o1g6FOdLfJoIFlR6TR7YH3onZDBjMNTk4v388god1wegAuXqdIo/J9EsGXhhG/rym1MhTBPXkOoRc4I5oOybbiKwLC74VYJZOI2kwXemry2afu5tFoKK0UauZEn3bB2SbjVPpAesfUaJ1Y2RAAuuEdCeumdxTeCdeff/CpjMQHSd0m32U/L1S0Sbl1Cd7eMUiahzKuiynk/x2Dl4u96BDVFl/B2RjGX22TqwoR0aZ+ePz6OFH9cAKx/zQQSj/NIfFeVrepX/S2TTxm3RFpAN1nQ5jYln8wgNn/7lMZ52kRyb/4EdU+NhXCCL/Kua607r9xePwJXWYO7/t5LP1DhMuyS3ipLWwrvtKP2GQQPDsRUTtyvzpRk8K0gPjLXkTv1DE1+EkO0T8G9QMH8CF8vl3CaIsH0kA/wh/F9H9ANYuJ3/Vi+EoSue9VVH7e+lZFLSI3H0egvw9jX2j/agLEj6NMKUVbfoY+5zFU5N7zoKeOdQW7vmrzKBNts734Ci5GER7kNCIialOnw5i9Whv4yoj7nDh5IQ7pfhGqduFgpQz1+xyk6SD6aqZOAoD7/VhbFZyyeCANdA2OY/b9mjKTUJH7aAzDvU4c+eVWIHPE2YdhMYrMsv4z3FMZJEfadQoLEdWSpztkUXSjaouvwI2Zy34W+THLYpw3ww2w7HFJ++iC+50EYkPb4yhlIYqgtw/OX2n2jSM9cPYOIzgpoVizi7guppF6t7+tajJYPpAGuuB+9zay13wGskgL8F1bQo4lnYk6hArpggOeb1MobazleJwCRCcc0/L+b29r24uvCG/HED696xvoEKnzATjcS0g93lgzVEIKQThrKycSrH1cUl2OuhH5VxbXR4xOQhPgvXoPS//wt900NhsE0gDQhf63bqP4zRxCO9wR7UQYGkfq2yJuv9Vedz5EtIfFJIILfqSuiVs3zsdEpOUYMDkDqdEUmG1kW/EV+DF72cvzkylkJMUM/FJCU1ZcgHgzjxiimOFIq56Fj0tqwNF+hG8u4aE0Dl8DUzOEoXHMfVPEvSlvWz59s0kgvab7tyHM5RSUCmnMvR2Cd6hXM0otoHfIi9Dbc7hdXEUpNwPxxXb8k1FbMJDhZt/XTZG1Nw9IVZYADMB1rOYbx1zwI4P0150b4HSdmdkazatWUa2mNUEctdR6kYmBbflQXXCNAJlbOU7x0LDycUmN6kbv6Axu//BsLRa7Gob/jBe92kNJ6IX3TAjjH6dwbz0eC/22feMxG+YX6IJw2o/QaT9C+/8wEXUQZTkDYGD7N465MAAguqwAvF2hg1pRsPOeJsD1EoDJtUq63NPW8Lik7awTi9lqRJqIrM11yg9gCQofFdNhOuaCH8CSwpHUevC4JCtjIE1EliGMTiCGDIJX9NkT1PkZRAH4T7XbMhXqSMdETEwBGTGsn9+7ImFmEsCIq+0WRJmJxyVZGQNpIrIQNyKb2RO20imFEUAMO81pJTLGfbWKkgQEj2vSdl0BAlMAXnJxooIOj0uyLgbSRGQxAsSb+oWcaZeCKPzbFzsRHYAwmq5ZMOyCMskR1p3xuCRrsuFiQyKyG/luFJjKM8sFHa7FHKKIIT/KEdZ68LgkK2AgTUQWpkK64EQQKZRuus1uDFmYOh+AUwRSj9PgnrYfHpdkHZzaQUSWos4HNGWInUifLzFHNzXfioSAZr6v81YAJeb23hWPS7IqjkgTkaUIo2lUR81uBVneMRHpqmh2KzoGj0uyKo5IExEREREZwECaiIiIiMgABtJERERERAYwkCYiIiIiMoCBNBERERGRAQykiYiIiIgMYCBNRERERGQAA2kiIiIiIgMYSBMRERERGcBAmoiIiIjIAAbSREREREQGMJAmIiIiIjKAgTQRERERkQGOarVabeoHOhw7bn/llVfwyiuvNPNXEdEBfPXVVwDA45KojfC4JGo/X3311eaxWeu5VjYC4MmBqB3UnhR4XBKZj8clUfvZK4gGWjgivaHJv86y/va3vwEA/vrXv5rcks7A/mpM7XHK47I+3M8aw/5qDI9LY7ifNYb91Zj94lrOkSYiIiIiMoCBNBERERGRAQykiYiIiIgMYCBNRERERGQAA2kiIiIiIgMYSBMRERERGcBAmoiIiIjIAAbSREREREQGMJAmIiIiIjKAgTQRERERkQEMpImIiIiIDGAgTURERERkAANpIiIiIiIDGEgTERERERnAQJqIiIiIyAAG0kREREREBjCQJiIiIiIygIE0EREREZEBDKSJiIiIiAxgIE1EREREZAADaSIiIiIiAxhIExEREREZwECaiIiIiMgABtJERERERAY8Z3YDqM0sxuFwR5vyUX6phPSo0JTPanuVMpTv85C/ziP/tYziYwW5RWXr+6fc8Lr60P+qF74zPnhe6EaXea1tG5WygqIsIy/nkVssoqTkIC9vfFdA71Afel9ww3cmgHNn+yGw04iIqI0wkCYyrAzlTgqznyWQ/rIIda8fXZaRW5aRu5vELADhRRETH89ifMgmNxpaZQXZL2aR+DyN7Hd79ZqK4n0Vxfs5ZD6LA3DB/8EcEm95IfDMtavKYhxedxTy5pYY8tUI3Ca2iciOlL8P4+Sfc2tfTOVRvcqj0Io4tYPIqJUsJnyXkNgviN6B+p2ECW8/hidzKB9K49qXemcC5y4n9gmid6Ig884wnC9HkXtyKE3rfD9KCJ3XBtFEZA4FuVs5sxtBLcBAmsg0KnLTw/D9XwEVs5vSSRbjGH41Dvmp2Q1pM2UZ8dEgpEbvT4ioycqQ/28M0Ttmt4NagYE07W0qj2q1auhlm/nRACD0wvdGBHOZe1hSVrH6P31fPFtdxSM5hdiIa9tb5feiSC3v8Jk2ILzoQ/jqHNK5JTxaXcWznzT99tMzrCp5pKb82NZri1GEP5J5A7LhqYz4WQ+ii2Y3hMieKuUyyj8WkJ2fxZi3F573cg0/qaTOxJmGRIZ1oWc0htTlEPyDwp6LB7u6u+EaFBG5KUL8IgjP/ydpTrJZSPcVhE5tD7KtqQf+qRQmLvrhPrZHrz3Xhe4TbohX0xBfkxB060dbC5Mp5N50w9d9+C1ubwqkv/gZRBO1nArpghPBBbPbQWbiiDSRUcf8mJMiEPcJomu5Xksi+aZ+W65QtM1caWF0Dumr4t5BdK0TIpILEfTrNiaQ+8buY9IVyNNBBL/YuMMQIEopRExtExGRfTCQJmq5Lgy4/fpNT8qcprCPrt8HEDyt36Y8scvtx04qKP49BP/k1tJC91QGyVEXjpjYKiIiO9kWSKvzATgcjgZeca4QJzqoXzOv9P5c6GX2qE3KfAjeP29NEXJP5ZG76uZ+RETUQhyRJjJBaUXRfe37XS9sP9V3X13oOmp2G9pDZTGOoLgVRAuvpZBiEE3UYgLEm7ssuJdjZjeOWmSPQNqP1ON6sjMw0T9RQ57mkLpW2PpaCCP8ql0WGh5ECWpNdhPnURuGjrW5ogdjyHwqbs9sQtSOFuP6p9rTfKZNTWTC/sURaaJWKhcwKwYxu5l9QoB4bRy+X5vZqA5RLiJ/S7vBi/5em43j/5jB2BlN9pLBMG7PR+DmSD11AHnaAYcbyGsH41jtj5rErP2LgTTt7Z/j8Dy/fW78Sfcwhi9cQvQTCbnv7bzgqw5Py1AeZCFNB3CyZwATX2oyLHyeQ3KUY4n1KN/PIKHdcFaE95RZrTHBUxnx0QCSG6PygojU/HX4TpjZKKL6qPMBeCZZrp4Oh5n7F/NI096W5R0XkyqLOSiLOeQWEogDEIZCiE7NIPx7m40Q7khG3OFBdI+fEIbGMftxFOKL7K+6VGQkppK6TaE/BWw0naE2V7QbsVtJiCdMbBJR3WQkxQz8UoJBNB0Cc/cvjkhTU6j3k7j0ci+GJ3O2yYdsyMXryBdXUcrNMIiuWwXyh+OIPtBsGpxB+Lxd+q+8c67oQRvOD6fOtKJgCX4EkKx5uhmAtGJ246jjmbx/MZCmJlKRmx6Gb5qlm3d14xI8rwZx6cMMCk/MbkxnUOb1uZIBN2Y+G68pzmJVFcjTPng2//8CxH/mkeJ0IOokKwoyyCC47NUlK8hPZRA8zmCaDsjk/WuPQDqD4PF9ckhzta0FdcE9Ekbk4xRuyw9RWl3Fs5pMLc9WV1Eq5pH+OAzfDnNU5ckwYv9hKL2r5SwS7wQw8JuTCHxS4Aj+HmrTvG2Mxo6f3uNNFlJ7E+GeyiD5GoNo6iyqsgTAj9RF/YN399U8YsggeIOxBBln9v7FEWnSGxxH/uZ1xN4U4RvshdC9vVBIV3c3hBfc8L95Hbd/WEX+fR8E3U8UEH8/BQV25UZEd/PxDKurJTzMpRAb7dX0lYLM5QGO4O+ishiH1x3VzdHfqNxnB8wVTVYhuAZ2+Y4LrhEA3yqam2Wixpi9fx0sjzTT1hC64X43jcxUzb5wR0Jueed32E8XursF9A6JiEgPUfy3flWxPOlH9C5Daa3KYhznztcG0Xaq3FfArOb/LwwxVzR1ugwUTuGgQ2Pe/sURaWqCLrjfjiGiG5bOoVDkpIWddJ+JIfW5T7NFxexHdh7B1yv/Zy2IzmmGENxTeWRtE0QDQAXaIRT1fhSeX+0z1W7zVZsxJgoPp+WRmQa9iAGI3q3d7xQoC4D/vLfmqSZRA0zevxhIU3N0eeB9Tb+pqK6a05YO4DofQki7gSP4AIDy3Sh8L2uDaAHe99dGou2So4PIetwISX5g0oP4ZgpHFdIFD6KIYWKUYTQdhLn7F/NIU5N04civ9FtyqgrwYfTOft0P9xkgeXdjQw6KCsBOBUZqKPNjGBaTmpF5Ab5rWaTf6rfRSDSRNQmjaVRdcTjcjq0nJiMplKoiR6PpwMzcvxhIE5niCI7UDLEWH6uALS8pZRQ+CsJ3JauZzeBCSLqHOZssLCSyhcEIqtWI2a0gqzJp/+LUDmqen/Rf+k/YMSis1zM8q5lC3mXH29qfFUivD2BAG0QLXkT+vWTzILo280sjrzxius+KIc+F4kREh4KBNDVJAfkv9VtcgtOcpnSCioLiXf2mvuM2u/F4kkP0Dx4Eb2iWWZ4KYe7+bcTOcEY0ERG1PzuOgdEhqCxmkdKWcEYY3t9xZutuKl9nkdJtEdF7wpy2mKHyfRKhoTFImswUwlAEqZsxeH9tXruIiIgawUCaDu6pjNm3oihot130wsNBxZ09lRF7Z1afIH7kHDw2GZBWbl1C0J/Q5Yh2XUzh3uciXDwjERFRB+HUDtok/98wxj7JovikgeIg5QJmRT+ii9qN/Zi57Ld2urIVCWO+S0jcKaLcSC2VJzlE/+hHXDd6LyDyht8eywz/G4dHF0Svpbdb+geDaCIi6jzbAmlhNL2+ICUN8ZgZTSLT/JxD8vI59P3mCJwvncOlySQyi0Wo5TIqP2t+rlJG+ccCMp+MYbh3ABNf6otvCm/PIHy6tU03w+qdBC75+tBzxIm+P15C9EYGuQcKyuWyvuT30zKUBxkk3wng5G+GEb9f01+vJXBpyCbTYH5GTalWFbn3POipq9DILq8LEssLE5EJVEgXdjkvufVlkTDp2eUcFoDEio8drYNHpGXE97zAxtFQ7a4VCYGaz4gv7v82q1K/yyIxPYaAuw/Onh4c+aWmb470oMc1gMDlpK76HLBeynjSa7O8vyqKXyYQfz2A4f6T6OnpwRHtvvSrHpzsD2Dsw8z26oWDMWQ+tcloNJGpdgh6DFZ4lKf1nxOYb/dbuSZfL422ouP6jepj7/2rgwPp3dJDlZAaATDiqr8UyGIcjuNBDMiaz5FjiLp5oDfCNXId2X9F4D5qdks6g/DqDJbusL+IDp+MuMOJ4Et5fZrASU+DTzTWgnHPtymUNj7ncQoQnW1edr2J10tDOrXfqD723r86OJDexWISwQUgdqX+ajby3SgwkkJoULNxMIL8FJC5lbPNY+PeV1OYecPX+A5/yodx6SGWbobRb5eg8JgPM7kUYhfdhvur+K9x9Ft6IjlRm1jMIQo/Uhe1+bPdiMgxYCGNXL2P1heTCC74kbqmub4cE5GWY8DkTOc9ojdwvTT+eyzUb1Qfm+xfFlveo0K6tkNQXI8FBQrsWVduQ/dpEeOfihj/uAJ1uYC8nMfSN3nIyyUod2XNtAQX3Gdc6Dvth9fvg/+3LhsWE+mGa0hEZEhE5PN6+qsfA4M+eP1e+F60Y3+tY2WzFlgbHWIv18pAWQFwgLU/qrIEYACu2s845oIfUaS/ViGOdspV5ADXy0Z/k6X6TUuAeLMK0exmtCX77F/Wupyv5JBeAGJyY3c/7jMxYDIKj2MJqcfriyxXJMxMNv5ZlvBcF4QX3PC/4Ib/4rjZrWl/7C+i9jboRQxA1O3AklRCelTA5oV+Kl/3wnplOQNgYPs3jrkwACC63EHDMQavl0ZYqt+oPjbavyw1tUO+EUTGyN3PYGS9rG4GwePrE9WPpxF4XEXkkO+kiIjosK2N0uengIzoXF+M5ET6fKmhcumuU34AS2sj2x3O8PXSACv1G9XHTvuXdQLpjRFkI3NxViQEHB5gfbFhSfID60G1nTN3EBFZw/piJOQ3FyL5sR5UN7AYSRidWBtwuaJfoKjOzyAKwH/qcJdUNc1BrpcGWKbfqD42278sE0jLN4LIIAZvw3c/KqQrQWSm8pujz2u5tNdWm0bdrUnbQkREh0OdDyO4EEN+Y/T5mIj0xqDJpKeBARM3ItUSUgjCqUmzFUYAMQADrs6YnmD8emmUNfqN6mO3/csagfT63Y9fCqH+h3QbFCgLO92xCBCvxMDHUUREnU1ZzuyYgmttJAtYUhrJzbS2wEyb5ivtUhCFf/tip3Z0oOvlQXR4v1F9bLh/WWKx4cbdT/4AqzIzO0xGX1sJSkREHW+nzEwrCppxlpfvNrZo0UzNuF42rS0d1G9UHzvuX50/In3gux83QuuP93TFV1YkhMUM/FKCBzkRUQdzX0zBjyg8uuIr69P6RlJIGL7oawpBNLBo0TSmjRbW6rB+o/rYdP/q8EB6/USIGCYOcPcjjKa3quBszK9Zr3SYboO7KiIiOoBjItLb5lCuVzq82diCKHU+oClDvJ75o8HPMEdzrpeGf3vH9hvVx777V4dP7WhiMvRjItJVplUnIrKm5lwvhNE0qqNNaVCLmVs8pHP7jepj3/2rw0ekiYiIiIjMwUCaiIiIiMgABtJERERERAYwkCYiIiIiMoCBNBERERGRAQykiYiIiIgMYCBNRERERGQAA2kiIiIiIgMYSBMRERERGcBAmoiIiIjIAAbSREREREQGMJAmIiIiIjKAgTQRERERkQEtD6QdDgdfdbwA4KuvvjK9HZ3yYn813l88Lo31G/cz9tdh9hePS2P9xv2M/XWY/bWnapMB4KsJr1deecX0NnTSi/3FVyte3M/YX3y134v7GfvLzBendhARERERGcBAuk298soreOWVV8xuRsdgf1ErcD9rDPuLWoH7WWPYX83V8kC6Wq3yVccLWNvZzW5Hp7zYX433F49LY/3G/Yz9dZj9xePSWL9xP2N/HWZ/7YUj0kREREREBjCQJiIiIiIygIE0EREREZEBDKSJiIiIiAxgIE1EREREZAADaSIiIiIiAxhIExEREREZwECaiIiIiMgABtJERERERAYwkCYiIiIiMoCBNBERERGRAQykiYiIiIgMYCBNRERERGQAA2kiIiIiIgMYSBMRERERGcBA2mbkaQcc07LZzegY7K/OIU874HDUvPi3s6S2OC5XJARq9zdHANKKuc3aC/uNWmIxDocjjlbuaep8YPv5/4IEtQW/m4G0naxImJk0uxEdhP3VQWTkJmPIV6uobrwep+Cf9LTsZEot0ibHpfp1GpBKW/tbtYr8VAbB4w7EF81u3Q7Yb9QSKqRr0Zb/ztwtIPVYc/6v5hFbCMLZgoCegbQdLMbX7s6OB5Exuy2dgP3VgdyIVCNwazcdE5GQ/MCCAsWsZlHztNlxKYymkR4VdNvcV/OIAVhS2ujWjf1GLSEj7nDA4XAiuNDq3y1AvJmGeEy7zY2IHAOwBOWQn3YwkLaDwcj6HVoJqRGzG9MB2F+WoSy3Q+hATdEJx+WKgiWz21CL/UYt4UZkfTS4JPnNbgwAQFVas1c915LfQkTUaotxeCaBmFwzUk10KFRIV4LIjKRQqhlxpb2w3+gQrEgIixn4pVLNSHXzcUSaiCxlc9GhG8hXq4gMmt0isrTNxXNOpM+XUL0pguFgHdhvdAg2Fx0eTyPwuLptGtFhYCBNRJbivrqx2MSLHDN30GE7JiK9/kg7gTAzUNSL/UaHQBhNr5//E8CV1mTuYCBNRBa1vthkcoYXaJ97kKcAACAASURBVGoJYTSB1EgGwRu8eWsE+42aT4B4LQX/QhDJQ84Gw0CaiCwuc+irtol0vlWYctEI9hsdgsPOBsNAmogsa23Vth+uQ15s0mrl73OQPryEwB88OLlZgMCJPu8wxt5JQLpfRPlns1tpRwqUBQAvuTjftyGd3W+VsoLCHQmJyUsI/GEYnue1hUHWjsvAX6JI3ipArZjdWhtZUZABMOA63L2KgbRGZTEOj64yTmsr8xCRQYvx7XOh11dtY2ri0Fdtt0rlewkTvpPo6R1G8J0EMndlTY5sFcX7OSQ/vISgtw89vecwMV8Er9uHQYV0YfucXnnagyj8SF1knpidWajfygqyn1zCuZecONJzEgO+IC5NJ5C5m4O8rP3BteMy81kcY/4BOI+cRODDHFTe6DbPioTAtrnQMuLuKDCSQuiQF5wzkN7wo4TQ+ag1A+eNhPwbidInPbxR2Av7q/MMehHb/Ds5NgtQQCqherWDLs67qqB4Ywx9vUHM3qmzvMxyFrNiH7yXs9YoSNNWx6UA73kgeFxfktgzGUO+WlsYwmTst0Oh3pnAucsJZL9rdNqAgsw7w3C+HEXuyaE0zSQbBVkccIoZANHNgclDr1h5zIsAgnDqBkI9iE7lW5INhnmkAaAsIz4ahGTVyVmDEVSrEbNb0TnYXx1orRiANf9qFRT/HoL3z8ZWn8ufnMPw0zTu/cMPV9Pb1kJtdlwKo2lUR81uRR3Yb+1pMY7hV48gfzcC91GzG9MMZp6DBYg3qxBN+d0ckQaeyoif9SB62HdMREQGVBZnEaoNogUvQh/fxsPSKp5VN9L9PcOqsoT0B9sDZuVGGNF5S4xLE7Ud4UUfwlfnkM4t4dHqKp79tHFMVlH96RlWlTxSUzvcyC5GEf5I5vSrDmfzQFqB9Bc/g2giak8VGbNv1Ew5G4zg3rf3MPemD71CN7o2v9GF7hP98L+dxqPS7ZpCNCqkK7PIWupRMpGZeuCfSiH/+BlK397G9akQ/EP9cHV3o0v7rP+5LnSfcEO8msYjJQWxZp5BYTKFXLmlDacms3EgXYE8HUTwi41xHgGilLLoo2Ei6kTlO0lEH2g2CCJS8zF4f73PGwUfYvM1F201gcSXHJUmagZhdA7pqyLcx7r2/+ENJ0QkFyLo121MIPcNx6Q7mU0D6bU5h/7JrXEe91QGyVEXjpjYKiKiLSqy80ndFt9UDOKJOt9+QsTsNb9uU/bjDArNaRwRGdD1+wCCp/XblCccku5kuwbS5e+zSE7W5il1wPnSMIZfn0BiPovCSmfeRSnz+oU77qk8clfdaOC+kojocFUeYmlBu8EL/1BjywWF82FEtKPSD1LIPdj1x4no0LnQa4VEQrRpW9aO8ncSYpfHMXt/5/Xh6nc5qN/lkLsxCwBwnQ1j/M1xhM66OiIQrSzGERS3gmjhtRRSDKKJqN2oak3aOjf6TjX4GV0D8JwH8NnGhgKWflCB051Y9oLICrrQZYksHbRBMyJdQfHvQfS+FFwLok/5EZPu4WHp2dbq02oVz1YfYSlzHeGzayMjyp0ELvmkznhcWJsrejCGzKdiZ6eE6mhbeSetmKdZnQ/o8xprXoF5Q4nMLN1fVENdq8q1xcjEs2709nt1W3LLpQM0iuyK57NmKUFd1m9xHuVQXtNs5k1ff9UW6joEm4G0drqD62IKj4ppREa96BX0f+Cubhf6z4dxPfsIq9/OIdToCIlZfsxg7IwmV/RgGLfnrZK/sQMtxuFweABZkyaoGoH1nnjFkK9WdTej1WoV6dEGRwRt01/UbEe69fua+rgEzsgkY3g+O7ByEflb2g1e9Pd2m9UaS5GnHXC4od9HW1CQay2QXpEwsT7dQXgthXv/EOGqo1RL94shzBUeYu5im99NPZURHw0guXEXKIhIzV+H74SZjbKxFQkBdxQxuVqToot2xP6yJ8EF/VLBElYNRMDC8T79hidl5q0l89j8fFa+n0FCu+GsCG+nDEi2MXU+sF4hs/U3ZL8AKsh9Or7+CNGH2GSDUx2O9iL0j/E2vpOszRXtRuxWsv6V79R08o0gMiMphGx4EjWC/WVTglBzLk4jX2AITJ3N1ueziozElD4TT+hPAU4vPTAZSTEDvxQyJRb9BSp55G6sz3e4GELAUndG5Z1zRQ+2+Qi6palQvgX854FkU+bZtbsoPNr/54VGyzzbrb9oU1cfBka0G1TEP0yBmaDJPDyfGVeB/OG4Pi/84AzC5zmt48BWFCzBjwCSNfP3A5BWDv/X/wLfF5Bd33/9Zzywzp+0AnnaB89mrmgB4j/zSI3y3s9cCpQFICMq8GrnMckxZESnpU6mwmi6Zi5hHrGFIJwNLaqxT39RLQG+0ZB+050xDL8uQfm5zo+oqMhm0k1vGdkPz2cHo8zra1cAbsx8Nl5TnIUMWVGQQQbBZa9uH81PZRA8fvjB9C/Kj5XNjBsDLuukRKrdad1TGSRfYxBtuhUFS8D2RzCDEeSngIyYtPDKbTcicgxAFLl6y9Lbur+o+2wYsZpH4MqNIE72BhCfz6GollHRBtU/V1BWi5BvJTHxugcnjzhx7sOOyKlEHYfns3rVpt3deDo+fnqPN1HdVGUJgB+pi/qJHe6recSQQfDG4e5Vv6g8tV4qJOaKbmPHXBjY5VuuU34AS1Ba8CjGNINexAAsKXWOvNi9v+yuqx/jH8W2z/tbziAqDqPP2YMjv9Q8yvzlEfQ4++Dxj2H2hrzzNJAungmpSXg+21dlMQ6vO6q7QdiopEzNIbh23avgGgHwrdLgFKTG1FkiXIV0Yef8ke2X/7GAWU2uaGGIuaLbUWbZpjM910dkGmXb/iJ0DUaQ/ToGr8EHhoJQ88bnnbDOs0cyFc9ne6osxnHufG0QzUrKhyNj2k3YL7qOOs35zYemAu2th3o/Cs+v9roJ0L48iOo+q2ZhRYuSe1ubG94pAJO5bTdfynIGGAnAe8yMdrXIioIM/Ai8XG8oY/P+IgBA9+8juFe4h5mR+ocEhKEQrudKyH/g0W33n2AYTU3C89muyv9ZC6JzmnjEPZVHlkF0860/GYne3bZXQVkA/Oe9hzp48Ivu467Nye5LP+x2lyhAvLk9CXt+6hBbRpblvpiCH1F4NDclazkggdgV0SKjZTLitU9q1vOnYmoCYgMXC3v0F+1L8GL85iOs/nAPqY/HETrjRa/2jy/0wnsmhPGPU7hXXEUpN4fwkAD1B319xF4Xn89Ro3g+a0T5bhS+l7VBtADv+2sj0dZJ6NBO3AhJfmDSg/jmfH0V0gUPoohhotGCQQ16Di/0wwugACBzv4Dyay7+oelwHRORrroQd3jgmNzY6EfqcbWhE3J7c8E1EoXHoX/G4ZdKqDZ6UNuiv6he3ae8EN/0Qnyznp8uIP+l9uswPC8eTrvIyng+q5cyP4ZhMalZnyDAdy2L9Fv9HIk+RMJoGlVXHA63Y2tmwUgKperh35w9hy4PfO8KmP0/Fbgxg+RlP1eSUgu4EalWETG7GYdm7SmO2LTPs3p/0aFYXkJWm7d2xIMBjpRQw3g+218ZhY+C8F3JamaXuhCS7mGOCwtbYzCCarX1e9UvgC54X4/BBwCQMfFGHPLTlrejidYO0NppKPW98ojpPiumr9neorrtRETNULiVQE7zte+s2xKPzonays8KpNcHMKANogUvIv9eYhBtA2tZO06FELu2HiAuRuEXZ1Eom9gqIiI6mBUJsXe0OaRDCL3KizpRUz3JIfoHD4I3NGvMToUwd/82Ymf4+McONtPf9b+VRf79tZWN6pcTGOgdxtgnGRR+LKOieUOlXIbyIAvpw0uI/bP1DSYiov0okN4bh3aZYf9UCL5fm9YgIsupfJ9E8KVhxO9rSq0MRXBPnkPoBc6Itovntv7ZDfe791AYnEX4zxPILOeQvJxD8vLeH+A6G8b4myLLXBIRtQUF2ctBBL/Q5N0Swoi9wbRbRM2i3LqEoD+hy2TiupjCvc9FuJ7b9W1kQdv+3MLQONI/hKE+yOJ2Jofs4hIKd7cqZLkGvejvd8N3JgDvmX64jra4xUREtDM1h/ifg4h+qa3jJUD8OMrRaKJm+W8cHn9CV/Lb+34G6XeZ3s6Odrlv6oJw2o/QaT9CrW0PERHVWslg7J0ivH/yw/u7XgibAxgVlMslKLKM7BcxXJ8vbiuF657KIDnCJYZETfMzao4zFbn3POh57wCfOZJC6aY18mjbTZ0lwqljLcb3rubYYKVGebrm/RekQ61h33LsL2pLFazORxH09sGpq9R6BD09JzHgCyK6LYjeKgLBKR16tjkueT6jlpAR37NqdHxbJUsrYSBtdYORnVP9PU7BD8B/qt5V/CqkCw54vk2htPk5JaQQhNNKBwn7i6xA8CKSLeDeuwyi9Wx2XPJ8Ri2xW9rhElIjAEZcsHK+IAbSNiXfCCLTSOnMlRzSC7UlXAWI19bKveYW93ivBbC/qCMIvRA/uIeScg+xs3xIvA2PSwA8n1GLLCYR3LbfWA/XlupYsdrSDlYkzEwCfimERsvLLCkqMGjlQ2IH7C8y21EXvG/4US4UkFvU5qt1w+vqQ/8ZNzxnvPC96EIXz+r7svVxyfPZwZlUQa+zqJCuRYGRFEKDZrflcPGUa0Pq12lkEEO+3tEIADjmRWAECIpOOJbzmxUe5RtBZEZSSFj4QGF/kem63Qh/mkbY7HZ0Oh6XPJ9Ra2w8xZCtPRoNcGqHDclIihkDoxECxJtVlCQ/MOnZXETgQR5VS680Zn8RWYfdj0uez6g1Nm6yrD4aDTCQth11fgbRRubGacjTDjhvBdYXm+QRA9ZOqhZeuc3+IrIWOx+XPJ9RS6xPH7L63OgNDKRtZW00AlPehufGYTEOz6QfqWsbB8b6Kl05BiwEEZ634qmU/UVkKbY+Lnk+o9bYWMzqtcFoNMBA2lbWRiP8SF1s+DQKVVkCMADXsZpvDIaQGgEyy8pOb+to7C8ia7HzccnzGbXEARazdioG0raxMRoxAbH2ZFi3JSgrtdsUKAsHa1l7Yn8RWZMdj0uez6g1Gk6taAEMpG3iIKMRACCMTiCGDILH9cn35WkPooghf9Va957sLyLrsetxyfMZtYQNR6MBpr+zhxUJYTEDTOUPMBqxNifOO+2AxxHd2jySQqlqsQUF7C8ii7LhccnzGbWECulKsPHUihbAQNoOjolIV8WmfJT7ahXVq035qPbF/iKyNFsdlzyfUUuspUhszp7WWTi1g4iIiIjIAAbSREREREQGMJAmIiIiIjKAgTQRERERkQEMpImIiIiIDGAgTURERERkAANpIiIiIiIDGEgTERERERnAQJqIiIiIyAAG0kREREREBjCQJiIiIiIygIE0EREREZEBDKSJ/v/27i+0jSvtH/hX0IINLciwCyNIIAopVKaF2OwLltheeJwUotCFSLjgEf1BKu9CV2lgY7elleILW+pLGzuFNG5hN97ALhpDjBTYEgU2sXLRRWPoYhda4kBNZiEGDbwFCzYQQQP6Xch/ZmQ7kcaSRhp9P6ALjyX55OTMmWfOnPMcIiIiIhMcpVKpVNcvdDj2PH7ixAmcOHGinn+KiA7g7t27AMDzkqiF8Lwkaj13797dPjcrvdDMQgDsHIhaQWWnwPOSyHo8L4laz7OCaKCJI9Jb6vznbOuzzz4DAHz00UcWl6Q9sL5qU3me8rysDttZbVhfteF5aQ7bWW1YX7V5XlzLOdJERERERCYwkCYiIiIiMoGBNBERERGRCQykiYiIiIhMYCBNRERERGQCA2kiIiIiIhMYSBMRERERmcBAmoiIiIjIBAbSREREREQmMJAmIiIiIjKBgTQRERERkQkMpImIiIiITGAgTURERERkAgNpIiIiIiITGEgTEREREZlgn0B6KQGHIwHF6nKQPbF9mcN6I2o9PC+pGdZlBB1ByOtWF6SxbBJIa5Avx6wuBNkW25c5rDei1sPzkppDuR5C2upCNMELVhfgYBQkHD6wS6DGYPsyh/VG1Hp4XlIzaJDfdiG0YHU5mqfNR6S9iJZKKJVKyMsBqwtDtsP2ZQ7rjaj18LykZhAg3Si3s5ISt7owTdHmgTQRERERkTUYSBMRERERmcBAmoiIiIjIBAbSREREREQmMJAmIiIiIjKhzdPfUcMUC1Af5KB8m0PuWwWrj1Rkl9Sd3x/zQnT3ou8tEf6TfvhedaLLutISdbAiCg9yyNzJls/V1fvI/qht/1Z4TYTvDT8in4xBPGRhMS1QLKhYVRTklByyS6vIq1koa1u/FeAZ7IXnVS/8J4M4faoPAjsxOoDCgywy36SRurOMlTsKylfMcjvz/SYA8ZQI/xseOBl52Qr/O0mnAPV2EjNfzyL1zSq0Z711TUF2TUH2zhxmAAivSRi/MoOxQaFJZSXqcE81KH+fRvzTGWTW9n+b9mMW6R+z6P9/HRJIF1Rk/j6D2T+nkPnxWb2YhtV7GlbvZZH+OgHAjcDn1zD7JxECr4xUg+IDGbELMczcVvf47U47m7sE4JgfY5PTiI94OPhkE20+tUNBwuGAw+GAS0oDiMG3+XNiyeqytaH1DMb95zD7vCB6D9qPMsbFPgxNZFFoSOGswPZlDuut0Qr/nkXQ44Lv3WcH0Z1Iuz2O0+dnnxNE70VF+sMhuN6IIftzQ4pmMZ6X9VfE6vVR9HpC+wTRe1jLYEbqhXg+gyo/0WY0yG+X25XDGwOQRuhw+efgfK3nZHto8/vucoL5qNXFoE0aslND8HcvI/txnw3uttm+zGG9NU4Rq38JQ/yDXPPNLlVpKYGht7qRuxOF9yWrC1NPPC/r62DnovLlaQw9TmHxrwG46142K5U3ZJGsLkYTtfmINDWM4IH/vSiupRexrG5g47+bOxVtvp5sbOChkkR8eHcXoHwSQ5KjZER1p87vfeF2n4rgajqH+/kNPPlFd67+dwMPV1K4+p7fBje2tRNe8yNy8RpS2WU83Kiom1+eYEPNITm5RyCzFEPkCwVFKwpNbaG4NINw5bkoiAhfuVU+D7evl0+woS4j9fnudqZejyA2b89x6U7CQJp0utAzEkdSyeNJ/j5ufRVH+IyIviNOOCtGZrqcTrgHJERvPMTDv0kwzozOQL7HzoGonopLCYSkigv3sTCurWzgYeYqIme88AhOdOmfM77khPt4AJGvbmFsoMkFtkwPApNJ5B49Qf6HW7g6GUZgsA9uZ0XdvNAF5xEvpIspPFSTkCqWd6xMJJG1zzw1qqeigpn3YlD0xwaiWPxhEdfe95fPw+1fdMF5pA+BD1J4mL+FqOE81CBfmEHGllOJOgcDadpxKIBrchTSgFDT6JX7nTnMvW88ll1ZtdFcaSKL7XHhFgbjyH13DeHjTsuK1YqEkWtIXZTgPVRDL3ZEwtxCFH2Gg7PIfscxadqtcHsOse91BwQJyfk4xF8954OCH/H5ips2bRaz33DgqZ0xkKY66EK/N2A89HOBj0WJ6kT9e9x44R6II/2PKLyMoeum67dBhI4bj6k/cziAKmnIzM8Zjvgn45COVPnxIxJmLhuvl5kraazUp3BkAQbS1Bi/Yl5porooZjE3kdEd6EP00pjNFsK1Ajc8XqvLQC2veB/LC/oDIgKDtS0XFM5EENWPSn+fRPb7fd9OLY6BNNVFft34aMr/Px5wsIzo4Aq3ZST0E6PPxjD+W96m1l8XunhzQs+jaRVp67zoPVbjd3T1w3dGf2AFyz8xD0+72gykd/JLOqaUZ39ikzK1+X5HAtV9opXp/v27Xnb49zXY4yySl3UPpoQIIm/ZK6HPwbB9kVkF5O7oHyMLiL7j501qQ+ShVWQbcr1k4xuWpYTJ3L4d3p9pKtKGA90mvsQJT59oOJJdyx+gUC1sXUawhtiyHXFEWicg5w0p3sqvKPi07xkKK5iRQpjZ7osFSJfH4H/eoosOxPZFNSsuI/u1/kAIotfGwZ2VCqvI3dQfENHnsekty7qMoDd2oK9gf3Yw3U5jmhjtUd6GC/QVJA6HKm487IeBNNXucQHq9xnIU0Ec7enH+DdbUbQA6c9ZzI1wNJqoLh6sIKv/+R0fejfj6OL6CtLXxzH65hB6XfpRwaPwvRnEuYk5ZB7Y79LcKIV7aczqD5ySINb6yL4taJAvhJCejCNudVHakeCGcalgHhsmTjPhcK/xgA0X6CtTPsSG44gPW12SxmIgTVWoeJT3cg+O9p1GaCK9PVdMGBxD8odVJH/v4SJDojopPFKNq/lfcaHrRxnj/qPoPtyP4LszmLuTxarh6bwK5U4as1OjOO3pwVH/OOQHdrtE11lRweykMRND+PdBm+04V6ZMuRBCEvmL4vPfTLsJQkW7SCG3wvOrkjYfhG8ijtyNsC3PIz0G0jppyWWY75VYsrpEbeDsVeRWN5DPTkN6zaaPQeuE7YtqtaGtGn4W/haC5/UQZm5Xn3dWvT2DkEfEOeaq3UcRyqWxivSC04icsV9/thPcVG6iVbuO7c+6etFvGGHVkLiUBM8unaUEXBKQfNQZU30YSAMAvIhWzPXKywHEvGYWYnSY6+fgeyuEc5fSWOHuTPtg+yJzNC1r/HlN3bU9eHUUzP4uhMQSR84qqfNhBCb0C6G8mP56rGJzFhuoW3DT6f2ZAP9I2Hjo9iiG3pWhPq3yK4oaMulU3UvWEjbn38eVFKRDVhemORhI70MYmUVyGEjfzJq8cHWQtQxmPwyi/9dHEfxyxYYLJuqP7Yuer4gn/93ruADPyBiupXO4n9/Ak1/0Qc0TbGw8xHL6KsKDlWOOCmJnxrkdsc7ubdcFSHISY8ef8aF2tBncBOTZhgQ3ndafOU9FEB8wHlOvh3DUE0RiPotVrYCiPqh+WkRBW4Vycw7j7/pwtNuF05fsuAXL5uLCyVzFVuj2xkB6XwLEMwFgQeUjm10jEE+wsZHH/WwS8RGP7hGhivT5fvinFNstmqg/ti96ngK0/xiP9L2XxPL/5XFfnkb4jBcewYmuF/Tv6ILT6UbfmQiuZVex+HHF2KM2i9h1O17Aa1dcSkD0Grdd906mbblYWvs2hfRkDqmRg07o2E+H9WddfRj7Ir57ZH8tjZg0hF5XD7pf1K0rerEbPa5e+AKjmLmu7F1HXTZYXbSURWw4ifzFTpjQsWN3ID3h2yc/pPHlm7CgtE2mrtk9aYtZXXA6BXgGJUTl+1j9p/FRoTIRQOwOQ+nnYfuiWrnfENFXdWpJJ8RPk0i+YwyeVuRsx29HXFxK4PSZyiA6h+xFr30XS++6tvsQw85c54POce60/qxrIIrMt3GIJu9NBKHig6+4DjxvvSUshOAytDMXQgvYbn92nP7DEel9aVB/ADApdsRk+YNwnowj+We/7oiGmS+4+OLZ2L6oGdyQLowb5/t+n8PqfywqTgso/KscRGd113PvZA4ZGwfRwkhqj5zPOcSxkw/6YI/iO7M/c/42isWVRUwPV/8UQxgM42o2j9znPsPxwBEbhNED0T3aWR7JYQCTOZRKpQY+FbHO7kB68x/7vFdu0oLSNog2H9x1l6RMuRBaCCB5tpO6BfPcZ8IwLL+4LSO7tt+7OwvbF5kjwP16Hb7muA9+w4E0VPsNClWlcCcG/xv6IFqA+Gl5JNp+OToag/1ZBUHE2I2H2PhpEckrYwifFOHRx4qCB+LJMMauJLG4uoF89hoigwK0n4wj+B63/aYUdYoXnv8W+xPc/Uh7XXBI+qNx5LhLU/V+1QfvSWDuztaBbPlibcsNDWrD9kXWcqN3GMCC1eWwljo/iiFpTvekTID/cgapP/XZdiS6Edif7c15TIT0vgjp/WrevYLcN/qfI/C91phyUeMxkAY2H0dErS5Fm+tGd8WQzuojDbDHrK+DYfsik9zHAoBug930mgqeU7UqYOWLEPwXMrqMEm6E5UVcs+HCwuqVF5HXjP3Zwa0tI6PPWz7sQ79tH4kIkG6UID3/jW2Lc6SpTp7gSUXeuy7ephEdiPBKvzFsXjGTFSGP/E91K1J7eapCfrcf/fogWhAR/edyhwfRZKWVm7PQZ4j3n/Ly9riNMZCm+iiqWL1jPNR7mF0D0YEc60NQ//PNFJT1Gr+jkIeqH/2CBM+RgxasDfycRexNH0LXdbcex8K4du8W4idtO/xHrW5dRvxDfd6cMMJv8aaunTGQproofptB0nCkQy7WRI3k9EE8qz+QxvR8bcnrCvfSmNUfON4Pt83vcYsP5hB6fQiJe7qtVgajWFSuIfwqZ0STVVTIn4xBv8ywbzIMf9UpLakVMZCmg3usIP7hjHFHq+HT8Nn8Yk3UeE6IwxHDY9+VDyPVb/X9WMHs53OGQ/7zAfttf62j3jwH0TMKWdchuc8mkftnHCIDFrKMisz5EEJ/1zVMIYL4e/ZNu9gpGEhT2bqMUf85zN5eRaGWvVR+ziL2uwAShkfHAqLvBTjni6gOnKfCGDfk+FUQOxPEzL8L+32k7PEq5v4YQEy/0YYQQcTOj5H/nYAvMKvbaKWc3m75rxLcXLNBVtGySPzOh9Nf6rcAEiBdiXE02gYYSNO2jduzOOfvRU+3C72/O4fY9TSy36soFArGLb8fF6B+n8bch0Ec/bXx8SkACO/M4twg77GJ6qMPkcrtiLUMxv/Hg6ELc8g+0FB8uvOroraK7HwCwb5ejOpHvzrhwv0Uxidj0JD9xIeeKnbr3ff1towOTbtNz7OexqiUgHxvFdpj/S+KKBRUrNyWkZB64XINIfaNsRV5J9OYG+Zwkx20cSCtIPHMDjBh2P71udZlBCu+46BbprYvDavfzCLxbhBDfUfR09ODbn3dvNyDo31BjF5K784gMBBH+is7jEazfbUE1hsAoGtgDDOfihXnlYbsF6MY8rjQ/eJO/XS7ejEkxZCu2BCJF+5Oxv6sMYrYmI8hJPbC9bK+PrrR03MU/f4QYvOrFTdiO5sA2W+4SYP89rPaWRByrYul28BmIF3OJ1kqlVC66JwozgAAF0tJREFUWF1Kde/FrV0OrUrCrivzXttRDrtR9QPMpQQch0PoV3Tfo8QR89pzX/hGEd6axvLtKLwvWV2SemD7shzrTacL3o9vIXPZb+ImVYD/8rJNL9xUHfZnLUEQEc2sYPFju56L5ZzR+++G3Q/3IavLWH9tPCK9j6U5hBaA+AWp6guOcicGDCcR1s9DHIgiNwmkb2Y747HeIT+ms0nEz3qr71C3HPNjTL6P1X+Moc/uWaXYvpqG9VapC31/uoXV764hPFhd6xMGx5D8YRW3uHsf7YX9WXMIHkifLyKvLiJ+qgOfCq3LmJ4AAnLYlrtf2mz5hQb58h4neTUWyhsddGAT3+SEe1BCdFBC9M9FaGsryCk5LH+Xg7KWh3pH0U3jcMN7sg/9A36IARH+19wdsvkK21fTsd52cf4mjGvZEOLfZ3BLzkD+dw737209PhbgGeyF7zcSAu8G4X/V7ne2FbjrXg3Ynx3YS26I7wVQWFlBdkmfr9wL0d2LvpNe+E520jVyb8r1ENKIIzdizxZjr//a9SxSC0Bcqf7uGgC8J+PARAw+xzKSj1KQDmH7DqrW77KFF7ogvOpF4FUvAmfHrC5N62D7airW27N0QTgeQPh4AGGri0Ltif3ZwTm9iHyVQsTqcrQ0BVkbj0YDNgukleshpIeTmK317nogilJJRMLhQ+iwAyEAQADJR6VyJ0EEtq+mY70RNQz7M2oGbX4aMRuPRgN2miO9dUdcw1wv/WeDDh+wuXgiLwcApBE63KkrkWkXtq/mY70RNQb7M2oKBXNS2taj0YCNAumtOThirXfX0CBfCCE9mUN087PCSGp7NXPMW2NaILIltq9mY70RNQr7M2qG8mh0AME37DsaDdglkD7QilAV6gIQOFaZq0KAdCEOYBmqDfMeUg3YvizAeiNqCPZn1BTl0WhMjtt+yo8t5kjXY0Voem33GmRNXT5gycgO2L6sw3ojqi/2Z9QMW6PRybN2ntRR1v4j0gfOT+hFWA4AEz5jMvl1GREpjYA8a/u7KXoGti+LsN6I6o79GTVF54xGA20fSG/O10Ic4we4uxZGUig9SgKSa2cry82dm1I2XmlKz8P2ZSXWG1E9sT+j5lCmfB0zGg20/dSO8naUUj2+6pCEVKku30S2wfZlOdYbUZ2wP6Pm8F4soXTR6lI0T5uPSBMRERERWYOBNBERERGRCQykiYiIiIhMYCBNRERERGQCA2kiIiIiIhMYSBMRERERmcBAmoiIiIjIBAbSREREREQmMJAmIiIiIjKBgTQRERERkQkMpImIiIiITGAgTURERERkAgNpIiIiIiITHKVSqVTXL3Q49jx+4sQJnDhxop5/iogO4O7duwDA85KohfC8JGo9d+/e3T43K73QzEIA7ByIWkFlp8Dzksh6PC+JWs+zgmigiSPSW+r852zrs88+AwB89NFHFpekPbC+alN5nvK8rA7bWW1YX7XheWkO21ltWF+1eV5cyznSREREREQmMJAmIiIiIjKBgTQRERERkQkMpImIiIiITGAgTURERERkAgNpIiIiIiITGEgTEREREZnAQJqIiIiIyAQG0kREREREJjCQJiIiIiIygYE0EREREZEJDKSJiIiIiExgIE1EREREZAIDaSIiIiIiExhIExERERGZwEC6wyhTDjimFKuLQURETdYS/f+6jKDDAYfhFYS8bm2xWo02H6yoIwccb8vQrC5YNZYScDgSaGZLs7K+GEh3knUZ0xNWF4KIiJquRfp/7dsUIOdRKpW2X7nJNEKHHUgsWV26VqEhexNIPirp6imH+EIIriYHqLXTIF+ONf1vWllfDKQ7wVKifHd2OIS01WUhIqLmabH+XxhJITUiGI55L+YQB7CstsV4axMIkG6kIB3SH/MiqsQBLENtydF7BQmHAw6HC6GFZv9ta+uLgXQnGIhu3qHlkRy2ujBERNQ07dD/r6tYtroMbUBTW7mWvIhujgbn5YDVhQHQvPp6oSl/hYiIiGgXDfKFENLDSeQrRqpJZ11GREojIOcrRl5pT02sL45IExERUXNtLzp0IXUmj9INCQyjd9teRHc4heCj0q5pMWRkRX0xkCYiIqLmOiQhtTkVYBYRZu7YhzCS2pyaMwtcaKPMHRaxor4YSBMREZFlhJFZJIfTCF1v7XwU1hIgXU4isBDCHLObVKF59cVAmoiIiKz3g8rR1iowu0ltGl1fHRNIFwsqVm7LmJ04h+CbQ/C9ok/c7UKvOITgH2OYu7kCrWh1aaldFR5kIV86h+CbPhytaF+jH85CvreKwlOrS0ltZyuFWR1ewXlehKnVqFAXALzu5jzpZ1lXkQbQ72YtVaVJ9WXvQLqgIvPlOZx+3YXunqPo94dwbmoW6TtZKGv6N2pYvZdF+usERgP9cHUfRfBSFhoDHqpS8YGMcf9R9HiGEPpwFuk7CtTt35bb19ylcwiJvejxnMb4/Cp4v1ad4lICPkMw2OobEpBV9tzd7MAvtrf60SC/vXsutDLlQwwBJM96rSlWq1mXEdw1t1dBwhsDhpMID1hUrlZlcX3ZOpDWbo/j9PlZZH6sdQRGRfrDIbjeiCH7c0OK1lzbo1mbidInfLxA1E0Rq9dH0esJYea2+vy3A8BaBjNSL8TzGVT5ic71HxnhMzG2UyKzWqr/FyCeAUKHjTcrvok4cqXKDTU62CERQYTgMtzQ+RCbzLVwdpOtDVkccElpALHtAZCG71hpcX0xj/SzLCUw9FY3cnei8L5kdWEOYCCKUilqdSlsqIjVv4Qh/sHcqmDly9MYepzC4l8DcNe9bDZQUJAYCUHmTAQi81qs/xdGUiiNWF2KVidAulGCZHUxalLekMWalmZtfdl6RFpPeM2PyMVrSGWX8XBjA09+0e3J/ssTbKg5JCf3CGiWYoh8ofAxPO1SXJpBuDKIFkSEr9zC/fwGnmy1r9ITbKjLSH2+u32p1yOIzXNcepfHChKnfIhxdfreJnM7/VeNL+ahJSKqH5sH0j0ITCaRe/QE+R9u4epkGIHBPridTnTpx+Jf6ILziBfSxRQeqklIFdeZlYkksoWmFpxaXVHBzHsVUw4Golj8YRHX3vfDIzjRtf2LLjiP9CHwQQoP87cQNczX0iBfmEHGDlOI6kaF/McAg2iq2U4O2YO8ljHNOahEVCVbB9LCyDWkLkrwHup6/pu3HJEwtxBFn+HgLLLfcUyadhRuzyH2ve6AICE5H4f4q+d8UPAjPl9xs6bNYvYbjkqXFaFMhRD6+9Y4vwBJTlr0uJA6kTYfx7juJq5vUqy4HhAR7bB1IG1W12+DCB03HlN/5pA0bdGQmZ8zHPFPxiEdqfLjRyTMXA4YDmWupLFSn8K1sfKc88DEzji/dzKNuRE3ui0sFXWQx1lMX0jrDgQwftaLGoZiiKjDMJDekxseZuGh/RTvY3lBf0BEYLC25YLCmQii+lHp75PIfr/v2zuCOm9cuOmdzCF7kUEMNc/KX2KY0S168F6OMZMEET0TA+k9daGrnbN0UGNpWkXaOi96j9X4HV398J3RH1jB8k+dm56iuJRASNoJooV3kkgyiKZmWpcRv6Bb9SCMIf57TuogomdjIL2nPLQ14xHXS7yk199O3sm2ymutlXdL2mFm4oETnj7RcCS7lj9AodpYZa7ogTjSX0lMCUhNVET2ypjhvPZ/GoHIAZUGatP+v9kqdzWdYi09kwX1xUB6L4VV5G7qD4jo8zitKo09LSXgcPgARb9aPopOmlHT7TSmh9Ee5dFxM/H/k8boSV2u6IEIbs23ed52aj/fzyJ2SfdE6HgcsRHeyjUM+/+qKFMOOLxATp9V5iJraT9W1de+gfT+W63u3t7Tbgr30pjVHzglQaz10T3tb11G0BtDXClVpIJrE4IbxqWCeWyYiICFw73GAz8XOitf+WMFiZEg5rae/ggSkvNX4T9iZaHaxN/G4Htld/981DuEobfPIfaljOyDjrstM0mD/Om4bjRUQGQyAi8fQjZGu/f/TaLNBzd3fOQNRjWsrC+OSFcqKpidNGZkCP8+yMfMdaRcDyE9nES4XTtRQahoDynkVjoqBK6DylzRXsRvzlWf+aTTrSlQ1nYfVpeyyC7MInE+hCFPD1ziKGb/xYD6WYp3pjGmXzx8Ko6xt/gEslHavv9vCgVzUhoBOcwguirW1te+gXRlYvu8HNjvrTZShHJpzJgfeGAakTPsVOtHg/oDEDgDzFWMpgXn22SxXVcv+of1BzQkLiXBTNDVKuydK3qAQ4D1pt2bw7k3PBiayHbetKGqrGB2Yka3O6mA6AchDpw0jA36/2ZYV7GMAIKY67gZAaZYXF8ckdZR5405bAEvpr8eYzL+ulKhLgBpSYWon8ekxJGWXG3SmQrwj4SNh26PYuhdGerTKr+iqCGTTtW9ZK2vCGXKD9/2eSZA+lsOSc5HbSAN2akh+KeUzpo6VIXKzVcwPINzg7yhaxw79P9NsK4ijTRCa6JhQDM3mUboMIPpXSyuLwbSmyrTb22Nko0df8aHqHbrKpaB3Y9gBqLITQJpaa4tVm47T0UQr3g0qV4P4agniMR8FqtaAUV9UP20iIK2CuXmHMbf9eFotwunL3XeFiyVN6veyTTm3mEQ/Xxd8A5HEL2SxC3lPvIbG3hSsbX1k40N5FdzSF2JwL/Hmg5lIoL4vxhKb9u1+YoX059IEPb9AB2YTfr/RtPUZQABJM8aJyp4L+YQRxqh66wlPavri4E0ykG06I0ZTuCtHdWozg650b/Pr9zHAgCWobbD3XZXH8a+iO+ej7WWRkwaQq+rB90v6h4xvdiNHlcvfIFRzFxX9p4G0mXvkTDmij6AgTHkblxF/H0J/gEPBKdzV711OZ0QXvUi8P5V3PppA7lP/RVB4QoSn3IK0pbKzVeED+KIcOCksezS/zeY4N63luAeBvCDCo7d77C6vjo+kC4uJXD6TGUQzR3VGi291v6X866BKDLfxiGaHMIShIoPvuKy8WjYCmZ055kwyFzRjeWE9+MU0pMVt3q3ZWT3WKTYcSo3X4Ef8T+I7PObxA79f+OleVNRE+vqq6MD6cK/ykF0Vr8l7GQOGQbRDeSFOAlgIrvrEZ66lgaGgxDbaEte52+jWFxZxPRw9SGhMBjG1Wweuc99huOBI/YNo4Ei9EMC2r0YfC/vlV5zr5cPMcN3xeCrfA83KdhDF7wfxI1b0SOLldVOX3a4e/OVvskYQkxx2gT26v8bZkBEHEDszq5agroABM6INh50McHi+urYQLpwJwb/G/ogWoD4aXkkmjk6Gst7NokAYvDpgp9yDkggfqEN5ygKIsZuPMTGT4tIXhlD+KQIj/4fIXggngxj7EoSi6sbyGevITIoQPvJuD+ix83xWaqzLh/Ed4yHVrUNa8rSKio3XxEiiL/HwZNmsV3/3xBehOUAMOFDYnsxrAb5bR9iiGN8hLVkZG19vdDQb29R6vwohqQ53VxBAf7LGaT+1MfOtBkOSUiV3Eg4fHBMbB0MIPmoBKmNRyOcx0RI74uQ3q/m3SvIfaP/OQLfa40pF3WyLnS/bDyS1TSgYyfVVG6+Ang/DMP/K8sK1Hls2v/XmzCSQsmdgMPr2HkiN5xEvsSbjb1YWV8dFkgXsPJFCP4LGd1TZjfC8iKucWFhk3kRLZUQtboYVllbRkafr3zYh34+CiFqqF2brwhjiP+eCU6br8P7/2oNRFEqsZaqZlF9dc7Ujqcq5Hf70a8PogUR0X8uM4implu5OYus7mf/Ka/NRxnKF86SqVcOccN3xZGrfM9F7v+1r1+MP9p7Lv6zVG6+AgQuj0N8ybICEZENdEYg/XMWsTd9CF3XrRQ+Fsa1e7cQP8lhQGqydRnxD/U5pMMIv8WbOWqEyilEgFtwWVMUi+3afGVgGjHONSWiA7L91I7igzmEB0ch69eWDEaRvBGHyHlx1HQq5E8qMwZwjiY1RnEpg6R+ChEiEP+nA1eC7Np8RUDkkzB3rSWiA7N1IK3ePIdQYNawsMR9NonFP0tw2/pfTq1JReZ8CKG/M2MANcFjBTN/isGwf+ZZEb4OfAhXufkKTsUx9lYHVgQR1Z19p3b8OwGfIYgup7db/iuDaLKAlkXidz6c/lJ/WydAuhLjaDQ9k/K/Qxj9MoPVn2vY3ruwghkpgJh+KgP6MH0+0HnpPXdtvtKH+ESoY/OWEFF9VRlIF5C7s/lY7LgPnnZIUfMUFVtCash+4kNPVRtA7PN6W+a2nGS0nsaolIB8bxXaY/0viigUVKzclpGQeuFyDSH2jbH1eCfTmBvmHE16jqdZzJ0/jd5fd8P1+mmcm5hDemkVWqGA4lPd+4oFFP6zgvSXoxjy9GO8or0JH0x34BbYuzdfwdkYIgN8BkRE9WEMpNfTGJVmkHlQwPbYx2MV2f8NIXK9/GPgwxDnlXUwZYo3F0ZFbMzHEBJ74TLs1NeNnp6j6PeHEJtfraijnc1/eDmnWmg/ZjA7NYqgtxeunh50v6hrc9096HH3I3h+zrBbK7C5JftEB26BXbn5CrydOSpfJ+z/q6FBfps7r3aSihHpIjbmx3Ha04PurQbw8lEMfZKBBgHixUXMcZVzhyp3Dr4fkshvpx3LI4kQXI7Eru1eaR+CiGhmBYsfM4im5nAPX0XmH1F4Oy7N2+7NV4QP4h04Kl8P7P+royDhcCH0es6YvnPCx5sOGzMG0i+54TsrQhz07OS0PeaFeDaOpLKCxUmRd/Kdaj2L1ELlFq4CpMvl7V6zS8/4LAGCB9Lni8iri4if4s0oVc/zVhLT7/lrn9N7zI8x+T6Wb0TQ13FB9B6bryCAmfMdOCpfD+z/q7OURQwBJM/q89p7EVXiwEIK2XXLSkYNZFx25/Ri7K+LGLOoMHXFHYEaYlnVgAEGgtteckN8L4DCygqyS/o85V6I7l70nfTCd1KE/zU3urjI1aTO3gXNeVzC2FcSxq4Uoa2tIKfksPxdDspaHuodBTutzg3vSTd6jwcgBvwI/Kaz21zXyWnkS9NWF8NW2P9XIw11HUA7rCWjuujgbpZqckhEcBgISS441nLbO8kp10NIDycxO2Bx+azi9CLyVQoRq8tB9vdCF4RXvQi86kXgrC2GO6hdsP+vzoCIOICY14FlOY/UiABAg3w5BkzmIDG4tiX7pr+jOhMg3SghLweACd/2IgofcijdkGy+vTURUSdj/1+d8tOz3CSQllyb9eRC6kx+++aD7IeBNFVNmXLAdTO4udgkhzhQ7lS5iIKIyNbY/1djc1EmNhcbPkoigM2gmpk7bIuBNFVnKQHfRADJy1ujD+U775ISBxZCiMyzKyUisiX2/1XR5iMILcSR2xp9PiQhVdoZyU9wUaYtMZCmqmjqMoB+uCvneA2EkRwG0mvqXh8jIqI2x/6/OupaGhh278qwI4yMI47NxZpkOwykqQbL5dXIBirUhb3eS0RE9sH+vyoLKnbdVqyrWLaiLNQUDKSpKuU76jRCh43J95UpH2LQPcoiIiJbYf9fHe/Zcl5tn2HeuAb5wmZ2E25oZ0tMf0dVKs+JE6cc8DliO4eHk8iXuGqbiMi+2P9X5ZCEVEmE/LYLLkdo5/hkjlk7bIyBNNXEe7GE0kWrS0FERM3G/r8a5VSBktXFoKbh1A4iIiIiIhMYSBMRERERmcBAmoiIiIjIBAbSREREREQmMJAmIiIiIjKBgTQRERERkQkMpImIiIiITGAgTURERERkAgNpIiIiIiITGEgTEREREZnAQJqIiIiIyAQG0kREREREJjCQJiIiIiIyoemBtMPh4KuKFwDcvXvX8nK0y4v1VXt98bw0V29sZ6yvRtYXz0tz9cZ2xvpqZH09U6nOAPBVh9eJEycsL0M7vVhffDXjxXbG+uKr9V5sZ6wvK1+OzeC3bqqK3omIiIiI2hznSBMRERERmcBAmoiIiIjIBAbSREREREQmMJAmIiIiIjKBgTQRERERkQn/H5RPPXGkQrwpAAAAAElFTkSuQmCC;" vertex="1" parent="1">
          <mxGeometry x="1707" y="220" width="722" height="782" as="geometry" />
        </mxCell>
        <mxCell id="CZFwYiIEyRFxqFMBFOEH-7" value="" style="verticalLabelPosition=bottom;verticalAlign=top;html=1;shape=mxgraph.basic.patternFillRect;fillStyle=diag;step=5;fillStrokeWidth=0.2;fillStrokeColor=#dddddd;fillColor=#d5e8d4;strokeColor=#82b366;opacity=50;" vertex="1" parent="1">
          <mxGeometry x="220" y="584" width="74" height="80" as="geometry" />
        </mxCell>
        <mxCell id="CZFwYiIEyRFxqFMBFOEH-8" value="" style="verticalLabelPosition=bottom;verticalAlign=top;html=1;shape=mxgraph.basic.patternFillRect;fillStyle=diag;step=5;fillStrokeWidth=0.2;fillStrokeColor=#dddddd;fillColor=#d5e8d4;strokeColor=#82b366;opacity=50;" vertex="1" parent="1">
          <mxGeometry x="450" y="832" width="74" height="80" as="geometry" />
        </mxCell>
        <mxCell id="CZFwYiIEyRFxqFMBFOEH-9" value="" style="verticalLabelPosition=bottom;verticalAlign=top;html=1;shape=mxgraph.basic.patternFillRect;fillStyle=diag;step=5;fillStrokeWidth=0.2;fillStrokeColor=#dddddd;fillColor=#d5e8d4;strokeColor=#82b366;opacity=50;" vertex="1" parent="1">
          <mxGeometry x="604" y="750" width="74" height="80" as="geometry" />
        </mxCell>
        <mxCell id="CZFwYiIEyRFxqFMBFOEH-10" value="" style="verticalLabelPosition=bottom;verticalAlign=top;html=1;shape=mxgraph.basic.patternFillRect;fillStyle=diag;step=5;fillStrokeWidth=0.2;fillStrokeColor=#dddddd;fillColor=#d5e8d4;strokeColor=#82b366;opacity=50;" vertex="1" parent="1">
          <mxGeometry x="1128" y="502" width="74" height="80" as="geometry" />
        </mxCell>
        <mxCell id="CZFwYiIEyRFxqFMBFOEH-11" value="" style="verticalLabelPosition=bottom;verticalAlign=top;html=1;shape=mxgraph.basic.patternFillRect;fillStyle=diag;step=5;fillStrokeWidth=0.2;fillStrokeColor=#dddddd;fillColor=#d5e8d4;strokeColor=#82b366;opacity=50;" vertex="1" parent="1">
          <mxGeometry x="1128" y="832" width="74" height="80" as="geometry" />
        </mxCell>
      </root>
    </mxGraphModel>
  </diagram>
</mxfile>
